<?xml version="1.0" encoding="UTF-8" standalone="no"?>
<!DOCTYPE svg PUBLIC "-//W3C//DTD SVG 1.1//EN"
 "http://www.w3.org/Graphics/SVG/1.1/DTD/svg11.dtd">
<!-- Generated by graphviz version 2.49.0 (20210829.0051)
 -->
<!-- Title: snakemake_dag Pages: 1 -->
<svg width="2592pt" height="260pt"
 viewBox="0.00 0.00 2592.00 260.00" xmlns="http://www.w3.org/2000/svg" xmlns:xlink="http://www.w3.org/1999/xlink">
<g id="graph0" class="graph" transform="scale(1 1) rotate(0) translate(4 256)">
<title>snakemake_dag</title>
<polygon fill="white" stroke="transparent" points="-4,4 -4,-256 2588,-256 2588,4 -4,4"/>
<!-- 0 -->
<g id="node1" class="node">
<title>0</title>
<path fill="none" stroke="#afd856" stroke-width="2" d="M1344.5,-36C1344.5,-36 1314.5,-36 1314.5,-36 1308.5,-36 1302.5,-30 1302.5,-24 1302.5,-24 1302.5,-12 1302.5,-12 1302.5,-6 1308.5,0 1314.5,0 1314.5,0 1344.5,0 1344.5,0 1350.5,0 1356.5,-6 1356.5,-12 1356.5,-12 1356.5,-24 1356.5,-24 1356.5,-30 1350.5,-36 1344.5,-36"/>
<text text-anchor="middle" x="1329.5" y="-15.5" font-family="sans" font-size="10.00">all</text>
</g>
<!-- 1 -->
<g id="node2" class="node">
<title>1</title>
<path fill="none" stroke="#d85656" stroke-width="2" stroke-dasharray="5,2" d="M99,-108C99,-108 12,-108 12,-108 6,-108 0,-102 0,-96 0,-96 0,-84 0,-84 0,-78 6,-72 12,-72 12,-72 99,-72 99,-72 105,-72 111,-78 111,-84 111,-84 111,-96 111,-96 111,-102 105,-108 99,-108"/>
<text text-anchor="middle" x="55.5" y="-93" font-family="sans" font-size="10.00">SPAdes_untrimmed</text>
<text text-anchor="middle" x="55.5" y="-82" font-family="sans" font-size="10.00">value_of_k: 31</text>
</g>
<!-- 1&#45;&gt;0 -->
<g id="edge1" class="edge">
<title>1&#45;&gt;0</title>
<path fill="none" stroke="grey" stroke-width="2" d="M111.2,-73.45C113.99,-72.91 116.77,-72.42 119.5,-72 354,-36.15 1115.15,-22.32 1292.38,-19.55"/>
<polygon fill="grey" stroke="grey" stroke-width="2" points="1292.55,-23.04 1302.5,-19.39 1292.45,-16.05 1292.55,-23.04"/>
</g>
<!-- 2 -->
<g id="node3" class="node">
<title>2</title>
<path fill="none" stroke="#56a9d8" stroke-width="2" stroke-dasharray="5,2" d="M323.5,-252C323.5,-252 219.5,-252 219.5,-252 213.5,-252 207.5,-246 207.5,-240 207.5,-240 207.5,-228 207.5,-228 207.5,-222 213.5,-216 219.5,-216 219.5,-216 323.5,-216 323.5,-216 329.5,-216 335.5,-222 335.5,-228 335.5,-228 335.5,-240 335.5,-240 335.5,-246 329.5,-252 323.5,-252"/>
<text text-anchor="middle" x="271.5" y="-237" font-family="sans" font-size="10.00">download_sr</text>
<text text-anchor="middle" x="271.5" y="-226" font-family="sans" font-size="10.00">barcodes: SRR1965341</text>
</g>
<!-- 2&#45;&gt;1 -->
<g id="edge31" class="edge">
<title>2&#45;&gt;1</title>
<path fill="none" stroke="grey" stroke-width="2" d="M245.45,-215.87C206.61,-190.34 133.46,-142.25 90.15,-113.78"/>
<polygon fill="grey" stroke="grey" stroke-width="2" points="91.93,-110.76 81.65,-108.19 88.08,-116.61 91.93,-110.76"/>
</g>
<!-- 11 -->
<g id="node12" class="node">
<title>11</title>
<path fill="none" stroke="#d85656" stroke-width="2" stroke-dasharray="5,2" d="M228,-108C228,-108 141,-108 141,-108 135,-108 129,-102 129,-96 129,-96 129,-84 129,-84 129,-78 135,-72 141,-72 141,-72 228,-72 228,-72 234,-72 240,-78 240,-84 240,-84 240,-96 240,-96 240,-102 234,-108 228,-108"/>
<text text-anchor="middle" x="184.5" y="-93" font-family="sans" font-size="10.00">SPAdes_untrimmed</text>
<text text-anchor="middle" x="184.5" y="-82" font-family="sans" font-size="10.00">value_of_k: 55</text>
</g>
<!-- 2&#45;&gt;11 -->
<g id="edge36" class="edge">
<title>2&#45;&gt;11</title>
<path fill="none" stroke="grey" stroke-width="2" d="M261.01,-215.87C245.92,-191.24 217.98,-145.64 200.36,-116.88"/>
<polygon fill="grey" stroke="grey" stroke-width="2" points="203.24,-114.89 195.03,-108.19 197.27,-118.54 203.24,-114.89"/>
</g>
<!-- 16 -->
<g id="node17" class="node">
<title>16</title>
<path fill="none" stroke="#d85656" stroke-width="2" stroke-dasharray="5,2" d="M357,-108C357,-108 270,-108 270,-108 264,-108 258,-102 258,-96 258,-96 258,-84 258,-84 258,-78 264,-72 270,-72 270,-72 357,-72 357,-72 363,-72 369,-78 369,-84 369,-84 369,-96 369,-96 369,-102 363,-108 357,-108"/>
<text text-anchor="middle" x="313.5" y="-93" font-family="sans" font-size="10.00">SPAdes_untrimmed</text>
<text text-anchor="middle" x="313.5" y="-82" font-family="sans" font-size="10.00">value_of_k: auto</text>
</g>
<!-- 2&#45;&gt;16 -->
<g id="edge41" class="edge">
<title>2&#45;&gt;16</title>
<path fill="none" stroke="grey" stroke-width="2" d="M276.57,-215.87C283.76,-191.56 296.99,-146.82 305.51,-118.01"/>
<polygon fill="grey" stroke="grey" stroke-width="2" points="308.94,-118.77 308.42,-108.19 302.22,-116.79 308.94,-118.77"/>
</g>
<!-- 22 -->
<g id="node23" class="node">
<title>22</title>
<path fill="none" stroke="#56d8a9" stroke-width="2" d="M479.5,-180C479.5,-180 399.5,-180 399.5,-180 393.5,-180 387.5,-174 387.5,-168 387.5,-168 387.5,-156 387.5,-156 387.5,-150 393.5,-144 399.5,-144 399.5,-144 479.5,-144 479.5,-144 485.5,-144 491.5,-150 491.5,-156 491.5,-156 491.5,-168 491.5,-168 491.5,-174 485.5,-180 479.5,-180"/>
<text text-anchor="middle" x="439.5" y="-159.5" font-family="sans" font-size="10.00">adapter_trimming</text>
</g>
<!-- 2&#45;&gt;22 -->
<g id="edge47" class="edge">
<title>2&#45;&gt;22</title>
<path fill="none" stroke="grey" stroke-width="2" d="M312.6,-215.88C335.67,-206.26 364.64,-194.19 389.07,-184.01"/>
<polygon fill="grey" stroke="grey" stroke-width="2" points="390.65,-187.15 398.54,-180.07 387.96,-180.68 390.65,-187.15"/>
</g>
<!-- 3 -->
<g id="node4" class="node">
<title>3</title>
<path fill="none" stroke="#d85656" stroke-width="2" d="M624,-180C624,-180 537,-180 537,-180 531,-180 525,-174 525,-168 525,-168 525,-156 525,-156 525,-150 531,-144 537,-144 537,-144 624,-144 624,-144 630,-144 636,-150 636,-156 636,-156 636,-168 636,-168 636,-174 630,-180 624,-180"/>
<text text-anchor="middle" x="580.5" y="-165" font-family="sans" font-size="10.00">SPAdes_untrimmed</text>
<text text-anchor="middle" x="580.5" y="-154" font-family="sans" font-size="10.00">value_of_k: 31</text>
</g>
<!-- 3&#45;&gt;0 -->
<g id="edge2" class="edge">
<title>3&#45;&gt;0</title>
<path fill="none" stroke="grey" stroke-width="2" d="M636.09,-143.9C671.13,-132.59 712.65,-118.04 728.5,-108 747.62,-95.89 744.02,-81.63 764.5,-72 858.55,-27.78 1181.32,-20.45 1291.94,-19.24"/>
<polygon fill="grey" stroke="grey" stroke-width="2" points="1292.31,-22.74 1302.27,-19.14 1292.24,-15.74 1292.31,-22.74"/>
</g>
<!-- 4 -->
<g id="node5" class="node">
<title>4</title>
<path fill="none" stroke="#56a9d8" stroke-width="2" d="M825.5,-252C825.5,-252 721.5,-252 721.5,-252 715.5,-252 709.5,-246 709.5,-240 709.5,-240 709.5,-228 709.5,-228 709.5,-222 715.5,-216 721.5,-216 721.5,-216 825.5,-216 825.5,-216 831.5,-216 837.5,-222 837.5,-228 837.5,-228 837.5,-240 837.5,-240 837.5,-246 831.5,-252 825.5,-252"/>
<text text-anchor="middle" x="773.5" y="-237" font-family="sans" font-size="10.00">download_sr</text>
<text text-anchor="middle" x="773.5" y="-226" font-family="sans" font-size="10.00">barcodes: SRR1968189</text>
</g>
<!-- 4&#45;&gt;3 -->
<g id="edge32" class="edge">
<title>4&#45;&gt;3</title>
<path fill="none" stroke="grey" stroke-width="2" d="M726.29,-215.88C699.43,-206.14 665.62,-193.87 637.32,-183.61"/>
<polygon fill="grey" stroke="grey" stroke-width="2" points="638.15,-180.19 627.56,-180.07 635.77,-186.77 638.15,-180.19"/>
</g>
<!-- 12 -->
<g id="node13" class="node">
<title>12</title>
<path fill="none" stroke="#d85656" stroke-width="2" d="M753,-180C753,-180 666,-180 666,-180 660,-180 654,-174 654,-168 654,-168 654,-156 654,-156 654,-150 660,-144 666,-144 666,-144 753,-144 753,-144 759,-144 765,-150 765,-156 765,-156 765,-168 765,-168 765,-174 759,-180 753,-180"/>
<text text-anchor="middle" x="709.5" y="-165" font-family="sans" font-size="10.00">SPAdes_untrimmed</text>
<text text-anchor="middle" x="709.5" y="-154" font-family="sans" font-size="10.00">value_of_k: 55</text>
</g>
<!-- 4&#45;&gt;12 -->
<g id="edge37" class="edge">
<title>4&#45;&gt;12</title>
<path fill="none" stroke="grey" stroke-width="2" d="M757.68,-215.7C749.93,-207.22 740.46,-196.86 731.98,-187.58"/>
<polygon fill="grey" stroke="grey" stroke-width="2" points="734.47,-185.12 725.14,-180.1 729.3,-189.85 734.47,-185.12"/>
</g>
<!-- 17 -->
<g id="node18" class="node">
<title>17</title>
<path fill="none" stroke="#d85656" stroke-width="2" d="M882,-180C882,-180 795,-180 795,-180 789,-180 783,-174 783,-168 783,-168 783,-156 783,-156 783,-150 789,-144 795,-144 795,-144 882,-144 882,-144 888,-144 894,-150 894,-156 894,-156 894,-168 894,-168 894,-174 888,-180 882,-180"/>
<text text-anchor="middle" x="838.5" y="-165" font-family="sans" font-size="10.00">SPAdes_untrimmed</text>
<text text-anchor="middle" x="838.5" y="-154" font-family="sans" font-size="10.00">value_of_k: auto</text>
</g>
<!-- 4&#45;&gt;17 -->
<g id="edge42" class="edge">
<title>4&#45;&gt;17</title>
<path fill="none" stroke="grey" stroke-width="2" d="M789.57,-215.7C797.44,-207.22 807.06,-196.86 815.67,-187.58"/>
<polygon fill="grey" stroke="grey" stroke-width="2" points="818.38,-189.81 822.62,-180.1 813.25,-185.05 818.38,-189.81"/>
</g>
<!-- 24 -->
<g id="node25" class="node">
<title>24</title>
<path fill="none" stroke="#56d8a9" stroke-width="2" d="M1004.5,-180C1004.5,-180 924.5,-180 924.5,-180 918.5,-180 912.5,-174 912.5,-168 912.5,-168 912.5,-156 912.5,-156 912.5,-150 918.5,-144 924.5,-144 924.5,-144 1004.5,-144 1004.5,-144 1010.5,-144 1016.5,-150 1016.5,-156 1016.5,-156 1016.5,-168 1016.5,-168 1016.5,-174 1010.5,-180 1004.5,-180"/>
<text text-anchor="middle" x="964.5" y="-159.5" font-family="sans" font-size="10.00">adapter_trimming</text>
</g>
<!-- 4&#45;&gt;24 -->
<g id="edge49" class="edge">
<title>4&#45;&gt;24</title>
<path fill="none" stroke="grey" stroke-width="2" d="M820.22,-215.88C846.8,-206.14 880.26,-193.87 908.27,-183.61"/>
<polygon fill="grey" stroke="grey" stroke-width="2" points="909.74,-186.8 917.93,-180.07 907.33,-180.22 909.74,-186.8"/>
</g>
<!-- 5 -->
<g id="node6" class="node">
<title>5</title>
<path fill="none" stroke="#d85656" stroke-width="2" stroke-dasharray="5,2" d="M1134,-180C1134,-180 1047,-180 1047,-180 1041,-180 1035,-174 1035,-168 1035,-168 1035,-156 1035,-156 1035,-150 1041,-144 1047,-144 1047,-144 1134,-144 1134,-144 1140,-144 1146,-150 1146,-156 1146,-156 1146,-168 1146,-168 1146,-174 1140,-180 1134,-180"/>
<text text-anchor="middle" x="1090.5" y="-165" font-family="sans" font-size="10.00">SPAdes_untrimmed</text>
<text text-anchor="middle" x="1090.5" y="-154" font-family="sans" font-size="10.00">value_of_k: 31</text>
</g>
<!-- 5&#45;&gt;0 -->
<g id="edge3" class="edge">
<title>5&#45;&gt;0</title>
<path fill="none" stroke="grey" stroke-width="2" d="M1126.65,-143.82C1146.89,-133.88 1172.43,-120.84 1194.5,-108 1230.4,-87.1 1269.91,-60.63 1296.86,-42"/>
<polygon fill="grey" stroke="grey" stroke-width="2" points="1298.92,-44.83 1305.14,-36.25 1294.93,-39.08 1298.92,-44.83"/>
</g>
<!-- 6 -->
<g id="node7" class="node">
<title>6</title>
<path fill="none" stroke="#56a9d8" stroke-width="2" stroke-dasharray="5,2" d="M1335.5,-252C1335.5,-252 1231.5,-252 1231.5,-252 1225.5,-252 1219.5,-246 1219.5,-240 1219.5,-240 1219.5,-228 1219.5,-228 1219.5,-222 1225.5,-216 1231.5,-216 1231.5,-216 1335.5,-216 1335.5,-216 1341.5,-216 1347.5,-222 1347.5,-228 1347.5,-228 1347.5,-240 1347.5,-240 1347.5,-246 1341.5,-252 1335.5,-252"/>
<text text-anchor="middle" x="1283.5" y="-237" font-family="sans" font-size="10.00">download_sr</text>
<text text-anchor="middle" x="1283.5" y="-226" font-family="sans" font-size="10.00">barcodes: SRR7828287</text>
</g>
<!-- 6&#45;&gt;5 -->
<g id="edge33" class="edge">
<title>6&#45;&gt;5</title>
<path fill="none" stroke="grey" stroke-width="2" d="M1236.29,-215.88C1209.43,-206.14 1175.62,-193.87 1147.32,-183.61"/>
<polygon fill="grey" stroke="grey" stroke-width="2" points="1148.15,-180.19 1137.56,-180.07 1145.77,-186.77 1148.15,-180.19"/>
</g>
<!-- 13 -->
<g id="node14" class="node">
<title>13</title>
<path fill="none" stroke="#d85656" stroke-width="2" stroke-dasharray="5,2" d="M1263,-180C1263,-180 1176,-180 1176,-180 1170,-180 1164,-174 1164,-168 1164,-168 1164,-156 1164,-156 1164,-150 1170,-144 1176,-144 1176,-144 1263,-144 1263,-144 1269,-144 1275,-150 1275,-156 1275,-156 1275,-168 1275,-168 1275,-174 1269,-180 1263,-180"/>
<text text-anchor="middle" x="1219.5" y="-165" font-family="sans" font-size="10.00">SPAdes_untrimmed</text>
<text text-anchor="middle" x="1219.5" y="-154" font-family="sans" font-size="10.00">value_of_k: 55</text>
</g>
<!-- 6&#45;&gt;13 -->
<g id="edge38" class="edge">
<title>6&#45;&gt;13</title>
<path fill="none" stroke="grey" stroke-width="2" d="M1267.68,-215.7C1259.93,-207.22 1250.46,-196.86 1241.98,-187.58"/>
<polygon fill="grey" stroke="grey" stroke-width="2" points="1244.47,-185.12 1235.14,-180.1 1239.3,-189.85 1244.47,-185.12"/>
</g>
<!-- 18 -->
<g id="node19" class="node">
<title>18</title>
<path fill="none" stroke="#d85656" stroke-width="2" stroke-dasharray="5,2" d="M1392,-180C1392,-180 1305,-180 1305,-180 1299,-180 1293,-174 1293,-168 1293,-168 1293,-156 1293,-156 1293,-150 1299,-144 1305,-144 1305,-144 1392,-144 1392,-144 1398,-144 1404,-150 1404,-156 1404,-156 1404,-168 1404,-168 1404,-174 1398,-180 1392,-180"/>
<text text-anchor="middle" x="1348.5" y="-165" font-family="sans" font-size="10.00">SPAdes_untrimmed</text>
<text text-anchor="middle" x="1348.5" y="-154" font-family="sans" font-size="10.00">value_of_k: auto</text>
</g>
<!-- 6&#45;&gt;18 -->
<g id="edge43" class="edge">
<title>6&#45;&gt;18</title>
<path fill="none" stroke="grey" stroke-width="2" d="M1299.57,-215.7C1307.44,-207.22 1317.06,-196.86 1325.67,-187.58"/>
<polygon fill="grey" stroke="grey" stroke-width="2" points="1328.38,-189.81 1332.62,-180.1 1323.25,-185.05 1328.38,-189.81"/>
</g>
<!-- 26 -->
<g id="node27" class="node">
<title>26</title>
<path fill="none" stroke="#56d8a9" stroke-width="2" d="M1514.5,-180C1514.5,-180 1434.5,-180 1434.5,-180 1428.5,-180 1422.5,-174 1422.5,-168 1422.5,-168 1422.5,-156 1422.5,-156 1422.5,-150 1428.5,-144 1434.5,-144 1434.5,-144 1514.5,-144 1514.5,-144 1520.5,-144 1526.5,-150 1526.5,-156 1526.5,-156 1526.5,-168 1526.5,-168 1526.5,-174 1520.5,-180 1514.5,-180"/>
<text text-anchor="middle" x="1474.5" y="-159.5" font-family="sans" font-size="10.00">adapter_trimming</text>
</g>
<!-- 6&#45;&gt;26 -->
<g id="edge51" class="edge">
<title>6&#45;&gt;26</title>
<path fill="none" stroke="grey" stroke-width="2" d="M1330.22,-215.88C1356.8,-206.14 1390.26,-193.87 1418.27,-183.61"/>
<polygon fill="grey" stroke="grey" stroke-width="2" points="1419.74,-186.8 1427.93,-180.07 1417.33,-180.22 1419.74,-186.8"/>
</g>
<!-- 7 -->
<g id="node8" class="node">
<title>7</title>
<path fill="none" stroke="#d85656" stroke-width="2" d="M1644,-180C1644,-180 1557,-180 1557,-180 1551,-180 1545,-174 1545,-168 1545,-168 1545,-156 1545,-156 1545,-150 1551,-144 1557,-144 1557,-144 1644,-144 1644,-144 1650,-144 1656,-150 1656,-156 1656,-156 1656,-168 1656,-168 1656,-174 1650,-180 1644,-180"/>
<text text-anchor="middle" x="1600.5" y="-165" font-family="sans" font-size="10.00">SPAdes_untrimmed</text>
<text text-anchor="middle" x="1600.5" y="-154" font-family="sans" font-size="10.00">value_of_k: 31</text>
</g>
<!-- 7&#45;&gt;0 -->
<g id="edge4" class="edge">
<title>7&#45;&gt;0</title>
<path fill="none" stroke="grey" stroke-width="2" d="M1625.86,-143.79C1650.13,-125.24 1680.33,-95.26 1660.5,-72 1623.13,-28.17 1445.66,-20.43 1367.09,-19.18"/>
<polygon fill="grey" stroke="grey" stroke-width="2" points="1366.73,-15.67 1356.68,-19.04 1366.63,-22.67 1366.73,-15.67"/>
</g>
<!-- 8 -->
<g id="node9" class="node">
<title>8</title>
<path fill="none" stroke="#56a9d8" stroke-width="2" stroke-dasharray="5,2" d="M1845.5,-252C1845.5,-252 1741.5,-252 1741.5,-252 1735.5,-252 1729.5,-246 1729.5,-240 1729.5,-240 1729.5,-228 1729.5,-228 1729.5,-222 1735.5,-216 1741.5,-216 1741.5,-216 1845.5,-216 1845.5,-216 1851.5,-216 1857.5,-222 1857.5,-228 1857.5,-228 1857.5,-240 1857.5,-240 1857.5,-246 1851.5,-252 1845.5,-252"/>
<text text-anchor="middle" x="1793.5" y="-237" font-family="sans" font-size="10.00">download_sr</text>
<text text-anchor="middle" x="1793.5" y="-226" font-family="sans" font-size="10.00">barcodes: SRR2075991</text>
</g>
<!-- 8&#45;&gt;7 -->
<g id="edge34" class="edge">
<title>8&#45;&gt;7</title>
<path fill="none" stroke="grey" stroke-width="2" d="M1746.29,-215.88C1719.43,-206.14 1685.62,-193.87 1657.32,-183.61"/>
<polygon fill="grey" stroke="grey" stroke-width="2" points="1658.15,-180.19 1647.56,-180.07 1655.77,-186.77 1658.15,-180.19"/>
</g>
<!-- 14 -->
<g id="node15" class="node">
<title>14</title>
<path fill="none" stroke="#d85656" stroke-width="2" stroke-dasharray="5,2" d="M1773,-180C1773,-180 1686,-180 1686,-180 1680,-180 1674,-174 1674,-168 1674,-168 1674,-156 1674,-156 1674,-150 1680,-144 1686,-144 1686,-144 1773,-144 1773,-144 1779,-144 1785,-150 1785,-156 1785,-156 1785,-168 1785,-168 1785,-174 1779,-180 1773,-180"/>
<text text-anchor="middle" x="1729.5" y="-165" font-family="sans" font-size="10.00">SPAdes_untrimmed</text>
<text text-anchor="middle" x="1729.5" y="-154" font-family="sans" font-size="10.00">value_of_k: 55</text>
</g>
<!-- 8&#45;&gt;14 -->
<g id="edge39" class="edge">
<title>8&#45;&gt;14</title>
<path fill="none" stroke="grey" stroke-width="2" d="M1777.68,-215.7C1769.93,-207.22 1760.46,-196.86 1751.98,-187.58"/>
<polygon fill="grey" stroke="grey" stroke-width="2" points="1754.47,-185.12 1745.14,-180.1 1749.3,-189.85 1754.47,-185.12"/>
</g>
<!-- 19 -->
<g id="node20" class="node">
<title>19</title>
<path fill="none" stroke="#d85656" stroke-width="2" stroke-dasharray="5,2" d="M1902,-180C1902,-180 1815,-180 1815,-180 1809,-180 1803,-174 1803,-168 1803,-168 1803,-156 1803,-156 1803,-150 1809,-144 1815,-144 1815,-144 1902,-144 1902,-144 1908,-144 1914,-150 1914,-156 1914,-156 1914,-168 1914,-168 1914,-174 1908,-180 1902,-180"/>
<text text-anchor="middle" x="1858.5" y="-165" font-family="sans" font-size="10.00">SPAdes_untrimmed</text>
<text text-anchor="middle" x="1858.5" y="-154" font-family="sans" font-size="10.00">value_of_k: auto</text>
</g>
<!-- 8&#45;&gt;19 -->
<g id="edge44" class="edge">
<title>8&#45;&gt;19</title>
<path fill="none" stroke="grey" stroke-width="2" d="M1809.57,-215.7C1817.44,-207.22 1827.06,-196.86 1835.67,-187.58"/>
<polygon fill="grey" stroke="grey" stroke-width="2" points="1838.38,-189.81 1842.62,-180.1 1833.25,-185.05 1838.38,-189.81"/>
</g>
<!-- 28 -->
<g id="node29" class="node">
<title>28</title>
<path fill="none" stroke="#56d8a9" stroke-width="2" d="M2024.5,-180C2024.5,-180 1944.5,-180 1944.5,-180 1938.5,-180 1932.5,-174 1932.5,-168 1932.5,-168 1932.5,-156 1932.5,-156 1932.5,-150 1938.5,-144 1944.5,-144 1944.5,-144 2024.5,-144 2024.5,-144 2030.5,-144 2036.5,-150 2036.5,-156 2036.5,-156 2036.5,-168 2036.5,-168 2036.5,-174 2030.5,-180 2024.5,-180"/>
<text text-anchor="middle" x="1984.5" y="-159.5" font-family="sans" font-size="10.00">adapter_trimming</text>
</g>
<!-- 8&#45;&gt;28 -->
<g id="edge53" class="edge">
<title>8&#45;&gt;28</title>
<path fill="none" stroke="grey" stroke-width="2" d="M1840.22,-215.88C1866.8,-206.14 1900.26,-193.87 1928.27,-183.61"/>
<polygon fill="grey" stroke="grey" stroke-width="2" points="1929.74,-186.8 1937.93,-180.07 1927.33,-180.22 1929.74,-186.8"/>
</g>
<!-- 9 -->
<g id="node10" class="node">
<title>9</title>
<path fill="none" stroke="#d85656" stroke-width="2" stroke-dasharray="5,2" d="M2154,-180C2154,-180 2067,-180 2067,-180 2061,-180 2055,-174 2055,-168 2055,-168 2055,-156 2055,-156 2055,-150 2061,-144 2067,-144 2067,-144 2154,-144 2154,-144 2160,-144 2166,-150 2166,-156 2166,-156 2166,-168 2166,-168 2166,-174 2160,-180 2154,-180"/>
<text text-anchor="middle" x="2110.5" y="-165" font-family="sans" font-size="10.00">SPAdes_untrimmed</text>
<text text-anchor="middle" x="2110.5" y="-154" font-family="sans" font-size="10.00">value_of_k: 31</text>
</g>
<!-- 9&#45;&gt;0 -->
<g id="edge5" class="edge">
<title>9&#45;&gt;0</title>
<path fill="none" stroke="grey" stroke-width="2" d="M2121.07,-143.86C2131.85,-123.95 2144.63,-91.37 2126.5,-72 2074.11,-16.01 1517.25,-17.21 1366.79,-18.57"/>
<polygon fill="grey" stroke="grey" stroke-width="2" points="1366.64,-15.07 1356.67,-18.67 1366.71,-22.07 1366.64,-15.07"/>
</g>
<!-- 10 -->
<g id="node11" class="node">
<title>10</title>
<path fill="none" stroke="#56a9d8" stroke-width="2" stroke-dasharray="5,2" d="M2355.5,-252C2355.5,-252 2251.5,-252 2251.5,-252 2245.5,-252 2239.5,-246 2239.5,-240 2239.5,-240 2239.5,-228 2239.5,-228 2239.5,-222 2245.5,-216 2251.5,-216 2251.5,-216 2355.5,-216 2355.5,-216 2361.5,-216 2367.5,-222 2367.5,-228 2367.5,-228 2367.5,-240 2367.5,-240 2367.5,-246 2361.5,-252 2355.5,-252"/>
<text text-anchor="middle" x="2303.5" y="-237" font-family="sans" font-size="10.00">download_sr</text>
<text text-anchor="middle" x="2303.5" y="-226" font-family="sans" font-size="10.00">barcodes: SRR5584993</text>
</g>
<!-- 10&#45;&gt;9 -->
<g id="edge35" class="edge">
<title>10&#45;&gt;9</title>
<path fill="none" stroke="grey" stroke-width="2" d="M2256.29,-215.88C2229.43,-206.14 2195.62,-193.87 2167.32,-183.61"/>
<polygon fill="grey" stroke="grey" stroke-width="2" points="2168.15,-180.19 2157.56,-180.07 2165.77,-186.77 2168.15,-180.19"/>
</g>
<!-- 15 -->
<g id="node16" class="node">
<title>15</title>
<path fill="none" stroke="#d85656" stroke-width="2" stroke-dasharray="5,2" d="M2283,-180C2283,-180 2196,-180 2196,-180 2190,-180 2184,-174 2184,-168 2184,-168 2184,-156 2184,-156 2184,-150 2190,-144 2196,-144 2196,-144 2283,-144 2283,-144 2289,-144 2295,-150 2295,-156 2295,-156 2295,-168 2295,-168 2295,-174 2289,-180 2283,-180"/>
<text text-anchor="middle" x="2239.5" y="-165" font-family="sans" font-size="10.00">SPAdes_untrimmed</text>
<text text-anchor="middle" x="2239.5" y="-154" font-family="sans" font-size="10.00">value_of_k: 55</text>
</g>
<!-- 10&#45;&gt;15 -->
<g id="edge40" class="edge">
<title>10&#45;&gt;15</title>
<path fill="none" stroke="grey" stroke-width="2" d="M2287.68,-215.7C2279.93,-207.22 2270.46,-196.86 2261.98,-187.58"/>
<polygon fill="grey" stroke="grey" stroke-width="2" points="2264.47,-185.12 2255.14,-180.1 2259.3,-189.85 2264.47,-185.12"/>
</g>
<!-- 20 -->
<g id="node21" class="node">
<title>20</title>
<path fill="none" stroke="#d85656" stroke-width="2" d="M2412,-180C2412,-180 2325,-180 2325,-180 2319,-180 2313,-174 2313,-168 2313,-168 2313,-156 2313,-156 2313,-150 2319,-144 2325,-144 2325,-144 2412,-144 2412,-144 2418,-144 2424,-150 2424,-156 2424,-156 2424,-168 2424,-168 2424,-174 2418,-180 2412,-180"/>
<text text-anchor="middle" x="2368.5" y="-165" font-family="sans" font-size="10.00">SPAdes_untrimmed</text>
<text text-anchor="middle" x="2368.5" y="-154" font-family="sans" font-size="10.00">value_of_k: auto</text>
</g>
<!-- 10&#45;&gt;20 -->
<g id="edge45" class="edge">
<title>10&#45;&gt;20</title>
<path fill="none" stroke="grey" stroke-width="2" d="M2319.57,-215.7C2327.44,-207.22 2337.06,-196.86 2345.67,-187.58"/>
<polygon fill="grey" stroke="grey" stroke-width="2" points="2348.38,-189.81 2352.62,-180.1 2343.25,-185.05 2348.38,-189.81"/>
</g>
<!-- 30 -->
<g id="node31" class="node">
<title>30</title>
<path fill="none" stroke="#56d8a9" stroke-width="2" d="M2534.5,-180C2534.5,-180 2454.5,-180 2454.5,-180 2448.5,-180 2442.5,-174 2442.5,-168 2442.5,-168 2442.5,-156 2442.5,-156 2442.5,-150 2448.5,-144 2454.5,-144 2454.5,-144 2534.5,-144 2534.5,-144 2540.5,-144 2546.5,-150 2546.5,-156 2546.5,-156 2546.5,-168 2546.5,-168 2546.5,-174 2540.5,-180 2534.5,-180"/>
<text text-anchor="middle" x="2494.5" y="-159.5" font-family="sans" font-size="10.00">adapter_trimming</text>
</g>
<!-- 10&#45;&gt;30 -->
<g id="edge55" class="edge">
<title>10&#45;&gt;30</title>
<path fill="none" stroke="grey" stroke-width="2" d="M2350.22,-215.88C2376.8,-206.14 2410.26,-193.87 2438.27,-183.61"/>
<polygon fill="grey" stroke="grey" stroke-width="2" points="2439.74,-186.8 2447.93,-180.07 2437.33,-180.22 2439.74,-186.8"/>
</g>
<!-- 11&#45;&gt;0 -->
<g id="edge6" class="edge">
<title>11&#45;&gt;0</title>
<path fill="none" stroke="grey" stroke-width="2" d="M240.2,-73.47C243,-72.92 245.77,-72.42 248.5,-72 456.07,-39.71 1125.67,-23.4 1291.89,-19.78"/>
<polygon fill="grey" stroke="grey" stroke-width="2" points="1292.18,-23.28 1302.1,-19.56 1292.03,-16.28 1292.18,-23.28"/>
</g>
<!-- 12&#45;&gt;0 -->
<g id="edge7" class="edge">
<title>12&#45;&gt;0</title>
<path fill="none" stroke="grey" stroke-width="2" d="M725.84,-143.77C746.91,-122.8 785.7,-88.19 826.5,-72 911.44,-38.31 1190.75,-24.37 1292.23,-20.33"/>
<polygon fill="grey" stroke="grey" stroke-width="2" points="1292.46,-23.83 1302.32,-19.94 1292.19,-16.83 1292.46,-23.83"/>
</g>
<!-- 13&#45;&gt;0 -->
<g id="edge8" class="edge">
<title>13&#45;&gt;0</title>
<path fill="none" stroke="grey" stroke-width="2" d="M1232.77,-143.87C1252.01,-119.03 1287.79,-72.85 1310.02,-44.14"/>
<polygon fill="grey" stroke="grey" stroke-width="2" points="1312.83,-46.24 1316.18,-36.19 1307.29,-41.95 1312.83,-46.24"/>
</g>
<!-- 14&#45;&gt;0 -->
<g id="edge9" class="edge">
<title>14&#45;&gt;0</title>
<path fill="none" stroke="grey" stroke-width="2" d="M1724.68,-143.77C1717.94,-123.14 1703.62,-89.21 1678.5,-72 1628.3,-37.61 1445.97,-24.68 1366.72,-20.61"/>
<polygon fill="grey" stroke="grey" stroke-width="2" points="1366.85,-17.12 1356.68,-20.12 1366.5,-24.11 1366.85,-17.12"/>
</g>
<!-- 15&#45;&gt;0 -->
<g id="edge10" class="edge">
<title>15&#45;&gt;0</title>
<path fill="none" stroke="grey" stroke-width="2" d="M2227.5,-143.9C2211.53,-122.73 2181.13,-87.55 2145.5,-72 2073.55,-40.6 1516.75,-23.89 1366.67,-19.93"/>
<polygon fill="grey" stroke="grey" stroke-width="2" points="1366.66,-16.43 1356.57,-19.67 1366.48,-23.43 1366.66,-16.43"/>
</g>
<!-- 16&#45;&gt;0 -->
<g id="edge11" class="edge">
<title>16&#45;&gt;0</title>
<path fill="none" stroke="grey" stroke-width="2" d="M369.2,-73.49C372,-72.93 374.78,-72.43 377.5,-72 558.5,-43.23 1138.66,-24.58 1292.02,-20.06"/>
<polygon fill="grey" stroke="grey" stroke-width="2" points="1292.42,-23.55 1302.31,-19.76 1292.22,-16.56 1292.42,-23.55"/>
</g>
<!-- 17&#45;&gt;0 -->
<g id="edge12" class="edge">
<title>17&#45;&gt;0</title>
<path fill="none" stroke="grey" stroke-width="2" d="M833.6,-143.72C829.09,-123.68 825.5,-90.97 843.5,-72 874.28,-39.56 1183.71,-24.61 1292.17,-20.34"/>
<polygon fill="grey" stroke="grey" stroke-width="2" points="1292.47,-23.83 1302.32,-19.95 1292.2,-16.84 1292.47,-23.83"/>
</g>
<!-- 18&#45;&gt;0 -->
<g id="edge13" class="edge">
<title>18&#45;&gt;0</title>
<path fill="none" stroke="grey" stroke-width="2" d="M1331.61,-143.99C1323.21,-134.31 1313.92,-121.46 1309.5,-108 1302.75,-87.43 1308.91,-63.46 1316.12,-45.57"/>
<polygon fill="grey" stroke="grey" stroke-width="2" points="1319.36,-46.89 1320.15,-36.33 1312.95,-44.09 1319.36,-46.89"/>
</g>
<!-- 19&#45;&gt;0 -->
<g id="edge14" class="edge">
<title>19&#45;&gt;0</title>
<path fill="none" stroke="grey" stroke-width="2" d="M1831.08,-143.93C1791.45,-119.38 1721.47,-76.55 1708.5,-72 1588.58,-29.95 1436.29,-21.15 1366.94,-19.39"/>
<polygon fill="grey" stroke="grey" stroke-width="2" points="1366.61,-15.88 1356.54,-19.16 1366.46,-22.88 1366.61,-15.88"/>
</g>
<!-- 20&#45;&gt;0 -->
<g id="edge15" class="edge">
<title>20&#45;&gt;0</title>
<path fill="none" stroke="grey" stroke-width="2" d="M2322.39,-143.92C2297.91,-134.32 2267.57,-121.55 2241.5,-108 2214.91,-94.18 2213.01,-81.21 2184.5,-72 2029.01,-21.74 1510.46,-18.71 1366.72,-18.86"/>
<polygon fill="grey" stroke="grey" stroke-width="2" points="1366.64,-15.36 1356.65,-18.88 1366.65,-22.36 1366.64,-15.36"/>
</g>
<!-- 21 -->
<g id="node22" class="node">
<title>21</title>
<path fill="none" stroke="#d8ac56" stroke-width="2" d="M474,-108C474,-108 399,-108 399,-108 393,-108 387,-102 387,-96 387,-96 387,-84 387,-84 387,-78 393,-72 399,-72 399,-72 474,-72 474,-72 480,-72 486,-78 486,-84 486,-84 486,-96 486,-96 486,-102 480,-108 474,-108"/>
<text text-anchor="middle" x="436.5" y="-93" font-family="sans" font-size="10.00">SPAdes_trimmed</text>
<text text-anchor="middle" x="436.5" y="-82" font-family="sans" font-size="10.00">value_of_k: 31</text>
</g>
<!-- 21&#45;&gt;0 -->
<g id="edge16" class="edge">
<title>21&#45;&gt;0</title>
<path fill="none" stroke="grey" stroke-width="2" d="M486,-73.71C488.86,-73.07 491.71,-72.49 494.5,-72 798.66,-18.46 1173.55,-17.29 1291.89,-18.44"/>
<polygon fill="grey" stroke="grey" stroke-width="2" points="1292.17,-21.94 1302.21,-18.55 1292.25,-14.94 1292.17,-21.94"/>
</g>
<!-- 22&#45;&gt;21 -->
<g id="edge46" class="edge">
<title>22&#45;&gt;21</title>
<path fill="none" stroke="grey" stroke-width="2" d="M438.76,-143.7C438.43,-135.98 438.03,-126.71 437.66,-118.11"/>
<polygon fill="grey" stroke="grey" stroke-width="2" points="441.16,-117.95 437.23,-108.1 434.16,-118.25 441.16,-117.95"/>
</g>
<!-- 31 -->
<g id="node32" class="node">
<title>31</title>
<path fill="none" stroke="#d8ac56" stroke-width="2" d="M591,-108C591,-108 516,-108 516,-108 510,-108 504,-102 504,-96 504,-96 504,-84 504,-84 504,-78 510,-72 516,-72 516,-72 591,-72 591,-72 597,-72 603,-78 603,-84 603,-84 603,-96 603,-96 603,-102 597,-108 591,-108"/>
<text text-anchor="middle" x="553.5" y="-93" font-family="sans" font-size="10.00">SPAdes_trimmed</text>
<text text-anchor="middle" x="553.5" y="-82" font-family="sans" font-size="10.00">value_of_k: 55</text>
</g>
<!-- 22&#45;&gt;31 -->
<g id="edge56" class="edge">
<title>22&#45;&gt;31</title>
<path fill="none" stroke="grey" stroke-width="2" d="M467.39,-143.88C482.29,-134.72 500.83,-123.34 516.88,-113.48"/>
<polygon fill="grey" stroke="grey" stroke-width="2" points="518.81,-116.41 525.51,-108.19 515.15,-110.44 518.81,-116.41"/>
</g>
<!-- 36 -->
<g id="node37" class="node">
<title>36</title>
<path fill="none" stroke="#d8ac56" stroke-width="2" d="M708,-108C708,-108 633,-108 633,-108 627,-108 621,-102 621,-96 621,-96 621,-84 621,-84 621,-78 627,-72 633,-72 633,-72 708,-72 708,-72 714,-72 720,-78 720,-84 720,-84 720,-96 720,-96 720,-102 714,-108 708,-108"/>
<text text-anchor="middle" x="670.5" y="-93" font-family="sans" font-size="10.00">SPAdes_trimmed</text>
<text text-anchor="middle" x="670.5" y="-82" font-family="sans" font-size="10.00">value_of_k: auto</text>
</g>
<!-- 22&#45;&gt;36 -->
<g id="edge61" class="edge">
<title>22&#45;&gt;36</title>
<path fill="none" stroke="grey" stroke-width="2" d="M491.63,-145.2C527.18,-134.43 574.32,-120.15 611.29,-108.94"/>
<polygon fill="grey" stroke="grey" stroke-width="2" points="612.38,-112.27 620.94,-106.02 610.35,-105.57 612.38,-112.27"/>
</g>
<!-- 23 -->
<g id="node24" class="node">
<title>23</title>
<path fill="none" stroke="#d8ac56" stroke-width="2" d="M940,-108C940,-108 865,-108 865,-108 859,-108 853,-102 853,-96 853,-96 853,-84 853,-84 853,-78 859,-72 865,-72 865,-72 940,-72 940,-72 946,-72 952,-78 952,-84 952,-84 952,-96 952,-96 952,-102 946,-108 940,-108"/>
<text text-anchor="middle" x="902.5" y="-93" font-family="sans" font-size="10.00">SPAdes_trimmed</text>
<text text-anchor="middle" x="902.5" y="-82" font-family="sans" font-size="10.00">value_of_k: 31</text>
</g>
<!-- 23&#45;&gt;0 -->
<g id="edge17" class="edge">
<title>23&#45;&gt;0</title>
<path fill="none" stroke="grey" stroke-width="2" d="M952.05,-73.97C954.9,-73.26 957.73,-72.6 960.5,-72 1080.57,-45.92 1225.48,-29.37 1292.36,-22.56"/>
<polygon fill="grey" stroke="grey" stroke-width="2" points="1292.81,-26.04 1302.41,-21.55 1292.11,-19.07 1292.81,-26.04"/>
</g>
<!-- 24&#45;&gt;23 -->
<g id="edge48" class="edge">
<title>24&#45;&gt;23</title>
<path fill="none" stroke="grey" stroke-width="2" d="M949.17,-143.7C941.74,-135.3 932.68,-125.07 924.52,-115.86"/>
<polygon fill="grey" stroke="grey" stroke-width="2" points="926.9,-113.27 917.65,-108.1 921.66,-117.91 926.9,-113.27"/>
</g>
<!-- 32 -->
<g id="node33" class="node">
<title>32</title>
<path fill="none" stroke="#d8ac56" stroke-width="2" d="M1057,-108C1057,-108 982,-108 982,-108 976,-108 970,-102 970,-96 970,-96 970,-84 970,-84 970,-78 976,-72 982,-72 982,-72 1057,-72 1057,-72 1063,-72 1069,-78 1069,-84 1069,-84 1069,-96 1069,-96 1069,-102 1063,-108 1057,-108"/>
<text text-anchor="middle" x="1019.5" y="-93" font-family="sans" font-size="10.00">SPAdes_trimmed</text>
<text text-anchor="middle" x="1019.5" y="-82" font-family="sans" font-size="10.00">value_of_k: 55</text>
</g>
<!-- 24&#45;&gt;32 -->
<g id="edge57" class="edge">
<title>24&#45;&gt;32</title>
<path fill="none" stroke="grey" stroke-width="2" d="M978.1,-143.7C984.62,-135.39 992.57,-125.28 999.75,-116.14"/>
<polygon fill="grey" stroke="grey" stroke-width="2" points="1002.63,-118.13 1006.06,-108.1 997.13,-113.81 1002.63,-118.13"/>
</g>
<!-- 37 -->
<g id="node38" class="node">
<title>37</title>
<path fill="none" stroke="#d8ac56" stroke-width="2" d="M1174,-108C1174,-108 1099,-108 1099,-108 1093,-108 1087,-102 1087,-96 1087,-96 1087,-84 1087,-84 1087,-78 1093,-72 1099,-72 1099,-72 1174,-72 1174,-72 1180,-72 1186,-78 1186,-84 1186,-84 1186,-96 1186,-96 1186,-102 1180,-108 1174,-108"/>
<text text-anchor="middle" x="1136.5" y="-93" font-family="sans" font-size="10.00">SPAdes_trimmed</text>
<text text-anchor="middle" x="1136.5" y="-82" font-family="sans" font-size="10.00">value_of_k: auto</text>
</g>
<!-- 24&#45;&gt;37 -->
<g id="edge62" class="edge">
<title>24&#45;&gt;37</title>
<path fill="none" stroke="grey" stroke-width="2" d="M1006.58,-143.88C1030.3,-134.22 1060.12,-122.09 1085.2,-111.88"/>
<polygon fill="grey" stroke="grey" stroke-width="2" points="1086.62,-115.08 1094.56,-108.07 1083.98,-108.6 1086.62,-115.08"/>
</g>
<!-- 25 -->
<g id="node26" class="node">
<title>25</title>
<path fill="none" stroke="#d8ac56" stroke-width="2" d="M1406,-108C1406,-108 1331,-108 1331,-108 1325,-108 1319,-102 1319,-96 1319,-96 1319,-84 1319,-84 1319,-78 1325,-72 1331,-72 1331,-72 1406,-72 1406,-72 1412,-72 1418,-78 1418,-84 1418,-84 1418,-96 1418,-96 1418,-102 1412,-108 1406,-108"/>
<text text-anchor="middle" x="1368.5" y="-93" font-family="sans" font-size="10.00">SPAdes_trimmed</text>
<text text-anchor="middle" x="1368.5" y="-82" font-family="sans" font-size="10.00">value_of_k: 31</text>
</g>
<!-- 25&#45;&gt;0 -->
<g id="edge18" class="edge">
<title>25&#45;&gt;0</title>
<path fill="none" stroke="grey" stroke-width="2" d="M1358.86,-71.7C1354.37,-63.64 1348.94,-53.89 1343.98,-44.98"/>
<polygon fill="grey" stroke="grey" stroke-width="2" points="1346.95,-43.14 1339.03,-36.1 1340.84,-46.54 1346.95,-43.14"/>
</g>
<!-- 26&#45;&gt;25 -->
<g id="edge50" class="edge">
<title>26&#45;&gt;25</title>
<path fill="none" stroke="grey" stroke-width="2" d="M1448.57,-143.88C1434.84,-134.81 1417.79,-123.55 1402.96,-113.76"/>
<polygon fill="grey" stroke="grey" stroke-width="2" points="1404.8,-110.78 1394.53,-108.19 1400.95,-116.62 1404.8,-110.78"/>
</g>
<!-- 33 -->
<g id="node34" class="node">
<title>33</title>
<path fill="none" stroke="#d8ac56" stroke-width="2" d="M1523,-108C1523,-108 1448,-108 1448,-108 1442,-108 1436,-102 1436,-96 1436,-96 1436,-84 1436,-84 1436,-78 1442,-72 1448,-72 1448,-72 1523,-72 1523,-72 1529,-72 1535,-78 1535,-84 1535,-84 1535,-96 1535,-96 1535,-102 1529,-108 1523,-108"/>
<text text-anchor="middle" x="1485.5" y="-93" font-family="sans" font-size="10.00">SPAdes_trimmed</text>
<text text-anchor="middle" x="1485.5" y="-82" font-family="sans" font-size="10.00">value_of_k: 55</text>
</g>
<!-- 26&#45;&gt;33 -->
<g id="edge58" class="edge">
<title>26&#45;&gt;33</title>
<path fill="none" stroke="grey" stroke-width="2" d="M1477.22,-143.7C1478.43,-135.98 1479.89,-126.71 1481.24,-118.11"/>
<polygon fill="grey" stroke="grey" stroke-width="2" points="1484.72,-118.53 1482.81,-108.1 1477.8,-117.44 1484.72,-118.53"/>
</g>
<!-- 38 -->
<g id="node39" class="node">
<title>38</title>
<path fill="none" stroke="#d8ac56" stroke-width="2" d="M1640,-108C1640,-108 1565,-108 1565,-108 1559,-108 1553,-102 1553,-96 1553,-96 1553,-84 1553,-84 1553,-78 1559,-72 1565,-72 1565,-72 1640,-72 1640,-72 1646,-72 1652,-78 1652,-84 1652,-84 1652,-96 1652,-96 1652,-102 1646,-108 1640,-108"/>
<text text-anchor="middle" x="1602.5" y="-93" font-family="sans" font-size="10.00">SPAdes_trimmed</text>
<text text-anchor="middle" x="1602.5" y="-82" font-family="sans" font-size="10.00">value_of_k: auto</text>
</g>
<!-- 26&#45;&gt;38 -->
<g id="edge63" class="edge">
<title>26&#45;&gt;38</title>
<path fill="none" stroke="grey" stroke-width="2" d="M1505.81,-143.88C1522.7,-134.64 1543.75,-123.13 1561.88,-113.21"/>
<polygon fill="grey" stroke="grey" stroke-width="2" points="1563.97,-116.06 1571.07,-108.19 1560.61,-109.92 1563.97,-116.06"/>
</g>
<!-- 27 -->
<g id="node28" class="node">
<title>27</title>
<path fill="none" stroke="#d8ac56" stroke-width="2" d="M1872,-108C1872,-108 1797,-108 1797,-108 1791,-108 1785,-102 1785,-96 1785,-96 1785,-84 1785,-84 1785,-78 1791,-72 1797,-72 1797,-72 1872,-72 1872,-72 1878,-72 1884,-78 1884,-84 1884,-84 1884,-96 1884,-96 1884,-102 1878,-108 1872,-108"/>
<text text-anchor="middle" x="1834.5" y="-93" font-family="sans" font-size="10.00">SPAdes_trimmed</text>
<text text-anchor="middle" x="1834.5" y="-82" font-family="sans" font-size="10.00">value_of_k: 31</text>
</g>
<!-- 27&#45;&gt;0 -->
<g id="edge19" class="edge">
<title>27&#45;&gt;0</title>
<path fill="none" stroke="grey" stroke-width="2" d="M1784.69,-75.05C1779.92,-73.93 1775.13,-72.89 1770.5,-72 1622.22,-43.54 1442.8,-27.61 1366.6,-21.69"/>
<polygon fill="grey" stroke="grey" stroke-width="2" points="1366.79,-18.2 1356.55,-20.92 1366.25,-25.18 1366.79,-18.2"/>
</g>
<!-- 28&#45;&gt;27 -->
<g id="edge52" class="edge">
<title>28&#45;&gt;27</title>
<path fill="none" stroke="grey" stroke-width="2" d="M1947.81,-143.88C1927.48,-134.39 1902.03,-122.51 1880.4,-112.42"/>
<polygon fill="grey" stroke="grey" stroke-width="2" points="1881.62,-109.13 1871.07,-108.07 1878.66,-115.47 1881.62,-109.13"/>
</g>
<!-- 34 -->
<g id="node35" class="node">
<title>34</title>
<path fill="none" stroke="#d8ac56" stroke-width="2" d="M1989,-108C1989,-108 1914,-108 1914,-108 1908,-108 1902,-102 1902,-96 1902,-96 1902,-84 1902,-84 1902,-78 1908,-72 1914,-72 1914,-72 1989,-72 1989,-72 1995,-72 2001,-78 2001,-84 2001,-84 2001,-96 2001,-96 2001,-102 1995,-108 1989,-108"/>
<text text-anchor="middle" x="1951.5" y="-93" font-family="sans" font-size="10.00">SPAdes_trimmed</text>
<text text-anchor="middle" x="1951.5" y="-82" font-family="sans" font-size="10.00">value_of_k: 55</text>
</g>
<!-- 28&#45;&gt;34 -->
<g id="edge59" class="edge">
<title>28&#45;&gt;34</title>
<path fill="none" stroke="grey" stroke-width="2" d="M1976.34,-143.7C1972.59,-135.73 1968.05,-126.1 1963.88,-117.26"/>
<polygon fill="grey" stroke="grey" stroke-width="2" points="1966.99,-115.66 1959.56,-108.1 1960.66,-118.64 1966.99,-115.66"/>
</g>
<!-- 39 -->
<g id="node40" class="node">
<title>39</title>
<path fill="none" stroke="#d8ac56" stroke-width="2" d="M2106,-108C2106,-108 2031,-108 2031,-108 2025,-108 2019,-102 2019,-96 2019,-96 2019,-84 2019,-84 2019,-78 2025,-72 2031,-72 2031,-72 2106,-72 2106,-72 2112,-72 2118,-78 2118,-84 2118,-84 2118,-96 2118,-96 2118,-102 2112,-108 2106,-108"/>
<text text-anchor="middle" x="2068.5" y="-93" font-family="sans" font-size="10.00">SPAdes_trimmed</text>
<text text-anchor="middle" x="2068.5" y="-82" font-family="sans" font-size="10.00">value_of_k: auto</text>
</g>
<!-- 28&#45;&gt;39 -->
<g id="edge64" class="edge">
<title>28&#45;&gt;39</title>
<path fill="none" stroke="grey" stroke-width="2" d="M2005.26,-143.7C2015.74,-134.97 2028.61,-124.24 2040,-114.75"/>
<polygon fill="grey" stroke="grey" stroke-width="2" points="2042.53,-117.19 2047.97,-108.1 2038.05,-111.82 2042.53,-117.19"/>
</g>
<!-- 29 -->
<g id="node30" class="node">
<title>29</title>
<path fill="none" stroke="#d8ac56" stroke-width="2" d="M2338,-108C2338,-108 2263,-108 2263,-108 2257,-108 2251,-102 2251,-96 2251,-96 2251,-84 2251,-84 2251,-78 2257,-72 2263,-72 2263,-72 2338,-72 2338,-72 2344,-72 2350,-78 2350,-84 2350,-84 2350,-96 2350,-96 2350,-102 2344,-108 2338,-108"/>
<text text-anchor="middle" x="2300.5" y="-93" font-family="sans" font-size="10.00">SPAdes_trimmed</text>
<text text-anchor="middle" x="2300.5" y="-82" font-family="sans" font-size="10.00">value_of_k: 31</text>
</g>
<!-- 29&#45;&gt;0 -->
<g id="edge20" class="edge">
<title>29&#45;&gt;0</title>
<path fill="none" stroke="grey" stroke-width="2" d="M2250.75,-74.75C2245.96,-73.69 2241.15,-72.75 2236.5,-72 1902.43,-18.43 1491.43,-17.42 1366.94,-18.5"/>
<polygon fill="grey" stroke="grey" stroke-width="2" points="1366.76,-15.01 1356.8,-18.6 1366.83,-22 1366.76,-15.01"/>
</g>
<!-- 30&#45;&gt;29 -->
<g id="edge54" class="edge">
<title>30&#45;&gt;29</title>
<path fill="none" stroke="grey" stroke-width="2" d="M2447.04,-143.88C2419.93,-134.09 2385.76,-121.77 2357.24,-111.47"/>
<polygon fill="grey" stroke="grey" stroke-width="2" points="2358.4,-108.17 2347.8,-108.07 2356.02,-114.75 2358.4,-108.17"/>
</g>
<!-- 35 -->
<g id="node36" class="node">
<title>35</title>
<path fill="none" stroke="#d8ac56" stroke-width="2" d="M2455,-108C2455,-108 2380,-108 2380,-108 2374,-108 2368,-102 2368,-96 2368,-96 2368,-84 2368,-84 2368,-78 2374,-72 2380,-72 2380,-72 2455,-72 2455,-72 2461,-72 2467,-78 2467,-84 2467,-84 2467,-96 2467,-96 2467,-102 2461,-108 2455,-108"/>
<text text-anchor="middle" x="2417.5" y="-93" font-family="sans" font-size="10.00">SPAdes_trimmed</text>
<text text-anchor="middle" x="2417.5" y="-82" font-family="sans" font-size="10.00">value_of_k: 55</text>
</g>
<!-- 30&#45;&gt;35 -->
<g id="edge60" class="edge">
<title>30&#45;&gt;35</title>
<path fill="none" stroke="grey" stroke-width="2" d="M2475.47,-143.7C2465.96,-135.05 2454.29,-124.45 2443.93,-115.03"/>
<polygon fill="grey" stroke="grey" stroke-width="2" points="2446.07,-112.24 2436.31,-108.1 2441.36,-117.42 2446.07,-112.24"/>
</g>
<!-- 40 -->
<g id="node41" class="node">
<title>40</title>
<path fill="none" stroke="#d8ac56" stroke-width="2" d="M2572,-108C2572,-108 2497,-108 2497,-108 2491,-108 2485,-102 2485,-96 2485,-96 2485,-84 2485,-84 2485,-78 2491,-72 2497,-72 2497,-72 2572,-72 2572,-72 2578,-72 2584,-78 2584,-84 2584,-84 2584,-96 2584,-96 2584,-102 2578,-108 2572,-108"/>
<text text-anchor="middle" x="2534.5" y="-93" font-family="sans" font-size="10.00">SPAdes_trimmed</text>
<text text-anchor="middle" x="2534.5" y="-82" font-family="sans" font-size="10.00">value_of_k: auto</text>
</g>
<!-- 30&#45;&gt;40 -->
<g id="edge65" class="edge">
<title>30&#45;&gt;40</title>
<path fill="none" stroke="grey" stroke-width="2" d="M2504.39,-143.7C2508.99,-135.64 2514.56,-125.89 2519.65,-116.98"/>
<polygon fill="grey" stroke="grey" stroke-width="2" points="2522.8,-118.52 2524.73,-108.1 2516.73,-115.05 2522.8,-118.52"/>
</g>
<!-- 31&#45;&gt;0 -->
<g id="edge21" class="edge">
<title>31&#45;&gt;0</title>
<path fill="none" stroke="grey" stroke-width="2" d="M603.01,-73.74C605.87,-73.09 608.71,-72.51 611.5,-72 868.63,-25.37 1184.65,-19.55 1291.88,-18.99"/>
<polygon fill="grey" stroke="grey" stroke-width="2" points="1292.19,-22.49 1302.18,-18.95 1292.17,-15.49 1292.19,-22.49"/>
</g>
<!-- 32&#45;&gt;0 -->
<g id="edge22" class="edge">
<title>32&#45;&gt;0</title>
<path fill="none" stroke="grey" stroke-width="2" d="M1069.1,-74.19C1071.94,-73.42 1074.75,-72.69 1077.5,-72 1153.4,-52.93 1243.33,-35.16 1292.61,-25.83"/>
<polygon fill="grey" stroke="grey" stroke-width="2" points="1293.31,-29.26 1302.49,-23.96 1292.01,-22.38 1293.31,-29.26"/>
</g>
<!-- 33&#45;&gt;0 -->
<g id="edge23" class="edge">
<title>33&#45;&gt;0</title>
<path fill="none" stroke="grey" stroke-width="2" d="M1447.34,-71.88C1422.49,-60.73 1390.28,-46.27 1365.81,-35.29"/>
<polygon fill="grey" stroke="grey" stroke-width="2" points="1367.07,-32.02 1356.51,-31.12 1364.2,-38.41 1367.07,-32.02"/>
</g>
<!-- 34&#45;&gt;0 -->
<g id="edge24" class="edge">
<title>34&#45;&gt;0</title>
<path fill="none" stroke="grey" stroke-width="2" d="M1901.76,-73.96C1898.64,-73.24 1895.54,-72.58 1892.5,-72 1696.72,-34.92 1457.49,-23.32 1366.77,-20.11"/>
<polygon fill="grey" stroke="grey" stroke-width="2" points="1366.82,-16.61 1356.71,-19.76 1366.58,-23.6 1366.82,-16.61"/>
</g>
<!-- 35&#45;&gt;0 -->
<g id="edge25" class="edge">
<title>35&#45;&gt;0</title>
<path fill="none" stroke="grey" stroke-width="2" d="M2367.79,-73.81C2364.66,-73.12 2361.55,-72.51 2358.5,-72 2161.89,-39.06 1527.66,-23.3 1366.84,-19.78"/>
<polygon fill="grey" stroke="grey" stroke-width="2" points="1366.59,-16.27 1356.52,-19.55 1366.44,-23.27 1366.59,-16.27"/>
</g>
<!-- 36&#45;&gt;0 -->
<g id="edge26" class="edge">
<title>36&#45;&gt;0</title>
<path fill="none" stroke="grey" stroke-width="2" d="M720.28,-74.9C725.06,-73.81 729.86,-72.82 734.5,-72 943.24,-35.26 1197.91,-23.4 1292.13,-20.11"/>
<polygon fill="grey" stroke="grey" stroke-width="2" points="1292.42,-23.61 1302.3,-19.77 1292.19,-16.61 1292.42,-23.61"/>
</g>
<!-- 37&#45;&gt;0 -->
<g id="edge27" class="edge">
<title>37&#45;&gt;0</title>
<path fill="none" stroke="grey" stroke-width="2" d="M1183.71,-71.88C1217.35,-59.68 1261.9,-43.52 1292.86,-32.29"/>
<polygon fill="grey" stroke="grey" stroke-width="2" points="1294.2,-35.53 1302.41,-28.83 1291.81,-28.95 1294.2,-35.53"/>
</g>
<!-- 38&#45;&gt;0 -->
<g id="edge28" class="edge">
<title>38&#45;&gt;0</title>
<path fill="none" stroke="grey" stroke-width="2" d="M1552.96,-74.58C1549.76,-73.69 1546.59,-72.83 1543.5,-72 1481.68,-55.44 1409.32,-37.9 1366.56,-27.73"/>
<polygon fill="grey" stroke="grey" stroke-width="2" points="1367.15,-24.27 1356.61,-25.37 1365.53,-31.08 1367.15,-24.27"/>
</g>
<!-- 39&#45;&gt;0 -->
<g id="edge29" class="edge">
<title>39&#45;&gt;0</title>
<path fill="none" stroke="grey" stroke-width="2" d="M2018.78,-73.9C2015.65,-73.2 2012.54,-72.55 2009.5,-72 1767.27,-28.13 1470.02,-20.56 1366.85,-19.26"/>
<polygon fill="grey" stroke="grey" stroke-width="2" points="1366.68,-15.76 1356.64,-19.15 1366.6,-22.76 1366.68,-15.76"/>
</g>
<!-- 40&#45;&gt;0 -->
<g id="edge30" class="edge">
<title>40&#45;&gt;0</title>
<path fill="none" stroke="grey" stroke-width="2" d="M2484.79,-73.79C2481.67,-73.11 2478.55,-72.5 2475.5,-72 2254.62,-35.59 1538.02,-22.26 1366.59,-19.55"/>
<polygon fill="grey" stroke="grey" stroke-width="2" points="1366.6,-16.05 1356.55,-19.39 1366.49,-23.05 1366.6,-16.05"/>
</g>
</g>
</svg>
