<?xml version="1.0" encoding="UTF-8" standalone="no"?>
<!DOCTYPE svg PUBLIC "-//W3C//DTD SVG 1.1//EN"
 "http://www.w3.org/Graphics/SVG/1.1/DTD/svg11.dtd">
<!-- Generated by graphviz version 2.49.0 (20210829.0051)
 -->
<!-- Title: snakemake_dag Pages: 1 -->
<svg width="3860pt" height="188pt"
 viewBox="0.00 0.00 3860.00 188.00" xmlns="http://www.w3.org/2000/svg" xmlns:xlink="http://www.w3.org/1999/xlink">
<g id="graph0" class="graph" transform="scale(1 1) rotate(0) translate(4 184)">
<title>snakemake_dag</title>
<polygon fill="white" stroke="transparent" points="-4,4 -4,-184 3856,-184 3856,4 -4,4"/>
<!-- 0 -->
<g id="node1" class="node">
<title>0</title>
<path fill="none" stroke="#56d88a" stroke-width="2" d="M1940.5,-36C1940.5,-36 1910.5,-36 1910.5,-36 1904.5,-36 1898.5,-30 1898.5,-24 1898.5,-24 1898.5,-12 1898.5,-12 1898.5,-6 1904.5,0 1910.5,0 1910.5,0 1940.5,0 1940.5,0 1946.5,0 1952.5,-6 1952.5,-12 1952.5,-12 1952.5,-24 1952.5,-24 1952.5,-30 1946.5,-36 1940.5,-36"/>
<text text-anchor="middle" x="1925.5" y="-15.5" font-family="sans" font-size="10.00">all</text>
</g>
<!-- 1 -->
<g id="node2" class="node">
<title>1</title>
<path fill="none" stroke="#56c1d8" stroke-width="2" stroke-dasharray="5,2" d="M99,-108C99,-108 12,-108 12,-108 6,-108 0,-102 0,-96 0,-96 0,-84 0,-84 0,-78 6,-72 12,-72 12,-72 99,-72 99,-72 105,-72 111,-78 111,-84 111,-84 111,-96 111,-96 111,-102 105,-108 99,-108"/>
<text text-anchor="middle" x="55.5" y="-93" font-family="sans" font-size="10.00">SPAdes_untrimmed</text>
<text text-anchor="middle" x="55.5" y="-82" font-family="sans" font-size="10.00">value_of_k: 31</text>
</g>
<!-- 1&#45;&gt;0 -->
<g id="edge1" class="edge">
<title>1&#45;&gt;0</title>
<path fill="none" stroke="grey" stroke-width="2" d="M111.19,-73.4C113.99,-72.87 116.77,-72.4 119.5,-72 478.35,-19.79 1662.2,-18.66 1888.08,-18.93"/>
<polygon fill="grey" stroke="grey" stroke-width="2" points="1888.39,-22.43 1898.4,-18.94 1888.4,-15.43 1888.39,-22.43"/>
</g>
<!-- 2 -->
<g id="node3" class="node">
<title>2</title>
<path fill="none" stroke="#d85656" stroke-width="2" stroke-dasharray="5,2" d="M236.5,-180C236.5,-180 132.5,-180 132.5,-180 126.5,-180 120.5,-174 120.5,-168 120.5,-168 120.5,-156 120.5,-156 120.5,-150 126.5,-144 132.5,-144 132.5,-144 236.5,-144 236.5,-144 242.5,-144 248.5,-150 248.5,-156 248.5,-156 248.5,-168 248.5,-168 248.5,-174 242.5,-180 236.5,-180"/>
<text text-anchor="middle" x="184.5" y="-165" font-family="sans" font-size="10.00">download_sr</text>
<text text-anchor="middle" x="184.5" y="-154" font-family="sans" font-size="10.00">barcodes: SRR1965341</text>
</g>
<!-- 2&#45;&gt;1 -->
<g id="edge31" class="edge">
<title>2&#45;&gt;1</title>
<path fill="none" stroke="grey" stroke-width="2" d="M152.94,-143.88C135.84,-134.6 114.52,-123.03 96.18,-113.08"/>
<polygon fill="grey" stroke="grey" stroke-width="2" points="97.64,-109.88 87.18,-108.19 94.3,-116.04 97.64,-109.88"/>
</g>
<!-- 11 -->
<g id="node12" class="node">
<title>11</title>
<path fill="none" stroke="#56c1d8" stroke-width="2" stroke-dasharray="5,2" d="M228,-108C228,-108 141,-108 141,-108 135,-108 129,-102 129,-96 129,-96 129,-84 129,-84 129,-78 135,-72 141,-72 141,-72 228,-72 228,-72 234,-72 240,-78 240,-84 240,-84 240,-96 240,-96 240,-102 234,-108 228,-108"/>
<text text-anchor="middle" x="184.5" y="-93" font-family="sans" font-size="10.00">SPAdes_untrimmed</text>
<text text-anchor="middle" x="184.5" y="-82" font-family="sans" font-size="10.00">value_of_k: 55</text>
</g>
<!-- 2&#45;&gt;11 -->
<g id="edge36" class="edge">
<title>2&#45;&gt;11</title>
<path fill="none" stroke="grey" stroke-width="2" d="M184.5,-143.7C184.5,-135.98 184.5,-126.71 184.5,-118.11"/>
<polygon fill="grey" stroke="grey" stroke-width="2" points="188,-118.1 184.5,-108.1 181,-118.1 188,-118.1"/>
</g>
<!-- 16 -->
<g id="node17" class="node">
<title>16</title>
<path fill="none" stroke="#56c1d8" stroke-width="2" stroke-dasharray="5,2" d="M357,-108C357,-108 270,-108 270,-108 264,-108 258,-102 258,-96 258,-96 258,-84 258,-84 258,-78 264,-72 270,-72 270,-72 357,-72 357,-72 363,-72 369,-78 369,-84 369,-84 369,-96 369,-96 369,-102 363,-108 357,-108"/>
<text text-anchor="middle" x="313.5" y="-93" font-family="sans" font-size="10.00">SPAdes_untrimmed</text>
<text text-anchor="middle" x="313.5" y="-82" font-family="sans" font-size="10.00">value_of_k: auto</text>
</g>
<!-- 2&#45;&gt;16 -->
<g id="edge41" class="edge">
<title>2&#45;&gt;16</title>
<path fill="none" stroke="grey" stroke-width="2" d="M216.06,-143.88C233.16,-134.6 254.48,-123.03 272.82,-113.08"/>
<polygon fill="grey" stroke="grey" stroke-width="2" points="274.7,-116.04 281.82,-108.19 271.36,-109.88 274.7,-116.04"/>
</g>
<!-- 3 -->
<g id="node4" class="node">
<title>3</title>
<path fill="none" stroke="#56c1d8" stroke-width="2" d="M486,-108C486,-108 399,-108 399,-108 393,-108 387,-102 387,-96 387,-96 387,-84 387,-84 387,-78 393,-72 399,-72 399,-72 486,-72 486,-72 492,-72 498,-78 498,-84 498,-84 498,-96 498,-96 498,-102 492,-108 486,-108"/>
<text text-anchor="middle" x="442.5" y="-93" font-family="sans" font-size="10.00">SPAdes_untrimmed</text>
<text text-anchor="middle" x="442.5" y="-82" font-family="sans" font-size="10.00">value_of_k: 31</text>
</g>
<!-- 3&#45;&gt;0 -->
<g id="edge2" class="edge">
<title>3&#45;&gt;0</title>
<path fill="none" stroke="grey" stroke-width="2" d="M498.19,-73.43C500.99,-72.89 503.77,-72.41 506.5,-72 784.51,-30.41 1693.3,-20.86 1888.4,-19.27"/>
<polygon fill="grey" stroke="grey" stroke-width="2" points="1888.47,-22.77 1898.44,-19.19 1888.41,-15.77 1888.47,-22.77"/>
</g>
<!-- 4 -->
<g id="node5" class="node">
<title>4</title>
<path fill="none" stroke="#d85656" stroke-width="2" d="M623.5,-180C623.5,-180 519.5,-180 519.5,-180 513.5,-180 507.5,-174 507.5,-168 507.5,-168 507.5,-156 507.5,-156 507.5,-150 513.5,-144 519.5,-144 519.5,-144 623.5,-144 623.5,-144 629.5,-144 635.5,-150 635.5,-156 635.5,-156 635.5,-168 635.5,-168 635.5,-174 629.5,-180 623.5,-180"/>
<text text-anchor="middle" x="571.5" y="-165" font-family="sans" font-size="10.00">download_sr</text>
<text text-anchor="middle" x="571.5" y="-154" font-family="sans" font-size="10.00">barcodes: SRR1968189</text>
</g>
<!-- 4&#45;&gt;3 -->
<g id="edge32" class="edge">
<title>4&#45;&gt;3</title>
<path fill="none" stroke="grey" stroke-width="2" d="M539.94,-143.88C522.84,-134.6 501.52,-123.03 483.18,-113.08"/>
<polygon fill="grey" stroke="grey" stroke-width="2" points="484.64,-109.88 474.18,-108.19 481.3,-116.04 484.64,-109.88"/>
</g>
<!-- 12 -->
<g id="node13" class="node">
<title>12</title>
<path fill="none" stroke="#56c1d8" stroke-width="2" d="M615,-108C615,-108 528,-108 528,-108 522,-108 516,-102 516,-96 516,-96 516,-84 516,-84 516,-78 522,-72 528,-72 528,-72 615,-72 615,-72 621,-72 627,-78 627,-84 627,-84 627,-96 627,-96 627,-102 621,-108 615,-108"/>
<text text-anchor="middle" x="571.5" y="-93" font-family="sans" font-size="10.00">SPAdes_untrimmed</text>
<text text-anchor="middle" x="571.5" y="-82" font-family="sans" font-size="10.00">value_of_k: 55</text>
</g>
<!-- 4&#45;&gt;12 -->
<g id="edge37" class="edge">
<title>4&#45;&gt;12</title>
<path fill="none" stroke="grey" stroke-width="2" d="M571.5,-143.7C571.5,-135.98 571.5,-126.71 571.5,-118.11"/>
<polygon fill="grey" stroke="grey" stroke-width="2" points="575,-118.1 571.5,-108.1 568,-118.1 575,-118.1"/>
</g>
<!-- 17 -->
<g id="node18" class="node">
<title>17</title>
<path fill="none" stroke="#56c1d8" stroke-width="2" d="M744,-108C744,-108 657,-108 657,-108 651,-108 645,-102 645,-96 645,-96 645,-84 645,-84 645,-78 651,-72 657,-72 657,-72 744,-72 744,-72 750,-72 756,-78 756,-84 756,-84 756,-96 756,-96 756,-102 750,-108 744,-108"/>
<text text-anchor="middle" x="700.5" y="-93" font-family="sans" font-size="10.00">SPAdes_untrimmed</text>
<text text-anchor="middle" x="700.5" y="-82" font-family="sans" font-size="10.00">value_of_k: auto</text>
</g>
<!-- 4&#45;&gt;17 -->
<g id="edge42" class="edge">
<title>4&#45;&gt;17</title>
<path fill="none" stroke="grey" stroke-width="2" d="M603.06,-143.88C620.16,-134.6 641.48,-123.03 659.82,-113.08"/>
<polygon fill="grey" stroke="grey" stroke-width="2" points="661.7,-116.04 668.82,-108.19 658.36,-109.88 661.7,-116.04"/>
</g>
<!-- 5 -->
<g id="node6" class="node">
<title>5</title>
<path fill="none" stroke="#56c1d8" stroke-width="2" stroke-dasharray="5,2" d="M873,-108C873,-108 786,-108 786,-108 780,-108 774,-102 774,-96 774,-96 774,-84 774,-84 774,-78 780,-72 786,-72 786,-72 873,-72 873,-72 879,-72 885,-78 885,-84 885,-84 885,-96 885,-96 885,-102 879,-108 873,-108"/>
<text text-anchor="middle" x="829.5" y="-93" font-family="sans" font-size="10.00">SPAdes_untrimmed</text>
<text text-anchor="middle" x="829.5" y="-82" font-family="sans" font-size="10.00">value_of_k: 31</text>
</g>
<!-- 5&#45;&gt;0 -->
<g id="edge3" class="edge">
<title>5&#45;&gt;0</title>
<path fill="none" stroke="grey" stroke-width="2" d="M885.2,-73.47C888,-72.92 890.77,-72.43 893.5,-72 1091.01,-41.04 1726.84,-23.82 1888.06,-19.88"/>
<polygon fill="grey" stroke="grey" stroke-width="2" points="1888.5,-23.37 1898.41,-19.63 1888.33,-16.37 1888.5,-23.37"/>
</g>
<!-- 6 -->
<g id="node7" class="node">
<title>6</title>
<path fill="none" stroke="#d85656" stroke-width="2" stroke-dasharray="5,2" d="M1010.5,-180C1010.5,-180 906.5,-180 906.5,-180 900.5,-180 894.5,-174 894.5,-168 894.5,-168 894.5,-156 894.5,-156 894.5,-150 900.5,-144 906.5,-144 906.5,-144 1010.5,-144 1010.5,-144 1016.5,-144 1022.5,-150 1022.5,-156 1022.5,-156 1022.5,-168 1022.5,-168 1022.5,-174 1016.5,-180 1010.5,-180"/>
<text text-anchor="middle" x="958.5" y="-165" font-family="sans" font-size="10.00">download_sr</text>
<text text-anchor="middle" x="958.5" y="-154" font-family="sans" font-size="10.00">barcodes: SRR7828287</text>
</g>
<!-- 6&#45;&gt;5 -->
<g id="edge33" class="edge">
<title>6&#45;&gt;5</title>
<path fill="none" stroke="grey" stroke-width="2" d="M926.94,-143.88C909.84,-134.6 888.52,-123.03 870.18,-113.08"/>
<polygon fill="grey" stroke="grey" stroke-width="2" points="871.64,-109.88 861.18,-108.19 868.3,-116.04 871.64,-109.88"/>
</g>
<!-- 13 -->
<g id="node14" class="node">
<title>13</title>
<path fill="none" stroke="#56c1d8" stroke-width="2" stroke-dasharray="5,2" d="M1002,-108C1002,-108 915,-108 915,-108 909,-108 903,-102 903,-96 903,-96 903,-84 903,-84 903,-78 909,-72 915,-72 915,-72 1002,-72 1002,-72 1008,-72 1014,-78 1014,-84 1014,-84 1014,-96 1014,-96 1014,-102 1008,-108 1002,-108"/>
<text text-anchor="middle" x="958.5" y="-93" font-family="sans" font-size="10.00">SPAdes_untrimmed</text>
<text text-anchor="middle" x="958.5" y="-82" font-family="sans" font-size="10.00">value_of_k: 55</text>
</g>
<!-- 6&#45;&gt;13 -->
<g id="edge38" class="edge">
<title>6&#45;&gt;13</title>
<path fill="none" stroke="grey" stroke-width="2" d="M958.5,-143.7C958.5,-135.98 958.5,-126.71 958.5,-118.11"/>
<polygon fill="grey" stroke="grey" stroke-width="2" points="962,-118.1 958.5,-108.1 955,-118.1 962,-118.1"/>
</g>
<!-- 18 -->
<g id="node19" class="node">
<title>18</title>
<path fill="none" stroke="#56c1d8" stroke-width="2" stroke-dasharray="5,2" d="M1131,-108C1131,-108 1044,-108 1044,-108 1038,-108 1032,-102 1032,-96 1032,-96 1032,-84 1032,-84 1032,-78 1038,-72 1044,-72 1044,-72 1131,-72 1131,-72 1137,-72 1143,-78 1143,-84 1143,-84 1143,-96 1143,-96 1143,-102 1137,-108 1131,-108"/>
<text text-anchor="middle" x="1087.5" y="-93" font-family="sans" font-size="10.00">SPAdes_untrimmed</text>
<text text-anchor="middle" x="1087.5" y="-82" font-family="sans" font-size="10.00">value_of_k: auto</text>
</g>
<!-- 6&#45;&gt;18 -->
<g id="edge43" class="edge">
<title>6&#45;&gt;18</title>
<path fill="none" stroke="grey" stroke-width="2" d="M990.06,-143.88C1007.16,-134.6 1028.48,-123.03 1046.82,-113.08"/>
<polygon fill="grey" stroke="grey" stroke-width="2" points="1048.7,-116.04 1055.82,-108.19 1045.36,-109.88 1048.7,-116.04"/>
</g>
<!-- 7 -->
<g id="node8" class="node">
<title>7</title>
<path fill="none" stroke="#56c1d8" stroke-width="2" d="M1260,-108C1260,-108 1173,-108 1173,-108 1167,-108 1161,-102 1161,-96 1161,-96 1161,-84 1161,-84 1161,-78 1167,-72 1173,-72 1173,-72 1260,-72 1260,-72 1266,-72 1272,-78 1272,-84 1272,-84 1272,-96 1272,-96 1272,-102 1266,-108 1260,-108"/>
<text text-anchor="middle" x="1216.5" y="-93" font-family="sans" font-size="10.00">SPAdes_untrimmed</text>
<text text-anchor="middle" x="1216.5" y="-82" font-family="sans" font-size="10.00">value_of_k: 31</text>
</g>
<!-- 7&#45;&gt;0 -->
<g id="edge4" class="edge">
<title>7&#45;&gt;0</title>
<path fill="none" stroke="grey" stroke-width="2" d="M1272.22,-73.58C1275.01,-73 1277.78,-72.47 1280.5,-72 1509.11,-32.57 1788.54,-22.27 1888.09,-19.76"/>
<polygon fill="grey" stroke="grey" stroke-width="2" points="1888.33,-23.25 1898.25,-19.51 1888.16,-16.25 1888.33,-23.25"/>
</g>
<!-- 8 -->
<g id="node9" class="node">
<title>8</title>
<path fill="none" stroke="#d85656" stroke-width="2" stroke-dasharray="5,2" d="M1397.5,-180C1397.5,-180 1293.5,-180 1293.5,-180 1287.5,-180 1281.5,-174 1281.5,-168 1281.5,-168 1281.5,-156 1281.5,-156 1281.5,-150 1287.5,-144 1293.5,-144 1293.5,-144 1397.5,-144 1397.5,-144 1403.5,-144 1409.5,-150 1409.5,-156 1409.5,-156 1409.5,-168 1409.5,-168 1409.5,-174 1403.5,-180 1397.5,-180"/>
<text text-anchor="middle" x="1345.5" y="-165" font-family="sans" font-size="10.00">download_sr</text>
<text text-anchor="middle" x="1345.5" y="-154" font-family="sans" font-size="10.00">barcodes: SRR2075991</text>
</g>
<!-- 8&#45;&gt;7 -->
<g id="edge34" class="edge">
<title>8&#45;&gt;7</title>
<path fill="none" stroke="grey" stroke-width="2" d="M1313.94,-143.88C1296.84,-134.6 1275.52,-123.03 1257.18,-113.08"/>
<polygon fill="grey" stroke="grey" stroke-width="2" points="1258.64,-109.88 1248.18,-108.19 1255.3,-116.04 1258.64,-109.88"/>
</g>
<!-- 14 -->
<g id="node15" class="node">
<title>14</title>
<path fill="none" stroke="#56c1d8" stroke-width="2" stroke-dasharray="5,2" d="M1389,-108C1389,-108 1302,-108 1302,-108 1296,-108 1290,-102 1290,-96 1290,-96 1290,-84 1290,-84 1290,-78 1296,-72 1302,-72 1302,-72 1389,-72 1389,-72 1395,-72 1401,-78 1401,-84 1401,-84 1401,-96 1401,-96 1401,-102 1395,-108 1389,-108"/>
<text text-anchor="middle" x="1345.5" y="-93" font-family="sans" font-size="10.00">SPAdes_untrimmed</text>
<text text-anchor="middle" x="1345.5" y="-82" font-family="sans" font-size="10.00">value_of_k: 55</text>
</g>
<!-- 8&#45;&gt;14 -->
<g id="edge39" class="edge">
<title>8&#45;&gt;14</title>
<path fill="none" stroke="grey" stroke-width="2" d="M1345.5,-143.7C1345.5,-135.98 1345.5,-126.71 1345.5,-118.11"/>
<polygon fill="grey" stroke="grey" stroke-width="2" points="1349,-118.1 1345.5,-108.1 1342,-118.1 1349,-118.1"/>
</g>
<!-- 19 -->
<g id="node20" class="node">
<title>19</title>
<path fill="none" stroke="#56c1d8" stroke-width="2" stroke-dasharray="5,2" d="M1518,-108C1518,-108 1431,-108 1431,-108 1425,-108 1419,-102 1419,-96 1419,-96 1419,-84 1419,-84 1419,-78 1425,-72 1431,-72 1431,-72 1518,-72 1518,-72 1524,-72 1530,-78 1530,-84 1530,-84 1530,-96 1530,-96 1530,-102 1524,-108 1518,-108"/>
<text text-anchor="middle" x="1474.5" y="-93" font-family="sans" font-size="10.00">SPAdes_untrimmed</text>
<text text-anchor="middle" x="1474.5" y="-82" font-family="sans" font-size="10.00">value_of_k: auto</text>
</g>
<!-- 8&#45;&gt;19 -->
<g id="edge44" class="edge">
<title>8&#45;&gt;19</title>
<path fill="none" stroke="grey" stroke-width="2" d="M1377.06,-143.88C1394.16,-134.6 1415.48,-123.03 1433.82,-113.08"/>
<polygon fill="grey" stroke="grey" stroke-width="2" points="1435.7,-116.04 1442.82,-108.19 1432.36,-109.88 1435.7,-116.04"/>
</g>
<!-- 9 -->
<g id="node10" class="node">
<title>9</title>
<path fill="none" stroke="#56c1d8" stroke-width="2" stroke-dasharray="5,2" d="M1647,-108C1647,-108 1560,-108 1560,-108 1554,-108 1548,-102 1548,-96 1548,-96 1548,-84 1548,-84 1548,-78 1554,-72 1560,-72 1560,-72 1647,-72 1647,-72 1653,-72 1659,-78 1659,-84 1659,-84 1659,-96 1659,-96 1659,-102 1653,-108 1647,-108"/>
<text text-anchor="middle" x="1603.5" y="-93" font-family="sans" font-size="10.00">SPAdes_untrimmed</text>
<text text-anchor="middle" x="1603.5" y="-82" font-family="sans" font-size="10.00">value_of_k: 31</text>
</g>
<!-- 9&#45;&gt;0 -->
<g id="edge5" class="edge">
<title>9&#45;&gt;0</title>
<path fill="none" stroke="grey" stroke-width="2" d="M1659.3,-73.98C1662.07,-73.29 1664.81,-72.63 1667.5,-72 1745.62,-53.62 1837.9,-35.53 1888.2,-25.97"/>
<polygon fill="grey" stroke="grey" stroke-width="2" points="1889.1,-29.36 1898.27,-24.06 1887.8,-22.48 1889.1,-29.36"/>
</g>
<!-- 10 -->
<g id="node11" class="node">
<title>10</title>
<path fill="none" stroke="#d85656" stroke-width="2" stroke-dasharray="5,2" d="M1784.5,-180C1784.5,-180 1680.5,-180 1680.5,-180 1674.5,-180 1668.5,-174 1668.5,-168 1668.5,-168 1668.5,-156 1668.5,-156 1668.5,-150 1674.5,-144 1680.5,-144 1680.5,-144 1784.5,-144 1784.5,-144 1790.5,-144 1796.5,-150 1796.5,-156 1796.5,-156 1796.5,-168 1796.5,-168 1796.5,-174 1790.5,-180 1784.5,-180"/>
<text text-anchor="middle" x="1732.5" y="-165" font-family="sans" font-size="10.00">download_sr</text>
<text text-anchor="middle" x="1732.5" y="-154" font-family="sans" font-size="10.00">barcodes: SRR5584993</text>
</g>
<!-- 10&#45;&gt;9 -->
<g id="edge35" class="edge">
<title>10&#45;&gt;9</title>
<path fill="none" stroke="grey" stroke-width="2" d="M1700.94,-143.88C1683.84,-134.6 1662.52,-123.03 1644.18,-113.08"/>
<polygon fill="grey" stroke="grey" stroke-width="2" points="1645.64,-109.88 1635.18,-108.19 1642.3,-116.04 1645.64,-109.88"/>
</g>
<!-- 15 -->
<g id="node16" class="node">
<title>15</title>
<path fill="none" stroke="#56c1d8" stroke-width="2" stroke-dasharray="5,2" d="M1776,-108C1776,-108 1689,-108 1689,-108 1683,-108 1677,-102 1677,-96 1677,-96 1677,-84 1677,-84 1677,-78 1683,-72 1689,-72 1689,-72 1776,-72 1776,-72 1782,-72 1788,-78 1788,-84 1788,-84 1788,-96 1788,-96 1788,-102 1782,-108 1776,-108"/>
<text text-anchor="middle" x="1732.5" y="-93" font-family="sans" font-size="10.00">SPAdes_untrimmed</text>
<text text-anchor="middle" x="1732.5" y="-82" font-family="sans" font-size="10.00">value_of_k: 55</text>
</g>
<!-- 10&#45;&gt;15 -->
<g id="edge40" class="edge">
<title>10&#45;&gt;15</title>
<path fill="none" stroke="grey" stroke-width="2" d="M1732.5,-143.7C1732.5,-135.98 1732.5,-126.71 1732.5,-118.11"/>
<polygon fill="grey" stroke="grey" stroke-width="2" points="1736,-118.1 1732.5,-108.1 1729,-118.1 1736,-118.1"/>
</g>
<!-- 20 -->
<g id="node21" class="node">
<title>20</title>
<path fill="none" stroke="#56c1d8" stroke-width="2" d="M1905,-108C1905,-108 1818,-108 1818,-108 1812,-108 1806,-102 1806,-96 1806,-96 1806,-84 1806,-84 1806,-78 1812,-72 1818,-72 1818,-72 1905,-72 1905,-72 1911,-72 1917,-78 1917,-84 1917,-84 1917,-96 1917,-96 1917,-102 1911,-108 1905,-108"/>
<text text-anchor="middle" x="1861.5" y="-93" font-family="sans" font-size="10.00">SPAdes_untrimmed</text>
<text text-anchor="middle" x="1861.5" y="-82" font-family="sans" font-size="10.00">value_of_k: auto</text>
</g>
<!-- 10&#45;&gt;20 -->
<g id="edge45" class="edge">
<title>10&#45;&gt;20</title>
<path fill="none" stroke="grey" stroke-width="2" d="M1764.06,-143.88C1781.16,-134.6 1802.48,-123.03 1820.82,-113.08"/>
<polygon fill="grey" stroke="grey" stroke-width="2" points="1822.7,-116.04 1829.82,-108.19 1819.36,-109.88 1822.7,-116.04"/>
</g>
<!-- 11&#45;&gt;0 -->
<g id="edge6" class="edge">
<title>11&#45;&gt;0</title>
<path fill="none" stroke="grey" stroke-width="2" d="M240.19,-73.41C242.99,-72.88 245.77,-72.4 248.5,-72 580.28,-23.34 1671.74,-19.34 1888.05,-19.02"/>
<polygon fill="grey" stroke="grey" stroke-width="2" points="1888.25,-22.52 1898.25,-19.01 1888.24,-15.52 1888.25,-22.52"/>
</g>
<!-- 12&#45;&gt;0 -->
<g id="edge7" class="edge">
<title>12&#45;&gt;0</title>
<path fill="none" stroke="grey" stroke-width="2" d="M627.2,-73.44C629.99,-72.9 632.77,-72.41 635.5,-72 886.6,-33.96 1703.9,-21.74 1888.3,-19.43"/>
<polygon fill="grey" stroke="grey" stroke-width="2" points="1888.36,-22.93 1898.32,-19.31 1888.28,-15.93 1888.36,-22.93"/>
</g>
<!-- 13&#45;&gt;0 -->
<g id="edge8" class="edge">
<title>13&#45;&gt;0</title>
<path fill="none" stroke="grey" stroke-width="2" d="M1014.21,-73.5C1017,-72.94 1019.78,-72.44 1022.5,-72 1355.09,-18.62 1764.29,-17.49 1888.22,-18.52"/>
<polygon fill="grey" stroke="grey" stroke-width="2" points="1888.29,-22.02 1898.32,-18.61 1888.35,-15.02 1888.29,-22.02"/>
</g>
<!-- 14&#45;&gt;0 -->
<g id="edge9" class="edge">
<title>14&#45;&gt;0</title>
<path fill="none" stroke="grey" stroke-width="2" d="M1401.23,-73.64C1404.02,-73.05 1406.79,-72.5 1409.5,-72 1587.05,-39.51 1802.87,-25.41 1888.21,-20.82"/>
<polygon fill="grey" stroke="grey" stroke-width="2" points="1888.63,-24.3 1898.43,-20.28 1888.26,-17.31 1888.63,-24.3"/>
</g>
<!-- 15&#45;&gt;0 -->
<g id="edge10" class="edge">
<title>15&#45;&gt;0</title>
<path fill="none" stroke="grey" stroke-width="2" d="M1779.71,-71.88C1813.35,-59.68 1857.9,-43.52 1888.86,-32.29"/>
<polygon fill="grey" stroke="grey" stroke-width="2" points="1890.2,-35.53 1898.41,-28.83 1887.81,-28.95 1890.2,-35.53"/>
</g>
<!-- 16&#45;&gt;0 -->
<g id="edge11" class="edge">
<title>16&#45;&gt;0</title>
<path fill="none" stroke="grey" stroke-width="2" d="M369.19,-73.42C371.99,-72.88 374.77,-72.4 377.5,-72 682.28,-26.89 1681.74,-20.07 1888.04,-19.14"/>
<polygon fill="grey" stroke="grey" stroke-width="2" points="1888.36,-22.64 1898.35,-19.09 1888.33,-15.64 1888.36,-22.64"/>
</g>
<!-- 17&#45;&gt;0 -->
<g id="edge12" class="edge">
<title>17&#45;&gt;0</title>
<path fill="none" stroke="grey" stroke-width="2" d="M756.2,-73.45C758.99,-72.91 761.77,-72.42 764.5,-72 988.65,-37.52 1714.35,-22.73 1887.94,-19.63"/>
<polygon fill="grey" stroke="grey" stroke-width="2" points="1888.17,-23.13 1898.11,-19.45 1888.05,-16.13 1888.17,-23.13"/>
</g>
<!-- 18&#45;&gt;0 -->
<g id="edge13" class="edge">
<title>18&#45;&gt;0</title>
<path fill="none" stroke="grey" stroke-width="2" d="M1143.21,-73.53C1146,-72.97 1148.78,-72.45 1151.5,-72 1431.81,-25.61 1775.7,-19.69 1888.06,-19.04"/>
<polygon fill="grey" stroke="grey" stroke-width="2" points="1888.22,-22.54 1898.2,-18.99 1888.19,-15.54 1888.22,-22.54"/>
</g>
<!-- 19&#45;&gt;0 -->
<g id="edge14" class="edge">
<title>19&#45;&gt;0</title>
<path fill="none" stroke="grey" stroke-width="2" d="M1530.25,-73.76C1533.03,-73.13 1535.79,-72.54 1538.5,-72 1665.62,-46.51 1818.71,-29.53 1888.09,-22.57"/>
<polygon fill="grey" stroke="grey" stroke-width="2" points="1888.49,-26.05 1898.09,-21.58 1887.8,-19.08 1888.49,-26.05"/>
</g>
<!-- 20&#45;&gt;0 -->
<g id="edge15" class="edge">
<title>20&#45;&gt;0</title>
<path fill="none" stroke="grey" stroke-width="2" d="M1877.32,-71.7C1885.07,-63.22 1894.54,-52.86 1903.02,-43.58"/>
<polygon fill="grey" stroke="grey" stroke-width="2" points="1905.7,-45.85 1909.86,-36.1 1900.53,-41.12 1905.7,-45.85"/>
</g>
<!-- 21 -->
<g id="node22" class="node">
<title>21</title>
<path fill="none" stroke="#56c1d8" stroke-width="2" d="M2034,-108C2034,-108 1947,-108 1947,-108 1941,-108 1935,-102 1935,-96 1935,-96 1935,-84 1935,-84 1935,-78 1941,-72 1947,-72 1947,-72 2034,-72 2034,-72 2040,-72 2046,-78 2046,-84 2046,-84 2046,-96 2046,-96 2046,-102 2040,-108 2034,-108"/>
<text text-anchor="middle" x="1990.5" y="-93" font-family="sans" font-size="10.00">SPAdes_untrimmed</text>
<text text-anchor="middle" x="1990.5" y="-82" font-family="sans" font-size="10.00">value_of_k: 31</text>
</g>
<!-- 21&#45;&gt;0 -->
<g id="edge16" class="edge">
<title>21&#45;&gt;0</title>
<path fill="none" stroke="grey" stroke-width="2" d="M1974.43,-71.7C1966.56,-63.22 1956.94,-52.86 1948.33,-43.58"/>
<polygon fill="grey" stroke="grey" stroke-width="2" points="1950.75,-41.05 1941.38,-36.1 1945.62,-45.81 1950.75,-41.05"/>
</g>
<!-- 22 -->
<g id="node23" class="node">
<title>22</title>
<path fill="none" stroke="#d85656" stroke-width="2" d="M2195.5,-180C2195.5,-180 2043.5,-180 2043.5,-180 2037.5,-180 2031.5,-174 2031.5,-168 2031.5,-168 2031.5,-156 2031.5,-156 2031.5,-150 2037.5,-144 2043.5,-144 2043.5,-144 2195.5,-144 2195.5,-144 2201.5,-144 2207.5,-150 2207.5,-156 2207.5,-156 2207.5,-168 2207.5,-168 2207.5,-174 2201.5,-180 2195.5,-180"/>
<text text-anchor="middle" x="2119.5" y="-165" font-family="sans" font-size="10.00">download_sr</text>
<text text-anchor="middle" x="2119.5" y="-154" font-family="sans" font-size="10.00">barcodes: SRR1965341_trimmed</text>
</g>
<!-- 22&#45;&gt;21 -->
<g id="edge46" class="edge">
<title>22&#45;&gt;21</title>
<path fill="none" stroke="grey" stroke-width="2" d="M2087.94,-143.88C2070.84,-134.6 2049.52,-123.03 2031.18,-113.08"/>
<polygon fill="grey" stroke="grey" stroke-width="2" points="2032.64,-109.88 2022.18,-108.19 2029.3,-116.04 2032.64,-109.88"/>
</g>
<!-- 31 -->
<g id="node32" class="node">
<title>31</title>
<path fill="none" stroke="#56c1d8" stroke-width="2" d="M2163,-108C2163,-108 2076,-108 2076,-108 2070,-108 2064,-102 2064,-96 2064,-96 2064,-84 2064,-84 2064,-78 2070,-72 2076,-72 2076,-72 2163,-72 2163,-72 2169,-72 2175,-78 2175,-84 2175,-84 2175,-96 2175,-96 2175,-102 2169,-108 2163,-108"/>
<text text-anchor="middle" x="2119.5" y="-93" font-family="sans" font-size="10.00">SPAdes_untrimmed</text>
<text text-anchor="middle" x="2119.5" y="-82" font-family="sans" font-size="10.00">value_of_k: 55</text>
</g>
<!-- 22&#45;&gt;31 -->
<g id="edge51" class="edge">
<title>22&#45;&gt;31</title>
<path fill="none" stroke="grey" stroke-width="2" d="M2119.5,-143.7C2119.5,-135.98 2119.5,-126.71 2119.5,-118.11"/>
<polygon fill="grey" stroke="grey" stroke-width="2" points="2123,-118.1 2119.5,-108.1 2116,-118.1 2123,-118.1"/>
</g>
<!-- 36 -->
<g id="node37" class="node">
<title>36</title>
<path fill="none" stroke="#56c1d8" stroke-width="2" d="M2292,-108C2292,-108 2205,-108 2205,-108 2199,-108 2193,-102 2193,-96 2193,-96 2193,-84 2193,-84 2193,-78 2199,-72 2205,-72 2205,-72 2292,-72 2292,-72 2298,-72 2304,-78 2304,-84 2304,-84 2304,-96 2304,-96 2304,-102 2298,-108 2292,-108"/>
<text text-anchor="middle" x="2248.5" y="-93" font-family="sans" font-size="10.00">SPAdes_untrimmed</text>
<text text-anchor="middle" x="2248.5" y="-82" font-family="sans" font-size="10.00">value_of_k: auto</text>
</g>
<!-- 22&#45;&gt;36 -->
<g id="edge56" class="edge">
<title>22&#45;&gt;36</title>
<path fill="none" stroke="grey" stroke-width="2" d="M2151.06,-143.88C2168.16,-134.6 2189.48,-123.03 2207.82,-113.08"/>
<polygon fill="grey" stroke="grey" stroke-width="2" points="2209.7,-116.04 2216.82,-108.19 2206.36,-109.88 2209.7,-116.04"/>
</g>
<!-- 23 -->
<g id="node24" class="node">
<title>23</title>
<path fill="none" stroke="#56c1d8" stroke-width="2" d="M2421,-108C2421,-108 2334,-108 2334,-108 2328,-108 2322,-102 2322,-96 2322,-96 2322,-84 2322,-84 2322,-78 2328,-72 2334,-72 2334,-72 2421,-72 2421,-72 2427,-72 2433,-78 2433,-84 2433,-84 2433,-96 2433,-96 2433,-102 2427,-108 2421,-108"/>
<text text-anchor="middle" x="2377.5" y="-93" font-family="sans" font-size="10.00">SPAdes_untrimmed</text>
<text text-anchor="middle" x="2377.5" y="-82" font-family="sans" font-size="10.00">value_of_k: 31</text>
</g>
<!-- 23&#45;&gt;0 -->
<g id="edge17" class="edge">
<title>23&#45;&gt;0</title>
<path fill="none" stroke="grey" stroke-width="2" d="M2321.75,-73.76C2318.97,-73.13 2316.21,-72.54 2313.5,-72 2185.73,-46.41 2031.8,-29.43 1962.49,-22.51"/>
<polygon fill="grey" stroke="grey" stroke-width="2" points="1962.8,-19.02 1952.5,-21.53 1962.11,-25.99 1962.8,-19.02"/>
</g>
<!-- 24 -->
<g id="node25" class="node">
<title>24</title>
<path fill="none" stroke="#d85656" stroke-width="2" d="M2582.5,-180C2582.5,-180 2430.5,-180 2430.5,-180 2424.5,-180 2418.5,-174 2418.5,-168 2418.5,-168 2418.5,-156 2418.5,-156 2418.5,-150 2424.5,-144 2430.5,-144 2430.5,-144 2582.5,-144 2582.5,-144 2588.5,-144 2594.5,-150 2594.5,-156 2594.5,-156 2594.5,-168 2594.5,-168 2594.5,-174 2588.5,-180 2582.5,-180"/>
<text text-anchor="middle" x="2506.5" y="-165" font-family="sans" font-size="10.00">download_sr</text>
<text text-anchor="middle" x="2506.5" y="-154" font-family="sans" font-size="10.00">barcodes: SRR1968189_trimmed</text>
</g>
<!-- 24&#45;&gt;23 -->
<g id="edge47" class="edge">
<title>24&#45;&gt;23</title>
<path fill="none" stroke="grey" stroke-width="2" d="M2474.94,-143.88C2457.84,-134.6 2436.52,-123.03 2418.18,-113.08"/>
<polygon fill="grey" stroke="grey" stroke-width="2" points="2419.64,-109.88 2409.18,-108.19 2416.3,-116.04 2419.64,-109.88"/>
</g>
<!-- 32 -->
<g id="node33" class="node">
<title>32</title>
<path fill="none" stroke="#56c1d8" stroke-width="2" d="M2550,-108C2550,-108 2463,-108 2463,-108 2457,-108 2451,-102 2451,-96 2451,-96 2451,-84 2451,-84 2451,-78 2457,-72 2463,-72 2463,-72 2550,-72 2550,-72 2556,-72 2562,-78 2562,-84 2562,-84 2562,-96 2562,-96 2562,-102 2556,-108 2550,-108"/>
<text text-anchor="middle" x="2506.5" y="-93" font-family="sans" font-size="10.00">SPAdes_untrimmed</text>
<text text-anchor="middle" x="2506.5" y="-82" font-family="sans" font-size="10.00">value_of_k: 55</text>
</g>
<!-- 24&#45;&gt;32 -->
<g id="edge52" class="edge">
<title>24&#45;&gt;32</title>
<path fill="none" stroke="grey" stroke-width="2" d="M2506.5,-143.7C2506.5,-135.98 2506.5,-126.71 2506.5,-118.11"/>
<polygon fill="grey" stroke="grey" stroke-width="2" points="2510,-118.1 2506.5,-108.1 2503,-118.1 2510,-118.1"/>
</g>
<!-- 37 -->
<g id="node38" class="node">
<title>37</title>
<path fill="none" stroke="#56c1d8" stroke-width="2" d="M2679,-108C2679,-108 2592,-108 2592,-108 2586,-108 2580,-102 2580,-96 2580,-96 2580,-84 2580,-84 2580,-78 2586,-72 2592,-72 2592,-72 2679,-72 2679,-72 2685,-72 2691,-78 2691,-84 2691,-84 2691,-96 2691,-96 2691,-102 2685,-108 2679,-108"/>
<text text-anchor="middle" x="2635.5" y="-93" font-family="sans" font-size="10.00">SPAdes_untrimmed</text>
<text text-anchor="middle" x="2635.5" y="-82" font-family="sans" font-size="10.00">value_of_k: auto</text>
</g>
<!-- 24&#45;&gt;37 -->
<g id="edge57" class="edge">
<title>24&#45;&gt;37</title>
<path fill="none" stroke="grey" stroke-width="2" d="M2538.06,-143.88C2555.16,-134.6 2576.48,-123.03 2594.82,-113.08"/>
<polygon fill="grey" stroke="grey" stroke-width="2" points="2596.7,-116.04 2603.82,-108.19 2593.36,-109.88 2596.7,-116.04"/>
</g>
<!-- 25 -->
<g id="node26" class="node">
<title>25</title>
<path fill="none" stroke="#56c1d8" stroke-width="2" d="M2808,-108C2808,-108 2721,-108 2721,-108 2715,-108 2709,-102 2709,-96 2709,-96 2709,-84 2709,-84 2709,-78 2715,-72 2721,-72 2721,-72 2808,-72 2808,-72 2814,-72 2820,-78 2820,-84 2820,-84 2820,-96 2820,-96 2820,-102 2814,-108 2808,-108"/>
<text text-anchor="middle" x="2764.5" y="-93" font-family="sans" font-size="10.00">SPAdes_untrimmed</text>
<text text-anchor="middle" x="2764.5" y="-82" font-family="sans" font-size="10.00">value_of_k: 31</text>
</g>
<!-- 25&#45;&gt;0 -->
<g id="edge18" class="edge">
<title>25&#45;&gt;0</title>
<path fill="none" stroke="grey" stroke-width="2" d="M2708.79,-73.53C2706,-72.97 2703.22,-72.45 2700.5,-72 2419.83,-25.57 2075.49,-19.67 1962.98,-19.03"/>
<polygon fill="grey" stroke="grey" stroke-width="2" points="1962.85,-15.53 1952.83,-18.99 1962.81,-22.53 1962.85,-15.53"/>
</g>
<!-- 26 -->
<g id="node27" class="node">
<title>26</title>
<path fill="none" stroke="#d85656" stroke-width="2" d="M2969.5,-180C2969.5,-180 2817.5,-180 2817.5,-180 2811.5,-180 2805.5,-174 2805.5,-168 2805.5,-168 2805.5,-156 2805.5,-156 2805.5,-150 2811.5,-144 2817.5,-144 2817.5,-144 2969.5,-144 2969.5,-144 2975.5,-144 2981.5,-150 2981.5,-156 2981.5,-156 2981.5,-168 2981.5,-168 2981.5,-174 2975.5,-180 2969.5,-180"/>
<text text-anchor="middle" x="2893.5" y="-165" font-family="sans" font-size="10.00">download_sr</text>
<text text-anchor="middle" x="2893.5" y="-154" font-family="sans" font-size="10.00">barcodes: SRR7828287_trimmed</text>
</g>
<!-- 26&#45;&gt;25 -->
<g id="edge48" class="edge">
<title>26&#45;&gt;25</title>
<path fill="none" stroke="grey" stroke-width="2" d="M2861.94,-143.88C2844.84,-134.6 2823.52,-123.03 2805.18,-113.08"/>
<polygon fill="grey" stroke="grey" stroke-width="2" points="2806.64,-109.88 2796.18,-108.19 2803.3,-116.04 2806.64,-109.88"/>
</g>
<!-- 33 -->
<g id="node34" class="node">
<title>33</title>
<path fill="none" stroke="#56c1d8" stroke-width="2" d="M2937,-108C2937,-108 2850,-108 2850,-108 2844,-108 2838,-102 2838,-96 2838,-96 2838,-84 2838,-84 2838,-78 2844,-72 2850,-72 2850,-72 2937,-72 2937,-72 2943,-72 2949,-78 2949,-84 2949,-84 2949,-96 2949,-96 2949,-102 2943,-108 2937,-108"/>
<text text-anchor="middle" x="2893.5" y="-93" font-family="sans" font-size="10.00">SPAdes_untrimmed</text>
<text text-anchor="middle" x="2893.5" y="-82" font-family="sans" font-size="10.00">value_of_k: 55</text>
</g>
<!-- 26&#45;&gt;33 -->
<g id="edge53" class="edge">
<title>26&#45;&gt;33</title>
<path fill="none" stroke="grey" stroke-width="2" d="M2893.5,-143.7C2893.5,-135.98 2893.5,-126.71 2893.5,-118.11"/>
<polygon fill="grey" stroke="grey" stroke-width="2" points="2897,-118.1 2893.5,-108.1 2890,-118.1 2897,-118.1"/>
</g>
<!-- 38 -->
<g id="node39" class="node">
<title>38</title>
<path fill="none" stroke="#56c1d8" stroke-width="2" d="M3066,-108C3066,-108 2979,-108 2979,-108 2973,-108 2967,-102 2967,-96 2967,-96 2967,-84 2967,-84 2967,-78 2973,-72 2979,-72 2979,-72 3066,-72 3066,-72 3072,-72 3078,-78 3078,-84 3078,-84 3078,-96 3078,-96 3078,-102 3072,-108 3066,-108"/>
<text text-anchor="middle" x="3022.5" y="-93" font-family="sans" font-size="10.00">SPAdes_untrimmed</text>
<text text-anchor="middle" x="3022.5" y="-82" font-family="sans" font-size="10.00">value_of_k: auto</text>
</g>
<!-- 26&#45;&gt;38 -->
<g id="edge58" class="edge">
<title>26&#45;&gt;38</title>
<path fill="none" stroke="grey" stroke-width="2" d="M2925.06,-143.88C2942.16,-134.6 2963.48,-123.03 2981.82,-113.08"/>
<polygon fill="grey" stroke="grey" stroke-width="2" points="2983.7,-116.04 2990.82,-108.19 2980.36,-109.88 2983.7,-116.04"/>
</g>
<!-- 27 -->
<g id="node28" class="node">
<title>27</title>
<path fill="none" stroke="#56c1d8" stroke-width="2" d="M3195,-108C3195,-108 3108,-108 3108,-108 3102,-108 3096,-102 3096,-96 3096,-96 3096,-84 3096,-84 3096,-78 3102,-72 3108,-72 3108,-72 3195,-72 3195,-72 3201,-72 3207,-78 3207,-84 3207,-84 3207,-96 3207,-96 3207,-102 3201,-108 3195,-108"/>
<text text-anchor="middle" x="3151.5" y="-93" font-family="sans" font-size="10.00">SPAdes_untrimmed</text>
<text text-anchor="middle" x="3151.5" y="-82" font-family="sans" font-size="10.00">value_of_k: 31</text>
</g>
<!-- 27&#45;&gt;0 -->
<g id="edge19" class="edge">
<title>27&#45;&gt;0</title>
<path fill="none" stroke="grey" stroke-width="2" d="M3095.8,-73.45C3093.01,-72.91 3090.23,-72.42 3087.5,-72 2863.16,-37.5 2136.83,-22.72 1963.09,-19.63"/>
<polygon fill="grey" stroke="grey" stroke-width="2" points="1962.97,-16.13 1952.91,-19.45 1962.85,-23.13 1962.97,-16.13"/>
</g>
<!-- 28 -->
<g id="node29" class="node">
<title>28</title>
<path fill="none" stroke="#d85656" stroke-width="2" d="M3356.5,-180C3356.5,-180 3204.5,-180 3204.5,-180 3198.5,-180 3192.5,-174 3192.5,-168 3192.5,-168 3192.5,-156 3192.5,-156 3192.5,-150 3198.5,-144 3204.5,-144 3204.5,-144 3356.5,-144 3356.5,-144 3362.5,-144 3368.5,-150 3368.5,-156 3368.5,-156 3368.5,-168 3368.5,-168 3368.5,-174 3362.5,-180 3356.5,-180"/>
<text text-anchor="middle" x="3280.5" y="-165" font-family="sans" font-size="10.00">download_sr</text>
<text text-anchor="middle" x="3280.5" y="-154" font-family="sans" font-size="10.00">barcodes: SRR2075991_trimmed</text>
</g>
<!-- 28&#45;&gt;27 -->
<g id="edge49" class="edge">
<title>28&#45;&gt;27</title>
<path fill="none" stroke="grey" stroke-width="2" d="M3248.94,-143.88C3231.84,-134.6 3210.52,-123.03 3192.18,-113.08"/>
<polygon fill="grey" stroke="grey" stroke-width="2" points="3193.64,-109.88 3183.18,-108.19 3190.3,-116.04 3193.64,-109.88"/>
</g>
<!-- 34 -->
<g id="node35" class="node">
<title>34</title>
<path fill="none" stroke="#56c1d8" stroke-width="2" d="M3324,-108C3324,-108 3237,-108 3237,-108 3231,-108 3225,-102 3225,-96 3225,-96 3225,-84 3225,-84 3225,-78 3231,-72 3237,-72 3237,-72 3324,-72 3324,-72 3330,-72 3336,-78 3336,-84 3336,-84 3336,-96 3336,-96 3336,-102 3330,-108 3324,-108"/>
<text text-anchor="middle" x="3280.5" y="-93" font-family="sans" font-size="10.00">SPAdes_untrimmed</text>
<text text-anchor="middle" x="3280.5" y="-82" font-family="sans" font-size="10.00">value_of_k: 55</text>
</g>
<!-- 28&#45;&gt;34 -->
<g id="edge54" class="edge">
<title>28&#45;&gt;34</title>
<path fill="none" stroke="grey" stroke-width="2" d="M3280.5,-143.7C3280.5,-135.98 3280.5,-126.71 3280.5,-118.11"/>
<polygon fill="grey" stroke="grey" stroke-width="2" points="3284,-118.1 3280.5,-108.1 3277,-118.1 3284,-118.1"/>
</g>
<!-- 39 -->
<g id="node40" class="node">
<title>39</title>
<path fill="none" stroke="#56c1d8" stroke-width="2" d="M3453,-108C3453,-108 3366,-108 3366,-108 3360,-108 3354,-102 3354,-96 3354,-96 3354,-84 3354,-84 3354,-78 3360,-72 3366,-72 3366,-72 3453,-72 3453,-72 3459,-72 3465,-78 3465,-84 3465,-84 3465,-96 3465,-96 3465,-102 3459,-108 3453,-108"/>
<text text-anchor="middle" x="3409.5" y="-93" font-family="sans" font-size="10.00">SPAdes_untrimmed</text>
<text text-anchor="middle" x="3409.5" y="-82" font-family="sans" font-size="10.00">value_of_k: auto</text>
</g>
<!-- 28&#45;&gt;39 -->
<g id="edge59" class="edge">
<title>28&#45;&gt;39</title>
<path fill="none" stroke="grey" stroke-width="2" d="M3312.06,-143.88C3329.16,-134.6 3350.48,-123.03 3368.82,-113.08"/>
<polygon fill="grey" stroke="grey" stroke-width="2" points="3370.7,-116.04 3377.82,-108.19 3367.36,-109.88 3370.7,-116.04"/>
</g>
<!-- 29 -->
<g id="node30" class="node">
<title>29</title>
<path fill="none" stroke="#56c1d8" stroke-width="2" d="M3582,-108C3582,-108 3495,-108 3495,-108 3489,-108 3483,-102 3483,-96 3483,-96 3483,-84 3483,-84 3483,-78 3489,-72 3495,-72 3495,-72 3582,-72 3582,-72 3588,-72 3594,-78 3594,-84 3594,-84 3594,-96 3594,-96 3594,-102 3588,-108 3582,-108"/>
<text text-anchor="middle" x="3538.5" y="-93" font-family="sans" font-size="10.00">SPAdes_untrimmed</text>
<text text-anchor="middle" x="3538.5" y="-82" font-family="sans" font-size="10.00">value_of_k: 31</text>
</g>
<!-- 29&#45;&gt;0 -->
<g id="edge20" class="edge">
<title>29&#45;&gt;0</title>
<path fill="none" stroke="grey" stroke-width="2" d="M3482.81,-73.42C3480.01,-72.88 3477.23,-72.4 3474.5,-72 3169.37,-26.85 2168.42,-20.06 1962.67,-19.14"/>
<polygon fill="grey" stroke="grey" stroke-width="2" points="1962.69,-15.64 1952.67,-19.09 1962.65,-22.64 1962.69,-15.64"/>
</g>
<!-- 30 -->
<g id="node31" class="node">
<title>30</title>
<path fill="none" stroke="#d85656" stroke-width="2" d="M3743.5,-180C3743.5,-180 3591.5,-180 3591.5,-180 3585.5,-180 3579.5,-174 3579.5,-168 3579.5,-168 3579.5,-156 3579.5,-156 3579.5,-150 3585.5,-144 3591.5,-144 3591.5,-144 3743.5,-144 3743.5,-144 3749.5,-144 3755.5,-150 3755.5,-156 3755.5,-156 3755.5,-168 3755.5,-168 3755.5,-174 3749.5,-180 3743.5,-180"/>
<text text-anchor="middle" x="3667.5" y="-165" font-family="sans" font-size="10.00">download_sr</text>
<text text-anchor="middle" x="3667.5" y="-154" font-family="sans" font-size="10.00">barcodes: SRR5584993_trimmed</text>
</g>
<!-- 30&#45;&gt;29 -->
<g id="edge50" class="edge">
<title>30&#45;&gt;29</title>
<path fill="none" stroke="grey" stroke-width="2" d="M3635.94,-143.88C3618.84,-134.6 3597.52,-123.03 3579.18,-113.08"/>
<polygon fill="grey" stroke="grey" stroke-width="2" points="3580.64,-109.88 3570.18,-108.19 3577.3,-116.04 3580.64,-109.88"/>
</g>
<!-- 35 -->
<g id="node36" class="node">
<title>35</title>
<path fill="none" stroke="#56c1d8" stroke-width="2" d="M3711,-108C3711,-108 3624,-108 3624,-108 3618,-108 3612,-102 3612,-96 3612,-96 3612,-84 3612,-84 3612,-78 3618,-72 3624,-72 3624,-72 3711,-72 3711,-72 3717,-72 3723,-78 3723,-84 3723,-84 3723,-96 3723,-96 3723,-102 3717,-108 3711,-108"/>
<text text-anchor="middle" x="3667.5" y="-93" font-family="sans" font-size="10.00">SPAdes_untrimmed</text>
<text text-anchor="middle" x="3667.5" y="-82" font-family="sans" font-size="10.00">value_of_k: 55</text>
</g>
<!-- 30&#45;&gt;35 -->
<g id="edge55" class="edge">
<title>30&#45;&gt;35</title>
<path fill="none" stroke="grey" stroke-width="2" d="M3667.5,-143.7C3667.5,-135.98 3667.5,-126.71 3667.5,-118.11"/>
<polygon fill="grey" stroke="grey" stroke-width="2" points="3671,-118.1 3667.5,-108.1 3664,-118.1 3671,-118.1"/>
</g>
<!-- 40 -->
<g id="node41" class="node">
<title>40</title>
<path fill="none" stroke="#56c1d8" stroke-width="2" d="M3840,-108C3840,-108 3753,-108 3753,-108 3747,-108 3741,-102 3741,-96 3741,-96 3741,-84 3741,-84 3741,-78 3747,-72 3753,-72 3753,-72 3840,-72 3840,-72 3846,-72 3852,-78 3852,-84 3852,-84 3852,-96 3852,-96 3852,-102 3846,-108 3840,-108"/>
<text text-anchor="middle" x="3796.5" y="-93" font-family="sans" font-size="10.00">SPAdes_untrimmed</text>
<text text-anchor="middle" x="3796.5" y="-82" font-family="sans" font-size="10.00">value_of_k: auto</text>
</g>
<!-- 30&#45;&gt;40 -->
<g id="edge60" class="edge">
<title>30&#45;&gt;40</title>
<path fill="none" stroke="grey" stroke-width="2" d="M3699.06,-143.88C3716.16,-134.6 3737.48,-123.03 3755.82,-113.08"/>
<polygon fill="grey" stroke="grey" stroke-width="2" points="3757.7,-116.04 3764.82,-108.19 3754.36,-109.88 3757.7,-116.04"/>
</g>
<!-- 31&#45;&gt;0 -->
<g id="edge21" class="edge">
<title>31&#45;&gt;0</title>
<path fill="none" stroke="grey" stroke-width="2" d="M2072.04,-71.88C2038.23,-59.68 1993.45,-43.52 1962.33,-32.29"/>
<polygon fill="grey" stroke="grey" stroke-width="2" points="1963.33,-28.93 1952.74,-28.83 1960.95,-35.51 1963.33,-28.93"/>
</g>
<!-- 32&#45;&gt;0 -->
<g id="edge22" class="edge">
<title>32&#45;&gt;0</title>
<path fill="none" stroke="grey" stroke-width="2" d="M2450.77,-73.64C2447.98,-73.05 2445.21,-72.5 2442.5,-72 2264.61,-39.47 2048.36,-25.39 1962.86,-20.81"/>
<polygon fill="grey" stroke="grey" stroke-width="2" points="1962.79,-17.3 1952.62,-20.27 1962.43,-24.29 1962.79,-17.3"/>
</g>
<!-- 33&#45;&gt;0 -->
<g id="edge23" class="edge">
<title>33&#45;&gt;0</title>
<path fill="none" stroke="grey" stroke-width="2" d="M2837.79,-73.5C2835,-72.94 2832.22,-72.44 2829.5,-72 2496.54,-18.58 2086.89,-17.47 1962.82,-18.51"/>
<polygon fill="grey" stroke="grey" stroke-width="2" points="1962.67,-15.02 1952.71,-18.61 1962.74,-22.02 1962.67,-15.02"/>
</g>
<!-- 34&#45;&gt;0 -->
<g id="edge24" class="edge">
<title>34&#45;&gt;0</title>
<path fill="none" stroke="grey" stroke-width="2" d="M3224.8,-73.44C3222.01,-72.9 3219.23,-72.41 3216.5,-72 2965.21,-33.94 2147.27,-21.73 1962.72,-19.43"/>
<polygon fill="grey" stroke="grey" stroke-width="2" points="1962.74,-15.93 1952.7,-19.31 1962.66,-22.93 1962.74,-15.93"/>
</g>
<!-- 35&#45;&gt;0 -->
<g id="edge25" class="edge">
<title>35&#45;&gt;0</title>
<path fill="none" stroke="grey" stroke-width="2" d="M3611.81,-73.41C3609.01,-72.87 3606.23,-72.4 3603.5,-72 3271.52,-23.32 2179.41,-19.33 1962.97,-19.02"/>
<polygon fill="grey" stroke="grey" stroke-width="2" points="1962.77,-15.52 1952.77,-19.01 1962.76,-22.52 1962.77,-15.52"/>
</g>
<!-- 36&#45;&gt;0 -->
<g id="edge26" class="edge">
<title>36&#45;&gt;0</title>
<path fill="none" stroke="grey" stroke-width="2" d="M2192.7,-73.97C2189.93,-73.29 2187.19,-72.63 2184.5,-72 2106.08,-53.58 2013.44,-35.5 1962.95,-25.96"/>
<polygon fill="grey" stroke="grey" stroke-width="2" points="1963.31,-22.47 1952.83,-24.05 1962.01,-29.34 1963.31,-22.47"/>
</g>
<!-- 37&#45;&gt;0 -->
<g id="edge27" class="edge">
<title>37&#45;&gt;0</title>
<path fill="none" stroke="grey" stroke-width="2" d="M2579.78,-73.58C2576.99,-73 2574.22,-72.47 2571.5,-72 2342.53,-32.52 2062.67,-22.25 1962.97,-19.75"/>
<polygon fill="grey" stroke="grey" stroke-width="2" points="1962.88,-16.25 1952.8,-19.51 1962.71,-23.25 1962.88,-16.25"/>
</g>
<!-- 38&#45;&gt;0 -->
<g id="edge28" class="edge">
<title>38&#45;&gt;0</title>
<path fill="none" stroke="grey" stroke-width="2" d="M2966.8,-73.47C2964,-72.92 2961.23,-72.43 2958.5,-72 2760.79,-41.02 2124.35,-23.81 1962.97,-19.88"/>
<polygon fill="grey" stroke="grey" stroke-width="2" points="1962.69,-16.37 1952.61,-19.63 1962.52,-23.37 1962.69,-16.37"/>
</g>
<!-- 39&#45;&gt;0 -->
<g id="edge29" class="edge">
<title>39&#45;&gt;0</title>
<path fill="none" stroke="grey" stroke-width="2" d="M3353.81,-73.43C3351.01,-72.89 3348.23,-72.41 3345.5,-72 3067.29,-30.39 2157.86,-20.85 1962.62,-19.27"/>
<polygon fill="grey" stroke="grey" stroke-width="2" points="1962.61,-15.77 1952.58,-19.19 1962.55,-22.77 1962.61,-15.77"/>
</g>
<!-- 40&#45;&gt;0 -->
<g id="edge30" class="edge">
<title>40&#45;&gt;0</title>
<path fill="none" stroke="grey" stroke-width="2" d="M3740.81,-73.4C3738.01,-72.87 3735.23,-72.4 3732.5,-72 3373.45,-19.76 2188.95,-18.65 1962.94,-18.93"/>
<polygon fill="grey" stroke="grey" stroke-width="2" points="1962.61,-15.43 1952.62,-18.94 1962.62,-22.43 1962.61,-15.43"/>
</g>
</g>
</svg>
