<?xml version="1.0" encoding="UTF-8" standalone="no"?>
<!DOCTYPE svg PUBLIC "-//W3C//DTD SVG 1.1//EN"
 "http://www.w3.org/Graphics/SVG/1.1/DTD/svg11.dtd">
<!-- Generated by graphviz version 2.49.0 (20210829.0051)
 -->
<!-- Title: snakemake_dag Pages: 1 -->
<svg width="3680pt" height="332pt"
 viewBox="0.00 0.00 3680.00 332.00" xmlns="http://www.w3.org/2000/svg" xmlns:xlink="http://www.w3.org/1999/xlink">
<g id="graph0" class="graph" transform="scale(1 1) rotate(0) translate(4 328)">
<title>snakemake_dag</title>
<polygon fill="white" stroke="transparent" points="-4,4 -4,-328 3676,-328 3676,4 -4,4"/>
<!-- 0 -->
<g id="node1" class="node">
<title>0</title>
<path fill="none" stroke="#d85656" stroke-width="2" d="M1824.5,-36C1824.5,-36 1794.5,-36 1794.5,-36 1788.5,-36 1782.5,-30 1782.5,-24 1782.5,-24 1782.5,-12 1782.5,-12 1782.5,-6 1788.5,0 1794.5,0 1794.5,0 1824.5,0 1824.5,0 1830.5,0 1836.5,-6 1836.5,-12 1836.5,-12 1836.5,-24 1836.5,-24 1836.5,-30 1830.5,-36 1824.5,-36"/>
<text text-anchor="middle" x="1809.5" y="-15.5" font-family="sans" font-size="10.00">all</text>
</g>
<!-- 1 -->
<g id="node2" class="node">
<title>1</title>
<path fill="none" stroke="#59d856" stroke-width="2" stroke-dasharray="5,2" d="M708,-180C708,-180 621,-180 621,-180 615,-180 609,-174 609,-168 609,-168 609,-156 609,-156 609,-150 615,-144 621,-144 621,-144 708,-144 708,-144 714,-144 720,-150 720,-156 720,-156 720,-168 720,-168 720,-174 714,-180 708,-180"/>
<text text-anchor="middle" x="664.5" y="-165" font-family="sans" font-size="10.00">SPAdes_untrimmed</text>
<text text-anchor="middle" x="664.5" y="-154" font-family="sans" font-size="10.00">value_of_k: 31</text>
</g>
<!-- 1&#45;&gt;0 -->
<g id="edge1" class="edge">
<title>1&#45;&gt;0</title>
<path fill="none" stroke="grey" stroke-width="2" d="M687.13,-143.99C716.85,-122.73 771.51,-87.28 824.5,-72 1007.27,-19.31 1614.55,-18.15 1771.97,-18.77"/>
<polygon fill="grey" stroke="grey" stroke-width="2" points="1772.08,-22.27 1782.1,-18.82 1772.11,-15.27 1772.08,-22.27"/>
</g>
<!-- 41 -->
<g id="node42" class="node">
<title>41</title>
<path fill="none" stroke="#56a9d8" stroke-width="2" d="M681,-108C681,-108 648,-108 648,-108 642,-108 636,-102 636,-96 636,-96 636,-84 636,-84 636,-78 642,-72 648,-72 648,-72 681,-72 681,-72 687,-72 693,-78 693,-84 693,-84 693,-96 693,-96 693,-102 687,-108 681,-108"/>
<text text-anchor="middle" x="664.5" y="-87.5" font-family="sans" font-size="10.00">analysis</text>
</g>
<!-- 1&#45;&gt;41 -->
<g id="edge82" class="edge">
<title>1&#45;&gt;41</title>
<path fill="none" stroke="grey" stroke-width="2" d="M664.5,-143.7C664.5,-135.98 664.5,-126.71 664.5,-118.11"/>
<polygon fill="grey" stroke="grey" stroke-width="2" points="668,-118.1 664.5,-108.1 661,-118.1 668,-118.1"/>
</g>
<!-- 2 -->
<g id="node3" class="node">
<title>2</title>
<path fill="none" stroke="#afd856" stroke-width="2" stroke-dasharray="5,2" d="M425.5,-324C425.5,-324 321.5,-324 321.5,-324 315.5,-324 309.5,-318 309.5,-312 309.5,-312 309.5,-300 309.5,-300 309.5,-294 315.5,-288 321.5,-288 321.5,-288 425.5,-288 425.5,-288 431.5,-288 437.5,-294 437.5,-300 437.5,-300 437.5,-312 437.5,-312 437.5,-318 431.5,-324 425.5,-324"/>
<text text-anchor="middle" x="373.5" y="-309" font-family="sans" font-size="10.00">download_sr</text>
<text text-anchor="middle" x="373.5" y="-298" font-family="sans" font-size="10.00">barcodes: SRR1965341</text>
</g>
<!-- 2&#45;&gt;1 -->
<g id="edge46" class="edge">
<title>2&#45;&gt;1</title>
<path fill="none" stroke="grey" stroke-width="2" d="M408.6,-287.87C461.58,-262.02 561.94,-213.04 619.99,-184.72"/>
<polygon fill="grey" stroke="grey" stroke-width="2" points="621.82,-187.72 629.27,-180.19 618.75,-181.43 621.82,-187.72"/>
</g>
<!-- 11 -->
<g id="node12" class="node">
<title>11</title>
<path fill="none" stroke="#59d856" stroke-width="2" stroke-dasharray="5,2" d="M99,-180C99,-180 12,-180 12,-180 6,-180 0,-174 0,-168 0,-168 0,-156 0,-156 0,-150 6,-144 12,-144 12,-144 99,-144 99,-144 105,-144 111,-150 111,-156 111,-156 111,-168 111,-168 111,-174 105,-180 99,-180"/>
<text text-anchor="middle" x="55.5" y="-165" font-family="sans" font-size="10.00">SPAdes_untrimmed</text>
<text text-anchor="middle" x="55.5" y="-154" font-family="sans" font-size="10.00">value_of_k: 55</text>
</g>
<!-- 2&#45;&gt;11 -->
<g id="edge51" class="edge">
<title>2&#45;&gt;11</title>
<path fill="none" stroke="grey" stroke-width="2" d="M335.14,-287.87C277.01,-261.91 166.67,-212.64 103.36,-184.37"/>
<polygon fill="grey" stroke="grey" stroke-width="2" points="104.55,-181.07 93.99,-180.19 101.7,-187.46 104.55,-181.07"/>
</g>
<!-- 16 -->
<g id="node17" class="node">
<title>16</title>
<path fill="none" stroke="#59d856" stroke-width="2" stroke-dasharray="5,2" d="M345,-180C345,-180 258,-180 258,-180 252,-180 246,-174 246,-168 246,-168 246,-156 246,-156 246,-150 252,-144 258,-144 258,-144 345,-144 345,-144 351,-144 357,-150 357,-156 357,-156 357,-168 357,-168 357,-174 351,-180 345,-180"/>
<text text-anchor="middle" x="301.5" y="-165" font-family="sans" font-size="10.00">SPAdes_untrimmed</text>
<text text-anchor="middle" x="301.5" y="-154" font-family="sans" font-size="10.00">value_of_k: auto</text>
</g>
<!-- 2&#45;&gt;16 -->
<g id="edge56" class="edge">
<title>2&#45;&gt;16</title>
<path fill="none" stroke="grey" stroke-width="2" d="M364.82,-287.87C352.38,-263.35 329.4,-218.03 314.81,-189.26"/>
<polygon fill="grey" stroke="grey" stroke-width="2" points="317.86,-187.53 310.22,-180.19 311.62,-190.69 317.86,-187.53"/>
</g>
<!-- 22 -->
<g id="node23" class="node">
<title>22</title>
<path fill="none" stroke="#56d8a9" stroke-width="2" d="M453.5,-252C453.5,-252 373.5,-252 373.5,-252 367.5,-252 361.5,-246 361.5,-240 361.5,-240 361.5,-228 361.5,-228 361.5,-222 367.5,-216 373.5,-216 373.5,-216 453.5,-216 453.5,-216 459.5,-216 465.5,-222 465.5,-228 465.5,-228 465.5,-240 465.5,-240 465.5,-246 459.5,-252 453.5,-252"/>
<text text-anchor="middle" x="413.5" y="-231.5" font-family="sans" font-size="10.00">adapter_trimming</text>
</g>
<!-- 2&#45;&gt;22 -->
<g id="edge62" class="edge">
<title>2&#45;&gt;22</title>
<path fill="none" stroke="grey" stroke-width="2" d="M383.39,-287.7C387.99,-279.64 393.56,-269.89 398.65,-260.98"/>
<polygon fill="grey" stroke="grey" stroke-width="2" points="401.8,-262.52 403.73,-252.1 395.73,-259.05 401.8,-262.52"/>
</g>
<!-- 3 -->
<g id="node4" class="node">
<title>3</title>
<path fill="none" stroke="#59d856" stroke-width="2" d="M1200,-180C1200,-180 1113,-180 1113,-180 1107,-180 1101,-174 1101,-168 1101,-168 1101,-156 1101,-156 1101,-150 1107,-144 1113,-144 1113,-144 1200,-144 1200,-144 1206,-144 1212,-150 1212,-156 1212,-156 1212,-168 1212,-168 1212,-174 1206,-180 1200,-180"/>
<text text-anchor="middle" x="1156.5" y="-165" font-family="sans" font-size="10.00">SPAdes_untrimmed</text>
<text text-anchor="middle" x="1156.5" y="-154" font-family="sans" font-size="10.00">value_of_k: 31</text>
</g>
<!-- 3&#45;&gt;0 -->
<g id="edge2" class="edge">
<title>3&#45;&gt;0</title>
<path fill="none" stroke="grey" stroke-width="2" d="M1180.04,-143.88C1210.08,-123.03 1264.39,-88.54 1316.5,-72 1401.6,-44.99 1672.5,-26.95 1772.2,-21.08"/>
<polygon fill="grey" stroke="grey" stroke-width="2" points="1772.62,-24.56 1782.4,-20.49 1772.21,-17.57 1772.62,-24.56"/>
</g>
<!-- 42 -->
<g id="node43" class="node">
<title>42</title>
<path fill="none" stroke="#56a9d8" stroke-width="2" d="M1173,-108C1173,-108 1140,-108 1140,-108 1134,-108 1128,-102 1128,-96 1128,-96 1128,-84 1128,-84 1128,-78 1134,-72 1140,-72 1140,-72 1173,-72 1173,-72 1179,-72 1185,-78 1185,-84 1185,-84 1185,-96 1185,-96 1185,-102 1179,-108 1173,-108"/>
<text text-anchor="middle" x="1156.5" y="-87.5" font-family="sans" font-size="10.00">analysis</text>
</g>
<!-- 3&#45;&gt;42 -->
<g id="edge84" class="edge">
<title>3&#45;&gt;42</title>
<path fill="none" stroke="grey" stroke-width="2" d="M1156.5,-143.7C1156.5,-135.98 1156.5,-126.71 1156.5,-118.11"/>
<polygon fill="grey" stroke="grey" stroke-width="2" points="1160,-118.1 1156.5,-108.1 1153,-118.1 1160,-118.1"/>
</g>
<!-- 4 -->
<g id="node5" class="node">
<title>4</title>
<path fill="none" stroke="#afd856" stroke-width="2" d="M1141.5,-324C1141.5,-324 1037.5,-324 1037.5,-324 1031.5,-324 1025.5,-318 1025.5,-312 1025.5,-312 1025.5,-300 1025.5,-300 1025.5,-294 1031.5,-288 1037.5,-288 1037.5,-288 1141.5,-288 1141.5,-288 1147.5,-288 1153.5,-294 1153.5,-300 1153.5,-300 1153.5,-312 1153.5,-312 1153.5,-318 1147.5,-324 1141.5,-324"/>
<text text-anchor="middle" x="1089.5" y="-309" font-family="sans" font-size="10.00">download_sr</text>
<text text-anchor="middle" x="1089.5" y="-298" font-family="sans" font-size="10.00">barcodes: SRR1968189</text>
</g>
<!-- 4&#45;&gt;3 -->
<g id="edge47" class="edge">
<title>4&#45;&gt;3</title>
<path fill="none" stroke="grey" stroke-width="2" d="M1097.58,-287.87C1109.15,-263.35 1130.53,-218.03 1144.11,-189.26"/>
<polygon fill="grey" stroke="grey" stroke-width="2" points="1147.29,-190.73 1148.39,-180.19 1140.96,-187.74 1147.29,-190.73"/>
</g>
<!-- 12 -->
<g id="node13" class="node">
<title>12</title>
<path fill="none" stroke="#59d856" stroke-width="2" d="M954,-180C954,-180 867,-180 867,-180 861,-180 855,-174 855,-168 855,-168 855,-156 855,-156 855,-150 861,-144 867,-144 867,-144 954,-144 954,-144 960,-144 966,-150 966,-156 966,-156 966,-168 966,-168 966,-174 960,-180 954,-180"/>
<text text-anchor="middle" x="910.5" y="-165" font-family="sans" font-size="10.00">SPAdes_untrimmed</text>
<text text-anchor="middle" x="910.5" y="-154" font-family="sans" font-size="10.00">value_of_k: 55</text>
</g>
<!-- 4&#45;&gt;12 -->
<g id="edge52" class="edge">
<title>4&#45;&gt;12</title>
<path fill="none" stroke="grey" stroke-width="2" d="M1045.28,-287.91C1025.26,-278.96 1001.99,-266.76 983.5,-252 960.88,-233.94 940.49,-207.83 927.05,-188.56"/>
<polygon fill="grey" stroke="grey" stroke-width="2" points="929.9,-186.53 921.38,-180.24 924.12,-190.48 929.9,-186.53"/>
</g>
<!-- 17 -->
<g id="node18" class="node">
<title>17</title>
<path fill="none" stroke="#59d856" stroke-width="2" d="M1446,-180C1446,-180 1359,-180 1359,-180 1353,-180 1347,-174 1347,-168 1347,-168 1347,-156 1347,-156 1347,-150 1353,-144 1359,-144 1359,-144 1446,-144 1446,-144 1452,-144 1458,-150 1458,-156 1458,-156 1458,-168 1458,-168 1458,-174 1452,-180 1446,-180"/>
<text text-anchor="middle" x="1402.5" y="-165" font-family="sans" font-size="10.00">SPAdes_untrimmed</text>
<text text-anchor="middle" x="1402.5" y="-154" font-family="sans" font-size="10.00">value_of_k: auto</text>
</g>
<!-- 4&#45;&gt;17 -->
<g id="edge57" class="edge">
<title>4&#45;&gt;17</title>
<path fill="none" stroke="grey" stroke-width="2" d="M1127.26,-287.87C1184.48,-261.91 1293.08,-212.64 1355.39,-184.37"/>
<polygon fill="grey" stroke="grey" stroke-width="2" points="1356.95,-187.51 1364.61,-180.19 1354.06,-181.13 1356.95,-187.51"/>
</g>
<!-- 24 -->
<g id="node25" class="node">
<title>24</title>
<path fill="none" stroke="#56d8a9" stroke-width="2" d="M1084.5,-252C1084.5,-252 1004.5,-252 1004.5,-252 998.5,-252 992.5,-246 992.5,-240 992.5,-240 992.5,-228 992.5,-228 992.5,-222 998.5,-216 1004.5,-216 1004.5,-216 1084.5,-216 1084.5,-216 1090.5,-216 1096.5,-222 1096.5,-228 1096.5,-228 1096.5,-240 1096.5,-240 1096.5,-246 1090.5,-252 1084.5,-252"/>
<text text-anchor="middle" x="1044.5" y="-231.5" font-family="sans" font-size="10.00">adapter_trimming</text>
</g>
<!-- 4&#45;&gt;24 -->
<g id="edge64" class="edge">
<title>4&#45;&gt;24</title>
<path fill="none" stroke="grey" stroke-width="2" d="M1078.38,-287.7C1073.14,-279.56 1066.8,-269.69 1061.02,-260.7"/>
<polygon fill="grey" stroke="grey" stroke-width="2" points="1063.85,-258.62 1055.5,-252.1 1057.96,-262.41 1063.85,-258.62"/>
</g>
<!-- 5 -->
<g id="node6" class="node">
<title>5</title>
<path fill="none" stroke="#59d856" stroke-width="2" stroke-dasharray="5,2" d="M2055,-180C2055,-180 1968,-180 1968,-180 1962,-180 1956,-174 1956,-168 1956,-168 1956,-156 1956,-156 1956,-150 1962,-144 1968,-144 1968,-144 2055,-144 2055,-144 2061,-144 2067,-150 2067,-156 2067,-156 2067,-168 2067,-168 2067,-174 2061,-180 2055,-180"/>
<text text-anchor="middle" x="2011.5" y="-165" font-family="sans" font-size="10.00">SPAdes_untrimmed</text>
<text text-anchor="middle" x="2011.5" y="-154" font-family="sans" font-size="10.00">value_of_k: 31</text>
</g>
<!-- 5&#45;&gt;0 -->
<g id="edge3" class="edge">
<title>5&#45;&gt;0</title>
<path fill="none" stroke="grey" stroke-width="2" d="M1988.09,-143.84C1974.54,-133.71 1957.29,-120.46 1942.5,-108 1924.46,-92.8 1922.57,-85.89 1903.5,-72 1885.44,-58.85 1863.82,-46.46 1845.87,-36.96"/>
<polygon fill="grey" stroke="grey" stroke-width="2" points="1847.34,-33.78 1836.85,-32.27 1844.11,-39.99 1847.34,-33.78"/>
</g>
<!-- 43 -->
<g id="node44" class="node">
<title>43</title>
<path fill="none" stroke="#56a9d8" stroke-width="2" d="M1883,-108C1883,-108 1850,-108 1850,-108 1844,-108 1838,-102 1838,-96 1838,-96 1838,-84 1838,-84 1838,-78 1844,-72 1850,-72 1850,-72 1883,-72 1883,-72 1889,-72 1895,-78 1895,-84 1895,-84 1895,-96 1895,-96 1895,-102 1889,-108 1883,-108"/>
<text text-anchor="middle" x="1866.5" y="-87.5" font-family="sans" font-size="10.00">analysis</text>
</g>
<!-- 5&#45;&gt;43 -->
<g id="edge86" class="edge">
<title>5&#45;&gt;43</title>
<path fill="none" stroke="grey" stroke-width="2" d="M1976.03,-143.88C1954.31,-133.39 1926.54,-119.99 1904.4,-109.29"/>
<polygon fill="grey" stroke="grey" stroke-width="2" points="1905.81,-106.09 1895.28,-104.9 1902.77,-112.39 1905.81,-106.09"/>
</g>
<!-- 6 -->
<g id="node7" class="node">
<title>6</title>
<path fill="none" stroke="#afd856" stroke-width="2" stroke-dasharray="5,2" d="M1923.5,-324C1923.5,-324 1819.5,-324 1819.5,-324 1813.5,-324 1807.5,-318 1807.5,-312 1807.5,-312 1807.5,-300 1807.5,-300 1807.5,-294 1813.5,-288 1819.5,-288 1819.5,-288 1923.5,-288 1923.5,-288 1929.5,-288 1935.5,-294 1935.5,-300 1935.5,-300 1935.5,-312 1935.5,-312 1935.5,-318 1929.5,-324 1923.5,-324"/>
<text text-anchor="middle" x="1871.5" y="-309" font-family="sans" font-size="10.00">download_sr</text>
<text text-anchor="middle" x="1871.5" y="-298" font-family="sans" font-size="10.00">barcodes: SRR7828287</text>
</g>
<!-- 6&#45;&gt;5 -->
<g id="edge48" class="edge">
<title>6&#45;&gt;5</title>
<path fill="none" stroke="grey" stroke-width="2" d="M1888.39,-287.87C1913.09,-262.82 1959.2,-216.05 1987.44,-187.41"/>
<polygon fill="grey" stroke="grey" stroke-width="2" points="1990.02,-189.77 1994.55,-180.19 1985.04,-184.85 1990.02,-189.77"/>
</g>
<!-- 13 -->
<g id="node14" class="node">
<title>13</title>
<path fill="none" stroke="#59d856" stroke-width="2" stroke-dasharray="5,2" d="M1575,-180C1575,-180 1488,-180 1488,-180 1482,-180 1476,-174 1476,-168 1476,-168 1476,-156 1476,-156 1476,-150 1482,-144 1488,-144 1488,-144 1575,-144 1575,-144 1581,-144 1587,-150 1587,-156 1587,-156 1587,-168 1587,-168 1587,-174 1581,-180 1575,-180"/>
<text text-anchor="middle" x="1531.5" y="-165" font-family="sans" font-size="10.00">SPAdes_untrimmed</text>
<text text-anchor="middle" x="1531.5" y="-154" font-family="sans" font-size="10.00">value_of_k: 55</text>
</g>
<!-- 6&#45;&gt;13 -->
<g id="edge53" class="edge">
<title>6&#45;&gt;13</title>
<path fill="none" stroke="grey" stroke-width="2" d="M1830.49,-287.87C1768.12,-261.82 1649.55,-212.3 1581.98,-184.08"/>
<polygon fill="grey" stroke="grey" stroke-width="2" points="1582.97,-180.7 1572.39,-180.08 1580.27,-187.16 1582.97,-180.7"/>
</g>
<!-- 18 -->
<g id="node19" class="node">
<title>18</title>
<path fill="none" stroke="#59d856" stroke-width="2" stroke-dasharray="5,2" d="M2184,-180C2184,-180 2097,-180 2097,-180 2091,-180 2085,-174 2085,-168 2085,-168 2085,-156 2085,-156 2085,-150 2091,-144 2097,-144 2097,-144 2184,-144 2184,-144 2190,-144 2196,-150 2196,-156 2196,-156 2196,-168 2196,-168 2196,-174 2190,-180 2184,-180"/>
<text text-anchor="middle" x="2140.5" y="-165" font-family="sans" font-size="10.00">SPAdes_untrimmed</text>
<text text-anchor="middle" x="2140.5" y="-154" font-family="sans" font-size="10.00">value_of_k: auto</text>
</g>
<!-- 6&#45;&gt;18 -->
<g id="edge58" class="edge">
<title>6&#45;&gt;18</title>
<path fill="none" stroke="grey" stroke-width="2" d="M1903.95,-287.87C1952.82,-262.07 2045.31,-213.25 2099.02,-184.9"/>
<polygon fill="grey" stroke="grey" stroke-width="2" points="2100.73,-187.95 2107.94,-180.19 2097.46,-181.76 2100.73,-187.95"/>
</g>
<!-- 26 -->
<g id="node27" class="node">
<title>26</title>
<path fill="none" stroke="#56d8a9" stroke-width="2" d="M1851.5,-252C1851.5,-252 1771.5,-252 1771.5,-252 1765.5,-252 1759.5,-246 1759.5,-240 1759.5,-240 1759.5,-228 1759.5,-228 1759.5,-222 1765.5,-216 1771.5,-216 1771.5,-216 1851.5,-216 1851.5,-216 1857.5,-216 1863.5,-222 1863.5,-228 1863.5,-228 1863.5,-240 1863.5,-240 1863.5,-246 1857.5,-252 1851.5,-252"/>
<text text-anchor="middle" x="1811.5" y="-231.5" font-family="sans" font-size="10.00">adapter_trimming</text>
</g>
<!-- 6&#45;&gt;26 -->
<g id="edge66" class="edge">
<title>6&#45;&gt;26</title>
<path fill="none" stroke="grey" stroke-width="2" d="M1856.67,-287.7C1849.48,-279.3 1840.7,-269.07 1832.81,-259.86"/>
<polygon fill="grey" stroke="grey" stroke-width="2" points="1835.33,-257.42 1826.16,-252.1 1830.01,-261.97 1835.33,-257.42"/>
</g>
<!-- 7 -->
<g id="node8" class="node">
<title>7</title>
<path fill="none" stroke="#59d856" stroke-width="2" d="M2922,-180C2922,-180 2835,-180 2835,-180 2829,-180 2823,-174 2823,-168 2823,-168 2823,-156 2823,-156 2823,-150 2829,-144 2835,-144 2835,-144 2922,-144 2922,-144 2928,-144 2934,-150 2934,-156 2934,-156 2934,-168 2934,-168 2934,-174 2928,-180 2922,-180"/>
<text text-anchor="middle" x="2878.5" y="-165" font-family="sans" font-size="10.00">SPAdes_untrimmed</text>
<text text-anchor="middle" x="2878.5" y="-154" font-family="sans" font-size="10.00">value_of_k: 31</text>
</g>
<!-- 7&#45;&gt;0 -->
<g id="edge4" class="edge">
<title>7&#45;&gt;0</title>
<path fill="none" stroke="grey" stroke-width="2" d="M2867.91,-143.87C2853.7,-122.65 2826.32,-87.43 2792.5,-72 2705.26,-32.18 2015.44,-21.44 1846.67,-19.4"/>
<polygon fill="grey" stroke="grey" stroke-width="2" points="1846.58,-15.9 1836.54,-19.28 1846.5,-22.9 1846.58,-15.9"/>
</g>
<!-- 44 -->
<g id="node45" class="node">
<title>44</title>
<path fill="none" stroke="#56a9d8" stroke-width="2" d="M2772,-108C2772,-108 2739,-108 2739,-108 2733,-108 2727,-102 2727,-96 2727,-96 2727,-84 2727,-84 2727,-78 2733,-72 2739,-72 2739,-72 2772,-72 2772,-72 2778,-72 2784,-78 2784,-84 2784,-84 2784,-96 2784,-96 2784,-102 2778,-108 2772,-108"/>
<text text-anchor="middle" x="2755.5" y="-87.5" font-family="sans" font-size="10.00">analysis</text>
</g>
<!-- 7&#45;&gt;44 -->
<g id="edge88" class="edge">
<title>7&#45;&gt;44</title>
<path fill="none" stroke="grey" stroke-width="2" d="M2848.41,-143.88C2831.7,-134.36 2810.75,-122.44 2792.98,-112.33"/>
<polygon fill="grey" stroke="grey" stroke-width="2" points="2794.43,-109.13 2784.01,-107.23 2790.97,-115.21 2794.43,-109.13"/>
</g>
<!-- 8 -->
<g id="node9" class="node">
<title>8</title>
<path fill="none" stroke="#afd856" stroke-width="2" stroke-dasharray="5,2" d="M2588.5,-324C2588.5,-324 2484.5,-324 2484.5,-324 2478.5,-324 2472.5,-318 2472.5,-312 2472.5,-312 2472.5,-300 2472.5,-300 2472.5,-294 2478.5,-288 2484.5,-288 2484.5,-288 2588.5,-288 2588.5,-288 2594.5,-288 2600.5,-294 2600.5,-300 2600.5,-300 2600.5,-312 2600.5,-312 2600.5,-318 2594.5,-324 2588.5,-324"/>
<text text-anchor="middle" x="2536.5" y="-309" font-family="sans" font-size="10.00">download_sr</text>
<text text-anchor="middle" x="2536.5" y="-298" font-family="sans" font-size="10.00">barcodes: SRR2075991</text>
</g>
<!-- 8&#45;&gt;7 -->
<g id="edge49" class="edge">
<title>8&#45;&gt;7</title>
<path fill="none" stroke="grey" stroke-width="2" d="M2579.68,-287.9C2605.51,-277.62 2638.94,-264.2 2668.5,-252 2723.8,-229.18 2786.96,-202.3 2829.45,-184.1"/>
<polygon fill="grey" stroke="grey" stroke-width="2" points="2830.92,-187.28 2838.73,-180.12 2828.16,-180.85 2830.92,-187.28"/>
</g>
<!-- 14 -->
<g id="node15" class="node">
<title>14</title>
<path fill="none" stroke="#59d856" stroke-width="2" stroke-dasharray="5,2" d="M2442,-180C2442,-180 2355,-180 2355,-180 2349,-180 2343,-174 2343,-168 2343,-168 2343,-156 2343,-156 2343,-150 2349,-144 2355,-144 2355,-144 2442,-144 2442,-144 2448,-144 2454,-150 2454,-156 2454,-156 2454,-168 2454,-168 2454,-174 2448,-180 2442,-180"/>
<text text-anchor="middle" x="2398.5" y="-165" font-family="sans" font-size="10.00">SPAdes_untrimmed</text>
<text text-anchor="middle" x="2398.5" y="-154" font-family="sans" font-size="10.00">value_of_k: 55</text>
</g>
<!-- 8&#45;&gt;14 -->
<g id="edge54" class="edge">
<title>8&#45;&gt;14</title>
<path fill="none" stroke="grey" stroke-width="2" d="M2519.85,-287.87C2495.51,-262.82 2450.06,-216.05 2422.22,-187.41"/>
<polygon fill="grey" stroke="grey" stroke-width="2" points="2424.68,-184.92 2415.21,-180.19 2419.66,-189.8 2424.68,-184.92"/>
</g>
<!-- 19 -->
<g id="node20" class="node">
<title>19</title>
<path fill="none" stroke="#59d856" stroke-width="2" stroke-dasharray="5,2" d="M2313,-180C2313,-180 2226,-180 2226,-180 2220,-180 2214,-174 2214,-168 2214,-168 2214,-156 2214,-156 2214,-150 2220,-144 2226,-144 2226,-144 2313,-144 2313,-144 2319,-144 2325,-150 2325,-156 2325,-156 2325,-168 2325,-168 2325,-174 2319,-180 2313,-180"/>
<text text-anchor="middle" x="2269.5" y="-165" font-family="sans" font-size="10.00">SPAdes_untrimmed</text>
<text text-anchor="middle" x="2269.5" y="-154" font-family="sans" font-size="10.00">value_of_k: auto</text>
</g>
<!-- 8&#45;&gt;19 -->
<g id="edge59" class="edge">
<title>8&#45;&gt;19</title>
<path fill="none" stroke="grey" stroke-width="2" d="M2504.29,-287.87C2455.78,-262.07 2363.98,-213.25 2310.67,-184.9"/>
<polygon fill="grey" stroke="grey" stroke-width="2" points="2312.29,-181.79 2301.82,-180.19 2309.01,-187.98 2312.29,-181.79"/>
</g>
<!-- 28 -->
<g id="node29" class="node">
<title>28</title>
<path fill="none" stroke="#56d8a9" stroke-width="2" d="M2647.5,-252C2647.5,-252 2567.5,-252 2567.5,-252 2561.5,-252 2555.5,-246 2555.5,-240 2555.5,-240 2555.5,-228 2555.5,-228 2555.5,-222 2561.5,-216 2567.5,-216 2567.5,-216 2647.5,-216 2647.5,-216 2653.5,-216 2659.5,-222 2659.5,-228 2659.5,-228 2659.5,-240 2659.5,-240 2659.5,-246 2653.5,-252 2647.5,-252"/>
<text text-anchor="middle" x="2607.5" y="-231.5" font-family="sans" font-size="10.00">adapter_trimming</text>
</g>
<!-- 8&#45;&gt;28 -->
<g id="edge68" class="edge">
<title>8&#45;&gt;28</title>
<path fill="none" stroke="grey" stroke-width="2" d="M2554.05,-287.7C2562.73,-279.14 2573.36,-268.66 2582.85,-259.3"/>
<polygon fill="grey" stroke="grey" stroke-width="2" points="2585.49,-261.62 2590.15,-252.1 2580.57,-256.63 2585.49,-261.62"/>
</g>
<!-- 9 -->
<g id="node10" class="node">
<title>9</title>
<path fill="none" stroke="#59d856" stroke-width="2" stroke-dasharray="5,2" d="M3051,-180C3051,-180 2964,-180 2964,-180 2958,-180 2952,-174 2952,-168 2952,-168 2952,-156 2952,-156 2952,-150 2958,-144 2964,-144 2964,-144 3051,-144 3051,-144 3057,-144 3063,-150 3063,-156 3063,-156 3063,-168 3063,-168 3063,-174 3057,-180 3051,-180"/>
<text text-anchor="middle" x="3007.5" y="-165" font-family="sans" font-size="10.00">SPAdes_untrimmed</text>
<text text-anchor="middle" x="3007.5" y="-154" font-family="sans" font-size="10.00">value_of_k: 31</text>
</g>
<!-- 9&#45;&gt;0 -->
<g id="edge5" class="edge">
<title>9&#45;&gt;0</title>
<path fill="none" stroke="grey" stroke-width="2" d="M2982.02,-143.99C2948.62,-122.73 2887.46,-87.28 2829.5,-72 2638.63,-21.68 2008.3,-18.8 1847.24,-18.9"/>
<polygon fill="grey" stroke="grey" stroke-width="2" points="1846.88,-15.4 1836.89,-18.91 1846.89,-22.4 1846.88,-15.4"/>
</g>
<!-- 45 -->
<g id="node46" class="node">
<title>45</title>
<path fill="none" stroke="#56a9d8" stroke-width="2" d="M3024,-108C3024,-108 2991,-108 2991,-108 2985,-108 2979,-102 2979,-96 2979,-96 2979,-84 2979,-84 2979,-78 2985,-72 2991,-72 2991,-72 3024,-72 3024,-72 3030,-72 3036,-78 3036,-84 3036,-84 3036,-96 3036,-96 3036,-102 3030,-108 3024,-108"/>
<text text-anchor="middle" x="3007.5" y="-87.5" font-family="sans" font-size="10.00">analysis</text>
</g>
<!-- 9&#45;&gt;45 -->
<g id="edge90" class="edge">
<title>9&#45;&gt;45</title>
<path fill="none" stroke="grey" stroke-width="2" d="M3007.5,-143.7C3007.5,-135.98 3007.5,-126.71 3007.5,-118.11"/>
<polygon fill="grey" stroke="grey" stroke-width="2" points="3011,-118.1 3007.5,-108.1 3004,-118.1 3011,-118.1"/>
</g>
<!-- 10 -->
<g id="node11" class="node">
<title>10</title>
<path fill="none" stroke="#afd856" stroke-width="2" stroke-dasharray="5,2" d="M3366.5,-324C3366.5,-324 3262.5,-324 3262.5,-324 3256.5,-324 3250.5,-318 3250.5,-312 3250.5,-312 3250.5,-300 3250.5,-300 3250.5,-294 3256.5,-288 3262.5,-288 3262.5,-288 3366.5,-288 3366.5,-288 3372.5,-288 3378.5,-294 3378.5,-300 3378.5,-300 3378.5,-312 3378.5,-312 3378.5,-318 3372.5,-324 3366.5,-324"/>
<text text-anchor="middle" x="3314.5" y="-309" font-family="sans" font-size="10.00">download_sr</text>
<text text-anchor="middle" x="3314.5" y="-298" font-family="sans" font-size="10.00">barcodes: SRR5584993</text>
</g>
<!-- 10&#45;&gt;9 -->
<g id="edge50" class="edge">
<title>10&#45;&gt;9</title>
<path fill="none" stroke="grey" stroke-width="2" d="M3277.47,-287.87C3221.46,-261.96 3115.26,-212.84 3054.08,-184.55"/>
<polygon fill="grey" stroke="grey" stroke-width="2" points="3055.21,-181.21 3044.66,-180.19 3052.27,-187.56 3055.21,-181.21"/>
</g>
<!-- 15 -->
<g id="node16" class="node">
<title>15</title>
<path fill="none" stroke="#59d856" stroke-width="2" stroke-dasharray="5,2" d="M3297,-180C3297,-180 3210,-180 3210,-180 3204,-180 3198,-174 3198,-168 3198,-168 3198,-156 3198,-156 3198,-150 3204,-144 3210,-144 3210,-144 3297,-144 3297,-144 3303,-144 3309,-150 3309,-156 3309,-156 3309,-168 3309,-168 3309,-174 3303,-180 3297,-180"/>
<text text-anchor="middle" x="3253.5" y="-165" font-family="sans" font-size="10.00">SPAdes_untrimmed</text>
<text text-anchor="middle" x="3253.5" y="-154" font-family="sans" font-size="10.00">value_of_k: 55</text>
</g>
<!-- 10&#45;&gt;15 -->
<g id="edge55" class="edge">
<title>10&#45;&gt;15</title>
<path fill="none" stroke="grey" stroke-width="2" d="M3307.14,-287.87C3296.65,-263.46 3277.31,-218.43 3264.94,-189.64"/>
<polygon fill="grey" stroke="grey" stroke-width="2" points="3268.05,-188 3260.88,-180.19 3261.62,-190.76 3268.05,-188"/>
</g>
<!-- 20 -->
<g id="node21" class="node">
<title>20</title>
<path fill="none" stroke="#59d856" stroke-width="2" d="M3660,-180C3660,-180 3573,-180 3573,-180 3567,-180 3561,-174 3561,-168 3561,-168 3561,-156 3561,-156 3561,-150 3567,-144 3573,-144 3573,-144 3660,-144 3660,-144 3666,-144 3672,-150 3672,-156 3672,-156 3672,-168 3672,-168 3672,-174 3666,-180 3660,-180"/>
<text text-anchor="middle" x="3616.5" y="-165" font-family="sans" font-size="10.00">SPAdes_untrimmed</text>
<text text-anchor="middle" x="3616.5" y="-154" font-family="sans" font-size="10.00">value_of_k: auto</text>
</g>
<!-- 10&#45;&gt;20 -->
<g id="edge60" class="edge">
<title>10&#45;&gt;20</title>
<path fill="none" stroke="grey" stroke-width="2" d="M3350.93,-287.87C3406.03,-261.96 3510.5,-212.84 3570.68,-184.55"/>
<polygon fill="grey" stroke="grey" stroke-width="2" points="3572.38,-187.61 3579.94,-180.19 3569.4,-181.28 3572.38,-187.61"/>
</g>
<!-- 30 -->
<g id="node31" class="node">
<title>30</title>
<path fill="none" stroke="#56d8a9" stroke-width="2" d="M3405.5,-252C3405.5,-252 3325.5,-252 3325.5,-252 3319.5,-252 3313.5,-246 3313.5,-240 3313.5,-240 3313.5,-228 3313.5,-228 3313.5,-222 3319.5,-216 3325.5,-216 3325.5,-216 3405.5,-216 3405.5,-216 3411.5,-216 3417.5,-222 3417.5,-228 3417.5,-228 3417.5,-240 3417.5,-240 3417.5,-246 3411.5,-252 3405.5,-252"/>
<text text-anchor="middle" x="3365.5" y="-231.5" font-family="sans" font-size="10.00">adapter_trimming</text>
</g>
<!-- 10&#45;&gt;30 -->
<g id="edge70" class="edge">
<title>10&#45;&gt;30</title>
<path fill="none" stroke="grey" stroke-width="2" d="M3327.11,-287.7C3333.1,-279.47 3340.38,-269.48 3346.98,-260.42"/>
<polygon fill="grey" stroke="grey" stroke-width="2" points="3349.98,-262.25 3353.04,-252.1 3344.32,-258.13 3349.98,-262.25"/>
</g>
<!-- 11&#45;&gt;0 -->
<g id="edge6" class="edge">
<title>11&#45;&gt;0</title>
<path fill="none" stroke="grey" stroke-width="2" d="M65.87,-143.75C79.8,-122.42 106.75,-87.07 140.5,-72 217.45,-37.63 1531.84,-21.97 1771.99,-19.39"/>
<polygon fill="grey" stroke="grey" stroke-width="2" points="1772.33,-22.88 1782.3,-19.28 1772.26,-15.88 1772.33,-22.88"/>
</g>
<!-- 46 -->
<g id="node47" class="node">
<title>46</title>
<path fill="none" stroke="#56a9d8" stroke-width="2" d="M195,-108C195,-108 162,-108 162,-108 156,-108 150,-102 150,-96 150,-96 150,-84 150,-84 150,-78 156,-72 162,-72 162,-72 195,-72 195,-72 201,-72 207,-78 207,-84 207,-84 207,-96 207,-96 207,-102 201,-108 195,-108"/>
<text text-anchor="middle" x="178.5" y="-87.5" font-family="sans" font-size="10.00">analysis</text>
</g>
<!-- 11&#45;&gt;46 -->
<g id="edge92" class="edge">
<title>11&#45;&gt;46</title>
<path fill="none" stroke="grey" stroke-width="2" d="M85.59,-143.88C102.3,-134.36 123.25,-122.44 141.02,-112.33"/>
<polygon fill="grey" stroke="grey" stroke-width="2" points="143.03,-115.21 149.99,-107.23 139.57,-109.13 143.03,-115.21"/>
</g>
<!-- 12&#45;&gt;0 -->
<g id="edge7" class="edge">
<title>12&#45;&gt;0</title>
<path fill="none" stroke="grey" stroke-width="2" d="M933.43,-143.95C963.26,-122.83 1017.8,-87.7 1070.5,-72 1204.04,-32.21 1640.86,-21.81 1771.97,-19.55"/>
<polygon fill="grey" stroke="grey" stroke-width="2" points="1772.35,-23.05 1782.29,-19.38 1772.23,-16.05 1772.35,-23.05"/>
</g>
<!-- 47 -->
<g id="node48" class="node">
<title>47</title>
<path fill="none" stroke="#56a9d8" stroke-width="2" d="M927,-108C927,-108 894,-108 894,-108 888,-108 882,-102 882,-96 882,-96 882,-84 882,-84 882,-78 888,-72 894,-72 894,-72 927,-72 927,-72 933,-72 939,-78 939,-84 939,-84 939,-96 939,-96 939,-102 933,-108 927,-108"/>
<text text-anchor="middle" x="910.5" y="-87.5" font-family="sans" font-size="10.00">analysis</text>
</g>
<!-- 12&#45;&gt;47 -->
<g id="edge94" class="edge">
<title>12&#45;&gt;47</title>
<path fill="none" stroke="grey" stroke-width="2" d="M910.5,-143.7C910.5,-135.98 910.5,-126.71 910.5,-118.11"/>
<polygon fill="grey" stroke="grey" stroke-width="2" points="914,-118.1 910.5,-108.1 907,-118.1 914,-118.1"/>
</g>
<!-- 13&#45;&gt;0 -->
<g id="edge8" class="edge">
<title>13&#45;&gt;0</title>
<path fill="none" stroke="grey" stroke-width="2" d="M1543.27,-143.92C1558.06,-123.76 1585.31,-90.62 1616.5,-72 1665.77,-42.59 1731.78,-29.07 1772.43,-23.18"/>
<polygon fill="grey" stroke="grey" stroke-width="2" points="1773.01,-26.63 1782.44,-21.81 1772.06,-19.69 1773.01,-26.63"/>
</g>
<!-- 48 -->
<g id="node49" class="node">
<title>48</title>
<path fill="none" stroke="#56a9d8" stroke-width="2" d="M1671,-108C1671,-108 1638,-108 1638,-108 1632,-108 1626,-102 1626,-96 1626,-96 1626,-84 1626,-84 1626,-78 1632,-72 1638,-72 1638,-72 1671,-72 1671,-72 1677,-72 1683,-78 1683,-84 1683,-84 1683,-96 1683,-96 1683,-102 1677,-108 1671,-108"/>
<text text-anchor="middle" x="1654.5" y="-87.5" font-family="sans" font-size="10.00">analysis</text>
</g>
<!-- 13&#45;&gt;48 -->
<g id="edge96" class="edge">
<title>13&#45;&gt;48</title>
<path fill="none" stroke="grey" stroke-width="2" d="M1561.59,-143.88C1578.3,-134.36 1599.25,-122.44 1617.02,-112.33"/>
<polygon fill="grey" stroke="grey" stroke-width="2" points="1619.03,-115.21 1625.99,-107.23 1615.57,-109.13 1619.03,-115.21"/>
</g>
<!-- 14&#45;&gt;0 -->
<g id="edge9" class="edge">
<title>14&#45;&gt;0</title>
<path fill="none" stroke="grey" stroke-width="2" d="M2344.31,-143.94C2311.61,-133.61 2269.14,-120.13 2231.5,-108 2182.54,-92.22 2171.44,-84.34 2121.5,-72 2023.63,-47.81 1905.78,-31.07 1846.86,-23.53"/>
<polygon fill="grey" stroke="grey" stroke-width="2" points="1847.27,-20.05 1836.91,-22.27 1846.39,-26.99 1847.27,-20.05"/>
</g>
<!-- 49 -->
<g id="node50" class="node">
<title>49</title>
<path fill="none" stroke="#56a9d8" stroke-width="2" d="M2415,-108C2415,-108 2382,-108 2382,-108 2376,-108 2370,-102 2370,-96 2370,-96 2370,-84 2370,-84 2370,-78 2376,-72 2382,-72 2382,-72 2415,-72 2415,-72 2421,-72 2427,-78 2427,-84 2427,-84 2427,-96 2427,-96 2427,-102 2421,-108 2415,-108"/>
<text text-anchor="middle" x="2398.5" y="-87.5" font-family="sans" font-size="10.00">analysis</text>
</g>
<!-- 14&#45;&gt;49 -->
<g id="edge98" class="edge">
<title>14&#45;&gt;49</title>
<path fill="none" stroke="grey" stroke-width="2" d="M2398.5,-143.7C2398.5,-135.98 2398.5,-126.71 2398.5,-118.11"/>
<polygon fill="grey" stroke="grey" stroke-width="2" points="2402,-118.1 2398.5,-108.1 2395,-118.1 2402,-118.1"/>
</g>
<!-- 15&#45;&gt;0 -->
<g id="edge10" class="edge">
<title>15&#45;&gt;0</title>
<path fill="none" stroke="grey" stroke-width="2" d="M3228.99,-143.89C3196.84,-122.53 3137.88,-86.97 3081.5,-72 2959.58,-39.62 2043.49,-22.84 1846.67,-19.59"/>
<polygon fill="grey" stroke="grey" stroke-width="2" points="1846.61,-16.09 1836.55,-19.42 1846.49,-23.09 1846.61,-16.09"/>
</g>
<!-- 50 -->
<g id="node51" class="node">
<title>50</title>
<path fill="none" stroke="#56a9d8" stroke-width="2" d="M3270,-108C3270,-108 3237,-108 3237,-108 3231,-108 3225,-102 3225,-96 3225,-96 3225,-84 3225,-84 3225,-78 3231,-72 3237,-72 3237,-72 3270,-72 3270,-72 3276,-72 3282,-78 3282,-84 3282,-84 3282,-96 3282,-96 3282,-102 3276,-108 3270,-108"/>
<text text-anchor="middle" x="3253.5" y="-87.5" font-family="sans" font-size="10.00">analysis</text>
</g>
<!-- 15&#45;&gt;50 -->
<g id="edge100" class="edge">
<title>15&#45;&gt;50</title>
<path fill="none" stroke="grey" stroke-width="2" d="M3253.5,-143.7C3253.5,-135.98 3253.5,-126.71 3253.5,-118.11"/>
<polygon fill="grey" stroke="grey" stroke-width="2" points="3257,-118.1 3253.5,-108.1 3250,-118.1 3257,-118.1"/>
</g>
<!-- 16&#45;&gt;0 -->
<g id="edge11" class="edge">
<title>16&#45;&gt;0</title>
<path fill="none" stroke="grey" stroke-width="2" d="M311.88,-143.78C325.82,-122.48 352.79,-87.17 386.5,-72 516.07,-13.7 1560.36,-17.37 1772.12,-18.72"/>
<polygon fill="grey" stroke="grey" stroke-width="2" points="1772.38,-22.22 1782.4,-18.79 1772.43,-15.22 1772.38,-22.22"/>
</g>
<!-- 51 -->
<g id="node52" class="node">
<title>51</title>
<path fill="none" stroke="#56a9d8" stroke-width="2" d="M441,-108C441,-108 408,-108 408,-108 402,-108 396,-102 396,-96 396,-96 396,-84 396,-84 396,-78 402,-72 408,-72 408,-72 441,-72 441,-72 447,-72 453,-78 453,-84 453,-84 453,-96 453,-96 453,-102 447,-108 441,-108"/>
<text text-anchor="middle" x="424.5" y="-87.5" font-family="sans" font-size="10.00">analysis</text>
</g>
<!-- 16&#45;&gt;51 -->
<g id="edge102" class="edge">
<title>16&#45;&gt;51</title>
<path fill="none" stroke="grey" stroke-width="2" d="M331.59,-143.88C348.3,-134.36 369.25,-122.44 387.02,-112.33"/>
<polygon fill="grey" stroke="grey" stroke-width="2" points="389.03,-115.21 395.99,-107.23 385.57,-109.13 389.03,-115.21"/>
</g>
<!-- 17&#45;&gt;0 -->
<g id="edge12" class="edge">
<title>17&#45;&gt;0</title>
<path fill="none" stroke="grey" stroke-width="2" d="M1429.56,-143.84C1462.09,-123.92 1518.89,-91.32 1571.5,-72 1640.21,-46.77 1724.69,-31.44 1772.28,-24.15"/>
<polygon fill="grey" stroke="grey" stroke-width="2" points="1773.05,-27.57 1782.43,-22.63 1772.02,-20.65 1773.05,-27.57"/>
</g>
<!-- 52 -->
<g id="node53" class="node">
<title>52</title>
<path fill="none" stroke="#56a9d8" stroke-width="2" d="M1419,-108C1419,-108 1386,-108 1386,-108 1380,-108 1374,-102 1374,-96 1374,-96 1374,-84 1374,-84 1374,-78 1380,-72 1386,-72 1386,-72 1419,-72 1419,-72 1425,-72 1431,-78 1431,-84 1431,-84 1431,-96 1431,-96 1431,-102 1425,-108 1419,-108"/>
<text text-anchor="middle" x="1402.5" y="-87.5" font-family="sans" font-size="10.00">analysis</text>
</g>
<!-- 17&#45;&gt;52 -->
<g id="edge104" class="edge">
<title>17&#45;&gt;52</title>
<path fill="none" stroke="grey" stroke-width="2" d="M1402.5,-143.7C1402.5,-135.98 1402.5,-126.71 1402.5,-118.11"/>
<polygon fill="grey" stroke="grey" stroke-width="2" points="1406,-118.1 1402.5,-108.1 1399,-118.1 1406,-118.1"/>
</g>
<!-- 18&#45;&gt;0 -->
<g id="edge13" class="edge">
<title>18&#45;&gt;0</title>
<path fill="none" stroke="grey" stroke-width="2" d="M2121.52,-143.69C2098.52,-123.63 2057.84,-90.89 2017.5,-72 1960.91,-45.5 1889.22,-30.98 1846.49,-24.11"/>
<polygon fill="grey" stroke="grey" stroke-width="2" points="1846.95,-20.64 1836.53,-22.57 1845.88,-27.56 1846.95,-20.64"/>
</g>
<!-- 53 -->
<g id="node54" class="node">
<title>53</title>
<path fill="none" stroke="#56a9d8" stroke-width="2" d="M1997,-108C1997,-108 1964,-108 1964,-108 1958,-108 1952,-102 1952,-96 1952,-96 1952,-84 1952,-84 1952,-78 1958,-72 1964,-72 1964,-72 1997,-72 1997,-72 2003,-72 2009,-78 2009,-84 2009,-84 2009,-96 2009,-96 2009,-102 2003,-108 1997,-108"/>
<text text-anchor="middle" x="1980.5" y="-87.5" font-family="sans" font-size="10.00">analysis</text>
</g>
<!-- 18&#45;&gt;53 -->
<g id="edge106" class="edge">
<title>18&#45;&gt;53</title>
<path fill="none" stroke="grey" stroke-width="2" d="M2101.36,-143.88C2076.09,-132.82 2043.39,-118.52 2018.38,-107.57"/>
<polygon fill="grey" stroke="grey" stroke-width="2" points="2019.76,-104.36 2009.2,-103.56 2016.96,-110.77 2019.76,-104.36"/>
</g>
<!-- 19&#45;&gt;0 -->
<g id="edge14" class="edge">
<title>19&#45;&gt;0</title>
<path fill="none" stroke="grey" stroke-width="2" d="M2235.15,-143.92C2194.37,-124.21 2123.88,-91.98 2060.5,-72 1986.14,-48.56 1896.12,-32.4 1846.62,-24.52"/>
<polygon fill="grey" stroke="grey" stroke-width="2" points="1847.11,-21.05 1836.69,-22.96 1846.03,-27.97 1847.11,-21.05"/>
</g>
<!-- 54 -->
<g id="node55" class="node">
<title>54</title>
<path fill="none" stroke="#56a9d8" stroke-width="2" d="M2286,-108C2286,-108 2253,-108 2253,-108 2247,-108 2241,-102 2241,-96 2241,-96 2241,-84 2241,-84 2241,-78 2247,-72 2253,-72 2253,-72 2286,-72 2286,-72 2292,-72 2298,-78 2298,-84 2298,-84 2298,-96 2298,-96 2298,-102 2292,-108 2286,-108"/>
<text text-anchor="middle" x="2269.5" y="-87.5" font-family="sans" font-size="10.00">analysis</text>
</g>
<!-- 19&#45;&gt;54 -->
<g id="edge108" class="edge">
<title>19&#45;&gt;54</title>
<path fill="none" stroke="grey" stroke-width="2" d="M2269.5,-143.7C2269.5,-135.98 2269.5,-126.71 2269.5,-118.11"/>
<polygon fill="grey" stroke="grey" stroke-width="2" points="2273,-118.1 2269.5,-108.1 2266,-118.1 2273,-118.1"/>
</g>
<!-- 20&#45;&gt;0 -->
<g id="edge15" class="edge">
<title>20&#45;&gt;0</title>
<path fill="none" stroke="grey" stroke-width="2" d="M3605.96,-143.74C3591.82,-122.4 3564.49,-87.04 3530.5,-72 3450.87,-36.76 2090.13,-21.76 1846.64,-19.35"/>
<polygon fill="grey" stroke="grey" stroke-width="2" points="1846.56,-15.85 1836.53,-19.25 1846.49,-22.85 1846.56,-15.85"/>
</g>
<!-- 55 -->
<g id="node56" class="node">
<title>55</title>
<path fill="none" stroke="#56a9d8" stroke-width="2" d="M3510,-108C3510,-108 3477,-108 3477,-108 3471,-108 3465,-102 3465,-96 3465,-96 3465,-84 3465,-84 3465,-78 3471,-72 3477,-72 3477,-72 3510,-72 3510,-72 3516,-72 3522,-78 3522,-84 3522,-84 3522,-96 3522,-96 3522,-102 3516,-108 3510,-108"/>
<text text-anchor="middle" x="3493.5" y="-87.5" font-family="sans" font-size="10.00">analysis</text>
</g>
<!-- 20&#45;&gt;55 -->
<g id="edge110" class="edge">
<title>20&#45;&gt;55</title>
<path fill="none" stroke="grey" stroke-width="2" d="M3586.41,-143.88C3569.7,-134.36 3548.75,-122.44 3530.98,-112.33"/>
<polygon fill="grey" stroke="grey" stroke-width="2" points="3532.43,-109.13 3522.01,-107.23 3528.97,-115.21 3532.43,-109.13"/>
</g>
<!-- 21 -->
<g id="node22" class="node">
<title>21</title>
<path fill="none" stroke="#d8ac56" stroke-width="2" d="M579,-180C579,-180 504,-180 504,-180 498,-180 492,-174 492,-168 492,-168 492,-156 492,-156 492,-150 498,-144 504,-144 504,-144 579,-144 579,-144 585,-144 591,-150 591,-156 591,-156 591,-168 591,-168 591,-174 585,-180 579,-180"/>
<text text-anchor="middle" x="541.5" y="-165" font-family="sans" font-size="10.00">SPAdes_trimmed</text>
<text text-anchor="middle" x="541.5" y="-154" font-family="sans" font-size="10.00">value_of_k: 31</text>
</g>
<!-- 21&#45;&gt;0 -->
<g id="edge16" class="edge">
<title>21&#45;&gt;0</title>
<path fill="none" stroke="grey" stroke-width="2" d="M551.9,-143.82C565.86,-122.56 592.85,-87.29 626.5,-72 732.87,-23.66 1583.17,-19.38 1772.31,-19.03"/>
<polygon fill="grey" stroke="grey" stroke-width="2" points="1772.32,-22.53 1782.32,-19.01 1772.31,-15.53 1772.32,-22.53"/>
</g>
<!-- 21&#45;&gt;41 -->
<g id="edge81" class="edge">
<title>21&#45;&gt;41</title>
<path fill="none" stroke="grey" stroke-width="2" d="M571.59,-143.88C588.3,-134.36 609.25,-122.44 627.02,-112.33"/>
<polygon fill="grey" stroke="grey" stroke-width="2" points="629.03,-115.21 635.99,-107.23 625.57,-109.13 629.03,-115.21"/>
</g>
<!-- 22&#45;&gt;21 -->
<g id="edge61" class="edge">
<title>22&#45;&gt;21</title>
<path fill="none" stroke="grey" stroke-width="2" d="M444.81,-215.88C461.7,-206.64 482.75,-195.13 500.88,-185.21"/>
<polygon fill="grey" stroke="grey" stroke-width="2" points="502.97,-188.06 510.07,-180.19 499.61,-181.92 502.97,-188.06"/>
</g>
<!-- 31 -->
<g id="node32" class="node">
<title>31</title>
<path fill="none" stroke="#d8ac56" stroke-width="2" d="M216,-180C216,-180 141,-180 141,-180 135,-180 129,-174 129,-168 129,-168 129,-156 129,-156 129,-150 135,-144 141,-144 141,-144 216,-144 216,-144 222,-144 228,-150 228,-156 228,-156 228,-168 228,-168 228,-174 222,-180 216,-180"/>
<text text-anchor="middle" x="178.5" y="-165" font-family="sans" font-size="10.00">SPAdes_trimmed</text>
<text text-anchor="middle" x="178.5" y="-154" font-family="sans" font-size="10.00">value_of_k: 55</text>
</g>
<!-- 22&#45;&gt;31 -->
<g id="edge71" class="edge">
<title>22&#45;&gt;31</title>
<path fill="none" stroke="grey" stroke-width="2" d="M361.35,-217.46C324.85,-206.59 276.03,-192.05 238.01,-180.73"/>
<polygon fill="grey" stroke="grey" stroke-width="2" points="238.68,-177.27 228.1,-177.77 236.68,-183.98 238.68,-177.27"/>
</g>
<!-- 36 -->
<g id="node37" class="node">
<title>36</title>
<path fill="none" stroke="#d8ac56" stroke-width="2" d="M462,-180C462,-180 387,-180 387,-180 381,-180 375,-174 375,-168 375,-168 375,-156 375,-156 375,-150 381,-144 387,-144 387,-144 462,-144 462,-144 468,-144 474,-150 474,-156 474,-156 474,-168 474,-168 474,-174 468,-180 462,-180"/>
<text text-anchor="middle" x="424.5" y="-165" font-family="sans" font-size="10.00">SPAdes_trimmed</text>
<text text-anchor="middle" x="424.5" y="-154" font-family="sans" font-size="10.00">value_of_k: auto</text>
</g>
<!-- 22&#45;&gt;36 -->
<g id="edge76" class="edge">
<title>22&#45;&gt;36</title>
<path fill="none" stroke="grey" stroke-width="2" d="M416.22,-215.7C417.43,-207.98 418.89,-198.71 420.24,-190.11"/>
<polygon fill="grey" stroke="grey" stroke-width="2" points="423.72,-190.53 421.81,-180.1 416.8,-189.44 423.72,-190.53"/>
</g>
<!-- 23 -->
<g id="node24" class="node">
<title>23</title>
<path fill="none" stroke="#d8ac56" stroke-width="2" d="M1071,-180C1071,-180 996,-180 996,-180 990,-180 984,-174 984,-168 984,-168 984,-156 984,-156 984,-150 990,-144 996,-144 996,-144 1071,-144 1071,-144 1077,-144 1083,-150 1083,-156 1083,-156 1083,-168 1083,-168 1083,-174 1077,-180 1071,-180"/>
<text text-anchor="middle" x="1033.5" y="-165" font-family="sans" font-size="10.00">SPAdes_trimmed</text>
<text text-anchor="middle" x="1033.5" y="-154" font-family="sans" font-size="10.00">value_of_k: 31</text>
</g>
<!-- 23&#45;&gt;0 -->
<g id="edge17" class="edge">
<title>23&#45;&gt;0</title>
<path fill="none" stroke="grey" stroke-width="2" d="M1043.98,-143.99C1058.02,-122.91 1085.1,-87.83 1118.5,-72 1177.72,-43.94 1636.55,-25.26 1771.98,-20.31"/>
<polygon fill="grey" stroke="grey" stroke-width="2" points="1772.39,-23.8 1782.26,-19.94 1772.14,-16.8 1772.39,-23.8"/>
</g>
<!-- 23&#45;&gt;42 -->
<g id="edge83" class="edge">
<title>23&#45;&gt;42</title>
<path fill="none" stroke="grey" stroke-width="2" d="M1063.59,-143.88C1080.3,-134.36 1101.25,-122.44 1119.02,-112.33"/>
<polygon fill="grey" stroke="grey" stroke-width="2" points="1121.03,-115.21 1127.99,-107.23 1117.57,-109.13 1121.03,-115.21"/>
</g>
<!-- 24&#45;&gt;23 -->
<g id="edge63" class="edge">
<title>24&#45;&gt;23</title>
<path fill="none" stroke="grey" stroke-width="2" d="M1041.78,-215.7C1040.57,-207.98 1039.11,-198.71 1037.76,-190.11"/>
<polygon fill="grey" stroke="grey" stroke-width="2" points="1041.2,-189.44 1036.19,-180.1 1034.28,-190.53 1041.2,-189.44"/>
</g>
<!-- 32 -->
<g id="node33" class="node">
<title>32</title>
<path fill="none" stroke="#d8ac56" stroke-width="2" d="M825,-180C825,-180 750,-180 750,-180 744,-180 738,-174 738,-168 738,-168 738,-156 738,-156 738,-150 744,-144 750,-144 750,-144 825,-144 825,-144 831,-144 837,-150 837,-156 837,-156 837,-168 837,-168 837,-174 831,-180 825,-180"/>
<text text-anchor="middle" x="787.5" y="-165" font-family="sans" font-size="10.00">SPAdes_trimmed</text>
<text text-anchor="middle" x="787.5" y="-154" font-family="sans" font-size="10.00">value_of_k: 55</text>
</g>
<!-- 24&#45;&gt;32 -->
<g id="edge72" class="edge">
<title>24&#45;&gt;32</title>
<path fill="none" stroke="grey" stroke-width="2" d="M992.45,-219.51C954.52,-209.6 901.66,-195.61 847.01,-180.39"/>
<polygon fill="grey" stroke="grey" stroke-width="2" points="847.72,-176.96 837.15,-177.64 845.84,-183.7 847.72,-176.96"/>
</g>
<!-- 37 -->
<g id="node38" class="node">
<title>37</title>
<path fill="none" stroke="#d8ac56" stroke-width="2" d="M1317,-180C1317,-180 1242,-180 1242,-180 1236,-180 1230,-174 1230,-168 1230,-168 1230,-156 1230,-156 1230,-150 1236,-144 1242,-144 1242,-144 1317,-144 1317,-144 1323,-144 1329,-150 1329,-156 1329,-156 1329,-168 1329,-168 1329,-174 1323,-180 1317,-180"/>
<text text-anchor="middle" x="1279.5" y="-165" font-family="sans" font-size="10.00">SPAdes_trimmed</text>
<text text-anchor="middle" x="1279.5" y="-154" font-family="sans" font-size="10.00">value_of_k: auto</text>
</g>
<!-- 24&#45;&gt;37 -->
<g id="edge77" class="edge">
<title>24&#45;&gt;37</title>
<path fill="none" stroke="grey" stroke-width="2" d="M1096.65,-217.46C1133.15,-206.59 1181.97,-192.05 1219.99,-180.73"/>
<polygon fill="grey" stroke="grey" stroke-width="2" points="1221.32,-183.98 1229.9,-177.77 1219.32,-177.27 1221.32,-183.98"/>
</g>
<!-- 25 -->
<g id="node26" class="node">
<title>25</title>
<path fill="none" stroke="#d8ac56" stroke-width="2" d="M1809,-180C1809,-180 1734,-180 1734,-180 1728,-180 1722,-174 1722,-168 1722,-168 1722,-156 1722,-156 1722,-150 1728,-144 1734,-144 1734,-144 1809,-144 1809,-144 1815,-144 1821,-150 1821,-156 1821,-156 1821,-168 1821,-168 1821,-174 1815,-180 1809,-180"/>
<text text-anchor="middle" x="1771.5" y="-165" font-family="sans" font-size="10.00">SPAdes_trimmed</text>
<text text-anchor="middle" x="1771.5" y="-154" font-family="sans" font-size="10.00">value_of_k: 31</text>
</g>
<!-- 25&#45;&gt;0 -->
<g id="edge18" class="edge">
<title>25&#45;&gt;0</title>
<path fill="none" stroke="grey" stroke-width="2" d="M1776.08,-143.87C1782.59,-119.56 1794.56,-74.82 1802.27,-46.01"/>
<polygon fill="grey" stroke="grey" stroke-width="2" points="1805.7,-46.75 1804.9,-36.19 1798.93,-44.94 1805.7,-46.75"/>
</g>
<!-- 25&#45;&gt;43 -->
<g id="edge85" class="edge">
<title>25&#45;&gt;43</title>
<path fill="none" stroke="grey" stroke-width="2" d="M1794.98,-143.7C1807.06,-134.8 1821.95,-123.82 1835.02,-114.2"/>
<polygon fill="grey" stroke="grey" stroke-width="2" points="1837.31,-116.85 1843.29,-108.1 1833.16,-111.22 1837.31,-116.85"/>
</g>
<!-- 26&#45;&gt;25 -->
<g id="edge65" class="edge">
<title>26&#45;&gt;25</title>
<path fill="none" stroke="grey" stroke-width="2" d="M1801.61,-215.7C1797.01,-207.64 1791.44,-197.89 1786.35,-188.98"/>
<polygon fill="grey" stroke="grey" stroke-width="2" points="1789.27,-187.05 1781.27,-180.1 1783.2,-190.52 1789.27,-187.05"/>
</g>
<!-- 33 -->
<g id="node34" class="node">
<title>33</title>
<path fill="none" stroke="#d8ac56" stroke-width="2" d="M1692,-180C1692,-180 1617,-180 1617,-180 1611,-180 1605,-174 1605,-168 1605,-168 1605,-156 1605,-156 1605,-150 1611,-144 1617,-144 1617,-144 1692,-144 1692,-144 1698,-144 1704,-150 1704,-156 1704,-156 1704,-168 1704,-168 1704,-174 1698,-180 1692,-180"/>
<text text-anchor="middle" x="1654.5" y="-165" font-family="sans" font-size="10.00">SPAdes_trimmed</text>
<text text-anchor="middle" x="1654.5" y="-154" font-family="sans" font-size="10.00">value_of_k: 55</text>
</g>
<!-- 26&#45;&gt;33 -->
<g id="edge73" class="edge">
<title>26&#45;&gt;33</title>
<path fill="none" stroke="grey" stroke-width="2" d="M1773.09,-215.88C1751.63,-206.31 1724.7,-194.3 1701.93,-184.15"/>
<polygon fill="grey" stroke="grey" stroke-width="2" points="1703.34,-180.94 1692.78,-180.07 1700.49,-187.34 1703.34,-180.94"/>
</g>
<!-- 38 -->
<g id="node39" class="node">
<title>38</title>
<path fill="none" stroke="#d8ac56" stroke-width="2" d="M1926,-180C1926,-180 1851,-180 1851,-180 1845,-180 1839,-174 1839,-168 1839,-168 1839,-156 1839,-156 1839,-150 1845,-144 1851,-144 1851,-144 1926,-144 1926,-144 1932,-144 1938,-150 1938,-156 1938,-156 1938,-168 1938,-168 1938,-174 1932,-180 1926,-180"/>
<text text-anchor="middle" x="1888.5" y="-165" font-family="sans" font-size="10.00">SPAdes_trimmed</text>
<text text-anchor="middle" x="1888.5" y="-154" font-family="sans" font-size="10.00">value_of_k: auto</text>
</g>
<!-- 26&#45;&gt;38 -->
<g id="edge78" class="edge">
<title>26&#45;&gt;38</title>
<path fill="none" stroke="grey" stroke-width="2" d="M1830.53,-215.7C1840.04,-207.05 1851.71,-196.45 1862.07,-187.03"/>
<polygon fill="grey" stroke="grey" stroke-width="2" points="1864.64,-189.42 1869.69,-180.1 1859.93,-184.24 1864.64,-189.42"/>
</g>
<!-- 27 -->
<g id="node28" class="node">
<title>27</title>
<path fill="none" stroke="#d8ac56" stroke-width="2" d="M2793,-180C2793,-180 2718,-180 2718,-180 2712,-180 2706,-174 2706,-168 2706,-168 2706,-156 2706,-156 2706,-150 2712,-144 2718,-144 2718,-144 2793,-144 2793,-144 2799,-144 2805,-150 2805,-156 2805,-156 2805,-168 2805,-168 2805,-174 2799,-180 2793,-180"/>
<text text-anchor="middle" x="2755.5" y="-165" font-family="sans" font-size="10.00">SPAdes_trimmed</text>
<text text-anchor="middle" x="2755.5" y="-154" font-family="sans" font-size="10.00">value_of_k: 31</text>
</g>
<!-- 27&#45;&gt;0 -->
<g id="edge19" class="edge">
<title>27&#45;&gt;0</title>
<path fill="none" stroke="grey" stroke-width="2" d="M2716.33,-143.88C2666.69,-123.03 2578.01,-88.54 2498.5,-72 2253.78,-21.1 1951.03,-17.94 1846.8,-18.53"/>
<polygon fill="grey" stroke="grey" stroke-width="2" points="1846.75,-15.03 1836.77,-18.61 1846.8,-22.03 1846.75,-15.03"/>
</g>
<!-- 27&#45;&gt;44 -->
<g id="edge87" class="edge">
<title>27&#45;&gt;44</title>
<path fill="none" stroke="grey" stroke-width="2" d="M2755.5,-143.7C2755.5,-135.98 2755.5,-126.71 2755.5,-118.11"/>
<polygon fill="grey" stroke="grey" stroke-width="2" points="2759,-118.1 2755.5,-108.1 2752,-118.1 2759,-118.1"/>
</g>
<!-- 28&#45;&gt;27 -->
<g id="edge67" class="edge">
<title>28&#45;&gt;27</title>
<path fill="none" stroke="grey" stroke-width="2" d="M2643.7,-215.88C2663.76,-206.39 2688.87,-194.51 2710.21,-184.42"/>
<polygon fill="grey" stroke="grey" stroke-width="2" points="2711.87,-187.51 2719.41,-180.07 2708.88,-181.18 2711.87,-187.51"/>
</g>
<!-- 34 -->
<g id="node35" class="node">
<title>34</title>
<path fill="none" stroke="#d8ac56" stroke-width="2" d="M2676,-180C2676,-180 2601,-180 2601,-180 2595,-180 2589,-174 2589,-168 2589,-168 2589,-156 2589,-156 2589,-150 2595,-144 2601,-144 2601,-144 2676,-144 2676,-144 2682,-144 2688,-150 2688,-156 2688,-156 2688,-168 2688,-168 2688,-174 2682,-180 2676,-180"/>
<text text-anchor="middle" x="2638.5" y="-165" font-family="sans" font-size="10.00">SPAdes_trimmed</text>
<text text-anchor="middle" x="2638.5" y="-154" font-family="sans" font-size="10.00">value_of_k: 55</text>
</g>
<!-- 28&#45;&gt;34 -->
<g id="edge74" class="edge">
<title>28&#45;&gt;34</title>
<path fill="none" stroke="grey" stroke-width="2" d="M2615.16,-215.7C2618.69,-207.73 2622.96,-198.1 2626.87,-189.26"/>
<polygon fill="grey" stroke="grey" stroke-width="2" points="2630.08,-190.67 2630.93,-180.1 2623.68,-187.83 2630.08,-190.67"/>
</g>
<!-- 39 -->
<g id="node40" class="node">
<title>39</title>
<path fill="none" stroke="#d8ac56" stroke-width="2" d="M2559,-180C2559,-180 2484,-180 2484,-180 2478,-180 2472,-174 2472,-168 2472,-168 2472,-156 2472,-156 2472,-150 2478,-144 2484,-144 2484,-144 2559,-144 2559,-144 2565,-144 2571,-150 2571,-156 2571,-156 2571,-168 2571,-168 2571,-174 2565,-180 2559,-180"/>
<text text-anchor="middle" x="2521.5" y="-165" font-family="sans" font-size="10.00">SPAdes_trimmed</text>
<text text-anchor="middle" x="2521.5" y="-154" font-family="sans" font-size="10.00">value_of_k: auto</text>
</g>
<!-- 28&#45;&gt;39 -->
<g id="edge79" class="edge">
<title>28&#45;&gt;39</title>
<path fill="none" stroke="grey" stroke-width="2" d="M2586.24,-215.7C2575.41,-206.88 2562.08,-196.03 2550.34,-186.47"/>
<polygon fill="grey" stroke="grey" stroke-width="2" points="2552.48,-183.7 2542.51,-180.1 2548.06,-189.13 2552.48,-183.7"/>
</g>
<!-- 29 -->
<g id="node30" class="node">
<title>29</title>
<path fill="none" stroke="#d8ac56" stroke-width="2" d="M3168,-180C3168,-180 3093,-180 3093,-180 3087,-180 3081,-174 3081,-168 3081,-168 3081,-156 3081,-156 3081,-150 3087,-144 3093,-144 3093,-144 3168,-144 3168,-144 3174,-144 3180,-150 3180,-156 3180,-156 3180,-168 3180,-168 3180,-174 3174,-180 3168,-180"/>
<text text-anchor="middle" x="3130.5" y="-165" font-family="sans" font-size="10.00">SPAdes_trimmed</text>
<text text-anchor="middle" x="3130.5" y="-154" font-family="sans" font-size="10.00">value_of_k: 31</text>
</g>
<!-- 29&#45;&gt;0 -->
<g id="edge20" class="edge">
<title>29&#45;&gt;0</title>
<path fill="none" stroke="grey" stroke-width="2" d="M3119.93,-143.81C3105.76,-122.53 3078.4,-87.25 3044.5,-72 2932.97,-21.83 2041.02,-18.98 1846.76,-18.96"/>
<polygon fill="grey" stroke="grey" stroke-width="2" points="1846.76,-15.46 1836.76,-18.96 1846.76,-22.46 1846.76,-15.46"/>
</g>
<!-- 29&#45;&gt;45 -->
<g id="edge89" class="edge">
<title>29&#45;&gt;45</title>
<path fill="none" stroke="grey" stroke-width="2" d="M3100.41,-143.88C3083.7,-134.36 3062.75,-122.44 3044.98,-112.33"/>
<polygon fill="grey" stroke="grey" stroke-width="2" points="3046.43,-109.13 3036.01,-107.23 3042.97,-115.21 3046.43,-109.13"/>
</g>
<!-- 30&#45;&gt;29 -->
<g id="edge69" class="edge">
<title>30&#45;&gt;29</title>
<path fill="none" stroke="grey" stroke-width="2" d="M3313.35,-217.46C3276.85,-206.59 3228.03,-192.05 3190.01,-180.73"/>
<polygon fill="grey" stroke="grey" stroke-width="2" points="3190.68,-177.27 3180.1,-177.77 3188.68,-183.98 3190.68,-177.27"/>
</g>
<!-- 35 -->
<g id="node36" class="node">
<title>35</title>
<path fill="none" stroke="#d8ac56" stroke-width="2" d="M3414,-180C3414,-180 3339,-180 3339,-180 3333,-180 3327,-174 3327,-168 3327,-168 3327,-156 3327,-156 3327,-150 3333,-144 3339,-144 3339,-144 3414,-144 3414,-144 3420,-144 3426,-150 3426,-156 3426,-156 3426,-168 3426,-168 3426,-174 3420,-180 3414,-180"/>
<text text-anchor="middle" x="3376.5" y="-165" font-family="sans" font-size="10.00">SPAdes_trimmed</text>
<text text-anchor="middle" x="3376.5" y="-154" font-family="sans" font-size="10.00">value_of_k: 55</text>
</g>
<!-- 30&#45;&gt;35 -->
<g id="edge75" class="edge">
<title>30&#45;&gt;35</title>
<path fill="none" stroke="grey" stroke-width="2" d="M3368.22,-215.7C3369.43,-207.98 3370.89,-198.71 3372.24,-190.11"/>
<polygon fill="grey" stroke="grey" stroke-width="2" points="3375.72,-190.53 3373.81,-180.1 3368.8,-189.44 3375.72,-190.53"/>
</g>
<!-- 40 -->
<g id="node41" class="node">
<title>40</title>
<path fill="none" stroke="#d8ac56" stroke-width="2" d="M3531,-180C3531,-180 3456,-180 3456,-180 3450,-180 3444,-174 3444,-168 3444,-168 3444,-156 3444,-156 3444,-150 3450,-144 3456,-144 3456,-144 3531,-144 3531,-144 3537,-144 3543,-150 3543,-156 3543,-156 3543,-168 3543,-168 3543,-174 3537,-180 3531,-180"/>
<text text-anchor="middle" x="3493.5" y="-165" font-family="sans" font-size="10.00">SPAdes_trimmed</text>
<text text-anchor="middle" x="3493.5" y="-154" font-family="sans" font-size="10.00">value_of_k: auto</text>
</g>
<!-- 30&#45;&gt;40 -->
<g id="edge80" class="edge">
<title>30&#45;&gt;40</title>
<path fill="none" stroke="grey" stroke-width="2" d="M3396.81,-215.88C3413.7,-206.64 3434.75,-195.13 3452.88,-185.21"/>
<polygon fill="grey" stroke="grey" stroke-width="2" points="3454.97,-188.06 3462.07,-180.19 3451.61,-181.92 3454.97,-188.06"/>
</g>
<!-- 31&#45;&gt;0 -->
<g id="edge21" class="edge">
<title>31&#45;&gt;0</title>
<path fill="none" stroke="grey" stroke-width="2" d="M201.09,-143.84C230.77,-122.42 285.38,-86.81 338.5,-72 480.19,-32.51 1556.85,-21.18 1772.11,-19.3"/>
<polygon fill="grey" stroke="grey" stroke-width="2" points="1772.3,-22.8 1782.27,-19.22 1772.24,-15.8 1772.3,-22.8"/>
</g>
<!-- 31&#45;&gt;46 -->
<g id="edge91" class="edge">
<title>31&#45;&gt;46</title>
<path fill="none" stroke="grey" stroke-width="2" d="M178.5,-143.7C178.5,-135.98 178.5,-126.71 178.5,-118.11"/>
<polygon fill="grey" stroke="grey" stroke-width="2" points="182,-118.1 178.5,-108.1 175,-118.1 182,-118.1"/>
</g>
<!-- 32&#45;&gt;0 -->
<g id="edge22" class="edge">
<title>32&#45;&gt;0</title>
<path fill="none" stroke="grey" stroke-width="2" d="M797.93,-143.89C811.92,-122.69 838.94,-87.49 872.5,-72 955.19,-33.83 1608.21,-21.91 1772.23,-19.5"/>
<polygon fill="grey" stroke="grey" stroke-width="2" points="1772.36,-23 1782.31,-19.35 1772.26,-16 1772.36,-23"/>
</g>
<!-- 32&#45;&gt;47 -->
<g id="edge93" class="edge">
<title>32&#45;&gt;47</title>
<path fill="none" stroke="grey" stroke-width="2" d="M817.59,-143.88C834.3,-134.36 855.25,-122.44 873.02,-112.33"/>
<polygon fill="grey" stroke="grey" stroke-width="2" points="875.03,-115.21 881.99,-107.23 871.57,-109.13 875.03,-115.21"/>
</g>
<!-- 33&#45;&gt;0 -->
<g id="edge23" class="edge">
<title>33&#45;&gt;0</title>
<path fill="none" stroke="grey" stroke-width="2" d="M1673.2,-143.87C1700.66,-118.71 1752.03,-71.65 1783.26,-43.04"/>
<polygon fill="grey" stroke="grey" stroke-width="2" points="1785.73,-45.53 1790.74,-36.19 1781,-40.36 1785.73,-45.53"/>
</g>
<!-- 33&#45;&gt;48 -->
<g id="edge95" class="edge">
<title>33&#45;&gt;48</title>
<path fill="none" stroke="grey" stroke-width="2" d="M1654.5,-143.7C1654.5,-135.98 1654.5,-126.71 1654.5,-118.11"/>
<polygon fill="grey" stroke="grey" stroke-width="2" points="1658,-118.1 1654.5,-108.1 1651,-118.1 1658,-118.1"/>
</g>
<!-- 34&#45;&gt;0 -->
<g id="edge24" class="edge">
<title>34&#45;&gt;0</title>
<path fill="none" stroke="grey" stroke-width="2" d="M2608.33,-143.99C2569.64,-123.07 2499.84,-88.35 2435.5,-72 2322.87,-43.38 1963.99,-25.68 1846.86,-20.56"/>
<polygon fill="grey" stroke="grey" stroke-width="2" points="1846.76,-17.05 1836.61,-20.11 1846.45,-24.04 1846.76,-17.05"/>
</g>
<!-- 34&#45;&gt;49 -->
<g id="edge97" class="edge">
<title>34&#45;&gt;49</title>
<path fill="none" stroke="grey" stroke-width="2" d="M2588.77,-146.5C2543.62,-133.33 2477.96,-114.18 2436.78,-102.16"/>
<polygon fill="grey" stroke="grey" stroke-width="2" points="2437.69,-98.79 2427.11,-99.35 2435.73,-105.51 2437.69,-98.79"/>
</g>
<!-- 35&#45;&gt;0 -->
<g id="edge25" class="edge">
<title>35&#45;&gt;0</title>
<path fill="none" stroke="grey" stroke-width="2" d="M3365.95,-143.77C3351.79,-122.45 3324.45,-87.13 3290.5,-72 3222.61,-41.75 2070.48,-22.93 1846.91,-19.55"/>
<polygon fill="grey" stroke="grey" stroke-width="2" points="1846.73,-16.05 1836.68,-19.4 1846.63,-23.04 1846.73,-16.05"/>
</g>
<!-- 35&#45;&gt;50 -->
<g id="edge99" class="edge">
<title>35&#45;&gt;50</title>
<path fill="none" stroke="grey" stroke-width="2" d="M3346.41,-143.88C3329.7,-134.36 3308.75,-122.44 3290.98,-112.33"/>
<polygon fill="grey" stroke="grey" stroke-width="2" points="3292.43,-109.13 3282.01,-107.23 3288.97,-115.21 3292.43,-109.13"/>
</g>
<!-- 36&#45;&gt;0 -->
<g id="edge26" class="edge">
<title>36&#45;&gt;0</title>
<path fill="none" stroke="grey" stroke-width="2" d="M446.39,-143.71C474.91,-122.34 527.21,-86.94 578.5,-72 695.47,-37.92 1579.14,-22.52 1772.28,-19.55"/>
<polygon fill="grey" stroke="grey" stroke-width="2" points="1772.54,-23.04 1782.49,-19.39 1772.43,-16.04 1772.54,-23.04"/>
</g>
<!-- 36&#45;&gt;51 -->
<g id="edge101" class="edge">
<title>36&#45;&gt;51</title>
<path fill="none" stroke="grey" stroke-width="2" d="M424.5,-143.7C424.5,-135.98 424.5,-126.71 424.5,-118.11"/>
<polygon fill="grey" stroke="grey" stroke-width="2" points="428,-118.1 424.5,-108.1 421,-118.1 428,-118.1"/>
</g>
<!-- 37&#45;&gt;0 -->
<g id="edge27" class="edge">
<title>37&#45;&gt;0</title>
<path fill="none" stroke="grey" stroke-width="2" d="M1290.33,-143.85C1304.56,-122.96 1331.63,-88.43 1364.5,-72 1435.87,-36.33 1678.51,-23.8 1772.18,-20.22"/>
<polygon fill="grey" stroke="grey" stroke-width="2" points="1772.46,-23.71 1782.33,-19.85 1772.2,-16.72 1772.46,-23.71"/>
</g>
<!-- 37&#45;&gt;52 -->
<g id="edge103" class="edge">
<title>37&#45;&gt;52</title>
<path fill="none" stroke="grey" stroke-width="2" d="M1309.59,-143.88C1326.3,-134.36 1347.25,-122.44 1365.02,-112.33"/>
<polygon fill="grey" stroke="grey" stroke-width="2" points="1367.03,-115.21 1373.99,-107.23 1363.57,-109.13 1367.03,-115.21"/>
</g>
<!-- 38&#45;&gt;0 -->
<g id="edge28" class="edge">
<title>38&#45;&gt;0</title>
<path fill="none" stroke="grey" stroke-width="2" d="M1862.51,-143.98C1850.4,-134.74 1836.84,-122.28 1828.5,-108 1817.51,-89.18 1812.84,-64.81 1810.88,-46.32"/>
<polygon fill="grey" stroke="grey" stroke-width="2" points="1814.36,-45.87 1810.01,-36.21 1807.38,-46.47 1814.36,-45.87"/>
</g>
<!-- 38&#45;&gt;53 -->
<g id="edge105" class="edge">
<title>38&#45;&gt;53</title>
<path fill="none" stroke="grey" stroke-width="2" d="M1911.24,-143.7C1922.94,-134.8 1937.36,-123.82 1950.01,-114.2"/>
<polygon fill="grey" stroke="grey" stroke-width="2" points="1952.18,-116.94 1958.02,-108.1 1947.94,-111.37 1952.18,-116.94"/>
</g>
<!-- 39&#45;&gt;0 -->
<g id="edge29" class="edge">
<title>39&#45;&gt;0</title>
<path fill="none" stroke="grey" stroke-width="2" d="M2471.76,-146.23C2432.21,-134.2 2380.34,-117.66 2360.5,-108 2334.57,-95.38 2333.62,-81.81 2306.5,-72 2221.77,-41.35 1947.42,-25.55 1846.88,-20.68"/>
<polygon fill="grey" stroke="grey" stroke-width="2" points="1846.75,-17.17 1836.59,-20.19 1846.42,-24.16 1846.75,-17.17"/>
</g>
<!-- 39&#45;&gt;54 -->
<g id="edge107" class="edge">
<title>39&#45;&gt;54</title>
<path fill="none" stroke="grey" stroke-width="2" d="M2471.96,-146.6C2468.76,-145.71 2465.59,-144.84 2462.5,-144 2399.66,-126.98 2382.98,-126.31 2320.5,-108 2316.42,-106.8 2312.18,-105.5 2307.96,-104.15"/>
<polygon fill="grey" stroke="grey" stroke-width="2" points="2308.84,-100.76 2298.24,-100.99 2306.67,-107.41 2308.84,-100.76"/>
</g>
<!-- 40&#45;&gt;0 -->
<g id="edge30" class="edge">
<title>40&#45;&gt;0</title>
<path fill="none" stroke="grey" stroke-width="2" d="M3469.96,-143.83C3439.05,-122.4 3382.28,-86.78 3327.5,-72 3180.65,-32.38 2065.48,-21.13 1846.68,-19.29"/>
<polygon fill="grey" stroke="grey" stroke-width="2" points="1846.69,-15.79 1836.66,-19.21 1846.64,-22.79 1846.69,-15.79"/>
</g>
<!-- 40&#45;&gt;55 -->
<g id="edge109" class="edge">
<title>40&#45;&gt;55</title>
<path fill="none" stroke="grey" stroke-width="2" d="M3493.5,-143.7C3493.5,-135.98 3493.5,-126.71 3493.5,-118.11"/>
<polygon fill="grey" stroke="grey" stroke-width="2" points="3497,-118.1 3493.5,-108.1 3490,-118.1 3497,-118.1"/>
</g>
<!-- 41&#45;&gt;0 -->
<g id="edge31" class="edge">
<title>41&#45;&gt;0</title>
<path fill="none" stroke="grey" stroke-width="2" d="M693.26,-80.36C705.01,-77.19 718.8,-73.9 731.5,-72 938.67,-40.94 1606.28,-23.71 1772,-19.84"/>
<polygon fill="grey" stroke="grey" stroke-width="2" points="1772.27,-23.33 1782.18,-19.6 1772.1,-16.34 1772.27,-23.33"/>
</g>
<!-- 42&#45;&gt;0 -->
<g id="edge32" class="edge">
<title>42&#45;&gt;0</title>
<path fill="none" stroke="grey" stroke-width="2" d="M1185.1,-81.38C1198.49,-78.06 1214.73,-74.38 1229.5,-72 1432.82,-39.2 1679.77,-25.04 1772.21,-20.63"/>
<polygon fill="grey" stroke="grey" stroke-width="2" points="1772.62,-24.11 1782.45,-20.15 1772.3,-17.12 1772.62,-24.11"/>
</g>
<!-- 43&#45;&gt;0 -->
<g id="edge33" class="edge">
<title>43&#45;&gt;0</title>
<path fill="none" stroke="grey" stroke-width="2" d="M1852.41,-71.7C1845.58,-63.3 1837.24,-53.07 1829.74,-43.86"/>
<polygon fill="grey" stroke="grey" stroke-width="2" points="1832.46,-41.65 1823.43,-36.1 1827.03,-46.07 1832.46,-41.65"/>
</g>
<!-- 44&#45;&gt;0 -->
<g id="edge34" class="edge">
<title>44&#45;&gt;0</title>
<path fill="none" stroke="grey" stroke-width="2" d="M2726.59,-83.19C2706.91,-79.45 2680.23,-74.77 2656.5,-72 2344.69,-35.58 1965.18,-23.07 1846.66,-19.9"/>
<polygon fill="grey" stroke="grey" stroke-width="2" points="1846.74,-16.4 1836.66,-19.64 1846.56,-23.4 1846.74,-16.4"/>
</g>
<!-- 45&#45;&gt;0 -->
<g id="edge35" class="edge">
<title>45&#45;&gt;0</title>
<path fill="none" stroke="grey" stroke-width="2" d="M2978.84,-81.36C2964.69,-77.9 2947.31,-74.13 2931.5,-72 2714.85,-42.88 2017.16,-24.11 1847.13,-19.9"/>
<polygon fill="grey" stroke="grey" stroke-width="2" points="1847.01,-16.4 1836.92,-19.65 1846.84,-23.4 1847.01,-16.4"/>
</g>
<!-- 46&#45;&gt;0 -->
<g id="edge36" class="edge">
<title>46&#45;&gt;0</title>
<path fill="none" stroke="grey" stroke-width="2" d="M207.11,-82.44C224.71,-78.7 247.8,-74.3 268.5,-72 573.17,-38.19 1566.08,-22.45 1771.93,-19.51"/>
<polygon fill="grey" stroke="grey" stroke-width="2" points="1772.27,-23.01 1782.22,-19.37 1772.17,-16.01 1772.27,-23.01"/>
</g>
<!-- 47&#45;&gt;0 -->
<g id="edge37" class="edge">
<title>47&#45;&gt;0</title>
<path fill="none" stroke="grey" stroke-width="2" d="M939.28,-80.46C951.03,-77.29 964.82,-74 977.5,-72 1281.49,-24.17 1654.42,-19.23 1772.1,-18.93"/>
<polygon fill="grey" stroke="grey" stroke-width="2" points="1772.37,-22.43 1782.37,-18.91 1772.36,-15.43 1772.37,-22.43"/>
</g>
<!-- 48&#45;&gt;0 -->
<g id="edge38" class="edge">
<title>48&#45;&gt;0</title>
<path fill="none" stroke="grey" stroke-width="2" d="M1683.29,-76C1708.67,-64.54 1745.75,-47.79 1773.16,-35.41"/>
<polygon fill="grey" stroke="grey" stroke-width="2" points="1774.75,-38.54 1782.42,-31.23 1771.87,-32.16 1774.75,-38.54"/>
</g>
<!-- 49&#45;&gt;0 -->
<g id="edge39" class="edge">
<title>49&#45;&gt;0</title>
<path fill="none" stroke="grey" stroke-width="2" d="M2370,-78.05C2363.05,-75.74 2355.58,-73.53 2348.5,-72 2163.04,-31.91 1935.05,-22.09 1846.82,-19.73"/>
<polygon fill="grey" stroke="grey" stroke-width="2" points="1846.84,-16.23 1836.76,-19.48 1846.67,-23.23 1846.84,-16.23"/>
</g>
<!-- 50&#45;&gt;0 -->
<g id="edge40" class="edge">
<title>50&#45;&gt;0</title>
<path fill="none" stroke="grey" stroke-width="2" d="M3224.96,-81.03C3211.57,-77.63 3195.33,-74 3180.5,-72 2912.03,-35.88 2038.36,-22.11 1846.83,-19.48"/>
<polygon fill="grey" stroke="grey" stroke-width="2" points="1846.76,-15.98 1836.71,-19.35 1846.66,-22.98 1846.76,-15.98"/>
</g>
<!-- 51&#45;&gt;0 -->
<g id="edge41" class="edge">
<title>51&#45;&gt;0</title>
<path fill="none" stroke="grey" stroke-width="2" d="M453.27,-80.76C466.09,-77.45 481.44,-73.95 495.5,-72 752.01,-36.46 1585.68,-22.29 1772.24,-19.52"/>
<polygon fill="grey" stroke="grey" stroke-width="2" points="1772.41,-23.02 1782.36,-19.37 1772.31,-16.02 1772.41,-23.02"/>
</g>
<!-- 52&#45;&gt;0 -->
<g id="edge42" class="edge">
<title>52&#45;&gt;0</title>
<path fill="none" stroke="grey" stroke-width="2" d="M1431.28,-82.12C1445.46,-78.85 1462.83,-75 1478.5,-72 1584.67,-51.65 1711.04,-32.93 1772.39,-24.18"/>
<polygon fill="grey" stroke="grey" stroke-width="2" points="1772.96,-27.64 1782.37,-22.77 1771.98,-20.71 1772.96,-27.64"/>
</g>
<!-- 53&#45;&gt;0 -->
<g id="edge43" class="edge">
<title>53&#45;&gt;0</title>
<path fill="none" stroke="grey" stroke-width="2" d="M1951.88,-77.28C1922.76,-65.36 1877.52,-46.84 1845.87,-33.89"/>
<polygon fill="grey" stroke="grey" stroke-width="2" points="1847.1,-30.61 1836.52,-30.06 1844.45,-37.09 1847.1,-30.61"/>
</g>
<!-- 54&#45;&gt;0 -->
<g id="edge44" class="edge">
<title>54&#45;&gt;0</title>
<path fill="none" stroke="grey" stroke-width="2" d="M2240.92,-79.16C2232.49,-76.53 2223.19,-73.9 2214.5,-72 2081.06,-42.87 1919.15,-27.57 1847.15,-21.78"/>
<polygon fill="grey" stroke="grey" stroke-width="2" points="1847.03,-18.26 1836.79,-20.96 1846.48,-25.24 1847.03,-18.26"/>
</g>
<!-- 55&#45;&gt;0 -->
<g id="edge45" class="edge">
<title>55&#45;&gt;0</title>
<path fill="none" stroke="grey" stroke-width="2" d="M3464.81,-80.62C3452.24,-77.32 3437.25,-73.88 3423.5,-72 3104.38,-28.48 2058.04,-20.39 1846.85,-19.18"/>
<polygon fill="grey" stroke="grey" stroke-width="2" points="1846.62,-15.68 1836.6,-19.13 1846.58,-22.68 1846.62,-15.68"/>
</g>
</g>
</svg>
