<?xml version="1.0" encoding="UTF-8" standalone="no"?>
<!DOCTYPE svg PUBLIC "-//W3C//DTD SVG 1.1//EN"
 "http://www.w3.org/Graphics/SVG/1.1/DTD/svg11.dtd">
<!-- Generated by graphviz version 2.49.0 (20210829.0051)
 -->
<!-- Title: snakemake_dag Pages: 1 -->
<svg width="2755pt" height="476pt"
 viewBox="0.00 0.00 2755.00 476.00" xmlns="http://www.w3.org/2000/svg" xmlns:xlink="http://www.w3.org/1999/xlink">
<g id="graph0" class="graph" transform="scale(1 1) rotate(0) translate(4 472)">
<title>snakemake_dag</title>
<polygon fill="white" stroke="transparent" points="-4,4 -4,-472 2751,-472 2751,4 -4,4"/>
<!-- 0 -->
<g id="node1" class="node">
<title>0</title>
<path fill="none" stroke="#ced856" stroke-width="2" d="M1531.5,-36C1531.5,-36 1501.5,-36 1501.5,-36 1495.5,-36 1489.5,-30 1489.5,-24 1489.5,-24 1489.5,-12 1489.5,-12 1489.5,-6 1495.5,0 1501.5,0 1501.5,0 1531.5,0 1531.5,0 1537.5,0 1543.5,-6 1543.5,-12 1543.5,-12 1543.5,-24 1543.5,-24 1543.5,-30 1537.5,-36 1531.5,-36"/>
<text text-anchor="middle" x="1516.5" y="-15.5" font-family="sans" font-size="10.00">all</text>
</g>
<!-- 1 -->
<g id="node2" class="node">
<title>1</title>
<path fill="none" stroke="#9fd856" stroke-width="2" d="M1443,-180C1443,-180 1410,-180 1410,-180 1404,-180 1398,-174 1398,-168 1398,-168 1398,-156 1398,-156 1398,-150 1404,-144 1410,-144 1410,-144 1443,-144 1443,-144 1449,-144 1455,-150 1455,-156 1455,-156 1455,-168 1455,-168 1455,-174 1449,-180 1443,-180"/>
<text text-anchor="middle" x="1426.5" y="-159.5" font-family="sans" font-size="10.00">analysis</text>
</g>
<!-- 1&#45;&gt;0 -->
<g id="edge1" class="edge">
<title>1&#45;&gt;0</title>
<path fill="none" stroke="grey" stroke-width="2" d="M1426.65,-143.92C1427.56,-124.95 1431.35,-94.08 1445.5,-72 1454.2,-58.43 1467.68,-47.08 1480.56,-38.42"/>
<polygon fill="grey" stroke="grey" stroke-width="2" points="1482.76,-41.17 1489.32,-32.85 1479,-35.26 1482.76,-41.17"/>
</g>
<!-- 46 -->
<g id="node47" class="node">
<title>46</title>
<path fill="none" stroke="#56d89a" stroke-width="2" d="M1566.5,-108C1566.5,-108 1466.5,-108 1466.5,-108 1460.5,-108 1454.5,-102 1454.5,-96 1454.5,-96 1454.5,-84 1454.5,-84 1454.5,-78 1460.5,-72 1466.5,-72 1466.5,-72 1566.5,-72 1566.5,-72 1572.5,-72 1578.5,-78 1578.5,-84 1578.5,-84 1578.5,-96 1578.5,-96 1578.5,-102 1572.5,-108 1566.5,-108"/>
<text text-anchor="middle" x="1516.5" y="-87.5" font-family="sans" font-size="10.00">comparative_analysis</text>
</g>
<!-- 1&#45;&gt;46 -->
<g id="edge74" class="edge">
<title>1&#45;&gt;46</title>
<path fill="none" stroke="grey" stroke-width="2" d="M1448.75,-143.7C1460.08,-134.88 1474.03,-124.03 1486.32,-114.47"/>
<polygon fill="grey" stroke="grey" stroke-width="2" points="1488.76,-117.01 1494.51,-108.1 1484.47,-111.48 1488.76,-117.01"/>
</g>
<!-- 2 -->
<g id="node3" class="node">
<title>2</title>
<path fill="none" stroke="#56d8c9" stroke-width="2" stroke-dasharray="5,2" d="M99,-252C99,-252 12,-252 12,-252 6,-252 0,-246 0,-240 0,-240 0,-228 0,-228 0,-222 6,-216 12,-216 12,-216 99,-216 99,-216 105,-216 111,-222 111,-228 111,-228 111,-240 111,-240 111,-246 105,-252 99,-252"/>
<text text-anchor="middle" x="55.5" y="-237" font-family="sans" font-size="10.00">SPAdes_untrimmed</text>
<text text-anchor="middle" x="55.5" y="-226" font-family="sans" font-size="10.00">value_of_k: 31</text>
</g>
<!-- 2&#45;&gt;1 -->
<g id="edge4" class="edge">
<title>2&#45;&gt;1</title>
<path fill="none" stroke="grey" stroke-width="2" d="M111.2,-217.44C113.99,-216.9 116.77,-216.41 119.5,-216 373.48,-177.59 1199.22,-165.68 1387.87,-163.43"/>
<polygon fill="grey" stroke="grey" stroke-width="2" points="1387.92,-166.93 1397.88,-163.31 1387.84,-159.93 1387.92,-166.93"/>
</g>
<!-- 3 -->
<g id="node4" class="node">
<title>3</title>
<path fill="none" stroke="#56b1d8" stroke-width="2" stroke-dasharray="5,2" d="M323.5,-396C323.5,-396 219.5,-396 219.5,-396 213.5,-396 207.5,-390 207.5,-384 207.5,-384 207.5,-372 207.5,-372 207.5,-366 213.5,-360 219.5,-360 219.5,-360 323.5,-360 323.5,-360 329.5,-360 335.5,-366 335.5,-372 335.5,-372 335.5,-384 335.5,-384 335.5,-390 329.5,-396 323.5,-396"/>
<text text-anchor="middle" x="271.5" y="-381" font-family="sans" font-size="10.00">download_sr_paired</text>
<text text-anchor="middle" x="271.5" y="-370" font-family="sans" font-size="10.00">barcodes: SRR1965341</text>
</g>
<!-- 3&#45;&gt;2 -->
<g id="edge35" class="edge">
<title>3&#45;&gt;2</title>
<path fill="none" stroke="grey" stroke-width="2" d="M245.45,-359.87C206.61,-334.34 133.46,-286.25 90.15,-257.78"/>
<polygon fill="grey" stroke="grey" stroke-width="2" points="91.93,-254.76 81.65,-252.19 88.08,-260.61 91.93,-254.76"/>
</g>
<!-- 12 -->
<g id="node13" class="node">
<title>12</title>
<path fill="none" stroke="#56d8c9" stroke-width="2" stroke-dasharray="5,2" d="M228,-252C228,-252 141,-252 141,-252 135,-252 129,-246 129,-240 129,-240 129,-228 129,-228 129,-222 135,-216 141,-216 141,-216 228,-216 228,-216 234,-216 240,-222 240,-228 240,-228 240,-240 240,-240 240,-246 234,-252 228,-252"/>
<text text-anchor="middle" x="184.5" y="-237" font-family="sans" font-size="10.00">SPAdes_untrimmed</text>
<text text-anchor="middle" x="184.5" y="-226" font-family="sans" font-size="10.00">value_of_k: 55</text>
</g>
<!-- 3&#45;&gt;12 -->
<g id="edge40" class="edge">
<title>3&#45;&gt;12</title>
<path fill="none" stroke="grey" stroke-width="2" d="M261.01,-359.87C245.92,-335.24 217.98,-289.64 200.36,-260.88"/>
<polygon fill="grey" stroke="grey" stroke-width="2" points="203.24,-258.89 195.03,-252.19 197.27,-262.54 203.24,-258.89"/>
</g>
<!-- 17 -->
<g id="node18" class="node">
<title>17</title>
<path fill="none" stroke="#56d8c9" stroke-width="2" stroke-dasharray="5,2" d="M357,-252C357,-252 270,-252 270,-252 264,-252 258,-246 258,-240 258,-240 258,-228 258,-228 258,-222 264,-216 270,-216 270,-216 357,-216 357,-216 363,-216 369,-222 369,-228 369,-228 369,-240 369,-240 369,-246 363,-252 357,-252"/>
<text text-anchor="middle" x="313.5" y="-237" font-family="sans" font-size="10.00">SPAdes_untrimmed</text>
<text text-anchor="middle" x="313.5" y="-226" font-family="sans" font-size="10.00">value_of_k: auto</text>
</g>
<!-- 3&#45;&gt;17 -->
<g id="edge45" class="edge">
<title>3&#45;&gt;17</title>
<path fill="none" stroke="grey" stroke-width="2" d="M276.57,-359.87C283.76,-335.56 296.99,-290.82 305.51,-262.01"/>
<polygon fill="grey" stroke="grey" stroke-width="2" points="308.94,-262.77 308.42,-252.19 302.22,-260.79 308.94,-262.77"/>
</g>
<!-- 23 -->
<g id="node24" class="node">
<title>23</title>
<path fill="none" stroke="#70d856" stroke-width="2" stroke-dasharray="5,2" d="M484.5,-324C484.5,-324 404.5,-324 404.5,-324 398.5,-324 392.5,-318 392.5,-312 392.5,-312 392.5,-300 392.5,-300 392.5,-294 398.5,-288 404.5,-288 404.5,-288 484.5,-288 484.5,-288 490.5,-288 496.5,-294 496.5,-300 496.5,-300 496.5,-312 496.5,-312 496.5,-318 490.5,-324 484.5,-324"/>
<text text-anchor="middle" x="444.5" y="-303.5" font-family="sans" font-size="10.00">adapter_trimming</text>
</g>
<!-- 3&#45;&gt;23 -->
<g id="edge51" class="edge">
<title>3&#45;&gt;23</title>
<path fill="none" stroke="grey" stroke-width="2" d="M313.82,-359.88C337.68,-350.22 367.67,-338.09 392.9,-327.88"/>
<polygon fill="grey" stroke="grey" stroke-width="2" points="394.36,-331.06 402.32,-324.07 391.73,-324.57 394.36,-331.06"/>
</g>
<!-- 4 -->
<g id="node5" class="node">
<title>4</title>
<path fill="none" stroke="#56d8c9" stroke-width="2" stroke-dasharray="5,2" d="M628,-324C628,-324 541,-324 541,-324 535,-324 529,-318 529,-312 529,-312 529,-300 529,-300 529,-294 535,-288 541,-288 541,-288 628,-288 628,-288 634,-288 640,-294 640,-300 640,-300 640,-312 640,-312 640,-318 634,-324 628,-324"/>
<text text-anchor="middle" x="584.5" y="-309" font-family="sans" font-size="10.00">SPAdes_untrimmed</text>
<text text-anchor="middle" x="584.5" y="-298" font-family="sans" font-size="10.00">value_of_k: 31</text>
</g>
<!-- 4&#45;&gt;1 -->
<g id="edge5" class="edge">
<title>4&#45;&gt;1</title>
<path fill="none" stroke="grey" stroke-width="2" d="M640.25,-290.29C668,-281.56 701.34,-268.86 728.5,-252 748.27,-239.73 745.25,-225.47 766.5,-216 878.73,-165.98 1263.74,-162.54 1387.71,-162.77"/>
<polygon fill="grey" stroke="grey" stroke-width="2" points="1387.86,-166.27 1397.87,-162.8 1387.88,-159.27 1387.86,-166.27"/>
</g>
<!-- 5 -->
<g id="node6" class="node">
<title>5</title>
<path fill="none" stroke="#56b1d8" stroke-width="2" stroke-dasharray="5,2" d="M830.5,-396C830.5,-396 726.5,-396 726.5,-396 720.5,-396 714.5,-390 714.5,-384 714.5,-384 714.5,-372 714.5,-372 714.5,-366 720.5,-360 726.5,-360 726.5,-360 830.5,-360 830.5,-360 836.5,-360 842.5,-366 842.5,-372 842.5,-372 842.5,-384 842.5,-384 842.5,-390 836.5,-396 830.5,-396"/>
<text text-anchor="middle" x="778.5" y="-381" font-family="sans" font-size="10.00">download_sr_paired</text>
<text text-anchor="middle" x="778.5" y="-370" font-family="sans" font-size="10.00">barcodes: SRR1968189</text>
</g>
<!-- 5&#45;&gt;4 -->
<g id="edge36" class="edge">
<title>5&#45;&gt;4</title>
<path fill="none" stroke="grey" stroke-width="2" d="M731.04,-359.88C703.93,-350.09 669.76,-337.77 641.24,-327.47"/>
<polygon fill="grey" stroke="grey" stroke-width="2" points="642.4,-324.17 631.8,-324.07 640.02,-330.75 642.4,-324.17"/>
</g>
<!-- 13 -->
<g id="node14" class="node">
<title>13</title>
<path fill="none" stroke="#56d8c9" stroke-width="2" stroke-dasharray="5,2" d="M757,-324C757,-324 670,-324 670,-324 664,-324 658,-318 658,-312 658,-312 658,-300 658,-300 658,-294 664,-288 670,-288 670,-288 757,-288 757,-288 763,-288 769,-294 769,-300 769,-300 769,-312 769,-312 769,-318 763,-324 757,-324"/>
<text text-anchor="middle" x="713.5" y="-309" font-family="sans" font-size="10.00">SPAdes_untrimmed</text>
<text text-anchor="middle" x="713.5" y="-298" font-family="sans" font-size="10.00">value_of_k: 55</text>
</g>
<!-- 5&#45;&gt;13 -->
<g id="edge41" class="edge">
<title>5&#45;&gt;13</title>
<path fill="none" stroke="grey" stroke-width="2" d="M762.43,-359.7C754.56,-351.22 744.94,-340.86 736.33,-331.58"/>
<polygon fill="grey" stroke="grey" stroke-width="2" points="738.75,-329.05 729.38,-324.1 733.62,-333.81 738.75,-329.05"/>
</g>
<!-- 18 -->
<g id="node19" class="node">
<title>18</title>
<path fill="none" stroke="#56d8c9" stroke-width="2" stroke-dasharray="5,2" d="M886,-324C886,-324 799,-324 799,-324 793,-324 787,-318 787,-312 787,-312 787,-300 787,-300 787,-294 793,-288 799,-288 799,-288 886,-288 886,-288 892,-288 898,-294 898,-300 898,-300 898,-312 898,-312 898,-318 892,-324 886,-324"/>
<text text-anchor="middle" x="842.5" y="-309" font-family="sans" font-size="10.00">SPAdes_untrimmed</text>
<text text-anchor="middle" x="842.5" y="-298" font-family="sans" font-size="10.00">value_of_k: auto</text>
</g>
<!-- 5&#45;&gt;18 -->
<g id="edge46" class="edge">
<title>5&#45;&gt;18</title>
<path fill="none" stroke="grey" stroke-width="2" d="M794.32,-359.7C802.07,-351.22 811.54,-340.86 820.02,-331.58"/>
<polygon fill="grey" stroke="grey" stroke-width="2" points="822.7,-333.85 826.86,-324.1 817.53,-329.12 822.7,-333.85"/>
</g>
<!-- 25 -->
<g id="node26" class="node">
<title>25</title>
<path fill="none" stroke="#70d856" stroke-width="2" stroke-dasharray="5,2" d="M1008.5,-324C1008.5,-324 928.5,-324 928.5,-324 922.5,-324 916.5,-318 916.5,-312 916.5,-312 916.5,-300 916.5,-300 916.5,-294 922.5,-288 928.5,-288 928.5,-288 1008.5,-288 1008.5,-288 1014.5,-288 1020.5,-294 1020.5,-300 1020.5,-300 1020.5,-312 1020.5,-312 1020.5,-318 1014.5,-324 1008.5,-324"/>
<text text-anchor="middle" x="968.5" y="-303.5" font-family="sans" font-size="10.00">adapter_trimming</text>
</g>
<!-- 5&#45;&gt;25 -->
<g id="edge53" class="edge">
<title>5&#45;&gt;25</title>
<path fill="none" stroke="grey" stroke-width="2" d="M824.98,-359.88C851.42,-350.14 884.7,-337.87 912.56,-327.61"/>
<polygon fill="grey" stroke="grey" stroke-width="2" points="914,-330.81 922.17,-324.07 911.58,-324.24 914,-330.81"/>
</g>
<!-- 6 -->
<g id="node7" class="node">
<title>6</title>
<path fill="none" stroke="#56d8c9" stroke-width="2" stroke-dasharray="5,2" d="M1138,-324C1138,-324 1051,-324 1051,-324 1045,-324 1039,-318 1039,-312 1039,-312 1039,-300 1039,-300 1039,-294 1045,-288 1051,-288 1051,-288 1138,-288 1138,-288 1144,-288 1150,-294 1150,-300 1150,-300 1150,-312 1150,-312 1150,-318 1144,-324 1138,-324"/>
<text text-anchor="middle" x="1094.5" y="-309" font-family="sans" font-size="10.00">SPAdes_untrimmed</text>
<text text-anchor="middle" x="1094.5" y="-298" font-family="sans" font-size="10.00">value_of_k: 31</text>
</g>
<!-- 6&#45;&gt;1 -->
<g id="edge6" class="edge">
<title>6&#45;&gt;1</title>
<path fill="none" stroke="grey" stroke-width="2" d="M1127.01,-287.97C1146.61,-277.65 1172.04,-264.17 1194.5,-252 1223.54,-236.27 1229.17,-229.06 1259.5,-216 1302.16,-197.63 1353.35,-182.32 1387.71,-172.95"/>
<polygon fill="grey" stroke="grey" stroke-width="2" points="1389.06,-176.21 1397.81,-170.24 1387.24,-169.45 1389.06,-176.21"/>
</g>
<!-- 7 -->
<g id="node8" class="node">
<title>7</title>
<path fill="none" stroke="#56b1d8" stroke-width="2" stroke-dasharray="5,2" d="M1340.5,-396C1340.5,-396 1236.5,-396 1236.5,-396 1230.5,-396 1224.5,-390 1224.5,-384 1224.5,-384 1224.5,-372 1224.5,-372 1224.5,-366 1230.5,-360 1236.5,-360 1236.5,-360 1340.5,-360 1340.5,-360 1346.5,-360 1352.5,-366 1352.5,-372 1352.5,-372 1352.5,-384 1352.5,-384 1352.5,-390 1346.5,-396 1340.5,-396"/>
<text text-anchor="middle" x="1288.5" y="-381" font-family="sans" font-size="10.00">download_sr_paired</text>
<text text-anchor="middle" x="1288.5" y="-370" font-family="sans" font-size="10.00">barcodes: SRR7828287</text>
</g>
<!-- 7&#45;&gt;6 -->
<g id="edge37" class="edge">
<title>7&#45;&gt;6</title>
<path fill="none" stroke="grey" stroke-width="2" d="M1241.04,-359.88C1213.93,-350.09 1179.76,-337.77 1151.24,-327.47"/>
<polygon fill="grey" stroke="grey" stroke-width="2" points="1152.4,-324.17 1141.8,-324.07 1150.02,-330.75 1152.4,-324.17"/>
</g>
<!-- 14 -->
<g id="node15" class="node">
<title>14</title>
<path fill="none" stroke="#56d8c9" stroke-width="2" stroke-dasharray="5,2" d="M1267,-324C1267,-324 1180,-324 1180,-324 1174,-324 1168,-318 1168,-312 1168,-312 1168,-300 1168,-300 1168,-294 1174,-288 1180,-288 1180,-288 1267,-288 1267,-288 1273,-288 1279,-294 1279,-300 1279,-300 1279,-312 1279,-312 1279,-318 1273,-324 1267,-324"/>
<text text-anchor="middle" x="1223.5" y="-309" font-family="sans" font-size="10.00">SPAdes_untrimmed</text>
<text text-anchor="middle" x="1223.5" y="-298" font-family="sans" font-size="10.00">value_of_k: 55</text>
</g>
<!-- 7&#45;&gt;14 -->
<g id="edge42" class="edge">
<title>7&#45;&gt;14</title>
<path fill="none" stroke="grey" stroke-width="2" d="M1272.43,-359.7C1264.56,-351.22 1254.94,-340.86 1246.33,-331.58"/>
<polygon fill="grey" stroke="grey" stroke-width="2" points="1248.75,-329.05 1239.38,-324.1 1243.62,-333.81 1248.75,-329.05"/>
</g>
<!-- 19 -->
<g id="node20" class="node">
<title>19</title>
<path fill="none" stroke="#56d8c9" stroke-width="2" stroke-dasharray="5,2" d="M1396,-324C1396,-324 1309,-324 1309,-324 1303,-324 1297,-318 1297,-312 1297,-312 1297,-300 1297,-300 1297,-294 1303,-288 1309,-288 1309,-288 1396,-288 1396,-288 1402,-288 1408,-294 1408,-300 1408,-300 1408,-312 1408,-312 1408,-318 1402,-324 1396,-324"/>
<text text-anchor="middle" x="1352.5" y="-309" font-family="sans" font-size="10.00">SPAdes_untrimmed</text>
<text text-anchor="middle" x="1352.5" y="-298" font-family="sans" font-size="10.00">value_of_k: auto</text>
</g>
<!-- 7&#45;&gt;19 -->
<g id="edge47" class="edge">
<title>7&#45;&gt;19</title>
<path fill="none" stroke="grey" stroke-width="2" d="M1304.32,-359.7C1312.07,-351.22 1321.54,-340.86 1330.02,-331.58"/>
<polygon fill="grey" stroke="grey" stroke-width="2" points="1332.7,-333.85 1336.86,-324.1 1327.53,-329.12 1332.7,-333.85"/>
</g>
<!-- 27 -->
<g id="node28" class="node">
<title>27</title>
<path fill="none" stroke="#70d856" stroke-width="2" stroke-dasharray="5,2" d="M1518.5,-324C1518.5,-324 1438.5,-324 1438.5,-324 1432.5,-324 1426.5,-318 1426.5,-312 1426.5,-312 1426.5,-300 1426.5,-300 1426.5,-294 1432.5,-288 1438.5,-288 1438.5,-288 1518.5,-288 1518.5,-288 1524.5,-288 1530.5,-294 1530.5,-300 1530.5,-300 1530.5,-312 1530.5,-312 1530.5,-318 1524.5,-324 1518.5,-324"/>
<text text-anchor="middle" x="1478.5" y="-303.5" font-family="sans" font-size="10.00">adapter_trimming</text>
</g>
<!-- 7&#45;&gt;27 -->
<g id="edge55" class="edge">
<title>7&#45;&gt;27</title>
<path fill="none" stroke="grey" stroke-width="2" d="M1334.98,-359.88C1361.42,-350.14 1394.7,-337.87 1422.56,-327.61"/>
<polygon fill="grey" stroke="grey" stroke-width="2" points="1424,-330.81 1432.17,-324.07 1421.58,-324.24 1424,-330.81"/>
</g>
<!-- 8 -->
<g id="node9" class="node">
<title>8</title>
<path fill="none" stroke="#56d8c9" stroke-width="2" stroke-dasharray="5,2" d="M1648,-324C1648,-324 1561,-324 1561,-324 1555,-324 1549,-318 1549,-312 1549,-312 1549,-300 1549,-300 1549,-294 1555,-288 1561,-288 1561,-288 1648,-288 1648,-288 1654,-288 1660,-294 1660,-300 1660,-300 1660,-312 1660,-312 1660,-318 1654,-324 1648,-324"/>
<text text-anchor="middle" x="1604.5" y="-309" font-family="sans" font-size="10.00">SPAdes_untrimmed</text>
<text text-anchor="middle" x="1604.5" y="-298" font-family="sans" font-size="10.00">value_of_k: 31</text>
</g>
<!-- 8&#45;&gt;1 -->
<g id="edge7" class="edge">
<title>8&#45;&gt;1</title>
<path fill="none" stroke="grey" stroke-width="2" d="M1628.24,-287.84C1650.95,-269.34 1679.19,-239.39 1660.5,-216 1636.53,-185.99 1525.65,-171.71 1465.52,-166.07"/>
<polygon fill="grey" stroke="grey" stroke-width="2" points="1465.55,-162.56 1455.27,-165.15 1464.92,-169.53 1465.55,-162.56"/>
</g>
<!-- 9 -->
<g id="node10" class="node">
<title>9</title>
<path fill="none" stroke="#56b1d8" stroke-width="2" stroke-dasharray="5,2" d="M1850.5,-396C1850.5,-396 1746.5,-396 1746.5,-396 1740.5,-396 1734.5,-390 1734.5,-384 1734.5,-384 1734.5,-372 1734.5,-372 1734.5,-366 1740.5,-360 1746.5,-360 1746.5,-360 1850.5,-360 1850.5,-360 1856.5,-360 1862.5,-366 1862.5,-372 1862.5,-372 1862.5,-384 1862.5,-384 1862.5,-390 1856.5,-396 1850.5,-396"/>
<text text-anchor="middle" x="1798.5" y="-381" font-family="sans" font-size="10.00">download_sr_paired</text>
<text text-anchor="middle" x="1798.5" y="-370" font-family="sans" font-size="10.00">barcodes: SRR2075991</text>
</g>
<!-- 9&#45;&gt;8 -->
<g id="edge38" class="edge">
<title>9&#45;&gt;8</title>
<path fill="none" stroke="grey" stroke-width="2" d="M1751.04,-359.88C1723.93,-350.09 1689.76,-337.77 1661.24,-327.47"/>
<polygon fill="grey" stroke="grey" stroke-width="2" points="1662.4,-324.17 1651.8,-324.07 1660.02,-330.75 1662.4,-324.17"/>
</g>
<!-- 15 -->
<g id="node16" class="node">
<title>15</title>
<path fill="none" stroke="#56d8c9" stroke-width="2" stroke-dasharray="5,2" d="M1777,-324C1777,-324 1690,-324 1690,-324 1684,-324 1678,-318 1678,-312 1678,-312 1678,-300 1678,-300 1678,-294 1684,-288 1690,-288 1690,-288 1777,-288 1777,-288 1783,-288 1789,-294 1789,-300 1789,-300 1789,-312 1789,-312 1789,-318 1783,-324 1777,-324"/>
<text text-anchor="middle" x="1733.5" y="-309" font-family="sans" font-size="10.00">SPAdes_untrimmed</text>
<text text-anchor="middle" x="1733.5" y="-298" font-family="sans" font-size="10.00">value_of_k: 55</text>
</g>
<!-- 9&#45;&gt;15 -->
<g id="edge43" class="edge">
<title>9&#45;&gt;15</title>
<path fill="none" stroke="grey" stroke-width="2" d="M1782.43,-359.7C1774.56,-351.22 1764.94,-340.86 1756.33,-331.58"/>
<polygon fill="grey" stroke="grey" stroke-width="2" points="1758.75,-329.05 1749.38,-324.1 1753.62,-333.81 1758.75,-329.05"/>
</g>
<!-- 20 -->
<g id="node21" class="node">
<title>20</title>
<path fill="none" stroke="#56d8c9" stroke-width="2" stroke-dasharray="5,2" d="M1906,-324C1906,-324 1819,-324 1819,-324 1813,-324 1807,-318 1807,-312 1807,-312 1807,-300 1807,-300 1807,-294 1813,-288 1819,-288 1819,-288 1906,-288 1906,-288 1912,-288 1918,-294 1918,-300 1918,-300 1918,-312 1918,-312 1918,-318 1912,-324 1906,-324"/>
<text text-anchor="middle" x="1862.5" y="-309" font-family="sans" font-size="10.00">SPAdes_untrimmed</text>
<text text-anchor="middle" x="1862.5" y="-298" font-family="sans" font-size="10.00">value_of_k: auto</text>
</g>
<!-- 9&#45;&gt;20 -->
<g id="edge48" class="edge">
<title>9&#45;&gt;20</title>
<path fill="none" stroke="grey" stroke-width="2" d="M1814.32,-359.7C1822.07,-351.22 1831.54,-340.86 1840.02,-331.58"/>
<polygon fill="grey" stroke="grey" stroke-width="2" points="1842.7,-333.85 1846.86,-324.1 1837.53,-329.12 1842.7,-333.85"/>
</g>
<!-- 29 -->
<g id="node30" class="node">
<title>29</title>
<path fill="none" stroke="#70d856" stroke-width="2" stroke-dasharray="5,2" d="M2028.5,-324C2028.5,-324 1948.5,-324 1948.5,-324 1942.5,-324 1936.5,-318 1936.5,-312 1936.5,-312 1936.5,-300 1936.5,-300 1936.5,-294 1942.5,-288 1948.5,-288 1948.5,-288 2028.5,-288 2028.5,-288 2034.5,-288 2040.5,-294 2040.5,-300 2040.5,-300 2040.5,-312 2040.5,-312 2040.5,-318 2034.5,-324 2028.5,-324"/>
<text text-anchor="middle" x="1988.5" y="-303.5" font-family="sans" font-size="10.00">adapter_trimming</text>
</g>
<!-- 9&#45;&gt;29 -->
<g id="edge57" class="edge">
<title>9&#45;&gt;29</title>
<path fill="none" stroke="grey" stroke-width="2" d="M1844.98,-359.88C1871.42,-350.14 1904.7,-337.87 1932.56,-327.61"/>
<polygon fill="grey" stroke="grey" stroke-width="2" points="1934,-330.81 1942.17,-324.07 1931.58,-324.24 1934,-330.81"/>
</g>
<!-- 10 -->
<g id="node11" class="node">
<title>10</title>
<path fill="none" stroke="#56d8c9" stroke-width="2" stroke-dasharray="5,2" d="M2158,-324C2158,-324 2071,-324 2071,-324 2065,-324 2059,-318 2059,-312 2059,-312 2059,-300 2059,-300 2059,-294 2065,-288 2071,-288 2071,-288 2158,-288 2158,-288 2164,-288 2170,-294 2170,-300 2170,-300 2170,-312 2170,-312 2170,-318 2164,-324 2158,-324"/>
<text text-anchor="middle" x="2114.5" y="-309" font-family="sans" font-size="10.00">SPAdes_untrimmed</text>
<text text-anchor="middle" x="2114.5" y="-298" font-family="sans" font-size="10.00">value_of_k: 31</text>
</g>
<!-- 10&#45;&gt;1 -->
<g id="edge8" class="edge">
<title>10&#45;&gt;1</title>
<path fill="none" stroke="grey" stroke-width="2" d="M2123.92,-287.84C2133.45,-267.92 2144.41,-235.32 2126.5,-216 2081.38,-167.33 1606.24,-163.11 1465.54,-162.94"/>
<polygon fill="grey" stroke="grey" stroke-width="2" points="1465.24,-159.44 1455.24,-162.93 1465.24,-166.44 1465.24,-159.44"/>
</g>
<!-- 11 -->
<g id="node12" class="node">
<title>11</title>
<path fill="none" stroke="#56b1d8" stroke-width="2" stroke-dasharray="5,2" d="M2360.5,-396C2360.5,-396 2256.5,-396 2256.5,-396 2250.5,-396 2244.5,-390 2244.5,-384 2244.5,-384 2244.5,-372 2244.5,-372 2244.5,-366 2250.5,-360 2256.5,-360 2256.5,-360 2360.5,-360 2360.5,-360 2366.5,-360 2372.5,-366 2372.5,-372 2372.5,-372 2372.5,-384 2372.5,-384 2372.5,-390 2366.5,-396 2360.5,-396"/>
<text text-anchor="middle" x="2308.5" y="-381" font-family="sans" font-size="10.00">download_sr_paired</text>
<text text-anchor="middle" x="2308.5" y="-370" font-family="sans" font-size="10.00">barcodes: SRR5584993</text>
</g>
<!-- 11&#45;&gt;10 -->
<g id="edge39" class="edge">
<title>11&#45;&gt;10</title>
<path fill="none" stroke="grey" stroke-width="2" d="M2261.04,-359.88C2233.93,-350.09 2199.76,-337.77 2171.24,-327.47"/>
<polygon fill="grey" stroke="grey" stroke-width="2" points="2172.4,-324.17 2161.8,-324.07 2170.02,-330.75 2172.4,-324.17"/>
</g>
<!-- 16 -->
<g id="node17" class="node">
<title>16</title>
<path fill="none" stroke="#56d8c9" stroke-width="2" stroke-dasharray="5,2" d="M2287,-324C2287,-324 2200,-324 2200,-324 2194,-324 2188,-318 2188,-312 2188,-312 2188,-300 2188,-300 2188,-294 2194,-288 2200,-288 2200,-288 2287,-288 2287,-288 2293,-288 2299,-294 2299,-300 2299,-300 2299,-312 2299,-312 2299,-318 2293,-324 2287,-324"/>
<text text-anchor="middle" x="2243.5" y="-309" font-family="sans" font-size="10.00">SPAdes_untrimmed</text>
<text text-anchor="middle" x="2243.5" y="-298" font-family="sans" font-size="10.00">value_of_k: 55</text>
</g>
<!-- 11&#45;&gt;16 -->
<g id="edge44" class="edge">
<title>11&#45;&gt;16</title>
<path fill="none" stroke="grey" stroke-width="2" d="M2292.43,-359.7C2284.56,-351.22 2274.94,-340.86 2266.33,-331.58"/>
<polygon fill="grey" stroke="grey" stroke-width="2" points="2268.75,-329.05 2259.38,-324.1 2263.62,-333.81 2268.75,-329.05"/>
</g>
<!-- 21 -->
<g id="node22" class="node">
<title>21</title>
<path fill="none" stroke="#56d8c9" stroke-width="2" stroke-dasharray="5,2" d="M2416,-324C2416,-324 2329,-324 2329,-324 2323,-324 2317,-318 2317,-312 2317,-312 2317,-300 2317,-300 2317,-294 2323,-288 2329,-288 2329,-288 2416,-288 2416,-288 2422,-288 2428,-294 2428,-300 2428,-300 2428,-312 2428,-312 2428,-318 2422,-324 2416,-324"/>
<text text-anchor="middle" x="2372.5" y="-309" font-family="sans" font-size="10.00">SPAdes_untrimmed</text>
<text text-anchor="middle" x="2372.5" y="-298" font-family="sans" font-size="10.00">value_of_k: auto</text>
</g>
<!-- 11&#45;&gt;21 -->
<g id="edge49" class="edge">
<title>11&#45;&gt;21</title>
<path fill="none" stroke="grey" stroke-width="2" d="M2324.32,-359.7C2332.07,-351.22 2341.54,-340.86 2350.02,-331.58"/>
<polygon fill="grey" stroke="grey" stroke-width="2" points="2352.7,-333.85 2356.86,-324.1 2347.53,-329.12 2352.7,-333.85"/>
</g>
<!-- 31 -->
<g id="node32" class="node">
<title>31</title>
<path fill="none" stroke="#70d856" stroke-width="2" stroke-dasharray="5,2" d="M2538.5,-324C2538.5,-324 2458.5,-324 2458.5,-324 2452.5,-324 2446.5,-318 2446.5,-312 2446.5,-312 2446.5,-300 2446.5,-300 2446.5,-294 2452.5,-288 2458.5,-288 2458.5,-288 2538.5,-288 2538.5,-288 2544.5,-288 2550.5,-294 2550.5,-300 2550.5,-300 2550.5,-312 2550.5,-312 2550.5,-318 2544.5,-324 2538.5,-324"/>
<text text-anchor="middle" x="2498.5" y="-303.5" font-family="sans" font-size="10.00">adapter_trimming</text>
</g>
<!-- 11&#45;&gt;31 -->
<g id="edge59" class="edge">
<title>11&#45;&gt;31</title>
<path fill="none" stroke="grey" stroke-width="2" d="M2354.98,-359.88C2381.42,-350.14 2414.7,-337.87 2442.56,-327.61"/>
<polygon fill="grey" stroke="grey" stroke-width="2" points="2444,-330.81 2452.17,-324.07 2441.58,-324.24 2444,-330.81"/>
</g>
<!-- 12&#45;&gt;1 -->
<g id="edge9" class="edge">
<title>12&#45;&gt;1</title>
<path fill="none" stroke="grey" stroke-width="2" d="M240.2,-217.45C242.99,-216.91 245.77,-216.42 248.5,-216 475.68,-181.13 1210.58,-166.66 1387.79,-163.62"/>
<polygon fill="grey" stroke="grey" stroke-width="2" points="1388,-167.12 1397.94,-163.45 1387.88,-160.12 1388,-167.12"/>
</g>
<!-- 13&#45;&gt;1 -->
<g id="edge10" class="edge">
<title>13&#45;&gt;1</title>
<path fill="none" stroke="grey" stroke-width="2" d="M729.29,-287.66C749.67,-266.57 787.32,-231.84 827.5,-216 930.16,-175.52 1271.74,-165.76 1387.64,-163.58"/>
<polygon fill="grey" stroke="grey" stroke-width="2" points="1387.89,-167.08 1397.82,-163.4 1387.76,-160.08 1387.89,-167.08"/>
</g>
<!-- 14&#45;&gt;1 -->
<g id="edge11" class="edge">
<title>14&#45;&gt;1</title>
<path fill="none" stroke="grey" stroke-width="2" d="M1234.69,-287.83C1248.24,-268.19 1272.72,-236.16 1300.5,-216 1327.15,-196.65 1361.93,-182.71 1388.2,-173.99"/>
<polygon fill="grey" stroke="grey" stroke-width="2" points="1389.36,-177.3 1397.81,-170.91 1387.22,-170.63 1389.36,-177.3"/>
</g>
<!-- 15&#45;&gt;1 -->
<g id="edge12" class="edge">
<title>15&#45;&gt;1</title>
<path fill="none" stroke="grey" stroke-width="2" d="M1727.74,-287.98C1719.92,-267.56 1703.92,-233.85 1678.5,-216 1644.52,-192.14 1527.17,-175 1465.33,-167.39"/>
<polygon fill="grey" stroke="grey" stroke-width="2" points="1465.53,-163.89 1455.19,-166.17 1464.69,-170.84 1465.53,-163.89"/>
</g>
<!-- 16&#45;&gt;1 -->
<g id="edge13" class="edge">
<title>16&#45;&gt;1</title>
<path fill="none" stroke="grey" stroke-width="2" d="M2230.8,-287.95C2213.95,-266.81 2182.04,-231.68 2145.5,-216 2021.6,-162.82 1597.01,-161.61 1465.59,-162.56"/>
<polygon fill="grey" stroke="grey" stroke-width="2" points="1465.19,-159.07 1455.21,-162.65 1465.24,-166.07 1465.19,-159.07"/>
</g>
<!-- 17&#45;&gt;1 -->
<g id="edge14" class="edge">
<title>17&#45;&gt;1</title>
<path fill="none" stroke="grey" stroke-width="2" d="M369.2,-217.47C372,-216.92 374.77,-216.43 377.5,-216 577.81,-184.69 1221.61,-167.78 1387.31,-163.88"/>
<polygon fill="grey" stroke="grey" stroke-width="2" points="1387.61,-167.38 1397.53,-163.64 1387.45,-160.38 1387.61,-167.38"/>
</g>
<!-- 18&#45;&gt;1 -->
<g id="edge15" class="edge">
<title>18&#45;&gt;1</title>
<path fill="none" stroke="grey" stroke-width="2" d="M836.63,-287.8C831.02,-267.83 825.78,-235.18 843.5,-216 880.39,-176.05 1263.04,-165.86 1387.57,-163.59"/>
<polygon fill="grey" stroke="grey" stroke-width="2" points="1387.85,-167.08 1397.79,-163.41 1387.73,-160.08 1387.85,-167.08"/>
</g>
<!-- 19&#45;&gt;1 -->
<g id="edge16" class="edge">
<title>19&#45;&gt;1</title>
<path fill="none" stroke="grey" stroke-width="2" d="M1333.92,-287.94C1316.19,-269.53 1294.25,-239.65 1309.5,-216 1326.7,-189.33 1360.93,-175.93 1387.95,-169.29"/>
<polygon fill="grey" stroke="grey" stroke-width="2" points="1388.91,-172.67 1397.9,-167.07 1387.38,-165.84 1388.91,-172.67"/>
</g>
<!-- 20&#45;&gt;1 -->
<g id="edge17" class="edge">
<title>20&#45;&gt;1</title>
<path fill="none" stroke="grey" stroke-width="2" d="M1833.96,-287.81C1793.16,-263.34 1721.6,-220.86 1708.5,-216 1625.12,-185.1 1520.92,-171.52 1465.47,-166.14"/>
<polygon fill="grey" stroke="grey" stroke-width="2" points="1465.65,-162.64 1455.37,-165.19 1465,-169.61 1465.65,-162.64"/>
</g>
<!-- 21&#45;&gt;1 -->
<g id="edge18" class="edge">
<title>21&#45;&gt;1</title>
<path fill="none" stroke="grey" stroke-width="2" d="M2324.24,-287.95C2299.08,-278.45 2268.08,-265.77 2241.5,-252 2215.23,-238.39 2213.58,-225.32 2185.5,-216 2049.86,-170.97 1601.23,-164.2 1465.65,-163.18"/>
<polygon fill="grey" stroke="grey" stroke-width="2" points="1465.36,-159.68 1455.33,-163.11 1465.31,-166.68 1465.36,-159.68"/>
</g>
<!-- 22 -->
<g id="node23" class="node">
<title>22</title>
<path fill="none" stroke="#d85656" stroke-width="2" stroke-dasharray="5,2" d="M474,-252C474,-252 399,-252 399,-252 393,-252 387,-246 387,-240 387,-240 387,-228 387,-228 387,-222 393,-216 399,-216 399,-216 474,-216 474,-216 480,-216 486,-222 486,-228 486,-228 486,-240 486,-240 486,-246 480,-252 474,-252"/>
<text text-anchor="middle" x="436.5" y="-237" font-family="sans" font-size="10.00">SPAdes_trimmed</text>
<text text-anchor="middle" x="436.5" y="-226" font-family="sans" font-size="10.00">value_of_k: 31</text>
</g>
<!-- 22&#45;&gt;1 -->
<g id="edge19" class="edge">
<title>22&#45;&gt;1</title>
<path fill="none" stroke="grey" stroke-width="2" d="M486.32,-217.61C489.07,-217.01 491.81,-216.46 494.5,-216 670.35,-185.64 1233.31,-168.29 1387.27,-164.04"/>
<polygon fill="grey" stroke="grey" stroke-width="2" points="1387.73,-167.53 1397.63,-163.75 1387.54,-160.53 1387.73,-167.53"/>
</g>
<!-- 23&#45;&gt;22 -->
<g id="edge50" class="edge">
<title>23&#45;&gt;22</title>
<path fill="none" stroke="grey" stroke-width="2" d="M442.52,-287.7C441.64,-279.98 440.58,-270.71 439.6,-262.11"/>
<polygon fill="grey" stroke="grey" stroke-width="2" points="443.07,-261.64 438.45,-252.1 436.11,-262.44 443.07,-261.64"/>
</g>
<!-- 32 -->
<g id="node33" class="node">
<title>32</title>
<path fill="none" stroke="#d85656" stroke-width="2" stroke-dasharray="5,2" d="M591,-252C591,-252 516,-252 516,-252 510,-252 504,-246 504,-240 504,-240 504,-228 504,-228 504,-222 510,-216 516,-216 516,-216 591,-216 591,-216 597,-216 603,-222 603,-228 603,-228 603,-240 603,-240 603,-246 597,-252 591,-252"/>
<text text-anchor="middle" x="553.5" y="-237" font-family="sans" font-size="10.00">SPAdes_trimmed</text>
<text text-anchor="middle" x="553.5" y="-226" font-family="sans" font-size="10.00">value_of_k: 55</text>
</g>
<!-- 23&#45;&gt;32 -->
<g id="edge60" class="edge">
<title>23&#45;&gt;32</title>
<path fill="none" stroke="grey" stroke-width="2" d="M471.16,-287.88C485.28,-278.81 502.81,-267.55 518.06,-257.76"/>
<polygon fill="grey" stroke="grey" stroke-width="2" points="520.21,-260.54 526.73,-252.19 516.43,-254.65 520.21,-260.54"/>
</g>
<!-- 37 -->
<g id="node38" class="node">
<title>37</title>
<path fill="none" stroke="#d85656" stroke-width="2" stroke-dasharray="5,2" d="M708,-252C708,-252 633,-252 633,-252 627,-252 621,-246 621,-240 621,-240 621,-228 621,-228 621,-222 627,-216 633,-216 633,-216 708,-216 708,-216 714,-216 720,-222 720,-228 720,-228 720,-240 720,-240 720,-246 714,-252 708,-252"/>
<text text-anchor="middle" x="670.5" y="-237" font-family="sans" font-size="10.00">SPAdes_trimmed</text>
<text text-anchor="middle" x="670.5" y="-226" font-family="sans" font-size="10.00">value_of_k: auto</text>
</g>
<!-- 23&#45;&gt;37 -->
<g id="edge65" class="edge">
<title>23&#45;&gt;37</title>
<path fill="none" stroke="grey" stroke-width="2" d="M496.63,-288.85C530.83,-278.26 575.63,-264.38 611.19,-253.37"/>
<polygon fill="grey" stroke="grey" stroke-width="2" points="612.44,-256.65 620.96,-250.35 610.37,-249.96 612.44,-256.65"/>
</g>
<!-- 24 -->
<g id="node25" class="node">
<title>24</title>
<path fill="none" stroke="#d85656" stroke-width="2" stroke-dasharray="5,2" d="M940,-252C940,-252 865,-252 865,-252 859,-252 853,-246 853,-240 853,-240 853,-228 853,-228 853,-222 859,-216 865,-216 865,-216 940,-216 940,-216 946,-216 952,-222 952,-228 952,-228 952,-240 952,-240 952,-246 946,-252 940,-252"/>
<text text-anchor="middle" x="902.5" y="-237" font-family="sans" font-size="10.00">SPAdes_trimmed</text>
<text text-anchor="middle" x="902.5" y="-226" font-family="sans" font-size="10.00">value_of_k: 31</text>
</g>
<!-- 24&#45;&gt;1 -->
<g id="edge20" class="edge">
<title>24&#45;&gt;1</title>
<path fill="none" stroke="grey" stroke-width="2" d="M952.03,-217.87C954.89,-217.19 957.72,-216.56 960.5,-216 1117.09,-184.39 1307.36,-170.1 1387.72,-165.15"/>
<polygon fill="grey" stroke="grey" stroke-width="2" points="1388.09,-168.63 1397.87,-164.54 1387.67,-161.65 1388.09,-168.63"/>
</g>
<!-- 25&#45;&gt;24 -->
<g id="edge52" class="edge">
<title>25&#45;&gt;24</title>
<path fill="none" stroke="grey" stroke-width="2" d="M952.19,-287.7C944.19,-279.22 934.43,-268.86 925.68,-259.58"/>
<polygon fill="grey" stroke="grey" stroke-width="2" points="928.03,-256.98 918.63,-252.1 922.94,-261.78 928.03,-256.98"/>
</g>
<!-- 33 -->
<g id="node34" class="node">
<title>33</title>
<path fill="none" stroke="#d85656" stroke-width="2" stroke-dasharray="5,2" d="M1057,-252C1057,-252 982,-252 982,-252 976,-252 970,-246 970,-240 970,-240 970,-228 970,-228 970,-222 976,-216 982,-216 982,-216 1057,-216 1057,-216 1063,-216 1069,-222 1069,-228 1069,-228 1069,-240 1069,-240 1069,-246 1063,-252 1057,-252"/>
<text text-anchor="middle" x="1019.5" y="-237" font-family="sans" font-size="10.00">SPAdes_trimmed</text>
<text text-anchor="middle" x="1019.5" y="-226" font-family="sans" font-size="10.00">value_of_k: 55</text>
</g>
<!-- 25&#45;&gt;33 -->
<g id="edge61" class="edge">
<title>25&#45;&gt;33</title>
<path fill="none" stroke="grey" stroke-width="2" d="M981.11,-287.7C987.1,-279.47 994.38,-269.48 1000.98,-260.42"/>
<polygon fill="grey" stroke="grey" stroke-width="2" points="1003.98,-262.25 1007.04,-252.1 998.32,-258.13 1003.98,-262.25"/>
</g>
<!-- 38 -->
<g id="node39" class="node">
<title>38</title>
<path fill="none" stroke="#d85656" stroke-width="2" stroke-dasharray="5,2" d="M1174,-252C1174,-252 1099,-252 1099,-252 1093,-252 1087,-246 1087,-240 1087,-240 1087,-228 1087,-228 1087,-222 1093,-216 1099,-216 1099,-216 1174,-216 1174,-216 1180,-216 1186,-222 1186,-228 1186,-228 1186,-240 1186,-240 1186,-246 1180,-252 1174,-252"/>
<text text-anchor="middle" x="1136.5" y="-237" font-family="sans" font-size="10.00">SPAdes_trimmed</text>
<text text-anchor="middle" x="1136.5" y="-226" font-family="sans" font-size="10.00">value_of_k: auto</text>
</g>
<!-- 25&#45;&gt;38 -->
<g id="edge66" class="edge">
<title>25&#45;&gt;38</title>
<path fill="none" stroke="grey" stroke-width="2" d="M1009.6,-287.88C1032.67,-278.26 1061.64,-266.19 1086.07,-256.01"/>
<polygon fill="grey" stroke="grey" stroke-width="2" points="1087.65,-259.15 1095.54,-252.07 1084.96,-252.68 1087.65,-259.15"/>
</g>
<!-- 26 -->
<g id="node27" class="node">
<title>26</title>
<path fill="none" stroke="#d85656" stroke-width="2" stroke-dasharray="5,2" d="M1406,-252C1406,-252 1331,-252 1331,-252 1325,-252 1319,-246 1319,-240 1319,-240 1319,-228 1319,-228 1319,-222 1325,-216 1331,-216 1331,-216 1406,-216 1406,-216 1412,-216 1418,-222 1418,-228 1418,-228 1418,-240 1418,-240 1418,-246 1412,-252 1406,-252"/>
<text text-anchor="middle" x="1368.5" y="-237" font-family="sans" font-size="10.00">SPAdes_trimmed</text>
<text text-anchor="middle" x="1368.5" y="-226" font-family="sans" font-size="10.00">value_of_k: 31</text>
</g>
<!-- 26&#45;&gt;1 -->
<g id="edge21" class="edge">
<title>26&#45;&gt;1</title>
<path fill="none" stroke="grey" stroke-width="2" d="M1382.84,-215.7C1389.79,-207.3 1398.27,-197.07 1405.9,-187.86"/>
<polygon fill="grey" stroke="grey" stroke-width="2" points="1408.64,-190.04 1412.33,-180.1 1403.25,-185.57 1408.64,-190.04"/>
</g>
<!-- 27&#45;&gt;26 -->
<g id="edge54" class="edge">
<title>27&#45;&gt;26</title>
<path fill="none" stroke="grey" stroke-width="2" d="M1451.59,-287.88C1437.34,-278.81 1419.65,-267.55 1404.26,-257.76"/>
<polygon fill="grey" stroke="grey" stroke-width="2" points="1405.83,-254.61 1395.51,-252.19 1402.07,-260.51 1405.83,-254.61"/>
</g>
<!-- 34 -->
<g id="node35" class="node">
<title>34</title>
<path fill="none" stroke="#d85656" stroke-width="2" stroke-dasharray="5,2" d="M1523,-252C1523,-252 1448,-252 1448,-252 1442,-252 1436,-246 1436,-240 1436,-240 1436,-228 1436,-228 1436,-222 1442,-216 1448,-216 1448,-216 1523,-216 1523,-216 1529,-216 1535,-222 1535,-228 1535,-228 1535,-240 1535,-240 1535,-246 1529,-252 1523,-252"/>
<text text-anchor="middle" x="1485.5" y="-237" font-family="sans" font-size="10.00">SPAdes_trimmed</text>
<text text-anchor="middle" x="1485.5" y="-226" font-family="sans" font-size="10.00">value_of_k: 55</text>
</g>
<!-- 27&#45;&gt;34 -->
<g id="edge62" class="edge">
<title>27&#45;&gt;34</title>
<path fill="none" stroke="grey" stroke-width="2" d="M1480.23,-287.7C1481,-279.98 1481.93,-270.71 1482.79,-262.11"/>
<polygon fill="grey" stroke="grey" stroke-width="2" points="1486.28,-262.4 1483.79,-252.1 1479.31,-261.71 1486.28,-262.4"/>
</g>
<!-- 39 -->
<g id="node40" class="node">
<title>39</title>
<path fill="none" stroke="#d85656" stroke-width="2" stroke-dasharray="5,2" d="M1640,-252C1640,-252 1565,-252 1565,-252 1559,-252 1553,-246 1553,-240 1553,-240 1553,-228 1553,-228 1553,-222 1559,-216 1565,-216 1565,-216 1640,-216 1640,-216 1646,-216 1652,-222 1652,-228 1652,-228 1652,-240 1652,-240 1652,-246 1646,-252 1640,-252"/>
<text text-anchor="middle" x="1602.5" y="-237" font-family="sans" font-size="10.00">SPAdes_trimmed</text>
<text text-anchor="middle" x="1602.5" y="-226" font-family="sans" font-size="10.00">value_of_k: auto</text>
</g>
<!-- 27&#45;&gt;39 -->
<g id="edge67" class="edge">
<title>27&#45;&gt;39</title>
<path fill="none" stroke="grey" stroke-width="2" d="M1508.83,-287.88C1525.2,-278.64 1545.58,-267.13 1563.15,-257.21"/>
<polygon fill="grey" stroke="grey" stroke-width="2" points="1565.06,-260.15 1572.05,-252.19 1561.62,-254.06 1565.06,-260.15"/>
</g>
<!-- 28 -->
<g id="node29" class="node">
<title>28</title>
<path fill="none" stroke="#d85656" stroke-width="2" stroke-dasharray="5,2" d="M1872,-252C1872,-252 1797,-252 1797,-252 1791,-252 1785,-246 1785,-240 1785,-240 1785,-228 1785,-228 1785,-222 1791,-216 1797,-216 1797,-216 1872,-216 1872,-216 1878,-216 1884,-222 1884,-228 1884,-228 1884,-240 1884,-240 1884,-246 1878,-252 1872,-252"/>
<text text-anchor="middle" x="1834.5" y="-237" font-family="sans" font-size="10.00">SPAdes_trimmed</text>
<text text-anchor="middle" x="1834.5" y="-226" font-family="sans" font-size="10.00">value_of_k: 31</text>
</g>
<!-- 28&#45;&gt;1 -->
<g id="edge22" class="edge">
<title>28&#45;&gt;1</title>
<path fill="none" stroke="grey" stroke-width="2" d="M1784.66,-219.21C1779.89,-218.06 1775.11,-216.97 1770.5,-216 1660.69,-193.02 1529.22,-175.5 1465.27,-167.6"/>
<polygon fill="grey" stroke="grey" stroke-width="2" points="1465.58,-164.11 1455.23,-166.37 1464.73,-171.06 1465.58,-164.11"/>
</g>
<!-- 29&#45;&gt;28 -->
<g id="edge56" class="edge">
<title>29&#45;&gt;28</title>
<path fill="none" stroke="grey" stroke-width="2" d="M1950.83,-287.88C1929.87,-278.35 1903.6,-266.41 1881.32,-256.28"/>
<polygon fill="grey" stroke="grey" stroke-width="2" points="1882.6,-253.02 1872.05,-252.07 1879.71,-259.39 1882.6,-253.02"/>
</g>
<!-- 35 -->
<g id="node36" class="node">
<title>35</title>
<path fill="none" stroke="#d85656" stroke-width="2" stroke-dasharray="5,2" d="M1989,-252C1989,-252 1914,-252 1914,-252 1908,-252 1902,-246 1902,-240 1902,-240 1902,-228 1902,-228 1902,-222 1908,-216 1914,-216 1914,-216 1989,-216 1989,-216 1995,-216 2001,-222 2001,-228 2001,-228 2001,-240 2001,-240 2001,-246 1995,-252 1989,-252"/>
<text text-anchor="middle" x="1951.5" y="-237" font-family="sans" font-size="10.00">SPAdes_trimmed</text>
<text text-anchor="middle" x="1951.5" y="-226" font-family="sans" font-size="10.00">value_of_k: 55</text>
</g>
<!-- 29&#45;&gt;35 -->
<g id="edge63" class="edge">
<title>29&#45;&gt;35</title>
<path fill="none" stroke="grey" stroke-width="2" d="M1979.35,-287.7C1975.1,-279.64 1969.94,-269.89 1965.23,-260.98"/>
<polygon fill="grey" stroke="grey" stroke-width="2" points="1968.31,-259.31 1960.54,-252.1 1962.12,-262.58 1968.31,-259.31"/>
</g>
<!-- 40 -->
<g id="node41" class="node">
<title>40</title>
<path fill="none" stroke="#d85656" stroke-width="2" stroke-dasharray="5,2" d="M2106,-252C2106,-252 2031,-252 2031,-252 2025,-252 2019,-246 2019,-240 2019,-240 2019,-228 2019,-228 2019,-222 2025,-216 2031,-216 2031,-216 2106,-216 2106,-216 2112,-216 2118,-222 2118,-228 2118,-228 2118,-240 2118,-240 2118,-246 2112,-252 2106,-252"/>
<text text-anchor="middle" x="2068.5" y="-237" font-family="sans" font-size="10.00">SPAdes_trimmed</text>
<text text-anchor="middle" x="2068.5" y="-226" font-family="sans" font-size="10.00">value_of_k: auto</text>
</g>
<!-- 29&#45;&gt;40 -->
<g id="edge68" class="edge">
<title>29&#45;&gt;40</title>
<path fill="none" stroke="grey" stroke-width="2" d="M2008.28,-287.7C2018.25,-278.97 2030.51,-268.24 2041.36,-258.75"/>
<polygon fill="grey" stroke="grey" stroke-width="2" points="2043.73,-261.32 2048.95,-252.1 2039.12,-256.06 2043.73,-261.32"/>
</g>
<!-- 30 -->
<g id="node31" class="node">
<title>30</title>
<path fill="none" stroke="#d85656" stroke-width="2" stroke-dasharray="5,2" d="M2338,-252C2338,-252 2263,-252 2263,-252 2257,-252 2251,-246 2251,-240 2251,-240 2251,-228 2251,-228 2251,-222 2257,-216 2263,-216 2263,-216 2338,-216 2338,-216 2344,-216 2350,-222 2350,-228 2350,-228 2350,-240 2350,-240 2350,-246 2344,-252 2338,-252"/>
<text text-anchor="middle" x="2300.5" y="-237" font-family="sans" font-size="10.00">SPAdes_trimmed</text>
<text text-anchor="middle" x="2300.5" y="-226" font-family="sans" font-size="10.00">value_of_k: 31</text>
</g>
<!-- 30&#45;&gt;1 -->
<g id="edge23" class="edge">
<title>30&#45;&gt;1</title>
<path fill="none" stroke="grey" stroke-width="2" d="M2250.74,-218.78C2245.95,-217.72 2241.15,-216.76 2236.5,-216 1942.84,-167.86 1582.54,-163.08 1465.32,-162.88"/>
<polygon fill="grey" stroke="grey" stroke-width="2" points="1465.07,-159.38 1455.06,-162.87 1465.06,-166.38 1465.07,-159.38"/>
</g>
<!-- 31&#45;&gt;30 -->
<g id="edge58" class="edge">
<title>31&#45;&gt;30</title>
<path fill="none" stroke="grey" stroke-width="2" d="M2450.32,-287.97C2422.65,-278.19 2387.72,-265.84 2358.55,-255.52"/>
<polygon fill="grey" stroke="grey" stroke-width="2" points="2359.49,-252.14 2348.9,-252.11 2357.16,-258.74 2359.49,-252.14"/>
</g>
<!-- 36 -->
<g id="node37" class="node">
<title>36</title>
<path fill="none" stroke="#d85656" stroke-width="2" stroke-dasharray="5,2" d="M2455,-252C2455,-252 2380,-252 2380,-252 2374,-252 2368,-246 2368,-240 2368,-240 2368,-228 2368,-228 2368,-222 2374,-216 2380,-216 2380,-216 2455,-216 2455,-216 2461,-216 2467,-222 2467,-228 2467,-228 2467,-240 2467,-240 2467,-246 2461,-252 2455,-252"/>
<text text-anchor="middle" x="2417.5" y="-237" font-family="sans" font-size="10.00">SPAdes_trimmed</text>
<text text-anchor="middle" x="2417.5" y="-226" font-family="sans" font-size="10.00">value_of_k: 55</text>
</g>
<!-- 31&#45;&gt;36 -->
<g id="edge64" class="edge">
<title>31&#45;&gt;36</title>
<path fill="none" stroke="grey" stroke-width="2" d="M2478.48,-287.7C2468.37,-278.97 2455.96,-268.24 2444.98,-258.75"/>
<polygon fill="grey" stroke="grey" stroke-width="2" points="2447.15,-255.99 2437.29,-252.1 2442.57,-261.29 2447.15,-255.99"/>
</g>
<!-- 41 -->
<g id="node42" class="node">
<title>41</title>
<path fill="none" stroke="#d85656" stroke-width="2" stroke-dasharray="5,2" d="M2572,-252C2572,-252 2497,-252 2497,-252 2491,-252 2485,-246 2485,-240 2485,-240 2485,-228 2485,-228 2485,-222 2491,-216 2497,-216 2497,-216 2572,-216 2572,-216 2578,-216 2584,-222 2584,-228 2584,-228 2584,-240 2584,-240 2584,-246 2578,-252 2572,-252"/>
<text text-anchor="middle" x="2534.5" y="-237" font-family="sans" font-size="10.00">SPAdes_trimmed</text>
<text text-anchor="middle" x="2534.5" y="-226" font-family="sans" font-size="10.00">value_of_k: auto</text>
</g>
<!-- 31&#45;&gt;41 -->
<g id="edge69" class="edge">
<title>31&#45;&gt;41</title>
<path fill="none" stroke="grey" stroke-width="2" d="M2507.4,-287.7C2511.5,-279.73 2516.45,-270.1 2520.99,-261.26"/>
<polygon fill="grey" stroke="grey" stroke-width="2" points="2524.24,-262.6 2525.7,-252.1 2518.02,-259.4 2524.24,-262.6"/>
</g>
<!-- 32&#45;&gt;1 -->
<g id="edge24" class="edge">
<title>32&#45;&gt;1</title>
<path fill="none" stroke="grey" stroke-width="2" d="M603,-217.71C605.86,-217.07 608.71,-216.49 611.5,-216 906.33,-163.86 1269.28,-161.68 1387.38,-162.51"/>
<polygon fill="grey" stroke="grey" stroke-width="2" points="1387.69,-166.01 1397.72,-162.6 1387.75,-159.01 1387.69,-166.01"/>
</g>
<!-- 33&#45;&gt;1 -->
<g id="edge25" class="edge">
<title>33&#45;&gt;1</title>
<path fill="none" stroke="grey" stroke-width="2" d="M1069.06,-218C1071.91,-217.28 1074.73,-216.61 1077.5,-216 1188.88,-191.34 1322.8,-174.52 1387.6,-167.18"/>
<polygon fill="grey" stroke="grey" stroke-width="2" points="1388.21,-170.63 1397.76,-166.04 1387.43,-163.67 1388.21,-170.63"/>
</g>
<!-- 34&#45;&gt;1 -->
<g id="edge26" class="edge">
<title>34&#45;&gt;1</title>
<path fill="none" stroke="grey" stroke-width="2" d="M1470.92,-215.7C1463.84,-207.3 1455.22,-197.07 1447.45,-187.86"/>
<polygon fill="grey" stroke="grey" stroke-width="2" points="1450.04,-185.49 1440.92,-180.1 1444.69,-190.01 1450.04,-185.49"/>
</g>
<!-- 35&#45;&gt;1 -->
<g id="edge27" class="edge">
<title>35&#45;&gt;1</title>
<path fill="none" stroke="grey" stroke-width="2" d="M1901.75,-218.03C1898.63,-217.29 1895.53,-216.6 1892.5,-216 1735.84,-184.75 1545.6,-170.27 1465.27,-165.21"/>
<polygon fill="grey" stroke="grey" stroke-width="2" points="1465.32,-161.71 1455.12,-164.58 1464.89,-168.69 1465.32,-161.71"/>
</g>
<!-- 36&#45;&gt;1 -->
<g id="edge28" class="edge">
<title>36&#45;&gt;1</title>
<path fill="none" stroke="grey" stroke-width="2" d="M2367.79,-217.83C2364.66,-217.14 2361.55,-216.52 2358.5,-216 2182.58,-186.04 1619.67,-168.41 1465.73,-164.06"/>
<polygon fill="grey" stroke="grey" stroke-width="2" points="1465.46,-160.55 1455.36,-163.77 1465.26,-167.55 1465.46,-160.55"/>
</g>
<!-- 37&#45;&gt;1 -->
<g id="edge29" class="edge">
<title>37&#45;&gt;1</title>
<path fill="none" stroke="grey" stroke-width="2" d="M720.27,-218.84C725.05,-217.76 729.85,-216.79 734.5,-216 980.85,-174.21 1282.18,-165.35 1387.75,-163.49"/>
<polygon fill="grey" stroke="grey" stroke-width="2" points="1387.99,-166.98 1397.93,-163.32 1387.87,-159.98 1387.99,-166.98"/>
</g>
<!-- 38&#45;&gt;1 -->
<g id="edge30" class="edge">
<title>38&#45;&gt;1</title>
<path fill="none" stroke="grey" stroke-width="2" d="M1186.08,-219.68C1190.95,-218.42 1195.82,-217.17 1200.5,-216 1266.15,-199.59 1342.91,-181.9 1387.96,-171.68"/>
<polygon fill="grey" stroke="grey" stroke-width="2" points="1388.91,-175.05 1397.89,-169.43 1387.37,-168.22 1388.91,-175.05"/>
</g>
<!-- 39&#45;&gt;1 -->
<g id="edge31" class="edge">
<title>39&#45;&gt;1</title>
<path fill="none" stroke="grey" stroke-width="2" d="M1559.45,-215.88C1530.41,-204.33 1492.44,-189.23 1464.52,-178.12"/>
<polygon fill="grey" stroke="grey" stroke-width="2" points="1465.68,-174.82 1455.09,-174.37 1463.09,-181.32 1465.68,-174.82"/>
</g>
<!-- 40&#45;&gt;1 -->
<g id="edge32" class="edge">
<title>40&#45;&gt;1</title>
<path fill="none" stroke="grey" stroke-width="2" d="M2018.77,-217.95C2015.65,-217.23 2012.54,-216.57 2009.5,-216 1807.04,-177.99 1559.71,-166.94 1465.48,-163.99"/>
<polygon fill="grey" stroke="grey" stroke-width="2" points="1465.38,-160.49 1455.28,-163.69 1465.17,-167.48 1465.38,-160.49"/>
</g>
<!-- 41&#45;&gt;1 -->
<g id="edge33" class="edge">
<title>41&#45;&gt;1</title>
<path fill="none" stroke="grey" stroke-width="2" d="M2484.79,-217.81C2481.66,-217.12 2478.55,-216.51 2475.5,-216 2275.31,-182.56 1630.06,-167.2 1465.16,-163.76"/>
<polygon fill="grey" stroke="grey" stroke-width="2" points="1465.07,-160.26 1455,-163.55 1464.93,-167.26 1465.07,-160.26"/>
</g>
<!-- 42 -->
<g id="node43" class="node">
<title>42</title>
<path fill="none" stroke="#5682d8" stroke-width="2" d="M2667,-252C2667,-252 2614,-252 2614,-252 2608,-252 2602,-246 2602,-240 2602,-240 2602,-228 2602,-228 2602,-222 2608,-216 2614,-216 2614,-216 2667,-216 2667,-216 2673,-216 2679,-222 2679,-228 2679,-228 2679,-240 2679,-240 2679,-246 2673,-252 2667,-252"/>
<text text-anchor="middle" x="2640.5" y="-231.5" font-family="sans" font-size="10.00">gfa_to_fasta</text>
</g>
<!-- 42&#45;&gt;0 -->
<g id="edge2" class="edge">
<title>42&#45;&gt;0</title>
<path fill="none" stroke="grey" stroke-width="2" d="M2601.89,-218.73C2598.73,-217.75 2595.58,-216.82 2592.5,-216 2192.36,-109.24 1693.16,-41.42 1554.01,-23.66"/>
<polygon fill="grey" stroke="grey" stroke-width="2" points="1554.24,-20.16 1543.88,-22.38 1553.36,-27.11 1554.24,-20.16"/>
</g>
<!-- 42&#45;&gt;1 -->
<g id="edge34" class="edge">
<title>42&#45;&gt;1</title>
<path fill="none" stroke="grey" stroke-width="2" d="M2601.74,-218.19C2598.64,-217.34 2595.54,-216.59 2592.5,-216 2479.96,-194.02 1654.91,-169.47 1465.28,-164.08"/>
<polygon fill="grey" stroke="grey" stroke-width="2" points="1465.31,-160.58 1455.22,-163.8 1465.11,-167.58 1465.31,-160.58"/>
</g>
<!-- 43 -->
<g id="node44" class="node">
<title>43</title>
<path fill="none" stroke="#d88556" stroke-width="2" stroke-dasharray="5,2" d="M2689.5,-324C2689.5,-324 2591.5,-324 2591.5,-324 2585.5,-324 2579.5,-318 2579.5,-312 2579.5,-312 2579.5,-300 2579.5,-300 2579.5,-294 2585.5,-288 2591.5,-288 2591.5,-288 2689.5,-288 2689.5,-288 2695.5,-288 2701.5,-294 2701.5,-300 2701.5,-300 2701.5,-312 2701.5,-312 2701.5,-318 2695.5,-324 2689.5,-324"/>
<text text-anchor="middle" x="2640.5" y="-303.5" font-family="sans" font-size="10.00">assemble_long_reads</text>
</g>
<!-- 43&#45;&gt;42 -->
<g id="edge70" class="edge">
<title>43&#45;&gt;42</title>
<path fill="none" stroke="grey" stroke-width="2" d="M2640.5,-287.7C2640.5,-279.98 2640.5,-270.71 2640.5,-262.11"/>
<polygon fill="grey" stroke="grey" stroke-width="2" points="2644,-262.1 2640.5,-252.1 2637,-262.1 2644,-262.1"/>
</g>
<!-- 44 -->
<g id="node45" class="node">
<title>44</title>
<path fill="none" stroke="#d8b456" stroke-width="2" stroke-dasharray="5,2" d="M2735,-396C2735,-396 2636,-396 2636,-396 2630,-396 2624,-390 2624,-384 2624,-384 2624,-372 2624,-372 2624,-366 2630,-360 2636,-360 2636,-360 2735,-360 2735,-360 2741,-360 2747,-366 2747,-372 2747,-372 2747,-384 2747,-384 2747,-390 2741,-396 2735,-396"/>
<text text-anchor="middle" x="2685.5" y="-375.5" font-family="sans" font-size="10.00">long_read_preprocess</text>
</g>
<!-- 44&#45;&gt;43 -->
<g id="edge71" class="edge">
<title>44&#45;&gt;43</title>
<path fill="none" stroke="grey" stroke-width="2" d="M2674.38,-359.7C2669.14,-351.56 2662.8,-341.69 2657.02,-332.7"/>
<polygon fill="grey" stroke="grey" stroke-width="2" points="2659.85,-330.62 2651.5,-324.1 2653.96,-334.41 2659.85,-330.62"/>
</g>
<!-- 45 -->
<g id="node46" class="node">
<title>45</title>
<path fill="none" stroke="#56d86b" stroke-width="2" stroke-dasharray="5,2" d="M2706,-468C2706,-468 2575,-468 2575,-468 2569,-468 2563,-462 2563,-456 2563,-456 2563,-444 2563,-444 2563,-438 2569,-432 2575,-432 2575,-432 2706,-432 2706,-432 2712,-432 2718,-438 2718,-444 2718,-444 2718,-456 2718,-456 2718,-462 2712,-468 2706,-468"/>
<text text-anchor="middle" x="2640.5" y="-453" font-family="sans" font-size="10.00">download_sr_single</text>
<text text-anchor="middle" x="2640.5" y="-442" font-family="sans" font-size="10.00">long_barcodes: SRR8902592</text>
</g>
<!-- 45&#45;&gt;43 -->
<g id="edge72" class="edge">
<title>45&#45;&gt;43</title>
<path fill="none" stroke="grey" stroke-width="2" d="M2629.87,-431.56C2624.4,-421.54 2618.3,-408.51 2615.5,-396 2612,-380.39 2612,-375.61 2615.5,-360 2617.51,-351.01 2621.23,-341.75 2625.2,-333.53"/>
<polygon fill="grey" stroke="grey" stroke-width="2" points="2628.41,-334.94 2629.87,-324.44 2622.18,-331.73 2628.41,-334.94"/>
</g>
<!-- 45&#45;&gt;44 -->
<g id="edge73" class="edge">
<title>45&#45;&gt;44</title>
<path fill="none" stroke="grey" stroke-width="2" d="M2651.62,-431.7C2656.86,-423.56 2663.2,-413.69 2668.98,-404.7"/>
<polygon fill="grey" stroke="grey" stroke-width="2" points="2672.04,-406.41 2674.5,-396.1 2666.15,-402.62 2672.04,-406.41"/>
</g>
<!-- 46&#45;&gt;0 -->
<g id="edge3" class="edge">
<title>46&#45;&gt;0</title>
<path fill="none" stroke="grey" stroke-width="2" d="M1516.5,-71.7C1516.5,-63.98 1516.5,-54.71 1516.5,-46.11"/>
<polygon fill="grey" stroke="grey" stroke-width="2" points="1520,-46.1 1516.5,-36.1 1513,-46.1 1520,-46.1"/>
</g>
</g>
</svg>
