<?xml version="1.0" encoding="UTF-8" standalone="no"?>
<!DOCTYPE svg PUBLIC "-//W3C//DTD SVG 1.1//EN"
 "http://www.w3.org/Graphics/SVG/1.1/DTD/svg11.dtd">
<!-- Generated by graphviz version 2.49.0 (20210829.0051)
 -->
<!-- Title: snakemake_dag Pages: 1 -->
<svg width="1630pt" height="188pt"
 viewBox="0.00 0.00 1630.00 188.00" xmlns="http://www.w3.org/2000/svg" xmlns:xlink="http://www.w3.org/1999/xlink">
<g id="graph0" class="graph" transform="scale(1 1) rotate(0) translate(4 184)">
<title>snakemake_dag</title>
<polygon fill="white" stroke="transparent" points="-4,4 -4,-184 1626,-184 1626,4 -4,4"/>
<!-- 0 -->
<g id="node1" class="node">
<title>0</title>
<path fill="none" stroke="#56d8a9" stroke-width="2" d="M821,-36C821,-36 791,-36 791,-36 785,-36 779,-30 779,-24 779,-24 779,-12 779,-12 779,-6 785,0 791,0 791,0 821,0 821,0 827,0 833,-6 833,-12 833,-12 833,-24 833,-24 833,-30 827,-36 821,-36"/>
<text text-anchor="middle" x="806" y="-15.5" font-family="sans" font-size="10.00">all</text>
</g>
<!-- 1 -->
<g id="node2" class="node">
<title>1</title>
<path fill="none" stroke="#d85656" stroke-width="2" stroke-dasharray="5,2" d="M76,-108C76,-108 12,-108 12,-108 6,-108 0,-102 0,-96 0,-96 0,-84 0,-84 0,-78 6,-72 12,-72 12,-72 76,-72 76,-72 82,-72 88,-78 88,-84 88,-84 88,-96 88,-96 88,-102 82,-108 76,-108"/>
<text text-anchor="middle" x="44" y="-93" font-family="sans" font-size="10.00">SPAdes</text>
<text text-anchor="middle" x="44" y="-82" font-family="sans" font-size="10.00">value_of_k: 31</text>
</g>
<!-- 1&#45;&gt;0 -->
<g id="edge1" class="edge">
<title>1&#45;&gt;0</title>
<path fill="none" stroke="grey" stroke-width="2" d="M88.04,-74.02C91.05,-73.26 94.06,-72.57 97,-72 350.3,-22.63 662.75,-18.55 768.79,-18.71"/>
<polygon fill="grey" stroke="grey" stroke-width="2" points="768.97,-22.21 778.98,-18.74 768.99,-15.21 768.97,-22.21"/>
</g>
<!-- 2 -->
<g id="node3" class="node">
<title>2</title>
<path fill="none" stroke="#afd856" stroke-width="2" stroke-dasharray="5,2" d="M202,-180C202,-180 98,-180 98,-180 92,-180 86,-174 86,-168 86,-168 86,-156 86,-156 86,-150 92,-144 98,-144 98,-144 202,-144 202,-144 208,-144 214,-150 214,-156 214,-156 214,-168 214,-168 214,-174 208,-180 202,-180"/>
<text text-anchor="middle" x="150" y="-165" font-family="sans" font-size="10.00">download_sr</text>
<text text-anchor="middle" x="150" y="-154" font-family="sans" font-size="10.00">barcodes: SRR1965341</text>
</g>
<!-- 2&#45;&gt;1 -->
<g id="edge16" class="edge">
<title>2&#45;&gt;1</title>
<path fill="none" stroke="grey" stroke-width="2" d="M124.07,-143.88C110.34,-134.81 93.29,-123.55 78.46,-113.76"/>
<polygon fill="grey" stroke="grey" stroke-width="2" points="80.3,-110.78 70.03,-108.19 76.45,-116.62 80.3,-110.78"/>
</g>
<!-- 11 -->
<g id="node12" class="node">
<title>11</title>
<path fill="none" stroke="#d85656" stroke-width="2" stroke-dasharray="5,2" d="M182,-108C182,-108 118,-108 118,-108 112,-108 106,-102 106,-96 106,-96 106,-84 106,-84 106,-78 112,-72 118,-72 118,-72 182,-72 182,-72 188,-72 194,-78 194,-84 194,-84 194,-96 194,-96 194,-102 188,-108 182,-108"/>
<text text-anchor="middle" x="150" y="-93" font-family="sans" font-size="10.00">SPAdes</text>
<text text-anchor="middle" x="150" y="-82" font-family="sans" font-size="10.00">value_of_k: 55</text>
</g>
<!-- 2&#45;&gt;11 -->
<g id="edge21" class="edge">
<title>2&#45;&gt;11</title>
<path fill="none" stroke="grey" stroke-width="2" d="M150,-143.7C150,-135.98 150,-126.71 150,-118.11"/>
<polygon fill="grey" stroke="grey" stroke-width="2" points="153.5,-118.1 150,-108.1 146.5,-118.1 153.5,-118.1"/>
</g>
<!-- 16 -->
<g id="node17" class="node">
<title>16</title>
<path fill="none" stroke="#d85656" stroke-width="2" stroke-dasharray="5,2" d="M298,-108C298,-108 224,-108 224,-108 218,-108 212,-102 212,-96 212,-96 212,-84 212,-84 212,-78 218,-72 224,-72 224,-72 298,-72 298,-72 304,-72 310,-78 310,-84 310,-84 310,-96 310,-96 310,-102 304,-108 298,-108"/>
<text text-anchor="middle" x="261" y="-93" font-family="sans" font-size="10.00">SPAdes</text>
<text text-anchor="middle" x="261" y="-82" font-family="sans" font-size="10.00">value_of_k: auto</text>
</g>
<!-- 2&#45;&gt;16 -->
<g id="edge26" class="edge">
<title>2&#45;&gt;16</title>
<path fill="none" stroke="grey" stroke-width="2" d="M177.15,-143.88C191.53,-134.81 209.38,-123.55 224.91,-113.76"/>
<polygon fill="grey" stroke="grey" stroke-width="2" points="227.15,-116.48 233.74,-108.19 223.42,-110.56 227.15,-116.48"/>
</g>
<!-- 3 -->
<g id="node4" class="node">
<title>3</title>
<path fill="none" stroke="#d85656" stroke-width="2" d="M404,-108C404,-108 340,-108 340,-108 334,-108 328,-102 328,-96 328,-96 328,-84 328,-84 328,-78 334,-72 340,-72 340,-72 404,-72 404,-72 410,-72 416,-78 416,-84 416,-84 416,-96 416,-96 416,-102 410,-108 404,-108"/>
<text text-anchor="middle" x="372" y="-93" font-family="sans" font-size="10.00">SPAdes</text>
<text text-anchor="middle" x="372" y="-82" font-family="sans" font-size="10.00">value_of_k: 31</text>
</g>
<!-- 3&#45;&gt;0 -->
<g id="edge2" class="edge">
<title>3&#45;&gt;0</title>
<path fill="none" stroke="grey" stroke-width="2" d="M416.09,-74.23C419.09,-73.42 422.08,-72.67 425,-72 549.22,-43.66 699.91,-28.12 768.61,-22.05"/>
<polygon fill="grey" stroke="grey" stroke-width="2" points="769.26,-25.51 778.92,-21.15 768.66,-18.53 769.26,-25.51"/>
</g>
<!-- 4 -->
<g id="node5" class="node">
<title>4</title>
<path fill="none" stroke="#afd856" stroke-width="2" d="M530,-180C530,-180 426,-180 426,-180 420,-180 414,-174 414,-168 414,-168 414,-156 414,-156 414,-150 420,-144 426,-144 426,-144 530,-144 530,-144 536,-144 542,-150 542,-156 542,-156 542,-168 542,-168 542,-174 536,-180 530,-180"/>
<text text-anchor="middle" x="478" y="-165" font-family="sans" font-size="10.00">download_sr</text>
<text text-anchor="middle" x="478" y="-154" font-family="sans" font-size="10.00">barcodes: SRR1968189</text>
</g>
<!-- 4&#45;&gt;3 -->
<g id="edge17" class="edge">
<title>4&#45;&gt;3</title>
<path fill="none" stroke="grey" stroke-width="2" d="M452.07,-143.88C438.34,-134.81 421.29,-123.55 406.46,-113.76"/>
<polygon fill="grey" stroke="grey" stroke-width="2" points="408.3,-110.78 398.03,-108.19 404.45,-116.62 408.3,-110.78"/>
</g>
<!-- 12 -->
<g id="node13" class="node">
<title>12</title>
<path fill="none" stroke="#d85656" stroke-width="2" d="M510,-108C510,-108 446,-108 446,-108 440,-108 434,-102 434,-96 434,-96 434,-84 434,-84 434,-78 440,-72 446,-72 446,-72 510,-72 510,-72 516,-72 522,-78 522,-84 522,-84 522,-96 522,-96 522,-102 516,-108 510,-108"/>
<text text-anchor="middle" x="478" y="-93" font-family="sans" font-size="10.00">SPAdes</text>
<text text-anchor="middle" x="478" y="-82" font-family="sans" font-size="10.00">value_of_k: 55</text>
</g>
<!-- 4&#45;&gt;12 -->
<g id="edge22" class="edge">
<title>4&#45;&gt;12</title>
<path fill="none" stroke="grey" stroke-width="2" d="M478,-143.7C478,-135.98 478,-126.71 478,-118.11"/>
<polygon fill="grey" stroke="grey" stroke-width="2" points="481.5,-118.1 478,-108.1 474.5,-118.1 481.5,-118.1"/>
</g>
<!-- 17 -->
<g id="node18" class="node">
<title>17</title>
<path fill="none" stroke="#d85656" stroke-width="2" d="M626,-108C626,-108 552,-108 552,-108 546,-108 540,-102 540,-96 540,-96 540,-84 540,-84 540,-78 546,-72 552,-72 552,-72 626,-72 626,-72 632,-72 638,-78 638,-84 638,-84 638,-96 638,-96 638,-102 632,-108 626,-108"/>
<text text-anchor="middle" x="589" y="-93" font-family="sans" font-size="10.00">SPAdes</text>
<text text-anchor="middle" x="589" y="-82" font-family="sans" font-size="10.00">value_of_k: auto</text>
</g>
<!-- 4&#45;&gt;17 -->
<g id="edge27" class="edge">
<title>4&#45;&gt;17</title>
<path fill="none" stroke="grey" stroke-width="2" d="M505.15,-143.88C519.53,-134.81 537.38,-123.55 552.91,-113.76"/>
<polygon fill="grey" stroke="grey" stroke-width="2" points="555.15,-116.48 561.74,-108.19 551.42,-110.56 555.15,-116.48"/>
</g>
<!-- 5 -->
<g id="node6" class="node">
<title>5</title>
<path fill="none" stroke="#d85656" stroke-width="2" stroke-dasharray="5,2" d="M732,-108C732,-108 668,-108 668,-108 662,-108 656,-102 656,-96 656,-96 656,-84 656,-84 656,-78 662,-72 668,-72 668,-72 732,-72 732,-72 738,-72 744,-78 744,-84 744,-84 744,-96 744,-96 744,-102 738,-108 732,-108"/>
<text text-anchor="middle" x="700" y="-93" font-family="sans" font-size="10.00">SPAdes</text>
<text text-anchor="middle" x="700" y="-82" font-family="sans" font-size="10.00">value_of_k: 31</text>
</g>
<!-- 5&#45;&gt;0 -->
<g id="edge3" class="edge">
<title>5&#45;&gt;0</title>
<path fill="none" stroke="grey" stroke-width="2" d="M725.93,-71.88C739.66,-62.81 756.71,-51.55 771.54,-41.76"/>
<polygon fill="grey" stroke="grey" stroke-width="2" points="773.55,-44.62 779.97,-36.19 769.7,-38.78 773.55,-44.62"/>
</g>
<!-- 6 -->
<g id="node7" class="node">
<title>6</title>
<path fill="none" stroke="#afd856" stroke-width="2" stroke-dasharray="5,2" d="M858,-180C858,-180 754,-180 754,-180 748,-180 742,-174 742,-168 742,-168 742,-156 742,-156 742,-150 748,-144 754,-144 754,-144 858,-144 858,-144 864,-144 870,-150 870,-156 870,-156 870,-168 870,-168 870,-174 864,-180 858,-180"/>
<text text-anchor="middle" x="806" y="-165" font-family="sans" font-size="10.00">download_sr</text>
<text text-anchor="middle" x="806" y="-154" font-family="sans" font-size="10.00">barcodes: SRR7828287</text>
</g>
<!-- 6&#45;&gt;5 -->
<g id="edge18" class="edge">
<title>6&#45;&gt;5</title>
<path fill="none" stroke="grey" stroke-width="2" d="M780.07,-143.88C766.34,-134.81 749.29,-123.55 734.46,-113.76"/>
<polygon fill="grey" stroke="grey" stroke-width="2" points="736.3,-110.78 726.03,-108.19 732.45,-116.62 736.3,-110.78"/>
</g>
<!-- 13 -->
<g id="node14" class="node">
<title>13</title>
<path fill="none" stroke="#d85656" stroke-width="2" stroke-dasharray="5,2" d="M838,-108C838,-108 774,-108 774,-108 768,-108 762,-102 762,-96 762,-96 762,-84 762,-84 762,-78 768,-72 774,-72 774,-72 838,-72 838,-72 844,-72 850,-78 850,-84 850,-84 850,-96 850,-96 850,-102 844,-108 838,-108"/>
<text text-anchor="middle" x="806" y="-93" font-family="sans" font-size="10.00">SPAdes</text>
<text text-anchor="middle" x="806" y="-82" font-family="sans" font-size="10.00">value_of_k: 55</text>
</g>
<!-- 6&#45;&gt;13 -->
<g id="edge23" class="edge">
<title>6&#45;&gt;13</title>
<path fill="none" stroke="grey" stroke-width="2" d="M806,-143.7C806,-135.98 806,-126.71 806,-118.11"/>
<polygon fill="grey" stroke="grey" stroke-width="2" points="809.5,-118.1 806,-108.1 802.5,-118.1 809.5,-118.1"/>
</g>
<!-- 18 -->
<g id="node19" class="node">
<title>18</title>
<path fill="none" stroke="#d85656" stroke-width="2" stroke-dasharray="5,2" d="M954,-108C954,-108 880,-108 880,-108 874,-108 868,-102 868,-96 868,-96 868,-84 868,-84 868,-78 874,-72 880,-72 880,-72 954,-72 954,-72 960,-72 966,-78 966,-84 966,-84 966,-96 966,-96 966,-102 960,-108 954,-108"/>
<text text-anchor="middle" x="917" y="-93" font-family="sans" font-size="10.00">SPAdes</text>
<text text-anchor="middle" x="917" y="-82" font-family="sans" font-size="10.00">value_of_k: auto</text>
</g>
<!-- 6&#45;&gt;18 -->
<g id="edge28" class="edge">
<title>6&#45;&gt;18</title>
<path fill="none" stroke="grey" stroke-width="2" d="M833.15,-143.88C847.53,-134.81 865.38,-123.55 880.91,-113.76"/>
<polygon fill="grey" stroke="grey" stroke-width="2" points="883.15,-116.48 889.74,-108.19 879.42,-110.56 883.15,-116.48"/>
</g>
<!-- 7 -->
<g id="node8" class="node">
<title>7</title>
<path fill="none" stroke="#d85656" stroke-width="2" d="M1060,-108C1060,-108 996,-108 996,-108 990,-108 984,-102 984,-96 984,-96 984,-84 984,-84 984,-78 990,-72 996,-72 996,-72 1060,-72 1060,-72 1066,-72 1072,-78 1072,-84 1072,-84 1072,-96 1072,-96 1072,-102 1066,-108 1060,-108"/>
<text text-anchor="middle" x="1028" y="-93" font-family="sans" font-size="10.00">SPAdes</text>
<text text-anchor="middle" x="1028" y="-82" font-family="sans" font-size="10.00">value_of_k: 31</text>
</g>
<!-- 7&#45;&gt;0 -->
<g id="edge4" class="edge">
<title>7&#45;&gt;0</title>
<path fill="none" stroke="grey" stroke-width="2" d="M983.76,-74.79C980.8,-73.84 977.86,-72.91 975,-72 929.52,-57.57 877.08,-41.16 842.83,-30.47"/>
<polygon fill="grey" stroke="grey" stroke-width="2" points="843.83,-27.12 833.24,-27.48 841.74,-33.8 843.83,-27.12"/>
</g>
<!-- 8 -->
<g id="node9" class="node">
<title>8</title>
<path fill="none" stroke="#afd856" stroke-width="2" stroke-dasharray="5,2" d="M1186,-180C1186,-180 1082,-180 1082,-180 1076,-180 1070,-174 1070,-168 1070,-168 1070,-156 1070,-156 1070,-150 1076,-144 1082,-144 1082,-144 1186,-144 1186,-144 1192,-144 1198,-150 1198,-156 1198,-156 1198,-168 1198,-168 1198,-174 1192,-180 1186,-180"/>
<text text-anchor="middle" x="1134" y="-165" font-family="sans" font-size="10.00">download_sr</text>
<text text-anchor="middle" x="1134" y="-154" font-family="sans" font-size="10.00">barcodes: SRR2075991</text>
</g>
<!-- 8&#45;&gt;7 -->
<g id="edge19" class="edge">
<title>8&#45;&gt;7</title>
<path fill="none" stroke="grey" stroke-width="2" d="M1108.07,-143.88C1094.34,-134.81 1077.29,-123.55 1062.46,-113.76"/>
<polygon fill="grey" stroke="grey" stroke-width="2" points="1064.3,-110.78 1054.03,-108.19 1060.45,-116.62 1064.3,-110.78"/>
</g>
<!-- 14 -->
<g id="node15" class="node">
<title>14</title>
<path fill="none" stroke="#d85656" stroke-width="2" stroke-dasharray="5,2" d="M1166,-108C1166,-108 1102,-108 1102,-108 1096,-108 1090,-102 1090,-96 1090,-96 1090,-84 1090,-84 1090,-78 1096,-72 1102,-72 1102,-72 1166,-72 1166,-72 1172,-72 1178,-78 1178,-84 1178,-84 1178,-96 1178,-96 1178,-102 1172,-108 1166,-108"/>
<text text-anchor="middle" x="1134" y="-93" font-family="sans" font-size="10.00">SPAdes</text>
<text text-anchor="middle" x="1134" y="-82" font-family="sans" font-size="10.00">value_of_k: 55</text>
</g>
<!-- 8&#45;&gt;14 -->
<g id="edge24" class="edge">
<title>8&#45;&gt;14</title>
<path fill="none" stroke="grey" stroke-width="2" d="M1134,-143.7C1134,-135.98 1134,-126.71 1134,-118.11"/>
<polygon fill="grey" stroke="grey" stroke-width="2" points="1137.5,-118.1 1134,-108.1 1130.5,-118.1 1137.5,-118.1"/>
</g>
<!-- 19 -->
<g id="node20" class="node">
<title>19</title>
<path fill="none" stroke="#d85656" stroke-width="2" stroke-dasharray="5,2" d="M1282,-108C1282,-108 1208,-108 1208,-108 1202,-108 1196,-102 1196,-96 1196,-96 1196,-84 1196,-84 1196,-78 1202,-72 1208,-72 1208,-72 1282,-72 1282,-72 1288,-72 1294,-78 1294,-84 1294,-84 1294,-96 1294,-96 1294,-102 1288,-108 1282,-108"/>
<text text-anchor="middle" x="1245" y="-93" font-family="sans" font-size="10.00">SPAdes</text>
<text text-anchor="middle" x="1245" y="-82" font-family="sans" font-size="10.00">value_of_k: auto</text>
</g>
<!-- 8&#45;&gt;19 -->
<g id="edge29" class="edge">
<title>8&#45;&gt;19</title>
<path fill="none" stroke="grey" stroke-width="2" d="M1161.15,-143.88C1175.53,-134.81 1193.38,-123.55 1208.91,-113.76"/>
<polygon fill="grey" stroke="grey" stroke-width="2" points="1211.15,-116.48 1217.74,-108.19 1207.42,-110.56 1211.15,-116.48"/>
</g>
<!-- 9 -->
<g id="node10" class="node">
<title>9</title>
<path fill="none" stroke="#d85656" stroke-width="2" stroke-dasharray="5,2" d="M1388,-108C1388,-108 1324,-108 1324,-108 1318,-108 1312,-102 1312,-96 1312,-96 1312,-84 1312,-84 1312,-78 1318,-72 1324,-72 1324,-72 1388,-72 1388,-72 1394,-72 1400,-78 1400,-84 1400,-84 1400,-96 1400,-96 1400,-102 1394,-108 1388,-108"/>
<text text-anchor="middle" x="1356" y="-93" font-family="sans" font-size="10.00">SPAdes</text>
<text text-anchor="middle" x="1356" y="-82" font-family="sans" font-size="10.00">value_of_k: 31</text>
</g>
<!-- 9&#45;&gt;0 -->
<g id="edge5" class="edge">
<title>9&#45;&gt;0</title>
<path fill="none" stroke="grey" stroke-width="2" d="M1311.94,-74.12C1308.93,-73.34 1305.93,-72.62 1303,-72 1133.83,-36.24 926.9,-24.04 843.48,-20.39"/>
<polygon fill="grey" stroke="grey" stroke-width="2" points="843.38,-16.88 833.24,-19.95 843.08,-23.87 843.38,-16.88"/>
</g>
<!-- 10 -->
<g id="node11" class="node">
<title>10</title>
<path fill="none" stroke="#afd856" stroke-width="2" stroke-dasharray="5,2" d="M1514,-180C1514,-180 1410,-180 1410,-180 1404,-180 1398,-174 1398,-168 1398,-168 1398,-156 1398,-156 1398,-150 1404,-144 1410,-144 1410,-144 1514,-144 1514,-144 1520,-144 1526,-150 1526,-156 1526,-156 1526,-168 1526,-168 1526,-174 1520,-180 1514,-180"/>
<text text-anchor="middle" x="1462" y="-165" font-family="sans" font-size="10.00">download_sr</text>
<text text-anchor="middle" x="1462" y="-154" font-family="sans" font-size="10.00">barcodes: SRR5584993</text>
</g>
<!-- 10&#45;&gt;9 -->
<g id="edge20" class="edge">
<title>10&#45;&gt;9</title>
<path fill="none" stroke="grey" stroke-width="2" d="M1436.07,-143.88C1422.34,-134.81 1405.29,-123.55 1390.46,-113.76"/>
<polygon fill="grey" stroke="grey" stroke-width="2" points="1392.3,-110.78 1382.03,-108.19 1388.45,-116.62 1392.3,-110.78"/>
</g>
<!-- 15 -->
<g id="node16" class="node">
<title>15</title>
<path fill="none" stroke="#d85656" stroke-width="2" stroke-dasharray="5,2" d="M1494,-108C1494,-108 1430,-108 1430,-108 1424,-108 1418,-102 1418,-96 1418,-96 1418,-84 1418,-84 1418,-78 1424,-72 1430,-72 1430,-72 1494,-72 1494,-72 1500,-72 1506,-78 1506,-84 1506,-84 1506,-96 1506,-96 1506,-102 1500,-108 1494,-108"/>
<text text-anchor="middle" x="1462" y="-93" font-family="sans" font-size="10.00">SPAdes</text>
<text text-anchor="middle" x="1462" y="-82" font-family="sans" font-size="10.00">value_of_k: 55</text>
</g>
<!-- 10&#45;&gt;15 -->
<g id="edge25" class="edge">
<title>10&#45;&gt;15</title>
<path fill="none" stroke="grey" stroke-width="2" d="M1462,-143.7C1462,-135.98 1462,-126.71 1462,-118.11"/>
<polygon fill="grey" stroke="grey" stroke-width="2" points="1465.5,-118.1 1462,-108.1 1458.5,-118.1 1465.5,-118.1"/>
</g>
<!-- 20 -->
<g id="node21" class="node">
<title>20</title>
<path fill="none" stroke="#d85656" stroke-width="2" d="M1610,-108C1610,-108 1536,-108 1536,-108 1530,-108 1524,-102 1524,-96 1524,-96 1524,-84 1524,-84 1524,-78 1530,-72 1536,-72 1536,-72 1610,-72 1610,-72 1616,-72 1622,-78 1622,-84 1622,-84 1622,-96 1622,-96 1622,-102 1616,-108 1610,-108"/>
<text text-anchor="middle" x="1573" y="-93" font-family="sans" font-size="10.00">SPAdes</text>
<text text-anchor="middle" x="1573" y="-82" font-family="sans" font-size="10.00">value_of_k: auto</text>
</g>
<!-- 10&#45;&gt;20 -->
<g id="edge30" class="edge">
<title>10&#45;&gt;20</title>
<path fill="none" stroke="grey" stroke-width="2" d="M1489.15,-143.88C1503.53,-134.81 1521.38,-123.55 1536.91,-113.76"/>
<polygon fill="grey" stroke="grey" stroke-width="2" points="1539.15,-116.48 1545.74,-108.19 1535.42,-110.56 1539.15,-116.48"/>
</g>
<!-- 11&#45;&gt;0 -->
<g id="edge6" class="edge">
<title>11&#45;&gt;0</title>
<path fill="none" stroke="grey" stroke-width="2" d="M194.05,-74.06C197.06,-73.29 200.06,-72.59 203,-72 414.03,-29.43 673.45,-21.05 768.68,-19.4"/>
<polygon fill="grey" stroke="grey" stroke-width="2" points="769.01,-22.9 778.95,-19.24 768.89,-15.9 769.01,-22.9"/>
</g>
<!-- 12&#45;&gt;0 -->
<g id="edge7" class="edge">
<title>12&#45;&gt;0</title>
<path fill="none" stroke="grey" stroke-width="2" d="M522.13,-74.41C525.12,-73.55 528.1,-72.74 531,-72 615.13,-50.48 715.71,-33.19 768.85,-24.71"/>
<polygon fill="grey" stroke="grey" stroke-width="2" points="769.5,-28.15 778.83,-23.13 768.4,-21.23 769.5,-28.15"/>
</g>
<!-- 13&#45;&gt;0 -->
<g id="edge8" class="edge">
<title>13&#45;&gt;0</title>
<path fill="none" stroke="grey" stroke-width="2" d="M806,-71.7C806,-63.98 806,-54.71 806,-46.11"/>
<polygon fill="grey" stroke="grey" stroke-width="2" points="809.5,-46.1 806,-36.1 802.5,-46.1 809.5,-46.1"/>
</g>
<!-- 14&#45;&gt;0 -->
<g id="edge9" class="edge">
<title>14&#45;&gt;0</title>
<path fill="none" stroke="grey" stroke-width="2" d="M1089.87,-74.41C1086.88,-73.55 1083.9,-72.74 1081,-72 996.87,-50.48 896.29,-33.19 843.15,-24.71"/>
<polygon fill="grey" stroke="grey" stroke-width="2" points="843.6,-21.23 833.17,-23.13 842.5,-28.15 843.6,-21.23"/>
</g>
<!-- 15&#45;&gt;0 -->
<g id="edge10" class="edge">
<title>15&#45;&gt;0</title>
<path fill="none" stroke="grey" stroke-width="2" d="M1417.95,-74.06C1414.94,-73.29 1411.94,-72.59 1409,-72 1197.97,-29.43 938.55,-21.05 843.32,-19.4"/>
<polygon fill="grey" stroke="grey" stroke-width="2" points="843.11,-15.9 833.05,-19.24 842.99,-22.9 843.11,-15.9"/>
</g>
<!-- 16&#45;&gt;0 -->
<g id="edge11" class="edge">
<title>16&#45;&gt;0</title>
<path fill="none" stroke="grey" stroke-width="2" d="M310.21,-73.93C313.17,-73.23 316.12,-72.57 319,-72 484.8,-38.95 686.76,-25.27 768.74,-20.81"/>
<polygon fill="grey" stroke="grey" stroke-width="2" points="769.02,-24.3 778.82,-20.27 768.65,-17.31 769.02,-24.3"/>
</g>
<!-- 17&#45;&gt;0 -->
<g id="edge12" class="edge">
<title>17&#45;&gt;0</title>
<path fill="none" stroke="grey" stroke-width="2" d="M638.24,-73.12C678.02,-60.28 733.12,-42.51 769.16,-30.89"/>
<polygon fill="grey" stroke="grey" stroke-width="2" points="770.34,-34.18 778.78,-27.78 768.19,-27.52 770.34,-34.18"/>
</g>
<!-- 18&#45;&gt;0 -->
<g id="edge13" class="edge">
<title>18&#45;&gt;0</title>
<path fill="none" stroke="grey" stroke-width="2" d="M889.85,-71.88C875.47,-62.81 857.62,-51.55 842.09,-41.76"/>
<polygon fill="grey" stroke="grey" stroke-width="2" points="843.58,-38.56 833.26,-36.19 839.85,-44.48 843.58,-38.56"/>
</g>
<!-- 19&#45;&gt;0 -->
<g id="edge14" class="edge">
<title>19&#45;&gt;0</title>
<path fill="none" stroke="grey" stroke-width="2" d="M1195.77,-74.03C1192.81,-73.3 1189.87,-72.62 1187,-72 1062.43,-45.23 911.91,-28.92 843.32,-22.35"/>
<polygon fill="grey" stroke="grey" stroke-width="2" points="843.31,-18.84 833.03,-21.38 842.66,-25.81 843.31,-18.84"/>
</g>
<!-- 20&#45;&gt;0 -->
<g id="edge15" class="edge">
<title>20&#45;&gt;0</title>
<path fill="none" stroke="grey" stroke-width="2" d="M1523.81,-73.82C1520.84,-73.14 1517.89,-72.53 1515,-72 1261.39,-25.89 949.75,-19.74 843.52,-19.04"/>
<polygon fill="grey" stroke="grey" stroke-width="2" points="843.33,-15.54 833.31,-18.98 843.29,-22.54 843.33,-15.54"/>
</g>
</g>
</svg>
