<?xml version="1.0" encoding="UTF-8" standalone="no"?>
<!DOCTYPE svg PUBLIC "-//W3C//DTD SVG 1.1//EN"
 "http://www.w3.org/Graphics/SVG/1.1/DTD/svg11.dtd">
<!-- Generated by graphviz version 2.49.0 (20210829.0051)
 -->
<!-- Title: snakemake_dag Pages: 1 -->
<svg width="2592pt" height="404pt"
 viewBox="0.00 0.00 2592.00 404.00" xmlns="http://www.w3.org/2000/svg" xmlns:xlink="http://www.w3.org/1999/xlink">
<g id="graph0" class="graph" transform="scale(1 1) rotate(0) translate(4 400)">
<title>snakemake_dag</title>
<polygon fill="white" stroke="transparent" points="-4,4 -4,-400 2588,-400 2588,4 -4,4"/>
<!-- 0 -->
<g id="node1" class="node">
<title>0</title>
<path fill="none" stroke="#70d856" stroke-width="2" d="M1344.5,-36C1344.5,-36 1314.5,-36 1314.5,-36 1308.5,-36 1302.5,-30 1302.5,-24 1302.5,-24 1302.5,-12 1302.5,-12 1302.5,-6 1308.5,0 1314.5,0 1314.5,0 1344.5,0 1344.5,0 1350.5,0 1356.5,-6 1356.5,-12 1356.5,-12 1356.5,-24 1356.5,-24 1356.5,-30 1350.5,-36 1344.5,-36"/>
<text text-anchor="middle" x="1329.5" y="-15.5" font-family="sans" font-size="10.00">all</text>
</g>
<!-- 1 -->
<g id="node2" class="node">
<title>1</title>
<path fill="none" stroke="#9fd856" stroke-width="2" stroke-dasharray="5,2" d="M1346,-180C1346,-180 1313,-180 1313,-180 1307,-180 1301,-174 1301,-168 1301,-168 1301,-156 1301,-156 1301,-150 1307,-144 1313,-144 1313,-144 1346,-144 1346,-144 1352,-144 1358,-150 1358,-156 1358,-156 1358,-168 1358,-168 1358,-174 1352,-180 1346,-180"/>
<text text-anchor="middle" x="1329.5" y="-159.5" font-family="sans" font-size="10.00">analysis</text>
</g>
<!-- 1&#45;&gt;0 -->
<g id="edge1" class="edge">
<title>1&#45;&gt;0</title>
<path fill="none" stroke="grey" stroke-width="2" d="M1318.45,-143.61C1312.76,-133.62 1306.42,-120.58 1303.5,-108 1299.88,-92.41 1299.88,-87.59 1303.5,-72 1305.6,-62.96 1309.47,-53.68 1313.59,-45.47"/>
<polygon fill="grey" stroke="grey" stroke-width="2" points="1316.81,-46.86 1318.45,-36.39 1310.64,-43.55 1316.81,-46.86"/>
</g>
<!-- 42 -->
<g id="node43" class="node">
<title>42</title>
<path fill="none" stroke="#56b1d8" stroke-width="2" d="M1424.5,-108C1424.5,-108 1324.5,-108 1324.5,-108 1318.5,-108 1312.5,-102 1312.5,-96 1312.5,-96 1312.5,-84 1312.5,-84 1312.5,-78 1318.5,-72 1324.5,-72 1324.5,-72 1424.5,-72 1424.5,-72 1430.5,-72 1436.5,-78 1436.5,-84 1436.5,-84 1436.5,-96 1436.5,-96 1436.5,-102 1430.5,-108 1424.5,-108"/>
<text text-anchor="middle" x="1374.5" y="-87.5" font-family="sans" font-size="10.00">comparative_analysis</text>
</g>
<!-- 1&#45;&gt;42 -->
<g id="edge68" class="edge">
<title>1&#45;&gt;42</title>
<path fill="none" stroke="grey" stroke-width="2" d="M1340.62,-143.7C1345.86,-135.56 1352.2,-125.69 1357.98,-116.7"/>
<polygon fill="grey" stroke="grey" stroke-width="2" points="1361.04,-118.41 1363.5,-108.1 1355.15,-114.62 1361.04,-118.41"/>
</g>
<!-- 2 -->
<g id="node3" class="node">
<title>2</title>
<path fill="none" stroke="#56d86b" stroke-width="2" stroke-dasharray="5,2" d="M99,-252C99,-252 12,-252 12,-252 6,-252 0,-246 0,-240 0,-240 0,-228 0,-228 0,-222 6,-216 12,-216 12,-216 99,-216 99,-216 105,-216 111,-222 111,-228 111,-228 111,-240 111,-240 111,-246 105,-252 99,-252"/>
<text text-anchor="middle" x="55.5" y="-237" font-family="sans" font-size="10.00">SPAdes_untrimmed</text>
<text text-anchor="middle" x="55.5" y="-226" font-family="sans" font-size="10.00">value_of_k: 31</text>
</g>
<!-- 2&#45;&gt;1 -->
<g id="edge3" class="edge">
<title>2&#45;&gt;1</title>
<path fill="none" stroke="grey" stroke-width="2" d="M111.2,-217.45C113.99,-216.91 116.77,-216.42 119.5,-216 353.36,-180.25 1110.95,-166.4 1290.9,-163.57"/>
<polygon fill="grey" stroke="grey" stroke-width="2" points="1291.01,-167.07 1300.95,-163.41 1290.9,-160.07 1291.01,-167.07"/>
</g>
<!-- 3 -->
<g id="node4" class="node">
<title>3</title>
<path fill="none" stroke="#5682d8" stroke-width="2" stroke-dasharray="5,2" d="M323.5,-396C323.5,-396 219.5,-396 219.5,-396 213.5,-396 207.5,-390 207.5,-384 207.5,-384 207.5,-372 207.5,-372 207.5,-366 213.5,-360 219.5,-360 219.5,-360 323.5,-360 323.5,-360 329.5,-360 335.5,-366 335.5,-372 335.5,-372 335.5,-384 335.5,-384 335.5,-390 329.5,-396 323.5,-396"/>
<text text-anchor="middle" x="271.5" y="-381" font-family="sans" font-size="10.00">download_sr_paired</text>
<text text-anchor="middle" x="271.5" y="-370" font-family="sans" font-size="10.00">barcodes: SRR1965341</text>
</g>
<!-- 3&#45;&gt;2 -->
<g id="edge33" class="edge">
<title>3&#45;&gt;2</title>
<path fill="none" stroke="grey" stroke-width="2" d="M245.45,-359.87C206.61,-334.34 133.46,-286.25 90.15,-257.78"/>
<polygon fill="grey" stroke="grey" stroke-width="2" points="91.93,-254.76 81.65,-252.19 88.08,-260.61 91.93,-254.76"/>
</g>
<!-- 12 -->
<g id="node13" class="node">
<title>12</title>
<path fill="none" stroke="#56d86b" stroke-width="2" stroke-dasharray="5,2" d="M228,-252C228,-252 141,-252 141,-252 135,-252 129,-246 129,-240 129,-240 129,-228 129,-228 129,-222 135,-216 141,-216 141,-216 228,-216 228,-216 234,-216 240,-222 240,-228 240,-228 240,-240 240,-240 240,-246 234,-252 228,-252"/>
<text text-anchor="middle" x="184.5" y="-237" font-family="sans" font-size="10.00">SPAdes_untrimmed</text>
<text text-anchor="middle" x="184.5" y="-226" font-family="sans" font-size="10.00">value_of_k: 55</text>
</g>
<!-- 3&#45;&gt;12 -->
<g id="edge38" class="edge">
<title>3&#45;&gt;12</title>
<path fill="none" stroke="grey" stroke-width="2" d="M261.01,-359.87C245.92,-335.24 217.98,-289.64 200.36,-260.88"/>
<polygon fill="grey" stroke="grey" stroke-width="2" points="203.24,-258.89 195.03,-252.19 197.27,-262.54 203.24,-258.89"/>
</g>
<!-- 17 -->
<g id="node18" class="node">
<title>17</title>
<path fill="none" stroke="#56d86b" stroke-width="2" stroke-dasharray="5,2" d="M357,-252C357,-252 270,-252 270,-252 264,-252 258,-246 258,-240 258,-240 258,-228 258,-228 258,-222 264,-216 270,-216 270,-216 357,-216 357,-216 363,-216 369,-222 369,-228 369,-228 369,-240 369,-240 369,-246 363,-252 357,-252"/>
<text text-anchor="middle" x="313.5" y="-237" font-family="sans" font-size="10.00">SPAdes_untrimmed</text>
<text text-anchor="middle" x="313.5" y="-226" font-family="sans" font-size="10.00">value_of_k: auto</text>
</g>
<!-- 3&#45;&gt;17 -->
<g id="edge43" class="edge">
<title>3&#45;&gt;17</title>
<path fill="none" stroke="grey" stroke-width="2" d="M276.57,-359.87C283.76,-335.56 296.99,-290.82 305.51,-262.01"/>
<polygon fill="grey" stroke="grey" stroke-width="2" points="308.94,-262.77 308.42,-252.19 302.22,-260.79 308.94,-262.77"/>
</g>
<!-- 23 -->
<g id="node24" class="node">
<title>23</title>
<path fill="none" stroke="#d85656" stroke-width="2" stroke-dasharray="5,2" d="M479.5,-324C479.5,-324 399.5,-324 399.5,-324 393.5,-324 387.5,-318 387.5,-312 387.5,-312 387.5,-300 387.5,-300 387.5,-294 393.5,-288 399.5,-288 399.5,-288 479.5,-288 479.5,-288 485.5,-288 491.5,-294 491.5,-300 491.5,-300 491.5,-312 491.5,-312 491.5,-318 485.5,-324 479.5,-324"/>
<text text-anchor="middle" x="439.5" y="-303.5" font-family="sans" font-size="10.00">adapter_trimming</text>
</g>
<!-- 3&#45;&gt;23 -->
<g id="edge49" class="edge">
<title>3&#45;&gt;23</title>
<path fill="none" stroke="grey" stroke-width="2" d="M312.6,-359.88C335.67,-350.26 364.64,-338.19 389.07,-328.01"/>
<polygon fill="grey" stroke="grey" stroke-width="2" points="390.65,-331.15 398.54,-324.07 387.96,-324.68 390.65,-331.15"/>
</g>
<!-- 4 -->
<g id="node5" class="node">
<title>4</title>
<path fill="none" stroke="#56d86b" stroke-width="2" stroke-dasharray="5,2" d="M624,-324C624,-324 537,-324 537,-324 531,-324 525,-318 525,-312 525,-312 525,-300 525,-300 525,-294 531,-288 537,-288 537,-288 624,-288 624,-288 630,-288 636,-294 636,-300 636,-300 636,-312 636,-312 636,-318 630,-324 624,-324"/>
<text text-anchor="middle" x="580.5" y="-309" font-family="sans" font-size="10.00">SPAdes_untrimmed</text>
<text text-anchor="middle" x="580.5" y="-298" font-family="sans" font-size="10.00">value_of_k: 31</text>
</g>
<!-- 4&#45;&gt;1 -->
<g id="edge4" class="edge">
<title>4&#45;&gt;1</title>
<path fill="none" stroke="grey" stroke-width="2" d="M636.09,-287.9C671.13,-276.59 712.65,-262.04 728.5,-252 747.62,-239.89 744.02,-225.63 764.5,-216 858.21,-171.94 1179.01,-164.5 1290.75,-163.25"/>
<polygon fill="grey" stroke="grey" stroke-width="2" points="1290.93,-166.75 1300.89,-163.15 1290.86,-159.75 1290.93,-166.75"/>
</g>
<!-- 5 -->
<g id="node6" class="node">
<title>5</title>
<path fill="none" stroke="#5682d8" stroke-width="2" stroke-dasharray="5,2" d="M825.5,-396C825.5,-396 721.5,-396 721.5,-396 715.5,-396 709.5,-390 709.5,-384 709.5,-384 709.5,-372 709.5,-372 709.5,-366 715.5,-360 721.5,-360 721.5,-360 825.5,-360 825.5,-360 831.5,-360 837.5,-366 837.5,-372 837.5,-372 837.5,-384 837.5,-384 837.5,-390 831.5,-396 825.5,-396"/>
<text text-anchor="middle" x="773.5" y="-381" font-family="sans" font-size="10.00">download_sr_paired</text>
<text text-anchor="middle" x="773.5" y="-370" font-family="sans" font-size="10.00">barcodes: SRR1968189</text>
</g>
<!-- 5&#45;&gt;4 -->
<g id="edge34" class="edge">
<title>5&#45;&gt;4</title>
<path fill="none" stroke="grey" stroke-width="2" d="M726.29,-359.88C699.43,-350.14 665.62,-337.87 637.32,-327.61"/>
<polygon fill="grey" stroke="grey" stroke-width="2" points="638.15,-324.19 627.56,-324.07 635.77,-330.77 638.15,-324.19"/>
</g>
<!-- 13 -->
<g id="node14" class="node">
<title>13</title>
<path fill="none" stroke="#56d86b" stroke-width="2" stroke-dasharray="5,2" d="M753,-324C753,-324 666,-324 666,-324 660,-324 654,-318 654,-312 654,-312 654,-300 654,-300 654,-294 660,-288 666,-288 666,-288 753,-288 753,-288 759,-288 765,-294 765,-300 765,-300 765,-312 765,-312 765,-318 759,-324 753,-324"/>
<text text-anchor="middle" x="709.5" y="-309" font-family="sans" font-size="10.00">SPAdes_untrimmed</text>
<text text-anchor="middle" x="709.5" y="-298" font-family="sans" font-size="10.00">value_of_k: 55</text>
</g>
<!-- 5&#45;&gt;13 -->
<g id="edge39" class="edge">
<title>5&#45;&gt;13</title>
<path fill="none" stroke="grey" stroke-width="2" d="M757.68,-359.7C749.93,-351.22 740.46,-340.86 731.98,-331.58"/>
<polygon fill="grey" stroke="grey" stroke-width="2" points="734.47,-329.12 725.14,-324.1 729.3,-333.85 734.47,-329.12"/>
</g>
<!-- 18 -->
<g id="node19" class="node">
<title>18</title>
<path fill="none" stroke="#56d86b" stroke-width="2" stroke-dasharray="5,2" d="M882,-324C882,-324 795,-324 795,-324 789,-324 783,-318 783,-312 783,-312 783,-300 783,-300 783,-294 789,-288 795,-288 795,-288 882,-288 882,-288 888,-288 894,-294 894,-300 894,-300 894,-312 894,-312 894,-318 888,-324 882,-324"/>
<text text-anchor="middle" x="838.5" y="-309" font-family="sans" font-size="10.00">SPAdes_untrimmed</text>
<text text-anchor="middle" x="838.5" y="-298" font-family="sans" font-size="10.00">value_of_k: auto</text>
</g>
<!-- 5&#45;&gt;18 -->
<g id="edge44" class="edge">
<title>5&#45;&gt;18</title>
<path fill="none" stroke="grey" stroke-width="2" d="M789.57,-359.7C797.44,-351.22 807.06,-340.86 815.67,-331.58"/>
<polygon fill="grey" stroke="grey" stroke-width="2" points="818.38,-333.81 822.62,-324.1 813.25,-329.05 818.38,-333.81"/>
</g>
<!-- 25 -->
<g id="node26" class="node">
<title>25</title>
<path fill="none" stroke="#d85656" stroke-width="2" stroke-dasharray="5,2" d="M1004.5,-324C1004.5,-324 924.5,-324 924.5,-324 918.5,-324 912.5,-318 912.5,-312 912.5,-312 912.5,-300 912.5,-300 912.5,-294 918.5,-288 924.5,-288 924.5,-288 1004.5,-288 1004.5,-288 1010.5,-288 1016.5,-294 1016.5,-300 1016.5,-300 1016.5,-312 1016.5,-312 1016.5,-318 1010.5,-324 1004.5,-324"/>
<text text-anchor="middle" x="964.5" y="-303.5" font-family="sans" font-size="10.00">adapter_trimming</text>
</g>
<!-- 5&#45;&gt;25 -->
<g id="edge51" class="edge">
<title>5&#45;&gt;25</title>
<path fill="none" stroke="grey" stroke-width="2" d="M820.22,-359.88C846.8,-350.14 880.26,-337.87 908.27,-327.61"/>
<polygon fill="grey" stroke="grey" stroke-width="2" points="909.74,-330.8 917.93,-324.07 907.33,-324.22 909.74,-330.8"/>
</g>
<!-- 6 -->
<g id="node7" class="node">
<title>6</title>
<path fill="none" stroke="#56d86b" stroke-width="2" stroke-dasharray="5,2" d="M1134,-324C1134,-324 1047,-324 1047,-324 1041,-324 1035,-318 1035,-312 1035,-312 1035,-300 1035,-300 1035,-294 1041,-288 1047,-288 1047,-288 1134,-288 1134,-288 1140,-288 1146,-294 1146,-300 1146,-300 1146,-312 1146,-312 1146,-318 1140,-324 1134,-324"/>
<text text-anchor="middle" x="1090.5" y="-309" font-family="sans" font-size="10.00">SPAdes_untrimmed</text>
<text text-anchor="middle" x="1090.5" y="-298" font-family="sans" font-size="10.00">value_of_k: 31</text>
</g>
<!-- 6&#45;&gt;1 -->
<g id="edge5" class="edge">
<title>6&#45;&gt;1</title>
<path fill="none" stroke="grey" stroke-width="2" d="M1126.65,-287.82C1146.89,-277.88 1172.43,-264.84 1194.5,-252 1230.4,-231.1 1269.91,-204.63 1296.86,-186"/>
<polygon fill="grey" stroke="grey" stroke-width="2" points="1298.92,-188.83 1305.14,-180.25 1294.93,-183.08 1298.92,-188.83"/>
</g>
<!-- 7 -->
<g id="node8" class="node">
<title>7</title>
<path fill="none" stroke="#5682d8" stroke-width="2" stroke-dasharray="5,2" d="M1335.5,-396C1335.5,-396 1231.5,-396 1231.5,-396 1225.5,-396 1219.5,-390 1219.5,-384 1219.5,-384 1219.5,-372 1219.5,-372 1219.5,-366 1225.5,-360 1231.5,-360 1231.5,-360 1335.5,-360 1335.5,-360 1341.5,-360 1347.5,-366 1347.5,-372 1347.5,-372 1347.5,-384 1347.5,-384 1347.5,-390 1341.5,-396 1335.5,-396"/>
<text text-anchor="middle" x="1283.5" y="-381" font-family="sans" font-size="10.00">download_sr_paired</text>
<text text-anchor="middle" x="1283.5" y="-370" font-family="sans" font-size="10.00">barcodes: SRR7828287</text>
</g>
<!-- 7&#45;&gt;6 -->
<g id="edge35" class="edge">
<title>7&#45;&gt;6</title>
<path fill="none" stroke="grey" stroke-width="2" d="M1236.29,-359.88C1209.43,-350.14 1175.62,-337.87 1147.32,-327.61"/>
<polygon fill="grey" stroke="grey" stroke-width="2" points="1148.15,-324.19 1137.56,-324.07 1145.77,-330.77 1148.15,-324.19"/>
</g>
<!-- 14 -->
<g id="node15" class="node">
<title>14</title>
<path fill="none" stroke="#56d86b" stroke-width="2" stroke-dasharray="5,2" d="M1263,-324C1263,-324 1176,-324 1176,-324 1170,-324 1164,-318 1164,-312 1164,-312 1164,-300 1164,-300 1164,-294 1170,-288 1176,-288 1176,-288 1263,-288 1263,-288 1269,-288 1275,-294 1275,-300 1275,-300 1275,-312 1275,-312 1275,-318 1269,-324 1263,-324"/>
<text text-anchor="middle" x="1219.5" y="-309" font-family="sans" font-size="10.00">SPAdes_untrimmed</text>
<text text-anchor="middle" x="1219.5" y="-298" font-family="sans" font-size="10.00">value_of_k: 55</text>
</g>
<!-- 7&#45;&gt;14 -->
<g id="edge40" class="edge">
<title>7&#45;&gt;14</title>
<path fill="none" stroke="grey" stroke-width="2" d="M1267.68,-359.7C1259.93,-351.22 1250.46,-340.86 1241.98,-331.58"/>
<polygon fill="grey" stroke="grey" stroke-width="2" points="1244.47,-329.12 1235.14,-324.1 1239.3,-333.85 1244.47,-329.12"/>
</g>
<!-- 19 -->
<g id="node20" class="node">
<title>19</title>
<path fill="none" stroke="#56d86b" stroke-width="2" stroke-dasharray="5,2" d="M1392,-324C1392,-324 1305,-324 1305,-324 1299,-324 1293,-318 1293,-312 1293,-312 1293,-300 1293,-300 1293,-294 1299,-288 1305,-288 1305,-288 1392,-288 1392,-288 1398,-288 1404,-294 1404,-300 1404,-300 1404,-312 1404,-312 1404,-318 1398,-324 1392,-324"/>
<text text-anchor="middle" x="1348.5" y="-309" font-family="sans" font-size="10.00">SPAdes_untrimmed</text>
<text text-anchor="middle" x="1348.5" y="-298" font-family="sans" font-size="10.00">value_of_k: auto</text>
</g>
<!-- 7&#45;&gt;19 -->
<g id="edge45" class="edge">
<title>7&#45;&gt;19</title>
<path fill="none" stroke="grey" stroke-width="2" d="M1299.57,-359.7C1307.44,-351.22 1317.06,-340.86 1325.67,-331.58"/>
<polygon fill="grey" stroke="grey" stroke-width="2" points="1328.38,-333.81 1332.62,-324.1 1323.25,-329.05 1328.38,-333.81"/>
</g>
<!-- 27 -->
<g id="node28" class="node">
<title>27</title>
<path fill="none" stroke="#d85656" stroke-width="2" stroke-dasharray="5,2" d="M1514.5,-324C1514.5,-324 1434.5,-324 1434.5,-324 1428.5,-324 1422.5,-318 1422.5,-312 1422.5,-312 1422.5,-300 1422.5,-300 1422.5,-294 1428.5,-288 1434.5,-288 1434.5,-288 1514.5,-288 1514.5,-288 1520.5,-288 1526.5,-294 1526.5,-300 1526.5,-300 1526.5,-312 1526.5,-312 1526.5,-318 1520.5,-324 1514.5,-324"/>
<text text-anchor="middle" x="1474.5" y="-303.5" font-family="sans" font-size="10.00">adapter_trimming</text>
</g>
<!-- 7&#45;&gt;27 -->
<g id="edge53" class="edge">
<title>7&#45;&gt;27</title>
<path fill="none" stroke="grey" stroke-width="2" d="M1330.22,-359.88C1356.8,-350.14 1390.26,-337.87 1418.27,-327.61"/>
<polygon fill="grey" stroke="grey" stroke-width="2" points="1419.74,-330.8 1427.93,-324.07 1417.33,-324.22 1419.74,-330.8"/>
</g>
<!-- 8 -->
<g id="node9" class="node">
<title>8</title>
<path fill="none" stroke="#56d86b" stroke-width="2" stroke-dasharray="5,2" d="M1644,-324C1644,-324 1557,-324 1557,-324 1551,-324 1545,-318 1545,-312 1545,-312 1545,-300 1545,-300 1545,-294 1551,-288 1557,-288 1557,-288 1644,-288 1644,-288 1650,-288 1656,-294 1656,-300 1656,-300 1656,-312 1656,-312 1656,-318 1650,-324 1644,-324"/>
<text text-anchor="middle" x="1600.5" y="-309" font-family="sans" font-size="10.00">SPAdes_untrimmed</text>
<text text-anchor="middle" x="1600.5" y="-298" font-family="sans" font-size="10.00">value_of_k: 31</text>
</g>
<!-- 8&#45;&gt;1 -->
<g id="edge6" class="edge">
<title>8&#45;&gt;1</title>
<path fill="none" stroke="grey" stroke-width="2" d="M1625.86,-287.79C1650.13,-269.24 1680.33,-239.26 1660.5,-216 1623.32,-172.4 1447.51,-164.52 1368.32,-163.2"/>
<polygon fill="grey" stroke="grey" stroke-width="2" points="1368.31,-159.7 1358.26,-163.06 1368.21,-166.7 1368.31,-159.7"/>
</g>
<!-- 9 -->
<g id="node10" class="node">
<title>9</title>
<path fill="none" stroke="#5682d8" stroke-width="2" stroke-dasharray="5,2" d="M1845.5,-396C1845.5,-396 1741.5,-396 1741.5,-396 1735.5,-396 1729.5,-390 1729.5,-384 1729.5,-384 1729.5,-372 1729.5,-372 1729.5,-366 1735.5,-360 1741.5,-360 1741.5,-360 1845.5,-360 1845.5,-360 1851.5,-360 1857.5,-366 1857.5,-372 1857.5,-372 1857.5,-384 1857.5,-384 1857.5,-390 1851.5,-396 1845.5,-396"/>
<text text-anchor="middle" x="1793.5" y="-381" font-family="sans" font-size="10.00">download_sr_paired</text>
<text text-anchor="middle" x="1793.5" y="-370" font-family="sans" font-size="10.00">barcodes: SRR2075991</text>
</g>
<!-- 9&#45;&gt;8 -->
<g id="edge36" class="edge">
<title>9&#45;&gt;8</title>
<path fill="none" stroke="grey" stroke-width="2" d="M1746.29,-359.88C1719.43,-350.14 1685.62,-337.87 1657.32,-327.61"/>
<polygon fill="grey" stroke="grey" stroke-width="2" points="1658.15,-324.19 1647.56,-324.07 1655.77,-330.77 1658.15,-324.19"/>
</g>
<!-- 15 -->
<g id="node16" class="node">
<title>15</title>
<path fill="none" stroke="#56d86b" stroke-width="2" stroke-dasharray="5,2" d="M1773,-324C1773,-324 1686,-324 1686,-324 1680,-324 1674,-318 1674,-312 1674,-312 1674,-300 1674,-300 1674,-294 1680,-288 1686,-288 1686,-288 1773,-288 1773,-288 1779,-288 1785,-294 1785,-300 1785,-300 1785,-312 1785,-312 1785,-318 1779,-324 1773,-324"/>
<text text-anchor="middle" x="1729.5" y="-309" font-family="sans" font-size="10.00">SPAdes_untrimmed</text>
<text text-anchor="middle" x="1729.5" y="-298" font-family="sans" font-size="10.00">value_of_k: 55</text>
</g>
<!-- 9&#45;&gt;15 -->
<g id="edge41" class="edge">
<title>9&#45;&gt;15</title>
<path fill="none" stroke="grey" stroke-width="2" d="M1777.68,-359.7C1769.93,-351.22 1760.46,-340.86 1751.98,-331.58"/>
<polygon fill="grey" stroke="grey" stroke-width="2" points="1754.47,-329.12 1745.14,-324.1 1749.3,-333.85 1754.47,-329.12"/>
</g>
<!-- 20 -->
<g id="node21" class="node">
<title>20</title>
<path fill="none" stroke="#56d86b" stroke-width="2" stroke-dasharray="5,2" d="M1902,-324C1902,-324 1815,-324 1815,-324 1809,-324 1803,-318 1803,-312 1803,-312 1803,-300 1803,-300 1803,-294 1809,-288 1815,-288 1815,-288 1902,-288 1902,-288 1908,-288 1914,-294 1914,-300 1914,-300 1914,-312 1914,-312 1914,-318 1908,-324 1902,-324"/>
<text text-anchor="middle" x="1858.5" y="-309" font-family="sans" font-size="10.00">SPAdes_untrimmed</text>
<text text-anchor="middle" x="1858.5" y="-298" font-family="sans" font-size="10.00">value_of_k: auto</text>
</g>
<!-- 9&#45;&gt;20 -->
<g id="edge46" class="edge">
<title>9&#45;&gt;20</title>
<path fill="none" stroke="grey" stroke-width="2" d="M1809.57,-359.7C1817.44,-351.22 1827.06,-340.86 1835.67,-331.58"/>
<polygon fill="grey" stroke="grey" stroke-width="2" points="1838.38,-333.81 1842.62,-324.1 1833.25,-329.05 1838.38,-333.81"/>
</g>
<!-- 29 -->
<g id="node30" class="node">
<title>29</title>
<path fill="none" stroke="#d85656" stroke-width="2" stroke-dasharray="5,2" d="M2024.5,-324C2024.5,-324 1944.5,-324 1944.5,-324 1938.5,-324 1932.5,-318 1932.5,-312 1932.5,-312 1932.5,-300 1932.5,-300 1932.5,-294 1938.5,-288 1944.5,-288 1944.5,-288 2024.5,-288 2024.5,-288 2030.5,-288 2036.5,-294 2036.5,-300 2036.5,-300 2036.5,-312 2036.5,-312 2036.5,-318 2030.5,-324 2024.5,-324"/>
<text text-anchor="middle" x="1984.5" y="-303.5" font-family="sans" font-size="10.00">adapter_trimming</text>
</g>
<!-- 9&#45;&gt;29 -->
<g id="edge55" class="edge">
<title>9&#45;&gt;29</title>
<path fill="none" stroke="grey" stroke-width="2" d="M1840.22,-359.88C1866.8,-350.14 1900.26,-337.87 1928.27,-327.61"/>
<polygon fill="grey" stroke="grey" stroke-width="2" points="1929.74,-330.8 1937.93,-324.07 1927.33,-324.22 1929.74,-330.8"/>
</g>
<!-- 10 -->
<g id="node11" class="node">
<title>10</title>
<path fill="none" stroke="#56d86b" stroke-width="2" stroke-dasharray="5,2" d="M2154,-324C2154,-324 2067,-324 2067,-324 2061,-324 2055,-318 2055,-312 2055,-312 2055,-300 2055,-300 2055,-294 2061,-288 2067,-288 2067,-288 2154,-288 2154,-288 2160,-288 2166,-294 2166,-300 2166,-300 2166,-312 2166,-312 2166,-318 2160,-324 2154,-324"/>
<text text-anchor="middle" x="2110.5" y="-309" font-family="sans" font-size="10.00">SPAdes_untrimmed</text>
<text text-anchor="middle" x="2110.5" y="-298" font-family="sans" font-size="10.00">value_of_k: 31</text>
</g>
<!-- 10&#45;&gt;1 -->
<g id="edge7" class="edge">
<title>10&#45;&gt;1</title>
<path fill="none" stroke="grey" stroke-width="2" d="M2121.07,-287.86C2131.85,-267.95 2144.63,-235.37 2126.5,-216 2074.28,-160.19 1520.94,-161.2 1368.3,-162.55"/>
<polygon fill="grey" stroke="grey" stroke-width="2" points="1367.98,-159.06 1358.02,-162.65 1368.05,-166.06 1367.98,-159.06"/>
</g>
<!-- 11 -->
<g id="node12" class="node">
<title>11</title>
<path fill="none" stroke="#5682d8" stroke-width="2" stroke-dasharray="5,2" d="M2355.5,-396C2355.5,-396 2251.5,-396 2251.5,-396 2245.5,-396 2239.5,-390 2239.5,-384 2239.5,-384 2239.5,-372 2239.5,-372 2239.5,-366 2245.5,-360 2251.5,-360 2251.5,-360 2355.5,-360 2355.5,-360 2361.5,-360 2367.5,-366 2367.5,-372 2367.5,-372 2367.5,-384 2367.5,-384 2367.5,-390 2361.5,-396 2355.5,-396"/>
<text text-anchor="middle" x="2303.5" y="-381" font-family="sans" font-size="10.00">download_sr_paired</text>
<text text-anchor="middle" x="2303.5" y="-370" font-family="sans" font-size="10.00">barcodes: SRR5584993</text>
</g>
<!-- 11&#45;&gt;10 -->
<g id="edge37" class="edge">
<title>11&#45;&gt;10</title>
<path fill="none" stroke="grey" stroke-width="2" d="M2256.29,-359.88C2229.43,-350.14 2195.62,-337.87 2167.32,-327.61"/>
<polygon fill="grey" stroke="grey" stroke-width="2" points="2168.15,-324.19 2157.56,-324.07 2165.77,-330.77 2168.15,-324.19"/>
</g>
<!-- 16 -->
<g id="node17" class="node">
<title>16</title>
<path fill="none" stroke="#56d86b" stroke-width="2" stroke-dasharray="5,2" d="M2283,-324C2283,-324 2196,-324 2196,-324 2190,-324 2184,-318 2184,-312 2184,-312 2184,-300 2184,-300 2184,-294 2190,-288 2196,-288 2196,-288 2283,-288 2283,-288 2289,-288 2295,-294 2295,-300 2295,-300 2295,-312 2295,-312 2295,-318 2289,-324 2283,-324"/>
<text text-anchor="middle" x="2239.5" y="-309" font-family="sans" font-size="10.00">SPAdes_untrimmed</text>
<text text-anchor="middle" x="2239.5" y="-298" font-family="sans" font-size="10.00">value_of_k: 55</text>
</g>
<!-- 11&#45;&gt;16 -->
<g id="edge42" class="edge">
<title>11&#45;&gt;16</title>
<path fill="none" stroke="grey" stroke-width="2" d="M2287.68,-359.7C2279.93,-351.22 2270.46,-340.86 2261.98,-331.58"/>
<polygon fill="grey" stroke="grey" stroke-width="2" points="2264.47,-329.12 2255.14,-324.1 2259.3,-333.85 2264.47,-329.12"/>
</g>
<!-- 21 -->
<g id="node22" class="node">
<title>21</title>
<path fill="none" stroke="#56d86b" stroke-width="2" stroke-dasharray="5,2" d="M2412,-324C2412,-324 2325,-324 2325,-324 2319,-324 2313,-318 2313,-312 2313,-312 2313,-300 2313,-300 2313,-294 2319,-288 2325,-288 2325,-288 2412,-288 2412,-288 2418,-288 2424,-294 2424,-300 2424,-300 2424,-312 2424,-312 2424,-318 2418,-324 2412,-324"/>
<text text-anchor="middle" x="2368.5" y="-309" font-family="sans" font-size="10.00">SPAdes_untrimmed</text>
<text text-anchor="middle" x="2368.5" y="-298" font-family="sans" font-size="10.00">value_of_k: auto</text>
</g>
<!-- 11&#45;&gt;21 -->
<g id="edge47" class="edge">
<title>11&#45;&gt;21</title>
<path fill="none" stroke="grey" stroke-width="2" d="M2319.57,-359.7C2327.44,-351.22 2337.06,-340.86 2345.67,-331.58"/>
<polygon fill="grey" stroke="grey" stroke-width="2" points="2348.38,-333.81 2352.62,-324.1 2343.25,-329.05 2348.38,-333.81"/>
</g>
<!-- 31 -->
<g id="node32" class="node">
<title>31</title>
<path fill="none" stroke="#d85656" stroke-width="2" stroke-dasharray="5,2" d="M2534.5,-324C2534.5,-324 2454.5,-324 2454.5,-324 2448.5,-324 2442.5,-318 2442.5,-312 2442.5,-312 2442.5,-300 2442.5,-300 2442.5,-294 2448.5,-288 2454.5,-288 2454.5,-288 2534.5,-288 2534.5,-288 2540.5,-288 2546.5,-294 2546.5,-300 2546.5,-300 2546.5,-312 2546.5,-312 2546.5,-318 2540.5,-324 2534.5,-324"/>
<text text-anchor="middle" x="2494.5" y="-303.5" font-family="sans" font-size="10.00">adapter_trimming</text>
</g>
<!-- 11&#45;&gt;31 -->
<g id="edge57" class="edge">
<title>11&#45;&gt;31</title>
<path fill="none" stroke="grey" stroke-width="2" d="M2350.22,-359.88C2376.8,-350.14 2410.26,-337.87 2438.27,-327.61"/>
<polygon fill="grey" stroke="grey" stroke-width="2" points="2439.74,-330.8 2447.93,-324.07 2437.33,-324.22 2439.74,-330.8"/>
</g>
<!-- 12&#45;&gt;1 -->
<g id="edge8" class="edge">
<title>12&#45;&gt;1</title>
<path fill="none" stroke="grey" stroke-width="2" d="M240.2,-217.47C243,-216.92 245.77,-216.42 248.5,-216 455.49,-183.8 1121.95,-167.49 1290.49,-163.81"/>
<polygon fill="grey" stroke="grey" stroke-width="2" points="1290.72,-167.31 1300.64,-163.59 1290.56,-160.31 1290.72,-167.31"/>
</g>
<!-- 13&#45;&gt;1 -->
<g id="edge9" class="edge">
<title>13&#45;&gt;1</title>
<path fill="none" stroke="grey" stroke-width="2" d="M725.84,-287.77C746.91,-266.8 785.7,-232.19 826.5,-216 910.95,-182.5 1187.52,-168.53 1290.45,-164.4"/>
<polygon fill="grey" stroke="grey" stroke-width="2" points="1290.85,-167.89 1300.71,-164 1290.58,-160.9 1290.85,-167.89"/>
</g>
<!-- 14&#45;&gt;1 -->
<g id="edge10" class="edge">
<title>14&#45;&gt;1</title>
<path fill="none" stroke="grey" stroke-width="2" d="M1232.77,-287.87C1252.01,-263.03 1287.79,-216.85 1310.02,-188.14"/>
<polygon fill="grey" stroke="grey" stroke-width="2" points="1312.83,-190.24 1316.18,-180.19 1307.29,-185.95 1312.83,-190.24"/>
</g>
<!-- 15&#45;&gt;1 -->
<g id="edge11" class="edge">
<title>15&#45;&gt;1</title>
<path fill="none" stroke="grey" stroke-width="2" d="M1724.68,-287.77C1717.94,-267.14 1703.62,-233.21 1678.5,-216 1628.6,-181.82 1448.17,-168.84 1368.16,-164.69"/>
<polygon fill="grey" stroke="grey" stroke-width="2" points="1368.17,-161.18 1358.01,-164.18 1367.82,-168.18 1368.17,-161.18"/>
</g>
<!-- 16&#45;&gt;1 -->
<g id="edge12" class="edge">
<title>16&#45;&gt;1</title>
<path fill="none" stroke="grey" stroke-width="2" d="M2227.5,-287.9C2211.53,-266.73 2181.13,-231.55 2145.5,-216 2073.87,-184.74 1521.66,-168.04 1368.68,-163.98"/>
<polygon fill="grey" stroke="grey" stroke-width="2" points="1368.45,-160.48 1358.36,-163.71 1368.27,-167.48 1368.45,-160.48"/>
</g>
<!-- 17&#45;&gt;1 -->
<g id="edge13" class="edge">
<title>17&#45;&gt;1</title>
<path fill="none" stroke="grey" stroke-width="2" d="M369.2,-217.49C372,-216.93 374.78,-216.43 377.5,-216 558.08,-187.3 1135.98,-168.66 1290.95,-164.1"/>
<polygon fill="grey" stroke="grey" stroke-width="2" points="1291.06,-167.59 1300.95,-163.8 1290.86,-160.6 1291.06,-167.59"/>
</g>
<!-- 18&#45;&gt;1 -->
<g id="edge14" class="edge">
<title>18&#45;&gt;1</title>
<path fill="none" stroke="grey" stroke-width="2" d="M833.6,-287.72C829.09,-267.68 825.5,-234.97 843.5,-216 874.14,-183.71 1180.87,-168.75 1290.67,-164.4"/>
<polygon fill="grey" stroke="grey" stroke-width="2" points="1291.11,-167.89 1300.96,-164 1290.83,-160.89 1291.11,-167.89"/>
</g>
<!-- 19&#45;&gt;1 -->
<g id="edge15" class="edge">
<title>19&#45;&gt;1</title>
<path fill="none" stroke="grey" stroke-width="2" d="M1331.61,-287.99C1323.21,-278.31 1313.92,-265.46 1309.5,-252 1302.75,-231.43 1308.91,-207.46 1316.12,-189.57"/>
<polygon fill="grey" stroke="grey" stroke-width="2" points="1319.36,-190.89 1320.15,-180.33 1312.95,-188.09 1319.36,-190.89"/>
</g>
<!-- 20&#45;&gt;1 -->
<g id="edge16" class="edge">
<title>20&#45;&gt;1</title>
<path fill="none" stroke="grey" stroke-width="2" d="M1831.08,-287.93C1791.45,-263.38 1721.47,-220.55 1708.5,-216 1589.53,-174.29 1438.69,-165.29 1368.6,-163.43"/>
<polygon fill="grey" stroke="grey" stroke-width="2" points="1368.53,-159.93 1358.46,-163.2 1368.37,-166.93 1368.53,-159.93"/>
</g>
<!-- 21&#45;&gt;1 -->
<g id="edge17" class="edge">
<title>21&#45;&gt;1</title>
<path fill="none" stroke="grey" stroke-width="2" d="M2322.39,-287.92C2297.91,-278.32 2267.57,-265.55 2241.5,-252 2214.91,-238.18 2213.01,-225.21 2184.5,-216 2029.7,-165.97 1515.05,-162.74 1368.66,-162.86"/>
<polygon fill="grey" stroke="grey" stroke-width="2" points="1368.37,-159.36 1358.37,-162.88 1368.38,-166.36 1368.37,-159.36"/>
</g>
<!-- 22 -->
<g id="node23" class="node">
<title>22</title>
<path fill="none" stroke="#ced856" stroke-width="2" stroke-dasharray="5,2" d="M474,-252C474,-252 399,-252 399,-252 393,-252 387,-246 387,-240 387,-240 387,-228 387,-228 387,-222 393,-216 399,-216 399,-216 474,-216 474,-216 480,-216 486,-222 486,-228 486,-228 486,-240 486,-240 486,-246 480,-252 474,-252"/>
<text text-anchor="middle" x="436.5" y="-237" font-family="sans" font-size="10.00">SPAdes_trimmed</text>
<text text-anchor="middle" x="436.5" y="-226" font-family="sans" font-size="10.00">value_of_k: 31</text>
</g>
<!-- 22&#45;&gt;1 -->
<g id="edge18" class="edge">
<title>22&#45;&gt;1</title>
<path fill="none" stroke="grey" stroke-width="2" d="M486,-217.71C488.86,-217.07 491.71,-216.49 494.5,-216 797.58,-162.65 1170.88,-161.3 1290.61,-162.43"/>
<polygon fill="grey" stroke="grey" stroke-width="2" points="1290.72,-165.93 1300.75,-162.53 1290.79,-158.93 1290.72,-165.93"/>
</g>
<!-- 23&#45;&gt;22 -->
<g id="edge48" class="edge">
<title>23&#45;&gt;22</title>
<path fill="none" stroke="grey" stroke-width="2" d="M438.76,-287.7C438.43,-279.98 438.03,-270.71 437.66,-262.11"/>
<polygon fill="grey" stroke="grey" stroke-width="2" points="441.16,-261.95 437.23,-252.1 434.16,-262.25 441.16,-261.95"/>
</g>
<!-- 32 -->
<g id="node33" class="node">
<title>32</title>
<path fill="none" stroke="#ced856" stroke-width="2" stroke-dasharray="5,2" d="M591,-252C591,-252 516,-252 516,-252 510,-252 504,-246 504,-240 504,-240 504,-228 504,-228 504,-222 510,-216 516,-216 516,-216 591,-216 591,-216 597,-216 603,-222 603,-228 603,-228 603,-240 603,-240 603,-246 597,-252 591,-252"/>
<text text-anchor="middle" x="553.5" y="-237" font-family="sans" font-size="10.00">SPAdes_trimmed</text>
<text text-anchor="middle" x="553.5" y="-226" font-family="sans" font-size="10.00">value_of_k: 55</text>
</g>
<!-- 23&#45;&gt;32 -->
<g id="edge58" class="edge">
<title>23&#45;&gt;32</title>
<path fill="none" stroke="grey" stroke-width="2" d="M467.39,-287.88C482.29,-278.72 500.83,-267.34 516.88,-257.48"/>
<polygon fill="grey" stroke="grey" stroke-width="2" points="518.81,-260.41 525.51,-252.19 515.15,-254.44 518.81,-260.41"/>
</g>
<!-- 37 -->
<g id="node38" class="node">
<title>37</title>
<path fill="none" stroke="#ced856" stroke-width="2" stroke-dasharray="5,2" d="M708,-252C708,-252 633,-252 633,-252 627,-252 621,-246 621,-240 621,-240 621,-228 621,-228 621,-222 627,-216 633,-216 633,-216 708,-216 708,-216 714,-216 720,-222 720,-228 720,-228 720,-240 720,-240 720,-246 714,-252 708,-252"/>
<text text-anchor="middle" x="670.5" y="-237" font-family="sans" font-size="10.00">SPAdes_trimmed</text>
<text text-anchor="middle" x="670.5" y="-226" font-family="sans" font-size="10.00">value_of_k: auto</text>
</g>
<!-- 23&#45;&gt;37 -->
<g id="edge63" class="edge">
<title>23&#45;&gt;37</title>
<path fill="none" stroke="grey" stroke-width="2" d="M491.63,-289.2C527.18,-278.43 574.32,-264.15 611.29,-252.94"/>
<polygon fill="grey" stroke="grey" stroke-width="2" points="612.38,-256.27 620.94,-250.02 610.35,-249.57 612.38,-256.27"/>
</g>
<!-- 24 -->
<g id="node25" class="node">
<title>24</title>
<path fill="none" stroke="#ced856" stroke-width="2" stroke-dasharray="5,2" d="M940,-252C940,-252 865,-252 865,-252 859,-252 853,-246 853,-240 853,-240 853,-228 853,-228 853,-222 859,-216 865,-216 865,-216 940,-216 940,-216 946,-216 952,-222 952,-228 952,-228 952,-240 952,-240 952,-246 946,-252 940,-252"/>
<text text-anchor="middle" x="902.5" y="-237" font-family="sans" font-size="10.00">SPAdes_trimmed</text>
<text text-anchor="middle" x="902.5" y="-226" font-family="sans" font-size="10.00">value_of_k: 31</text>
</g>
<!-- 24&#45;&gt;1 -->
<g id="edge19" class="edge">
<title>24&#45;&gt;1</title>
<path fill="none" stroke="grey" stroke-width="2" d="M952.05,-217.97C954.9,-217.26 957.73,-216.6 960.5,-216 1079.37,-190.18 1222.59,-173.71 1290.33,-166.77"/>
<polygon fill="grey" stroke="grey" stroke-width="2" points="1290.95,-170.23 1300.54,-165.74 1290.24,-163.26 1290.95,-170.23"/>
</g>
<!-- 25&#45;&gt;24 -->
<g id="edge50" class="edge">
<title>25&#45;&gt;24</title>
<path fill="none" stroke="grey" stroke-width="2" d="M949.17,-287.7C941.74,-279.3 932.68,-269.07 924.52,-259.86"/>
<polygon fill="grey" stroke="grey" stroke-width="2" points="926.9,-257.27 917.65,-252.1 921.66,-261.91 926.9,-257.27"/>
</g>
<!-- 33 -->
<g id="node34" class="node">
<title>33</title>
<path fill="none" stroke="#ced856" stroke-width="2" stroke-dasharray="5,2" d="M1057,-252C1057,-252 982,-252 982,-252 976,-252 970,-246 970,-240 970,-240 970,-228 970,-228 970,-222 976,-216 982,-216 982,-216 1057,-216 1057,-216 1063,-216 1069,-222 1069,-228 1069,-228 1069,-240 1069,-240 1069,-246 1063,-252 1057,-252"/>
<text text-anchor="middle" x="1019.5" y="-237" font-family="sans" font-size="10.00">SPAdes_trimmed</text>
<text text-anchor="middle" x="1019.5" y="-226" font-family="sans" font-size="10.00">value_of_k: 55</text>
</g>
<!-- 25&#45;&gt;33 -->
<g id="edge59" class="edge">
<title>25&#45;&gt;33</title>
<path fill="none" stroke="grey" stroke-width="2" d="M978.1,-287.7C984.62,-279.39 992.57,-269.28 999.75,-260.14"/>
<polygon fill="grey" stroke="grey" stroke-width="2" points="1002.63,-262.13 1006.06,-252.1 997.13,-257.81 1002.63,-262.13"/>
</g>
<!-- 38 -->
<g id="node39" class="node">
<title>38</title>
<path fill="none" stroke="#ced856" stroke-width="2" stroke-dasharray="5,2" d="M1174,-252C1174,-252 1099,-252 1099,-252 1093,-252 1087,-246 1087,-240 1087,-240 1087,-228 1087,-228 1087,-222 1093,-216 1099,-216 1099,-216 1174,-216 1174,-216 1180,-216 1186,-222 1186,-228 1186,-228 1186,-240 1186,-240 1186,-246 1180,-252 1174,-252"/>
<text text-anchor="middle" x="1136.5" y="-237" font-family="sans" font-size="10.00">SPAdes_trimmed</text>
<text text-anchor="middle" x="1136.5" y="-226" font-family="sans" font-size="10.00">value_of_k: auto</text>
</g>
<!-- 25&#45;&gt;38 -->
<g id="edge64" class="edge">
<title>25&#45;&gt;38</title>
<path fill="none" stroke="grey" stroke-width="2" d="M1006.58,-287.88C1030.3,-278.22 1060.12,-266.09 1085.2,-255.88"/>
<polygon fill="grey" stroke="grey" stroke-width="2" points="1086.62,-259.08 1094.56,-252.07 1083.98,-252.6 1086.62,-259.08"/>
</g>
<!-- 26 -->
<g id="node27" class="node">
<title>26</title>
<path fill="none" stroke="#ced856" stroke-width="2" stroke-dasharray="5,2" d="M1406,-252C1406,-252 1331,-252 1331,-252 1325,-252 1319,-246 1319,-240 1319,-240 1319,-228 1319,-228 1319,-222 1325,-216 1331,-216 1331,-216 1406,-216 1406,-216 1412,-216 1418,-222 1418,-228 1418,-228 1418,-240 1418,-240 1418,-246 1412,-252 1406,-252"/>
<text text-anchor="middle" x="1368.5" y="-237" font-family="sans" font-size="10.00">SPAdes_trimmed</text>
<text text-anchor="middle" x="1368.5" y="-226" font-family="sans" font-size="10.00">value_of_k: 31</text>
</g>
<!-- 26&#45;&gt;1 -->
<g id="edge20" class="edge">
<title>26&#45;&gt;1</title>
<path fill="none" stroke="grey" stroke-width="2" d="M1358.86,-215.7C1354.37,-207.64 1348.94,-197.89 1343.98,-188.98"/>
<polygon fill="grey" stroke="grey" stroke-width="2" points="1346.95,-187.14 1339.03,-180.1 1340.84,-190.54 1346.95,-187.14"/>
</g>
<!-- 27&#45;&gt;26 -->
<g id="edge52" class="edge">
<title>27&#45;&gt;26</title>
<path fill="none" stroke="grey" stroke-width="2" d="M1448.57,-287.88C1434.84,-278.81 1417.79,-267.55 1402.96,-257.76"/>
<polygon fill="grey" stroke="grey" stroke-width="2" points="1404.8,-254.78 1394.53,-252.19 1400.95,-260.62 1404.8,-254.78"/>
</g>
<!-- 34 -->
<g id="node35" class="node">
<title>34</title>
<path fill="none" stroke="#ced856" stroke-width="2" stroke-dasharray="5,2" d="M1523,-252C1523,-252 1448,-252 1448,-252 1442,-252 1436,-246 1436,-240 1436,-240 1436,-228 1436,-228 1436,-222 1442,-216 1448,-216 1448,-216 1523,-216 1523,-216 1529,-216 1535,-222 1535,-228 1535,-228 1535,-240 1535,-240 1535,-246 1529,-252 1523,-252"/>
<text text-anchor="middle" x="1485.5" y="-237" font-family="sans" font-size="10.00">SPAdes_trimmed</text>
<text text-anchor="middle" x="1485.5" y="-226" font-family="sans" font-size="10.00">value_of_k: 55</text>
</g>
<!-- 27&#45;&gt;34 -->
<g id="edge60" class="edge">
<title>27&#45;&gt;34</title>
<path fill="none" stroke="grey" stroke-width="2" d="M1477.22,-287.7C1478.43,-279.98 1479.89,-270.71 1481.24,-262.11"/>
<polygon fill="grey" stroke="grey" stroke-width="2" points="1484.72,-262.53 1482.81,-252.1 1477.8,-261.44 1484.72,-262.53"/>
</g>
<!-- 39 -->
<g id="node40" class="node">
<title>39</title>
<path fill="none" stroke="#ced856" stroke-width="2" stroke-dasharray="5,2" d="M1640,-252C1640,-252 1565,-252 1565,-252 1559,-252 1553,-246 1553,-240 1553,-240 1553,-228 1553,-228 1553,-222 1559,-216 1565,-216 1565,-216 1640,-216 1640,-216 1646,-216 1652,-222 1652,-228 1652,-228 1652,-240 1652,-240 1652,-246 1646,-252 1640,-252"/>
<text text-anchor="middle" x="1602.5" y="-237" font-family="sans" font-size="10.00">SPAdes_trimmed</text>
<text text-anchor="middle" x="1602.5" y="-226" font-family="sans" font-size="10.00">value_of_k: auto</text>
</g>
<!-- 27&#45;&gt;39 -->
<g id="edge65" class="edge">
<title>27&#45;&gt;39</title>
<path fill="none" stroke="grey" stroke-width="2" d="M1505.81,-287.88C1522.7,-278.64 1543.75,-267.13 1561.88,-257.21"/>
<polygon fill="grey" stroke="grey" stroke-width="2" points="1563.97,-260.06 1571.07,-252.19 1560.61,-253.92 1563.97,-260.06"/>
</g>
<!-- 28 -->
<g id="node29" class="node">
<title>28</title>
<path fill="none" stroke="#ced856" stroke-width="2" stroke-dasharray="5,2" d="M1872,-252C1872,-252 1797,-252 1797,-252 1791,-252 1785,-246 1785,-240 1785,-240 1785,-228 1785,-228 1785,-222 1791,-216 1797,-216 1797,-216 1872,-216 1872,-216 1878,-216 1884,-222 1884,-228 1884,-228 1884,-240 1884,-240 1884,-246 1878,-252 1872,-252"/>
<text text-anchor="middle" x="1834.5" y="-237" font-family="sans" font-size="10.00">SPAdes_trimmed</text>
<text text-anchor="middle" x="1834.5" y="-226" font-family="sans" font-size="10.00">value_of_k: 31</text>
</g>
<!-- 28&#45;&gt;1 -->
<g id="edge21" class="edge">
<title>28&#45;&gt;1</title>
<path fill="none" stroke="grey" stroke-width="2" d="M1784.69,-219.05C1779.92,-217.93 1775.13,-216.89 1770.5,-216 1623.31,-187.75 1445.42,-171.85 1368.29,-165.83"/>
<polygon fill="grey" stroke="grey" stroke-width="2" points="1368.33,-162.32 1358.09,-165.04 1367.79,-169.3 1368.33,-162.32"/>
</g>
<!-- 29&#45;&gt;28 -->
<g id="edge54" class="edge">
<title>29&#45;&gt;28</title>
<path fill="none" stroke="grey" stroke-width="2" d="M1947.81,-287.88C1927.48,-278.39 1902.03,-266.51 1880.4,-256.42"/>
<polygon fill="grey" stroke="grey" stroke-width="2" points="1881.62,-253.13 1871.07,-252.07 1878.66,-259.47 1881.62,-253.13"/>
</g>
<!-- 35 -->
<g id="node36" class="node">
<title>35</title>
<path fill="none" stroke="#ced856" stroke-width="2" stroke-dasharray="5,2" d="M1989,-252C1989,-252 1914,-252 1914,-252 1908,-252 1902,-246 1902,-240 1902,-240 1902,-228 1902,-228 1902,-222 1908,-216 1914,-216 1914,-216 1989,-216 1989,-216 1995,-216 2001,-222 2001,-228 2001,-228 2001,-240 2001,-240 2001,-246 1995,-252 1989,-252"/>
<text text-anchor="middle" x="1951.5" y="-237" font-family="sans" font-size="10.00">SPAdes_trimmed</text>
<text text-anchor="middle" x="1951.5" y="-226" font-family="sans" font-size="10.00">value_of_k: 55</text>
</g>
<!-- 29&#45;&gt;35 -->
<g id="edge61" class="edge">
<title>29&#45;&gt;35</title>
<path fill="none" stroke="grey" stroke-width="2" d="M1976.34,-287.7C1972.59,-279.73 1968.05,-270.1 1963.88,-261.26"/>
<polygon fill="grey" stroke="grey" stroke-width="2" points="1966.99,-259.66 1959.56,-252.1 1960.66,-262.64 1966.99,-259.66"/>
</g>
<!-- 40 -->
<g id="node41" class="node">
<title>40</title>
<path fill="none" stroke="#ced856" stroke-width="2" stroke-dasharray="5,2" d="M2106,-252C2106,-252 2031,-252 2031,-252 2025,-252 2019,-246 2019,-240 2019,-240 2019,-228 2019,-228 2019,-222 2025,-216 2031,-216 2031,-216 2106,-216 2106,-216 2112,-216 2118,-222 2118,-228 2118,-228 2118,-240 2118,-240 2118,-246 2112,-252 2106,-252"/>
<text text-anchor="middle" x="2068.5" y="-237" font-family="sans" font-size="10.00">SPAdes_trimmed</text>
<text text-anchor="middle" x="2068.5" y="-226" font-family="sans" font-size="10.00">value_of_k: auto</text>
</g>
<!-- 29&#45;&gt;40 -->
<g id="edge66" class="edge">
<title>29&#45;&gt;40</title>
<path fill="none" stroke="grey" stroke-width="2" d="M2005.26,-287.7C2015.74,-278.97 2028.61,-268.24 2040,-258.75"/>
<polygon fill="grey" stroke="grey" stroke-width="2" points="2042.53,-261.19 2047.97,-252.1 2038.05,-255.82 2042.53,-261.19"/>
</g>
<!-- 30 -->
<g id="node31" class="node">
<title>30</title>
<path fill="none" stroke="#ced856" stroke-width="2" stroke-dasharray="5,2" d="M2338,-252C2338,-252 2263,-252 2263,-252 2257,-252 2251,-246 2251,-240 2251,-240 2251,-228 2251,-228 2251,-222 2257,-216 2263,-216 2263,-216 2338,-216 2338,-216 2344,-216 2350,-222 2350,-228 2350,-228 2350,-240 2350,-240 2350,-246 2344,-252 2338,-252"/>
<text text-anchor="middle" x="2300.5" y="-237" font-family="sans" font-size="10.00">SPAdes_trimmed</text>
<text text-anchor="middle" x="2300.5" y="-226" font-family="sans" font-size="10.00">value_of_k: 31</text>
</g>
<!-- 30&#45;&gt;1 -->
<g id="edge22" class="edge">
<title>30&#45;&gt;1</title>
<path fill="none" stroke="grey" stroke-width="2" d="M2250.75,-218.75C2245.96,-217.69 2241.15,-216.75 2236.5,-216 1903.94,-162.67 1495.15,-161.43 1368.65,-162.49"/>
<polygon fill="grey" stroke="grey" stroke-width="2" points="1368.29,-158.99 1358.32,-162.59 1368.35,-165.99 1368.29,-158.99"/>
</g>
<!-- 31&#45;&gt;30 -->
<g id="edge56" class="edge">
<title>31&#45;&gt;30</title>
<path fill="none" stroke="grey" stroke-width="2" d="M2447.04,-287.88C2419.93,-278.09 2385.76,-265.77 2357.24,-255.47"/>
<polygon fill="grey" stroke="grey" stroke-width="2" points="2358.4,-252.17 2347.8,-252.07 2356.02,-258.75 2358.4,-252.17"/>
</g>
<!-- 36 -->
<g id="node37" class="node">
<title>36</title>
<path fill="none" stroke="#ced856" stroke-width="2" stroke-dasharray="5,2" d="M2455,-252C2455,-252 2380,-252 2380,-252 2374,-252 2368,-246 2368,-240 2368,-240 2368,-228 2368,-228 2368,-222 2374,-216 2380,-216 2380,-216 2455,-216 2455,-216 2461,-216 2467,-222 2467,-228 2467,-228 2467,-240 2467,-240 2467,-246 2461,-252 2455,-252"/>
<text text-anchor="middle" x="2417.5" y="-237" font-family="sans" font-size="10.00">SPAdes_trimmed</text>
<text text-anchor="middle" x="2417.5" y="-226" font-family="sans" font-size="10.00">value_of_k: 55</text>
</g>
<!-- 31&#45;&gt;36 -->
<g id="edge62" class="edge">
<title>31&#45;&gt;36</title>
<path fill="none" stroke="grey" stroke-width="2" d="M2475.47,-287.7C2465.96,-279.05 2454.29,-268.45 2443.93,-259.03"/>
<polygon fill="grey" stroke="grey" stroke-width="2" points="2446.07,-256.24 2436.31,-252.1 2441.36,-261.42 2446.07,-256.24"/>
</g>
<!-- 41 -->
<g id="node42" class="node">
<title>41</title>
<path fill="none" stroke="#ced856" stroke-width="2" stroke-dasharray="5,2" d="M2572,-252C2572,-252 2497,-252 2497,-252 2491,-252 2485,-246 2485,-240 2485,-240 2485,-228 2485,-228 2485,-222 2491,-216 2497,-216 2497,-216 2572,-216 2572,-216 2578,-216 2584,-222 2584,-228 2584,-228 2584,-240 2584,-240 2584,-246 2578,-252 2572,-252"/>
<text text-anchor="middle" x="2534.5" y="-237" font-family="sans" font-size="10.00">SPAdes_trimmed</text>
<text text-anchor="middle" x="2534.5" y="-226" font-family="sans" font-size="10.00">value_of_k: auto</text>
</g>
<!-- 31&#45;&gt;41 -->
<g id="edge67" class="edge">
<title>31&#45;&gt;41</title>
<path fill="none" stroke="grey" stroke-width="2" d="M2504.39,-287.7C2508.99,-279.64 2514.56,-269.89 2519.65,-260.98"/>
<polygon fill="grey" stroke="grey" stroke-width="2" points="2522.8,-262.52 2524.73,-252.1 2516.73,-259.05 2522.8,-262.52"/>
</g>
<!-- 32&#45;&gt;1 -->
<g id="edge23" class="edge">
<title>32&#45;&gt;1</title>
<path fill="none" stroke="grey" stroke-width="2" d="M603.01,-217.74C605.87,-217.09 608.71,-216.51 611.5,-216 867.7,-169.54 1182.37,-163.6 1290.71,-163"/>
<polygon fill="grey" stroke="grey" stroke-width="2" points="1290.85,-166.5 1300.84,-162.95 1290.82,-159.5 1290.85,-166.5"/>
</g>
<!-- 33&#45;&gt;1 -->
<g id="edge24" class="edge">
<title>33&#45;&gt;1</title>
<path fill="none" stroke="grey" stroke-width="2" d="M1069.1,-218.19C1071.94,-217.42 1074.75,-216.69 1077.5,-216 1152.59,-197.13 1241.41,-179.54 1291.02,-170.13"/>
<polygon fill="grey" stroke="grey" stroke-width="2" points="1291.81,-173.54 1300.99,-168.25 1290.52,-166.66 1291.81,-173.54"/>
</g>
<!-- 34&#45;&gt;1 -->
<g id="edge25" class="edge">
<title>34&#45;&gt;1</title>
<path fill="none" stroke="grey" stroke-width="2" d="M1447.34,-215.88C1423.13,-205.01 1391.92,-191.01 1367.71,-180.14"/>
<polygon fill="grey" stroke="grey" stroke-width="2" points="1369.02,-176.9 1358.47,-176 1366.16,-183.28 1369.02,-176.9"/>
</g>
<!-- 35&#45;&gt;1 -->
<g id="edge26" class="edge">
<title>35&#45;&gt;1</title>
<path fill="none" stroke="grey" stroke-width="2" d="M1901.76,-217.96C1898.64,-217.24 1895.54,-216.58 1892.5,-216 1697.88,-179.14 1460.32,-167.46 1368.4,-164.16"/>
<polygon fill="grey" stroke="grey" stroke-width="2" points="1368.29,-160.66 1358.18,-163.81 1368.05,-167.65 1368.29,-160.66"/>
</g>
<!-- 36&#45;&gt;1 -->
<g id="edge27" class="edge">
<title>36&#45;&gt;1</title>
<path fill="none" stroke="grey" stroke-width="2" d="M2367.79,-217.81C2364.66,-217.12 2361.55,-216.51 2358.5,-216 2162.56,-183.17 1531.96,-167.41 1368.5,-163.81"/>
<polygon fill="grey" stroke="grey" stroke-width="2" points="1368.49,-160.31 1358.41,-163.59 1368.34,-167.31 1368.49,-160.31"/>
</g>
<!-- 37&#45;&gt;1 -->
<g id="edge28" class="edge">
<title>37&#45;&gt;1</title>
<path fill="none" stroke="grey" stroke-width="2" d="M720.28,-218.9C725.06,-217.81 729.86,-216.82 734.5,-216 942.22,-179.44 1195.42,-167.52 1290.74,-164.16"/>
<polygon fill="grey" stroke="grey" stroke-width="2" points="1290.91,-167.66 1300.79,-163.82 1290.67,-160.66 1290.91,-167.66"/>
</g>
<!-- 38&#45;&gt;1 -->
<g id="edge29" class="edge">
<title>38&#45;&gt;1</title>
<path fill="none" stroke="grey" stroke-width="2" d="M1183.71,-215.88C1216.74,-203.9 1260.3,-188.1 1291.18,-176.9"/>
<polygon fill="grey" stroke="grey" stroke-width="2" points="1292.52,-180.13 1300.73,-173.43 1290.14,-173.55 1292.52,-180.13"/>
</g>
<!-- 39&#45;&gt;1 -->
<g id="edge30" class="edge">
<title>39&#45;&gt;1</title>
<path fill="none" stroke="grey" stroke-width="2" d="M1552.96,-218.58C1549.76,-217.69 1546.59,-216.83 1543.5,-216 1482.4,-199.64 1411.01,-182.32 1368.08,-172.09"/>
<polygon fill="grey" stroke="grey" stroke-width="2" points="1368.86,-168.68 1358.32,-169.77 1367.24,-175.49 1368.86,-168.68"/>
</g>
<!-- 40&#45;&gt;1 -->
<g id="edge31" class="edge">
<title>40&#45;&gt;1</title>
<path fill="none" stroke="grey" stroke-width="2" d="M2018.78,-217.9C2015.65,-217.2 2012.54,-216.55 2009.5,-216 1768.43,-172.34 1472.87,-164.63 1368.35,-163.28"/>
<polygon fill="grey" stroke="grey" stroke-width="2" points="1368.31,-159.78 1358.27,-163.17 1368.23,-166.78 1368.31,-159.78"/>
</g>
<!-- 41&#45;&gt;1 -->
<g id="edge32" class="edge">
<title>41&#45;&gt;1</title>
<path fill="none" stroke="grey" stroke-width="2" d="M2484.79,-217.79C2481.67,-217.11 2478.55,-216.5 2475.5,-216 2255.34,-179.71 1542.69,-166.34 1368.29,-163.57"/>
<polygon fill="grey" stroke="grey" stroke-width="2" points="1368.1,-160.07 1358.05,-163.41 1367.99,-167.07 1368.1,-160.07"/>
</g>
<!-- 42&#45;&gt;0 -->
<g id="edge2" class="edge">
<title>42&#45;&gt;0</title>
<path fill="none" stroke="grey" stroke-width="2" d="M1363.38,-71.7C1358.14,-63.56 1351.8,-53.69 1346.02,-44.7"/>
<polygon fill="grey" stroke="grey" stroke-width="2" points="1348.85,-42.62 1340.5,-36.1 1342.96,-46.41 1348.85,-42.62"/>
</g>
</g>
</svg>
