<?xml version="1.0" encoding="UTF-8" standalone="no"?>
<!DOCTYPE svg PUBLIC "-//W3C//DTD SVG 1.1//EN"
 "http://www.w3.org/Graphics/SVG/1.1/DTD/svg11.dtd">
<!-- Generated by graphviz version 2.49.0 (20210829.0051)
 -->
<!-- Title: snakemake_dag Pages: 1 -->
<svg width="202pt" height="188pt"
 viewBox="0.00 0.00 202.00 188.00" xmlns="http://www.w3.org/2000/svg" xmlns:xlink="http://www.w3.org/1999/xlink">
<g id="graph0" class="graph" transform="scale(1 1) rotate(0) translate(4 184)">
<title>snakemake_dag</title>
<polygon fill="white" stroke="transparent" points="-4,4 -4,-184 198,-184 198,4 -4,4"/>
<!-- 0 -->
<g id="node1" class="node">
<title>0</title>
<path fill="none" stroke="#d85656" stroke-width="2" d="M112,-36C112,-36 82,-36 82,-36 76,-36 70,-30 70,-24 70,-24 70,-12 70,-12 70,-6 76,0 82,0 82,0 112,0 112,0 118,0 124,-6 124,-12 124,-12 124,-24 124,-24 124,-30 118,-36 112,-36"/>
<text text-anchor="middle" x="97" y="-15.5" font-family="sans" font-size="10.00">all</text>
</g>
<!-- 1 -->
<g id="node2" class="node">
<title>1</title>
<path fill="none" stroke="#afd856" stroke-width="2" d="M76,-108C76,-108 12,-108 12,-108 6,-108 0,-102 0,-96 0,-96 0,-84 0,-84 0,-78 6,-72 12,-72 12,-72 76,-72 76,-72 82,-72 88,-78 88,-84 88,-84 88,-96 88,-96 88,-102 82,-108 76,-108"/>
<text text-anchor="middle" x="44" y="-93" font-family="sans" font-size="10.00">SPAdes</text>
<text text-anchor="middle" x="44" y="-82" font-family="sans" font-size="10.00">value_of_k: 31</text>
</g>
<!-- 1&#45;&gt;0 -->
<g id="edge1" class="edge">
<title>1&#45;&gt;0</title>
<path fill="none" stroke="grey" stroke-width="2" d="M57.1,-71.7C63.39,-63.39 71.05,-53.28 77.96,-44.14"/>
<polygon fill="grey" stroke="grey" stroke-width="2" points="80.8,-46.19 84.05,-36.1 75.22,-41.96 80.8,-46.19"/>
</g>
<!-- 2 -->
<g id="node3" class="node">
<title>2</title>
<path fill="none" stroke="#56d8a9" stroke-width="2" stroke-dasharray="5,2" d="M149,-180C149,-180 45,-180 45,-180 39,-180 33,-174 33,-168 33,-168 33,-156 33,-156 33,-150 39,-144 45,-144 45,-144 149,-144 149,-144 155,-144 161,-150 161,-156 161,-156 161,-168 161,-168 161,-174 155,-180 149,-180"/>
<text text-anchor="middle" x="97" y="-165" font-family="sans" font-size="10.00">download_sr</text>
<text text-anchor="middle" x="97" y="-154" font-family="sans" font-size="10.00">barcodes: SRR1965341</text>
</g>
<!-- 2&#45;&gt;1 -->
<g id="edge3" class="edge">
<title>2&#45;&gt;1</title>
<path fill="none" stroke="grey" stroke-width="2" d="M83.9,-143.7C77.61,-135.39 69.95,-125.28 63.04,-116.14"/>
<polygon fill="grey" stroke="grey" stroke-width="2" points="65.78,-113.96 56.95,-108.1 60.2,-118.19 65.78,-113.96"/>
</g>
<!-- 3 -->
<g id="node4" class="node">
<title>3</title>
<path fill="none" stroke="#afd856" stroke-width="2" d="M182,-108C182,-108 118,-108 118,-108 112,-108 106,-102 106,-96 106,-96 106,-84 106,-84 106,-78 112,-72 118,-72 118,-72 182,-72 182,-72 188,-72 194,-78 194,-84 194,-84 194,-96 194,-96 194,-102 188,-108 182,-108"/>
<text text-anchor="middle" x="150" y="-93" font-family="sans" font-size="10.00">SPAdes</text>
<text text-anchor="middle" x="150" y="-82" font-family="sans" font-size="10.00">value_of_k: 55</text>
</g>
<!-- 2&#45;&gt;3 -->
<g id="edge4" class="edge">
<title>2&#45;&gt;3</title>
<path fill="none" stroke="grey" stroke-width="2" d="M110.1,-143.7C116.39,-135.39 124.05,-125.28 130.96,-116.14"/>
<polygon fill="grey" stroke="grey" stroke-width="2" points="133.8,-118.19 137.05,-108.1 128.22,-113.96 133.8,-118.19"/>
</g>
<!-- 3&#45;&gt;0 -->
<g id="edge2" class="edge">
<title>3&#45;&gt;0</title>
<path fill="none" stroke="grey" stroke-width="2" d="M136.9,-71.7C130.61,-63.39 122.95,-53.28 116.04,-44.14"/>
<polygon fill="grey" stroke="grey" stroke-width="2" points="118.78,-41.96 109.95,-36.1 113.2,-46.19 118.78,-41.96"/>
</g>
</g>
</svg>
