<?xml version="1.0" encoding="UTF-8" standalone="no"?>
<!DOCTYPE svg PUBLIC "-//W3C//DTD SVG 1.1//EN"
 "http://www.w3.org/Graphics/SVG/1.1/DTD/svg11.dtd">
<!-- Generated by graphviz version 2.49.0 (20210829.0051)
 -->
<!-- Title: snakemake_dag Pages: 1 -->
<svg width="558pt" height="404pt"
 viewBox="0.00 0.00 558.00 404.00" xmlns="http://www.w3.org/2000/svg" xmlns:xlink="http://www.w3.org/1999/xlink">
<g id="graph0" class="graph" transform="scale(1 1) rotate(0) translate(4 400)">
<title>snakemake_dag</title>
<polygon fill="white" stroke="transparent" points="-4,4 -4,-400 554,-400 554,4 -4,4"/>
<!-- 0 -->
<g id="node1" class="node">
<title>0</title>
<path fill="none" stroke="#9fd856" stroke-width="2" stroke-dasharray="5,2" d="M242.5,-36C242.5,-36 212.5,-36 212.5,-36 206.5,-36 200.5,-30 200.5,-24 200.5,-24 200.5,-12 200.5,-12 200.5,-6 206.5,0 212.5,0 212.5,0 242.5,0 242.5,0 248.5,0 254.5,-6 254.5,-12 254.5,-12 254.5,-24 254.5,-24 254.5,-30 248.5,-36 242.5,-36"/>
<text text-anchor="middle" x="227.5" y="-15.5" font-family="sans" font-size="10.00">all</text>
</g>
<!-- 1 -->
<g id="node2" class="node">
<title>1</title>
<path fill="none" stroke="#56d8c9" stroke-width="2" stroke-dasharray="5,2" d="M244,-180C244,-180 211,-180 211,-180 205,-180 199,-174 199,-168 199,-168 199,-156 199,-156 199,-150 205,-144 211,-144 211,-144 244,-144 244,-144 250,-144 256,-150 256,-156 256,-156 256,-168 256,-168 256,-174 250,-180 244,-180"/>
<text text-anchor="middle" x="227.5" y="-159.5" font-family="sans" font-size="10.00">analysis</text>
</g>
<!-- 1&#45;&gt;0 -->
<g id="edge1" class="edge">
<title>1&#45;&gt;0</title>
<path fill="none" stroke="grey" stroke-width="2" d="M216.45,-143.61C210.76,-133.62 204.42,-120.58 201.5,-108 197.88,-92.41 197.88,-87.59 201.5,-72 203.6,-62.96 207.47,-53.68 211.59,-45.47"/>
<polygon fill="grey" stroke="grey" stroke-width="2" points="214.81,-46.86 216.45,-36.39 208.64,-43.55 214.81,-46.86"/>
</g>
<!-- 10 -->
<g id="node11" class="node">
<title>10</title>
<path fill="none" stroke="#d88556" stroke-width="2" stroke-dasharray="5,2" d="M322.5,-108C322.5,-108 222.5,-108 222.5,-108 216.5,-108 210.5,-102 210.5,-96 210.5,-96 210.5,-84 210.5,-84 210.5,-78 216.5,-72 222.5,-72 222.5,-72 322.5,-72 322.5,-72 328.5,-72 334.5,-78 334.5,-84 334.5,-84 334.5,-96 334.5,-96 334.5,-102 328.5,-108 322.5,-108"/>
<text text-anchor="middle" x="272.5" y="-87.5" font-family="sans" font-size="10.00">comparative_analysis</text>
</g>
<!-- 1&#45;&gt;10 -->
<g id="edge16" class="edge">
<title>1&#45;&gt;10</title>
<path fill="none" stroke="grey" stroke-width="2" d="M238.62,-143.7C243.86,-135.56 250.2,-125.69 255.98,-116.7"/>
<polygon fill="grey" stroke="grey" stroke-width="2" points="259.04,-118.41 261.5,-108.1 253.15,-114.62 259.04,-118.41"/>
</g>
<!-- 2 -->
<g id="node3" class="node">
<title>2</title>
<path fill="none" stroke="#56d86b" stroke-width="2" stroke-dasharray="5,2" d="M99,-252C99,-252 12,-252 12,-252 6,-252 0,-246 0,-240 0,-240 0,-228 0,-228 0,-222 6,-216 12,-216 12,-216 99,-216 99,-216 105,-216 111,-222 111,-228 111,-228 111,-240 111,-240 111,-246 105,-252 99,-252"/>
<text text-anchor="middle" x="55.5" y="-237" font-family="sans" font-size="10.00">SPAdes_untrimmed</text>
<text text-anchor="middle" x="55.5" y="-226" font-family="sans" font-size="10.00">value_of_k: 31</text>
</g>
<!-- 2&#45;&gt;1 -->
<g id="edge3" class="edge">
<title>2&#45;&gt;1</title>
<path fill="none" stroke="grey" stroke-width="2" d="M97.58,-215.88C125.57,-204.48 162.04,-189.64 189.22,-178.58"/>
<polygon fill="grey" stroke="grey" stroke-width="2" points="190.83,-181.7 198.77,-174.69 188.19,-175.22 190.83,-181.7"/>
</g>
<!-- 3 -->
<g id="node4" class="node">
<title>3</title>
<path fill="none" stroke="#56d89a" stroke-width="2" stroke-dasharray="5,2" d="M250.5,-396C250.5,-396 146.5,-396 146.5,-396 140.5,-396 134.5,-390 134.5,-384 134.5,-384 134.5,-372 134.5,-372 134.5,-366 140.5,-360 146.5,-360 146.5,-360 250.5,-360 250.5,-360 256.5,-360 262.5,-366 262.5,-372 262.5,-372 262.5,-384 262.5,-384 262.5,-390 256.5,-396 250.5,-396"/>
<text text-anchor="middle" x="198.5" y="-381" font-family="sans" font-size="10.00">download_sr_paired</text>
<text text-anchor="middle" x="198.5" y="-370" font-family="sans" font-size="10.00">barcodes: SRR1965341</text>
</g>
<!-- 3&#45;&gt;2 -->
<g id="edge9" class="edge">
<title>3&#45;&gt;2</title>
<path fill="none" stroke="grey" stroke-width="2" d="M134.25,-364.59C110.49,-356.81 85.48,-344.24 69.5,-324 55.82,-306.68 52.97,-281.42 53.16,-262.23"/>
<polygon fill="grey" stroke="grey" stroke-width="2" points="56.67,-262.14 53.55,-252.01 49.67,-261.87 56.67,-262.14"/>
</g>
<!-- 4 -->
<g id="node5" class="node">
<title>4</title>
<path fill="none" stroke="#56d86b" stroke-width="2" stroke-dasharray="5,2" d="M178,-324C178,-324 91,-324 91,-324 85,-324 79,-318 79,-312 79,-312 79,-300 79,-300 79,-294 85,-288 91,-288 91,-288 178,-288 178,-288 184,-288 190,-294 190,-300 190,-300 190,-312 190,-312 190,-318 184,-324 178,-324"/>
<text text-anchor="middle" x="134.5" y="-309" font-family="sans" font-size="10.00">SPAdes_untrimmed</text>
<text text-anchor="middle" x="134.5" y="-298" font-family="sans" font-size="10.00">value_of_k: 55</text>
</g>
<!-- 3&#45;&gt;4 -->
<g id="edge10" class="edge">
<title>3&#45;&gt;4</title>
<path fill="none" stroke="grey" stroke-width="2" d="M182.68,-359.7C174.93,-351.22 165.46,-340.86 156.98,-331.58"/>
<polygon fill="grey" stroke="grey" stroke-width="2" points="159.47,-329.12 150.14,-324.1 154.3,-333.85 159.47,-329.12"/>
</g>
<!-- 5 -->
<g id="node6" class="node">
<title>5</title>
<path fill="none" stroke="#56d86b" stroke-width="2" stroke-dasharray="5,2" d="M307,-324C307,-324 220,-324 220,-324 214,-324 208,-318 208,-312 208,-312 208,-300 208,-300 208,-294 214,-288 220,-288 220,-288 307,-288 307,-288 313,-288 319,-294 319,-300 319,-300 319,-312 319,-312 319,-318 313,-324 307,-324"/>
<text text-anchor="middle" x="263.5" y="-309" font-family="sans" font-size="10.00">SPAdes_untrimmed</text>
<text text-anchor="middle" x="263.5" y="-298" font-family="sans" font-size="10.00">value_of_k: auto</text>
</g>
<!-- 3&#45;&gt;5 -->
<g id="edge11" class="edge">
<title>3&#45;&gt;5</title>
<path fill="none" stroke="grey" stroke-width="2" d="M214.57,-359.7C222.44,-351.22 232.06,-340.86 240.67,-331.58"/>
<polygon fill="grey" stroke="grey" stroke-width="2" points="243.38,-333.81 247.62,-324.1 238.25,-329.05 243.38,-333.81"/>
</g>
<!-- 7 -->
<g id="node8" class="node">
<title>7</title>
<path fill="none" stroke="#5682d8" stroke-width="2" stroke-dasharray="5,2" d="M429.5,-324C429.5,-324 349.5,-324 349.5,-324 343.5,-324 337.5,-318 337.5,-312 337.5,-312 337.5,-300 337.5,-300 337.5,-294 343.5,-288 349.5,-288 349.5,-288 429.5,-288 429.5,-288 435.5,-288 441.5,-294 441.5,-300 441.5,-300 441.5,-312 441.5,-312 441.5,-318 435.5,-324 429.5,-324"/>
<text text-anchor="middle" x="389.5" y="-303.5" font-family="sans" font-size="10.00">adapter_trimming</text>
</g>
<!-- 3&#45;&gt;7 -->
<g id="edge13" class="edge">
<title>3&#45;&gt;7</title>
<path fill="none" stroke="grey" stroke-width="2" d="M245.22,-359.88C271.8,-350.14 305.26,-337.87 333.27,-327.61"/>
<polygon fill="grey" stroke="grey" stroke-width="2" points="334.74,-330.8 342.93,-324.07 332.33,-324.22 334.74,-330.8"/>
</g>
<!-- 4&#45;&gt;1 -->
<g id="edge4" class="edge">
<title>4&#45;&gt;1</title>
<path fill="none" stroke="grey" stroke-width="2" d="M145.72,-287.87C161.85,-263.24 191.72,-217.64 210.55,-188.88"/>
<polygon fill="grey" stroke="grey" stroke-width="2" points="213.69,-190.47 216.24,-180.19 207.84,-186.64 213.69,-190.47"/>
</g>
<!-- 5&#45;&gt;1 -->
<g id="edge5" class="edge">
<title>5&#45;&gt;1</title>
<path fill="none" stroke="grey" stroke-width="2" d="M237.38,-287.82C225.92,-278.69 213.69,-266.39 207.5,-252 198.89,-231.99 205.3,-207.8 213.08,-189.69"/>
<polygon fill="grey" stroke="grey" stroke-width="2" points="216.4,-190.86 217.46,-180.32 210.06,-187.89 216.4,-190.86"/>
</g>
<!-- 6 -->
<g id="node7" class="node">
<title>6</title>
<path fill="none" stroke="#ced856" stroke-width="2" stroke-dasharray="5,2" d="M304,-252C304,-252 229,-252 229,-252 223,-252 217,-246 217,-240 217,-240 217,-228 217,-228 217,-222 223,-216 229,-216 229,-216 304,-216 304,-216 310,-216 316,-222 316,-228 316,-228 316,-240 316,-240 316,-246 310,-252 304,-252"/>
<text text-anchor="middle" x="266.5" y="-237" font-family="sans" font-size="10.00">SPAdes_trimmed</text>
<text text-anchor="middle" x="266.5" y="-226" font-family="sans" font-size="10.00">value_of_k: 31</text>
</g>
<!-- 6&#45;&gt;1 -->
<g id="edge6" class="edge">
<title>6&#45;&gt;1</title>
<path fill="none" stroke="grey" stroke-width="2" d="M256.86,-215.7C252.37,-207.64 246.94,-197.89 241.98,-188.98"/>
<polygon fill="grey" stroke="grey" stroke-width="2" points="244.95,-187.14 237.03,-180.1 238.84,-190.54 244.95,-187.14"/>
</g>
<!-- 7&#45;&gt;6 -->
<g id="edge12" class="edge">
<title>7&#45;&gt;6</title>
<path fill="none" stroke="grey" stroke-width="2" d="M359.41,-287.88C343.18,-278.64 322.96,-267.13 305.53,-257.21"/>
<polygon fill="grey" stroke="grey" stroke-width="2" points="307.13,-254.09 296.7,-252.19 303.66,-260.18 307.13,-254.09"/>
</g>
<!-- 8 -->
<g id="node9" class="node">
<title>8</title>
<path fill="none" stroke="#ced856" stroke-width="2" stroke-dasharray="5,2" d="M421,-252C421,-252 346,-252 346,-252 340,-252 334,-246 334,-240 334,-240 334,-228 334,-228 334,-222 340,-216 346,-216 346,-216 421,-216 421,-216 427,-216 433,-222 433,-228 433,-228 433,-240 433,-240 433,-246 427,-252 421,-252"/>
<text text-anchor="middle" x="383.5" y="-237" font-family="sans" font-size="10.00">SPAdes_trimmed</text>
<text text-anchor="middle" x="383.5" y="-226" font-family="sans" font-size="10.00">value_of_k: 55</text>
</g>
<!-- 7&#45;&gt;8 -->
<g id="edge14" class="edge">
<title>7&#45;&gt;8</title>
<path fill="none" stroke="grey" stroke-width="2" d="M388.02,-287.7C387.36,-279.98 386.56,-270.71 385.82,-262.11"/>
<polygon fill="grey" stroke="grey" stroke-width="2" points="389.31,-261.77 384.97,-252.1 382.33,-262.37 389.31,-261.77"/>
</g>
<!-- 9 -->
<g id="node10" class="node">
<title>9</title>
<path fill="none" stroke="#ced856" stroke-width="2" stroke-dasharray="5,2" d="M538,-252C538,-252 463,-252 463,-252 457,-252 451,-246 451,-240 451,-240 451,-228 451,-228 451,-222 457,-216 463,-216 463,-216 538,-216 538,-216 544,-216 550,-222 550,-228 550,-228 550,-240 550,-240 550,-246 544,-252 538,-252"/>
<text text-anchor="middle" x="500.5" y="-237" font-family="sans" font-size="10.00">SPAdes_trimmed</text>
<text text-anchor="middle" x="500.5" y="-226" font-family="sans" font-size="10.00">value_of_k: auto</text>
</g>
<!-- 7&#45;&gt;9 -->
<g id="edge15" class="edge">
<title>7&#45;&gt;9</title>
<path fill="none" stroke="grey" stroke-width="2" d="M416.65,-287.88C431.03,-278.81 448.88,-267.55 464.41,-257.76"/>
<polygon fill="grey" stroke="grey" stroke-width="2" points="466.65,-260.48 473.24,-252.19 462.92,-254.56 466.65,-260.48"/>
</g>
<!-- 8&#45;&gt;1 -->
<g id="edge7" class="edge">
<title>8&#45;&gt;1</title>
<path fill="none" stroke="grey" stroke-width="2" d="M345.34,-215.88C321.13,-205.01 289.92,-191.01 265.71,-180.14"/>
<polygon fill="grey" stroke="grey" stroke-width="2" points="267.02,-176.9 256.47,-176 264.16,-183.28 267.02,-176.9"/>
</g>
<!-- 9&#45;&gt;1 -->
<g id="edge8" class="edge">
<title>9&#45;&gt;1</title>
<path fill="none" stroke="grey" stroke-width="2" d="M450.96,-218.58C447.76,-217.69 444.59,-216.83 441.5,-216 380.4,-199.64 309.01,-182.32 266.08,-172.09"/>
<polygon fill="grey" stroke="grey" stroke-width="2" points="266.86,-168.68 256.32,-169.77 265.24,-175.49 266.86,-168.68"/>
</g>
<!-- 10&#45;&gt;0 -->
<g id="edge2" class="edge">
<title>10&#45;&gt;0</title>
<path fill="none" stroke="grey" stroke-width="2" d="M261.38,-71.7C256.14,-63.56 249.8,-53.69 244.02,-44.7"/>
<polygon fill="grey" stroke="grey" stroke-width="2" points="246.85,-42.62 238.5,-36.1 240.96,-46.41 246.85,-42.62"/>
</g>
</g>
</svg>
