<?xml version="1.0" encoding="UTF-8" standalone="no"?>
<!DOCTYPE svg PUBLIC "-//W3C//DTD SVG 1.1//EN"
 "http://www.w3.org/Graphics/SVG/1.1/DTD/svg11.dtd">
<!-- Generated by graphviz version 2.49.0 (20210829.0051)
 -->
<!-- Title: snakemake_dag Pages: 1 -->
<svg width="718pt" height="476pt"
 viewBox="0.00 0.00 718.00 476.00" xmlns="http://www.w3.org/2000/svg" xmlns:xlink="http://www.w3.org/1999/xlink">
<g id="graph0" class="graph" transform="scale(1 1) rotate(0) translate(4 472)">
<title>snakemake_dag</title>
<polygon fill="white" stroke="transparent" points="-4,4 -4,-472 714,-472 714,4 -4,4"/>
<!-- 0 -->
<g id="node1" class="node">
<title>0</title>
<path fill="none" stroke="#5682d8" stroke-width="2" d="M426.5,-36C426.5,-36 396.5,-36 396.5,-36 390.5,-36 384.5,-30 384.5,-24 384.5,-24 384.5,-12 384.5,-12 384.5,-6 390.5,0 396.5,0 396.5,0 426.5,0 426.5,0 432.5,0 438.5,-6 438.5,-12 438.5,-12 438.5,-24 438.5,-24 438.5,-30 432.5,-36 426.5,-36"/>
<text text-anchor="middle" x="411.5" y="-15.5" font-family="sans" font-size="10.00">all</text>
</g>
<!-- 1 -->
<g id="node2" class="node">
<title>1</title>
<path fill="none" stroke="#ced856" stroke-width="2" d="M338,-180C338,-180 305,-180 305,-180 299,-180 293,-174 293,-168 293,-168 293,-156 293,-156 293,-150 299,-144 305,-144 305,-144 338,-144 338,-144 344,-144 350,-150 350,-156 350,-156 350,-168 350,-168 350,-174 344,-180 338,-180"/>
<text text-anchor="middle" x="321.5" y="-159.5" font-family="sans" font-size="10.00">analysis</text>
</g>
<!-- 1&#45;&gt;0 -->
<g id="edge1" class="edge">
<title>1&#45;&gt;0</title>
<path fill="none" stroke="grey" stroke-width="2" d="M321.65,-143.92C322.56,-124.95 326.35,-94.08 340.5,-72 349.2,-58.43 362.68,-47.08 375.56,-38.42"/>
<polygon fill="grey" stroke="grey" stroke-width="2" points="377.76,-41.17 384.32,-32.85 374,-35.26 377.76,-41.17"/>
</g>
<!-- 14 -->
<g id="node15" class="node">
<title>14</title>
<path fill="none" stroke="#70d856" stroke-width="2" d="M461.5,-108C461.5,-108 361.5,-108 361.5,-108 355.5,-108 349.5,-102 349.5,-96 349.5,-96 349.5,-84 349.5,-84 349.5,-78 355.5,-72 361.5,-72 361.5,-72 461.5,-72 461.5,-72 467.5,-72 473.5,-78 473.5,-84 473.5,-84 473.5,-96 473.5,-96 473.5,-102 467.5,-108 461.5,-108"/>
<text text-anchor="middle" x="411.5" y="-87.5" font-family="sans" font-size="10.00">comparative_analysis</text>
</g>
<!-- 1&#45;&gt;14 -->
<g id="edge22" class="edge">
<title>1&#45;&gt;14</title>
<path fill="none" stroke="grey" stroke-width="2" d="M343.75,-143.7C355.08,-134.88 369.03,-124.03 381.32,-114.47"/>
<polygon fill="grey" stroke="grey" stroke-width="2" points="383.76,-117.01 389.51,-108.1 379.47,-111.48 383.76,-117.01"/>
</g>
<!-- 2 -->
<g id="node3" class="node">
<title>2</title>
<path fill="none" stroke="#56d86b" stroke-width="2" stroke-dasharray="5,2" d="M99,-252C99,-252 12,-252 12,-252 6,-252 0,-246 0,-240 0,-240 0,-228 0,-228 0,-222 6,-216 12,-216 12,-216 99,-216 99,-216 105,-216 111,-222 111,-228 111,-228 111,-240 111,-240 111,-246 105,-252 99,-252"/>
<text text-anchor="middle" x="55.5" y="-237" font-family="sans" font-size="10.00">SPAdes_untrimmed</text>
<text text-anchor="middle" x="55.5" y="-226" font-family="sans" font-size="10.00">value_of_k: 31</text>
</g>
<!-- 2&#45;&gt;1 -->
<g id="edge4" class="edge">
<title>2&#45;&gt;1</title>
<path fill="none" stroke="grey" stroke-width="2" d="M111.26,-218.33C162.82,-204.76 238.06,-184.96 283.16,-173.09"/>
<polygon fill="grey" stroke="grey" stroke-width="2" points="284.08,-176.47 292.86,-170.54 282.29,-169.7 284.08,-176.47"/>
</g>
<!-- 3 -->
<g id="node4" class="node">
<title>3</title>
<path fill="none" stroke="#9fd856" stroke-width="2" stroke-dasharray="5,2" d="M245.5,-396C245.5,-396 141.5,-396 141.5,-396 135.5,-396 129.5,-390 129.5,-384 129.5,-384 129.5,-372 129.5,-372 129.5,-366 135.5,-360 141.5,-360 141.5,-360 245.5,-360 245.5,-360 251.5,-360 257.5,-366 257.5,-372 257.5,-372 257.5,-384 257.5,-384 257.5,-390 251.5,-396 245.5,-396"/>
<text text-anchor="middle" x="193.5" y="-381" font-family="sans" font-size="10.00">download_sr_paired</text>
<text text-anchor="middle" x="193.5" y="-370" font-family="sans" font-size="10.00">barcodes: SRR1965341</text>
</g>
<!-- 3&#45;&gt;2 -->
<g id="edge11" class="edge">
<title>3&#45;&gt;2</title>
<path fill="none" stroke="grey" stroke-width="2" d="M129.42,-365.67C104.97,-358.02 79.22,-345.26 63.5,-324 50.56,-306.5 49.4,-281.47 50.99,-262.4"/>
<polygon fill="grey" stroke="grey" stroke-width="2" points="54.5,-262.57 52.14,-252.24 47.54,-261.78 54.5,-262.57"/>
</g>
<!-- 4 -->
<g id="node5" class="node">
<title>4</title>
<path fill="none" stroke="#56d86b" stroke-width="2" stroke-dasharray="5,2" d="M172,-324C172,-324 85,-324 85,-324 79,-324 73,-318 73,-312 73,-312 73,-300 73,-300 73,-294 79,-288 85,-288 85,-288 172,-288 172,-288 178,-288 184,-294 184,-300 184,-300 184,-312 184,-312 184,-318 178,-324 172,-324"/>
<text text-anchor="middle" x="128.5" y="-309" font-family="sans" font-size="10.00">SPAdes_untrimmed</text>
<text text-anchor="middle" x="128.5" y="-298" font-family="sans" font-size="10.00">value_of_k: 55</text>
</g>
<!-- 3&#45;&gt;4 -->
<g id="edge12" class="edge">
<title>3&#45;&gt;4</title>
<path fill="none" stroke="grey" stroke-width="2" d="M177.43,-359.7C169.56,-351.22 159.94,-340.86 151.33,-331.58"/>
<polygon fill="grey" stroke="grey" stroke-width="2" points="153.75,-329.05 144.38,-324.1 148.62,-333.81 153.75,-329.05"/>
</g>
<!-- 5 -->
<g id="node6" class="node">
<title>5</title>
<path fill="none" stroke="#56d86b" stroke-width="2" stroke-dasharray="5,2" d="M301,-324C301,-324 214,-324 214,-324 208,-324 202,-318 202,-312 202,-312 202,-300 202,-300 202,-294 208,-288 214,-288 214,-288 301,-288 301,-288 307,-288 313,-294 313,-300 313,-300 313,-312 313,-312 313,-318 307,-324 301,-324"/>
<text text-anchor="middle" x="257.5" y="-309" font-family="sans" font-size="10.00">SPAdes_untrimmed</text>
<text text-anchor="middle" x="257.5" y="-298" font-family="sans" font-size="10.00">value_of_k: auto</text>
</g>
<!-- 3&#45;&gt;5 -->
<g id="edge13" class="edge">
<title>3&#45;&gt;5</title>
<path fill="none" stroke="grey" stroke-width="2" d="M209.32,-359.7C217.07,-351.22 226.54,-340.86 235.02,-331.58"/>
<polygon fill="grey" stroke="grey" stroke-width="2" points="237.7,-333.85 241.86,-324.1 232.53,-329.12 237.7,-333.85"/>
</g>
<!-- 7 -->
<g id="node8" class="node">
<title>7</title>
<path fill="none" stroke="#d88556" stroke-width="2" stroke-dasharray="5,2" d="M423.5,-324C423.5,-324 343.5,-324 343.5,-324 337.5,-324 331.5,-318 331.5,-312 331.5,-312 331.5,-300 331.5,-300 331.5,-294 337.5,-288 343.5,-288 343.5,-288 423.5,-288 423.5,-288 429.5,-288 435.5,-294 435.5,-300 435.5,-300 435.5,-312 435.5,-312 435.5,-318 429.5,-324 423.5,-324"/>
<text text-anchor="middle" x="383.5" y="-303.5" font-family="sans" font-size="10.00">adapter_trimming</text>
</g>
<!-- 3&#45;&gt;7 -->
<g id="edge15" class="edge">
<title>3&#45;&gt;7</title>
<path fill="none" stroke="grey" stroke-width="2" d="M239.98,-359.88C266.42,-350.14 299.7,-337.87 327.56,-327.61"/>
<polygon fill="grey" stroke="grey" stroke-width="2" points="329,-330.81 337.17,-324.07 326.58,-324.24 329,-330.81"/>
</g>
<!-- 4&#45;&gt;1 -->
<g id="edge5" class="edge">
<title>4&#45;&gt;1</title>
<path fill="none" stroke="grey" stroke-width="2" d="M137.72,-287.76C149.02,-268.06 169.87,-235.97 195.5,-216 221.65,-195.63 256.76,-181.71 283.28,-173.27"/>
<polygon fill="grey" stroke="grey" stroke-width="2" points="284.45,-176.57 292.99,-170.3 282.4,-169.88 284.45,-176.57"/>
</g>
<!-- 5&#45;&gt;1 -->
<g id="edge6" class="edge">
<title>5&#45;&gt;1</title>
<path fill="none" stroke="grey" stroke-width="2" d="M233.02,-287.77C222.1,-278.56 210.38,-266.19 204.5,-252 198.38,-237.22 195.83,-229.45 204.5,-216 221.7,-189.33 255.93,-175.93 282.95,-169.29"/>
<polygon fill="grey" stroke="grey" stroke-width="2" points="283.91,-172.67 292.9,-167.07 282.38,-165.84 283.91,-172.67"/>
</g>
<!-- 6 -->
<g id="node7" class="node">
<title>6</title>
<path fill="none" stroke="#d8b456" stroke-width="2" stroke-dasharray="5,2" d="M301,-252C301,-252 226,-252 226,-252 220,-252 214,-246 214,-240 214,-240 214,-228 214,-228 214,-222 220,-216 226,-216 226,-216 301,-216 301,-216 307,-216 313,-222 313,-228 313,-228 313,-240 313,-240 313,-246 307,-252 301,-252"/>
<text text-anchor="middle" x="263.5" y="-237" font-family="sans" font-size="10.00">SPAdes_trimmed</text>
<text text-anchor="middle" x="263.5" y="-226" font-family="sans" font-size="10.00">value_of_k: 31</text>
</g>
<!-- 6&#45;&gt;1 -->
<g id="edge7" class="edge">
<title>6&#45;&gt;1</title>
<path fill="none" stroke="grey" stroke-width="2" d="M277.84,-215.7C284.79,-207.3 293.27,-197.07 300.9,-187.86"/>
<polygon fill="grey" stroke="grey" stroke-width="2" points="303.64,-190.04 307.33,-180.1 298.25,-185.57 303.64,-190.04"/>
</g>
<!-- 7&#45;&gt;6 -->
<g id="edge14" class="edge">
<title>7&#45;&gt;6</title>
<path fill="none" stroke="grey" stroke-width="2" d="M354.14,-287.88C338.45,-278.72 318.94,-267.34 302.05,-257.48"/>
<polygon fill="grey" stroke="grey" stroke-width="2" points="303.37,-254.21 292.97,-252.19 299.84,-260.25 303.37,-254.21"/>
</g>
<!-- 8 -->
<g id="node9" class="node">
<title>8</title>
<path fill="none" stroke="#d8b456" stroke-width="2" stroke-dasharray="5,2" d="M418,-252C418,-252 343,-252 343,-252 337,-252 331,-246 331,-240 331,-240 331,-228 331,-228 331,-222 337,-216 343,-216 343,-216 418,-216 418,-216 424,-216 430,-222 430,-228 430,-228 430,-240 430,-240 430,-246 424,-252 418,-252"/>
<text text-anchor="middle" x="380.5" y="-237" font-family="sans" font-size="10.00">SPAdes_trimmed</text>
<text text-anchor="middle" x="380.5" y="-226" font-family="sans" font-size="10.00">value_of_k: 55</text>
</g>
<!-- 7&#45;&gt;8 -->
<g id="edge16" class="edge">
<title>7&#45;&gt;8</title>
<path fill="none" stroke="grey" stroke-width="2" d="M382.76,-287.7C382.43,-279.98 382.03,-270.71 381.66,-262.11"/>
<polygon fill="grey" stroke="grey" stroke-width="2" points="385.16,-261.95 381.23,-252.1 378.16,-262.25 385.16,-261.95"/>
</g>
<!-- 9 -->
<g id="node10" class="node">
<title>9</title>
<path fill="none" stroke="#d8b456" stroke-width="2" stroke-dasharray="5,2" d="M535,-252C535,-252 460,-252 460,-252 454,-252 448,-246 448,-240 448,-240 448,-228 448,-228 448,-222 454,-216 460,-216 460,-216 535,-216 535,-216 541,-216 547,-222 547,-228 547,-228 547,-240 547,-240 547,-246 541,-252 535,-252"/>
<text text-anchor="middle" x="497.5" y="-237" font-family="sans" font-size="10.00">SPAdes_trimmed</text>
<text text-anchor="middle" x="497.5" y="-226" font-family="sans" font-size="10.00">value_of_k: auto</text>
</g>
<!-- 7&#45;&gt;9 -->
<g id="edge17" class="edge">
<title>7&#45;&gt;9</title>
<path fill="none" stroke="grey" stroke-width="2" d="M411.39,-287.88C426.29,-278.72 444.83,-267.34 460.88,-257.48"/>
<polygon fill="grey" stroke="grey" stroke-width="2" points="462.81,-260.41 469.51,-252.19 459.15,-254.44 462.81,-260.41"/>
</g>
<!-- 8&#45;&gt;1 -->
<g id="edge8" class="edge">
<title>8&#45;&gt;1</title>
<path fill="none" stroke="grey" stroke-width="2" d="M365.92,-215.7C358.84,-207.3 350.22,-197.07 342.45,-187.86"/>
<polygon fill="grey" stroke="grey" stroke-width="2" points="345.04,-185.49 335.92,-180.1 339.69,-190.01 345.04,-185.49"/>
</g>
<!-- 9&#45;&gt;1 -->
<g id="edge9" class="edge">
<title>9&#45;&gt;1</title>
<path fill="none" stroke="grey" stroke-width="2" d="M454.45,-215.88C425.41,-204.33 387.44,-189.23 359.52,-178.12"/>
<polygon fill="grey" stroke="grey" stroke-width="2" points="360.68,-174.82 350.09,-174.37 358.09,-181.32 360.68,-174.82"/>
</g>
<!-- 10 -->
<g id="node11" class="node">
<title>10</title>
<path fill="none" stroke="#56d89a" stroke-width="2" d="M630,-252C630,-252 577,-252 577,-252 571,-252 565,-246 565,-240 565,-240 565,-228 565,-228 565,-222 571,-216 577,-216 577,-216 630,-216 630,-216 636,-216 642,-222 642,-228 642,-228 642,-240 642,-240 642,-246 636,-252 630,-252"/>
<text text-anchor="middle" x="603.5" y="-231.5" font-family="sans" font-size="10.00">gfa_to_fasta</text>
</g>
<!-- 10&#45;&gt;0 -->
<g id="edge2" class="edge">
<title>10&#45;&gt;0</title>
<path fill="none" stroke="grey" stroke-width="2" d="M592.9,-215.77C573.41,-184.87 529.55,-118.9 482.5,-72 471.63,-61.16 458.45,-50.72 446.41,-42.02"/>
<polygon fill="grey" stroke="grey" stroke-width="2" points="448.08,-38.91 437.89,-36 444.04,-44.63 448.08,-38.91"/>
</g>
<!-- 10&#45;&gt;1 -->
<g id="edge10" class="edge">
<title>10&#45;&gt;1</title>
<path fill="none" stroke="grey" stroke-width="2" d="M564.85,-218.87C561.7,-217.86 558.56,-216.88 555.5,-216 487.61,-196.36 406.92,-179.47 360.22,-170.32"/>
<polygon fill="grey" stroke="grey" stroke-width="2" points="360.72,-166.85 350.23,-168.37 359.38,-173.72 360.72,-166.85"/>
</g>
<!-- 11 -->
<g id="node12" class="node">
<title>11</title>
<path fill="none" stroke="#d85656" stroke-width="2" stroke-dasharray="5,2" d="M652.5,-324C652.5,-324 554.5,-324 554.5,-324 548.5,-324 542.5,-318 542.5,-312 542.5,-312 542.5,-300 542.5,-300 542.5,-294 548.5,-288 554.5,-288 554.5,-288 652.5,-288 652.5,-288 658.5,-288 664.5,-294 664.5,-300 664.5,-300 664.5,-312 664.5,-312 664.5,-318 658.5,-324 652.5,-324"/>
<text text-anchor="middle" x="603.5" y="-303.5" font-family="sans" font-size="10.00">assemble_long_reads</text>
</g>
<!-- 11&#45;&gt;10 -->
<g id="edge18" class="edge">
<title>11&#45;&gt;10</title>
<path fill="none" stroke="grey" stroke-width="2" d="M603.5,-287.7C603.5,-279.98 603.5,-270.71 603.5,-262.11"/>
<polygon fill="grey" stroke="grey" stroke-width="2" points="607,-262.1 603.5,-252.1 600,-262.1 607,-262.1"/>
</g>
<!-- 12 -->
<g id="node13" class="node">
<title>12</title>
<path fill="none" stroke="#56d8c9" stroke-width="2" stroke-dasharray="5,2" d="M698,-396C698,-396 599,-396 599,-396 593,-396 587,-390 587,-384 587,-384 587,-372 587,-372 587,-366 593,-360 599,-360 599,-360 698,-360 698,-360 704,-360 710,-366 710,-372 710,-372 710,-384 710,-384 710,-390 704,-396 698,-396"/>
<text text-anchor="middle" x="648.5" y="-375.5" font-family="sans" font-size="10.00">long_read_preprocess</text>
</g>
<!-- 12&#45;&gt;11 -->
<g id="edge19" class="edge">
<title>12&#45;&gt;11</title>
<path fill="none" stroke="grey" stroke-width="2" d="M637.38,-359.7C632.14,-351.56 625.8,-341.69 620.02,-332.7"/>
<polygon fill="grey" stroke="grey" stroke-width="2" points="622.85,-330.62 614.5,-324.1 616.96,-334.41 622.85,-330.62"/>
</g>
<!-- 13 -->
<g id="node14" class="node">
<title>13</title>
<path fill="none" stroke="#56b1d8" stroke-width="2" stroke-dasharray="5,2" d="M669,-468C669,-468 538,-468 538,-468 532,-468 526,-462 526,-456 526,-456 526,-444 526,-444 526,-438 532,-432 538,-432 538,-432 669,-432 669,-432 675,-432 681,-438 681,-444 681,-444 681,-456 681,-456 681,-462 675,-468 669,-468"/>
<text text-anchor="middle" x="603.5" y="-453" font-family="sans" font-size="10.00">download_sr_single</text>
<text text-anchor="middle" x="603.5" y="-442" font-family="sans" font-size="10.00">long_barcodes: SRR8902592</text>
</g>
<!-- 13&#45;&gt;11 -->
<g id="edge20" class="edge">
<title>13&#45;&gt;11</title>
<path fill="none" stroke="grey" stroke-width="2" d="M592.87,-431.56C587.4,-421.54 581.3,-408.51 578.5,-396 575,-380.39 575,-375.61 578.5,-360 580.51,-351.01 584.23,-341.75 588.2,-333.53"/>
<polygon fill="grey" stroke="grey" stroke-width="2" points="591.41,-334.94 592.87,-324.44 585.18,-331.73 591.41,-334.94"/>
</g>
<!-- 13&#45;&gt;12 -->
<g id="edge21" class="edge">
<title>13&#45;&gt;12</title>
<path fill="none" stroke="grey" stroke-width="2" d="M614.62,-431.7C619.86,-423.56 626.2,-413.69 631.98,-404.7"/>
<polygon fill="grey" stroke="grey" stroke-width="2" points="635.04,-406.41 637.5,-396.1 629.15,-402.62 635.04,-406.41"/>
</g>
<!-- 14&#45;&gt;0 -->
<g id="edge3" class="edge">
<title>14&#45;&gt;0</title>
<path fill="none" stroke="grey" stroke-width="2" d="M411.5,-71.7C411.5,-63.98 411.5,-54.71 411.5,-46.11"/>
<polygon fill="grey" stroke="grey" stroke-width="2" points="415,-46.1 411.5,-36.1 408,-46.1 415,-46.1"/>
</g>
</g>
</svg>
