<?xml version="1.0" encoding="UTF-8" standalone="no"?>
<!DOCTYPE svg PUBLIC "-//W3C//DTD SVG 1.1//EN"
 "http://www.w3.org/Graphics/SVG/1.1/DTD/svg11.dtd">
<!-- Generated by graphviz version 2.49.0 (20210829.0051)
 -->
<!-- Title: snakemake_dag Pages: 1 -->
<svg width="2592pt" height="332pt"
 viewBox="0.00 0.00 2592.00 332.00" xmlns="http://www.w3.org/2000/svg" xmlns:xlink="http://www.w3.org/1999/xlink">
<g id="graph0" class="graph" transform="scale(1 1) rotate(0) translate(4 328)">
<title>snakemake_dag</title>
<polygon fill="white" stroke="transparent" points="-4,4 -4,-328 2588,-328 2588,4 -4,4"/>
<!-- 0 -->
<g id="node1" class="node">
<title>0</title>
<path fill="none" stroke="#56d8a9" stroke-width="2" d="M1344.5,-36C1344.5,-36 1314.5,-36 1314.5,-36 1308.5,-36 1302.5,-30 1302.5,-24 1302.5,-24 1302.5,-12 1302.5,-12 1302.5,-6 1308.5,0 1314.5,0 1314.5,0 1344.5,0 1344.5,0 1350.5,0 1356.5,-6 1356.5,-12 1356.5,-12 1356.5,-24 1356.5,-24 1356.5,-30 1350.5,-36 1344.5,-36"/>
<text text-anchor="middle" x="1329.5" y="-15.5" font-family="sans" font-size="10.00">all</text>
</g>
<!-- 1 -->
<g id="node2" class="node">
<title>1</title>
<path fill="none" stroke="#d8ac56" stroke-width="2" d="M1346,-108C1346,-108 1313,-108 1313,-108 1307,-108 1301,-102 1301,-96 1301,-96 1301,-84 1301,-84 1301,-78 1307,-72 1313,-72 1313,-72 1346,-72 1346,-72 1352,-72 1358,-78 1358,-84 1358,-84 1358,-96 1358,-96 1358,-102 1352,-108 1346,-108"/>
<text text-anchor="middle" x="1329.5" y="-87.5" font-family="sans" font-size="10.00">analysis</text>
</g>
<!-- 1&#45;&gt;0 -->
<g id="edge1" class="edge">
<title>1&#45;&gt;0</title>
<path fill="none" stroke="grey" stroke-width="2" d="M1329.5,-71.7C1329.5,-63.98 1329.5,-54.71 1329.5,-46.11"/>
<polygon fill="grey" stroke="grey" stroke-width="2" points="1333,-46.1 1329.5,-36.1 1326,-46.1 1333,-46.1"/>
</g>
<!-- 2 -->
<g id="node3" class="node">
<title>2</title>
<path fill="none" stroke="#59d856" stroke-width="2" stroke-dasharray="5,2" d="M99,-180C99,-180 12,-180 12,-180 6,-180 0,-174 0,-168 0,-168 0,-156 0,-156 0,-150 6,-144 12,-144 12,-144 99,-144 99,-144 105,-144 111,-150 111,-156 111,-156 111,-168 111,-168 111,-174 105,-180 99,-180"/>
<text text-anchor="middle" x="55.5" y="-165" font-family="sans" font-size="10.00">SPAdes_untrimmed</text>
<text text-anchor="middle" x="55.5" y="-154" font-family="sans" font-size="10.00">value_of_k: 31</text>
</g>
<!-- 2&#45;&gt;1 -->
<g id="edge2" class="edge">
<title>2&#45;&gt;1</title>
<path fill="none" stroke="grey" stroke-width="2" d="M111.2,-145.45C113.99,-144.91 116.77,-144.42 119.5,-144 353.36,-108.25 1110.95,-94.4 1290.9,-91.57"/>
<polygon fill="grey" stroke="grey" stroke-width="2" points="1291.01,-95.07 1300.95,-91.41 1290.9,-88.07 1291.01,-95.07"/>
</g>
<!-- 3 -->
<g id="node4" class="node">
<title>3</title>
<path fill="none" stroke="#56a9d8" stroke-width="2" stroke-dasharray="5,2" d="M323.5,-324C323.5,-324 219.5,-324 219.5,-324 213.5,-324 207.5,-318 207.5,-312 207.5,-312 207.5,-300 207.5,-300 207.5,-294 213.5,-288 219.5,-288 219.5,-288 323.5,-288 323.5,-288 329.5,-288 335.5,-294 335.5,-300 335.5,-300 335.5,-312 335.5,-312 335.5,-318 329.5,-324 323.5,-324"/>
<text text-anchor="middle" x="271.5" y="-309" font-family="sans" font-size="10.00">download_sr</text>
<text text-anchor="middle" x="271.5" y="-298" font-family="sans" font-size="10.00">barcodes: SRR1965341</text>
</g>
<!-- 3&#45;&gt;2 -->
<g id="edge32" class="edge">
<title>3&#45;&gt;2</title>
<path fill="none" stroke="grey" stroke-width="2" d="M245.45,-287.87C206.61,-262.34 133.46,-214.25 90.15,-185.78"/>
<polygon fill="grey" stroke="grey" stroke-width="2" points="91.93,-182.76 81.65,-180.19 88.08,-188.61 91.93,-182.76"/>
</g>
<!-- 12 -->
<g id="node13" class="node">
<title>12</title>
<path fill="none" stroke="#59d856" stroke-width="2" stroke-dasharray="5,2" d="M228,-180C228,-180 141,-180 141,-180 135,-180 129,-174 129,-168 129,-168 129,-156 129,-156 129,-150 135,-144 141,-144 141,-144 228,-144 228,-144 234,-144 240,-150 240,-156 240,-156 240,-168 240,-168 240,-174 234,-180 228,-180"/>
<text text-anchor="middle" x="184.5" y="-165" font-family="sans" font-size="10.00">SPAdes_untrimmed</text>
<text text-anchor="middle" x="184.5" y="-154" font-family="sans" font-size="10.00">value_of_k: 55</text>
</g>
<!-- 3&#45;&gt;12 -->
<g id="edge37" class="edge">
<title>3&#45;&gt;12</title>
<path fill="none" stroke="grey" stroke-width="2" d="M261.01,-287.87C245.92,-263.24 217.98,-217.64 200.36,-188.88"/>
<polygon fill="grey" stroke="grey" stroke-width="2" points="203.24,-186.89 195.03,-180.19 197.27,-190.54 203.24,-186.89"/>
</g>
<!-- 17 -->
<g id="node18" class="node">
<title>17</title>
<path fill="none" stroke="#59d856" stroke-width="2" stroke-dasharray="5,2" d="M357,-180C357,-180 270,-180 270,-180 264,-180 258,-174 258,-168 258,-168 258,-156 258,-156 258,-150 264,-144 270,-144 270,-144 357,-144 357,-144 363,-144 369,-150 369,-156 369,-156 369,-168 369,-168 369,-174 363,-180 357,-180"/>
<text text-anchor="middle" x="313.5" y="-165" font-family="sans" font-size="10.00">SPAdes_untrimmed</text>
<text text-anchor="middle" x="313.5" y="-154" font-family="sans" font-size="10.00">value_of_k: auto</text>
</g>
<!-- 3&#45;&gt;17 -->
<g id="edge42" class="edge">
<title>3&#45;&gt;17</title>
<path fill="none" stroke="grey" stroke-width="2" d="M276.57,-287.87C283.76,-263.56 296.99,-218.82 305.51,-190.01"/>
<polygon fill="grey" stroke="grey" stroke-width="2" points="308.94,-190.77 308.42,-180.19 302.22,-188.79 308.94,-190.77"/>
</g>
<!-- 23 -->
<g id="node24" class="node">
<title>23</title>
<path fill="none" stroke="#afd856" stroke-width="2" stroke-dasharray="5,2" d="M479.5,-252C479.5,-252 399.5,-252 399.5,-252 393.5,-252 387.5,-246 387.5,-240 387.5,-240 387.5,-228 387.5,-228 387.5,-222 393.5,-216 399.5,-216 399.5,-216 479.5,-216 479.5,-216 485.5,-216 491.5,-222 491.5,-228 491.5,-228 491.5,-240 491.5,-240 491.5,-246 485.5,-252 479.5,-252"/>
<text text-anchor="middle" x="439.5" y="-231.5" font-family="sans" font-size="10.00">adapter_trimming</text>
</g>
<!-- 3&#45;&gt;23 -->
<g id="edge48" class="edge">
<title>3&#45;&gt;23</title>
<path fill="none" stroke="grey" stroke-width="2" d="M312.6,-287.88C335.67,-278.26 364.64,-266.19 389.07,-256.01"/>
<polygon fill="grey" stroke="grey" stroke-width="2" points="390.65,-259.15 398.54,-252.07 387.96,-252.68 390.65,-259.15"/>
</g>
<!-- 4 -->
<g id="node5" class="node">
<title>4</title>
<path fill="none" stroke="#59d856" stroke-width="2" stroke-dasharray="5,2" d="M624,-252C624,-252 537,-252 537,-252 531,-252 525,-246 525,-240 525,-240 525,-228 525,-228 525,-222 531,-216 537,-216 537,-216 624,-216 624,-216 630,-216 636,-222 636,-228 636,-228 636,-240 636,-240 636,-246 630,-252 624,-252"/>
<text text-anchor="middle" x="580.5" y="-237" font-family="sans" font-size="10.00">SPAdes_untrimmed</text>
<text text-anchor="middle" x="580.5" y="-226" font-family="sans" font-size="10.00">value_of_k: 31</text>
</g>
<!-- 4&#45;&gt;1 -->
<g id="edge3" class="edge">
<title>4&#45;&gt;1</title>
<path fill="none" stroke="grey" stroke-width="2" d="M636.09,-215.9C671.13,-204.59 712.65,-190.04 728.5,-180 747.62,-167.89 744.02,-153.63 764.5,-144 858.21,-99.94 1179.01,-92.5 1290.75,-91.25"/>
<polygon fill="grey" stroke="grey" stroke-width="2" points="1290.93,-94.75 1300.89,-91.15 1290.86,-87.75 1290.93,-94.75"/>
</g>
<!-- 5 -->
<g id="node6" class="node">
<title>5</title>
<path fill="none" stroke="#56a9d8" stroke-width="2" stroke-dasharray="5,2" d="M825.5,-324C825.5,-324 721.5,-324 721.5,-324 715.5,-324 709.5,-318 709.5,-312 709.5,-312 709.5,-300 709.5,-300 709.5,-294 715.5,-288 721.5,-288 721.5,-288 825.5,-288 825.5,-288 831.5,-288 837.5,-294 837.5,-300 837.5,-300 837.5,-312 837.5,-312 837.5,-318 831.5,-324 825.5,-324"/>
<text text-anchor="middle" x="773.5" y="-309" font-family="sans" font-size="10.00">download_sr</text>
<text text-anchor="middle" x="773.5" y="-298" font-family="sans" font-size="10.00">barcodes: SRR1968189</text>
</g>
<!-- 5&#45;&gt;4 -->
<g id="edge33" class="edge">
<title>5&#45;&gt;4</title>
<path fill="none" stroke="grey" stroke-width="2" d="M726.29,-287.88C699.43,-278.14 665.62,-265.87 637.32,-255.61"/>
<polygon fill="grey" stroke="grey" stroke-width="2" points="638.15,-252.19 627.56,-252.07 635.77,-258.77 638.15,-252.19"/>
</g>
<!-- 13 -->
<g id="node14" class="node">
<title>13</title>
<path fill="none" stroke="#59d856" stroke-width="2" stroke-dasharray="5,2" d="M753,-252C753,-252 666,-252 666,-252 660,-252 654,-246 654,-240 654,-240 654,-228 654,-228 654,-222 660,-216 666,-216 666,-216 753,-216 753,-216 759,-216 765,-222 765,-228 765,-228 765,-240 765,-240 765,-246 759,-252 753,-252"/>
<text text-anchor="middle" x="709.5" y="-237" font-family="sans" font-size="10.00">SPAdes_untrimmed</text>
<text text-anchor="middle" x="709.5" y="-226" font-family="sans" font-size="10.00">value_of_k: 55</text>
</g>
<!-- 5&#45;&gt;13 -->
<g id="edge38" class="edge">
<title>5&#45;&gt;13</title>
<path fill="none" stroke="grey" stroke-width="2" d="M757.68,-287.7C749.93,-279.22 740.46,-268.86 731.98,-259.58"/>
<polygon fill="grey" stroke="grey" stroke-width="2" points="734.47,-257.12 725.14,-252.1 729.3,-261.85 734.47,-257.12"/>
</g>
<!-- 18 -->
<g id="node19" class="node">
<title>18</title>
<path fill="none" stroke="#59d856" stroke-width="2" stroke-dasharray="5,2" d="M882,-252C882,-252 795,-252 795,-252 789,-252 783,-246 783,-240 783,-240 783,-228 783,-228 783,-222 789,-216 795,-216 795,-216 882,-216 882,-216 888,-216 894,-222 894,-228 894,-228 894,-240 894,-240 894,-246 888,-252 882,-252"/>
<text text-anchor="middle" x="838.5" y="-237" font-family="sans" font-size="10.00">SPAdes_untrimmed</text>
<text text-anchor="middle" x="838.5" y="-226" font-family="sans" font-size="10.00">value_of_k: auto</text>
</g>
<!-- 5&#45;&gt;18 -->
<g id="edge43" class="edge">
<title>5&#45;&gt;18</title>
<path fill="none" stroke="grey" stroke-width="2" d="M789.57,-287.7C797.44,-279.22 807.06,-268.86 815.67,-259.58"/>
<polygon fill="grey" stroke="grey" stroke-width="2" points="818.38,-261.81 822.62,-252.1 813.25,-257.05 818.38,-261.81"/>
</g>
<!-- 25 -->
<g id="node26" class="node">
<title>25</title>
<path fill="none" stroke="#afd856" stroke-width="2" stroke-dasharray="5,2" d="M1004.5,-252C1004.5,-252 924.5,-252 924.5,-252 918.5,-252 912.5,-246 912.5,-240 912.5,-240 912.5,-228 912.5,-228 912.5,-222 918.5,-216 924.5,-216 924.5,-216 1004.5,-216 1004.5,-216 1010.5,-216 1016.5,-222 1016.5,-228 1016.5,-228 1016.5,-240 1016.5,-240 1016.5,-246 1010.5,-252 1004.5,-252"/>
<text text-anchor="middle" x="964.5" y="-231.5" font-family="sans" font-size="10.00">adapter_trimming</text>
</g>
<!-- 5&#45;&gt;25 -->
<g id="edge50" class="edge">
<title>5&#45;&gt;25</title>
<path fill="none" stroke="grey" stroke-width="2" d="M820.22,-287.88C846.8,-278.14 880.26,-265.87 908.27,-255.61"/>
<polygon fill="grey" stroke="grey" stroke-width="2" points="909.74,-258.8 917.93,-252.07 907.33,-252.22 909.74,-258.8"/>
</g>
<!-- 6 -->
<g id="node7" class="node">
<title>6</title>
<path fill="none" stroke="#59d856" stroke-width="2" stroke-dasharray="5,2" d="M1134,-252C1134,-252 1047,-252 1047,-252 1041,-252 1035,-246 1035,-240 1035,-240 1035,-228 1035,-228 1035,-222 1041,-216 1047,-216 1047,-216 1134,-216 1134,-216 1140,-216 1146,-222 1146,-228 1146,-228 1146,-240 1146,-240 1146,-246 1140,-252 1134,-252"/>
<text text-anchor="middle" x="1090.5" y="-237" font-family="sans" font-size="10.00">SPAdes_untrimmed</text>
<text text-anchor="middle" x="1090.5" y="-226" font-family="sans" font-size="10.00">value_of_k: 31</text>
</g>
<!-- 6&#45;&gt;1 -->
<g id="edge4" class="edge">
<title>6&#45;&gt;1</title>
<path fill="none" stroke="grey" stroke-width="2" d="M1126.65,-215.82C1146.89,-205.88 1172.43,-192.84 1194.5,-180 1230.4,-159.1 1269.91,-132.63 1296.86,-114"/>
<polygon fill="grey" stroke="grey" stroke-width="2" points="1298.92,-116.83 1305.14,-108.25 1294.93,-111.08 1298.92,-116.83"/>
</g>
<!-- 7 -->
<g id="node8" class="node">
<title>7</title>
<path fill="none" stroke="#56a9d8" stroke-width="2" stroke-dasharray="5,2" d="M1335.5,-324C1335.5,-324 1231.5,-324 1231.5,-324 1225.5,-324 1219.5,-318 1219.5,-312 1219.5,-312 1219.5,-300 1219.5,-300 1219.5,-294 1225.5,-288 1231.5,-288 1231.5,-288 1335.5,-288 1335.5,-288 1341.5,-288 1347.5,-294 1347.5,-300 1347.5,-300 1347.5,-312 1347.5,-312 1347.5,-318 1341.5,-324 1335.5,-324"/>
<text text-anchor="middle" x="1283.5" y="-309" font-family="sans" font-size="10.00">download_sr</text>
<text text-anchor="middle" x="1283.5" y="-298" font-family="sans" font-size="10.00">barcodes: SRR7828287</text>
</g>
<!-- 7&#45;&gt;6 -->
<g id="edge34" class="edge">
<title>7&#45;&gt;6</title>
<path fill="none" stroke="grey" stroke-width="2" d="M1236.29,-287.88C1209.43,-278.14 1175.62,-265.87 1147.32,-255.61"/>
<polygon fill="grey" stroke="grey" stroke-width="2" points="1148.15,-252.19 1137.56,-252.07 1145.77,-258.77 1148.15,-252.19"/>
</g>
<!-- 14 -->
<g id="node15" class="node">
<title>14</title>
<path fill="none" stroke="#59d856" stroke-width="2" stroke-dasharray="5,2" d="M1263,-252C1263,-252 1176,-252 1176,-252 1170,-252 1164,-246 1164,-240 1164,-240 1164,-228 1164,-228 1164,-222 1170,-216 1176,-216 1176,-216 1263,-216 1263,-216 1269,-216 1275,-222 1275,-228 1275,-228 1275,-240 1275,-240 1275,-246 1269,-252 1263,-252"/>
<text text-anchor="middle" x="1219.5" y="-237" font-family="sans" font-size="10.00">SPAdes_untrimmed</text>
<text text-anchor="middle" x="1219.5" y="-226" font-family="sans" font-size="10.00">value_of_k: 55</text>
</g>
<!-- 7&#45;&gt;14 -->
<g id="edge39" class="edge">
<title>7&#45;&gt;14</title>
<path fill="none" stroke="grey" stroke-width="2" d="M1267.68,-287.7C1259.93,-279.22 1250.46,-268.86 1241.98,-259.58"/>
<polygon fill="grey" stroke="grey" stroke-width="2" points="1244.47,-257.12 1235.14,-252.1 1239.3,-261.85 1244.47,-257.12"/>
</g>
<!-- 19 -->
<g id="node20" class="node">
<title>19</title>
<path fill="none" stroke="#59d856" stroke-width="2" stroke-dasharray="5,2" d="M1392,-252C1392,-252 1305,-252 1305,-252 1299,-252 1293,-246 1293,-240 1293,-240 1293,-228 1293,-228 1293,-222 1299,-216 1305,-216 1305,-216 1392,-216 1392,-216 1398,-216 1404,-222 1404,-228 1404,-228 1404,-240 1404,-240 1404,-246 1398,-252 1392,-252"/>
<text text-anchor="middle" x="1348.5" y="-237" font-family="sans" font-size="10.00">SPAdes_untrimmed</text>
<text text-anchor="middle" x="1348.5" y="-226" font-family="sans" font-size="10.00">value_of_k: auto</text>
</g>
<!-- 7&#45;&gt;19 -->
<g id="edge44" class="edge">
<title>7&#45;&gt;19</title>
<path fill="none" stroke="grey" stroke-width="2" d="M1299.57,-287.7C1307.44,-279.22 1317.06,-268.86 1325.67,-259.58"/>
<polygon fill="grey" stroke="grey" stroke-width="2" points="1328.38,-261.81 1332.62,-252.1 1323.25,-257.05 1328.38,-261.81"/>
</g>
<!-- 27 -->
<g id="node28" class="node">
<title>27</title>
<path fill="none" stroke="#afd856" stroke-width="2" stroke-dasharray="5,2" d="M1514.5,-252C1514.5,-252 1434.5,-252 1434.5,-252 1428.5,-252 1422.5,-246 1422.5,-240 1422.5,-240 1422.5,-228 1422.5,-228 1422.5,-222 1428.5,-216 1434.5,-216 1434.5,-216 1514.5,-216 1514.5,-216 1520.5,-216 1526.5,-222 1526.5,-228 1526.5,-228 1526.5,-240 1526.5,-240 1526.5,-246 1520.5,-252 1514.5,-252"/>
<text text-anchor="middle" x="1474.5" y="-231.5" font-family="sans" font-size="10.00">adapter_trimming</text>
</g>
<!-- 7&#45;&gt;27 -->
<g id="edge52" class="edge">
<title>7&#45;&gt;27</title>
<path fill="none" stroke="grey" stroke-width="2" d="M1330.22,-287.88C1356.8,-278.14 1390.26,-265.87 1418.27,-255.61"/>
<polygon fill="grey" stroke="grey" stroke-width="2" points="1419.74,-258.8 1427.93,-252.07 1417.33,-252.22 1419.74,-258.8"/>
</g>
<!-- 8 -->
<g id="node9" class="node">
<title>8</title>
<path fill="none" stroke="#59d856" stroke-width="2" stroke-dasharray="5,2" d="M1644,-252C1644,-252 1557,-252 1557,-252 1551,-252 1545,-246 1545,-240 1545,-240 1545,-228 1545,-228 1545,-222 1551,-216 1557,-216 1557,-216 1644,-216 1644,-216 1650,-216 1656,-222 1656,-228 1656,-228 1656,-240 1656,-240 1656,-246 1650,-252 1644,-252"/>
<text text-anchor="middle" x="1600.5" y="-237" font-family="sans" font-size="10.00">SPAdes_untrimmed</text>
<text text-anchor="middle" x="1600.5" y="-226" font-family="sans" font-size="10.00">value_of_k: 31</text>
</g>
<!-- 8&#45;&gt;1 -->
<g id="edge5" class="edge">
<title>8&#45;&gt;1</title>
<path fill="none" stroke="grey" stroke-width="2" d="M1625.86,-215.79C1650.13,-197.24 1680.33,-167.26 1660.5,-144 1623.32,-100.4 1447.51,-92.52 1368.32,-91.2"/>
<polygon fill="grey" stroke="grey" stroke-width="2" points="1368.31,-87.7 1358.26,-91.06 1368.21,-94.7 1368.31,-87.7"/>
</g>
<!-- 9 -->
<g id="node10" class="node">
<title>9</title>
<path fill="none" stroke="#56a9d8" stroke-width="2" stroke-dasharray="5,2" d="M1845.5,-324C1845.5,-324 1741.5,-324 1741.5,-324 1735.5,-324 1729.5,-318 1729.5,-312 1729.5,-312 1729.5,-300 1729.5,-300 1729.5,-294 1735.5,-288 1741.5,-288 1741.5,-288 1845.5,-288 1845.5,-288 1851.5,-288 1857.5,-294 1857.5,-300 1857.5,-300 1857.5,-312 1857.5,-312 1857.5,-318 1851.5,-324 1845.5,-324"/>
<text text-anchor="middle" x="1793.5" y="-309" font-family="sans" font-size="10.00">download_sr</text>
<text text-anchor="middle" x="1793.5" y="-298" font-family="sans" font-size="10.00">barcodes: SRR2075991</text>
</g>
<!-- 9&#45;&gt;8 -->
<g id="edge35" class="edge">
<title>9&#45;&gt;8</title>
<path fill="none" stroke="grey" stroke-width="2" d="M1746.29,-287.88C1719.43,-278.14 1685.62,-265.87 1657.32,-255.61"/>
<polygon fill="grey" stroke="grey" stroke-width="2" points="1658.15,-252.19 1647.56,-252.07 1655.77,-258.77 1658.15,-252.19"/>
</g>
<!-- 15 -->
<g id="node16" class="node">
<title>15</title>
<path fill="none" stroke="#59d856" stroke-width="2" stroke-dasharray="5,2" d="M1773,-252C1773,-252 1686,-252 1686,-252 1680,-252 1674,-246 1674,-240 1674,-240 1674,-228 1674,-228 1674,-222 1680,-216 1686,-216 1686,-216 1773,-216 1773,-216 1779,-216 1785,-222 1785,-228 1785,-228 1785,-240 1785,-240 1785,-246 1779,-252 1773,-252"/>
<text text-anchor="middle" x="1729.5" y="-237" font-family="sans" font-size="10.00">SPAdes_untrimmed</text>
<text text-anchor="middle" x="1729.5" y="-226" font-family="sans" font-size="10.00">value_of_k: 55</text>
</g>
<!-- 9&#45;&gt;15 -->
<g id="edge40" class="edge">
<title>9&#45;&gt;15</title>
<path fill="none" stroke="grey" stroke-width="2" d="M1777.68,-287.7C1769.93,-279.22 1760.46,-268.86 1751.98,-259.58"/>
<polygon fill="grey" stroke="grey" stroke-width="2" points="1754.47,-257.12 1745.14,-252.1 1749.3,-261.85 1754.47,-257.12"/>
</g>
<!-- 20 -->
<g id="node21" class="node">
<title>20</title>
<path fill="none" stroke="#59d856" stroke-width="2" stroke-dasharray="5,2" d="M1902,-252C1902,-252 1815,-252 1815,-252 1809,-252 1803,-246 1803,-240 1803,-240 1803,-228 1803,-228 1803,-222 1809,-216 1815,-216 1815,-216 1902,-216 1902,-216 1908,-216 1914,-222 1914,-228 1914,-228 1914,-240 1914,-240 1914,-246 1908,-252 1902,-252"/>
<text text-anchor="middle" x="1858.5" y="-237" font-family="sans" font-size="10.00">SPAdes_untrimmed</text>
<text text-anchor="middle" x="1858.5" y="-226" font-family="sans" font-size="10.00">value_of_k: auto</text>
</g>
<!-- 9&#45;&gt;20 -->
<g id="edge45" class="edge">
<title>9&#45;&gt;20</title>
<path fill="none" stroke="grey" stroke-width="2" d="M1809.57,-287.7C1817.44,-279.22 1827.06,-268.86 1835.67,-259.58"/>
<polygon fill="grey" stroke="grey" stroke-width="2" points="1838.38,-261.81 1842.62,-252.1 1833.25,-257.05 1838.38,-261.81"/>
</g>
<!-- 29 -->
<g id="node30" class="node">
<title>29</title>
<path fill="none" stroke="#afd856" stroke-width="2" stroke-dasharray="5,2" d="M2024.5,-252C2024.5,-252 1944.5,-252 1944.5,-252 1938.5,-252 1932.5,-246 1932.5,-240 1932.5,-240 1932.5,-228 1932.5,-228 1932.5,-222 1938.5,-216 1944.5,-216 1944.5,-216 2024.5,-216 2024.5,-216 2030.5,-216 2036.5,-222 2036.5,-228 2036.5,-228 2036.5,-240 2036.5,-240 2036.5,-246 2030.5,-252 2024.5,-252"/>
<text text-anchor="middle" x="1984.5" y="-231.5" font-family="sans" font-size="10.00">adapter_trimming</text>
</g>
<!-- 9&#45;&gt;29 -->
<g id="edge54" class="edge">
<title>9&#45;&gt;29</title>
<path fill="none" stroke="grey" stroke-width="2" d="M1840.22,-287.88C1866.8,-278.14 1900.26,-265.87 1928.27,-255.61"/>
<polygon fill="grey" stroke="grey" stroke-width="2" points="1929.74,-258.8 1937.93,-252.07 1927.33,-252.22 1929.74,-258.8"/>
</g>
<!-- 10 -->
<g id="node11" class="node">
<title>10</title>
<path fill="none" stroke="#59d856" stroke-width="2" stroke-dasharray="5,2" d="M2154,-252C2154,-252 2067,-252 2067,-252 2061,-252 2055,-246 2055,-240 2055,-240 2055,-228 2055,-228 2055,-222 2061,-216 2067,-216 2067,-216 2154,-216 2154,-216 2160,-216 2166,-222 2166,-228 2166,-228 2166,-240 2166,-240 2166,-246 2160,-252 2154,-252"/>
<text text-anchor="middle" x="2110.5" y="-237" font-family="sans" font-size="10.00">SPAdes_untrimmed</text>
<text text-anchor="middle" x="2110.5" y="-226" font-family="sans" font-size="10.00">value_of_k: 31</text>
</g>
<!-- 10&#45;&gt;1 -->
<g id="edge6" class="edge">
<title>10&#45;&gt;1</title>
<path fill="none" stroke="grey" stroke-width="2" d="M2121.07,-215.86C2131.85,-195.95 2144.63,-163.37 2126.5,-144 2074.28,-88.19 1520.94,-89.2 1368.3,-90.55"/>
<polygon fill="grey" stroke="grey" stroke-width="2" points="1367.98,-87.06 1358.02,-90.65 1368.05,-94.06 1367.98,-87.06"/>
</g>
<!-- 11 -->
<g id="node12" class="node">
<title>11</title>
<path fill="none" stroke="#56a9d8" stroke-width="2" stroke-dasharray="5,2" d="M2355.5,-324C2355.5,-324 2251.5,-324 2251.5,-324 2245.5,-324 2239.5,-318 2239.5,-312 2239.5,-312 2239.5,-300 2239.5,-300 2239.5,-294 2245.5,-288 2251.5,-288 2251.5,-288 2355.5,-288 2355.5,-288 2361.5,-288 2367.5,-294 2367.5,-300 2367.5,-300 2367.5,-312 2367.5,-312 2367.5,-318 2361.5,-324 2355.5,-324"/>
<text text-anchor="middle" x="2303.5" y="-309" font-family="sans" font-size="10.00">download_sr</text>
<text text-anchor="middle" x="2303.5" y="-298" font-family="sans" font-size="10.00">barcodes: SRR5584993</text>
</g>
<!-- 11&#45;&gt;10 -->
<g id="edge36" class="edge">
<title>11&#45;&gt;10</title>
<path fill="none" stroke="grey" stroke-width="2" d="M2256.29,-287.88C2229.43,-278.14 2195.62,-265.87 2167.32,-255.61"/>
<polygon fill="grey" stroke="grey" stroke-width="2" points="2168.15,-252.19 2157.56,-252.07 2165.77,-258.77 2168.15,-252.19"/>
</g>
<!-- 16 -->
<g id="node17" class="node">
<title>16</title>
<path fill="none" stroke="#59d856" stroke-width="2" stroke-dasharray="5,2" d="M2283,-252C2283,-252 2196,-252 2196,-252 2190,-252 2184,-246 2184,-240 2184,-240 2184,-228 2184,-228 2184,-222 2190,-216 2196,-216 2196,-216 2283,-216 2283,-216 2289,-216 2295,-222 2295,-228 2295,-228 2295,-240 2295,-240 2295,-246 2289,-252 2283,-252"/>
<text text-anchor="middle" x="2239.5" y="-237" font-family="sans" font-size="10.00">SPAdes_untrimmed</text>
<text text-anchor="middle" x="2239.5" y="-226" font-family="sans" font-size="10.00">value_of_k: 55</text>
</g>
<!-- 11&#45;&gt;16 -->
<g id="edge41" class="edge">
<title>11&#45;&gt;16</title>
<path fill="none" stroke="grey" stroke-width="2" d="M2287.68,-287.7C2279.93,-279.22 2270.46,-268.86 2261.98,-259.58"/>
<polygon fill="grey" stroke="grey" stroke-width="2" points="2264.47,-257.12 2255.14,-252.1 2259.3,-261.85 2264.47,-257.12"/>
</g>
<!-- 21 -->
<g id="node22" class="node">
<title>21</title>
<path fill="none" stroke="#59d856" stroke-width="2" stroke-dasharray="5,2" d="M2412,-252C2412,-252 2325,-252 2325,-252 2319,-252 2313,-246 2313,-240 2313,-240 2313,-228 2313,-228 2313,-222 2319,-216 2325,-216 2325,-216 2412,-216 2412,-216 2418,-216 2424,-222 2424,-228 2424,-228 2424,-240 2424,-240 2424,-246 2418,-252 2412,-252"/>
<text text-anchor="middle" x="2368.5" y="-237" font-family="sans" font-size="10.00">SPAdes_untrimmed</text>
<text text-anchor="middle" x="2368.5" y="-226" font-family="sans" font-size="10.00">value_of_k: auto</text>
</g>
<!-- 11&#45;&gt;21 -->
<g id="edge46" class="edge">
<title>11&#45;&gt;21</title>
<path fill="none" stroke="grey" stroke-width="2" d="M2319.57,-287.7C2327.44,-279.22 2337.06,-268.86 2345.67,-259.58"/>
<polygon fill="grey" stroke="grey" stroke-width="2" points="2348.38,-261.81 2352.62,-252.1 2343.25,-257.05 2348.38,-261.81"/>
</g>
<!-- 31 -->
<g id="node32" class="node">
<title>31</title>
<path fill="none" stroke="#afd856" stroke-width="2" stroke-dasharray="5,2" d="M2534.5,-252C2534.5,-252 2454.5,-252 2454.5,-252 2448.5,-252 2442.5,-246 2442.5,-240 2442.5,-240 2442.5,-228 2442.5,-228 2442.5,-222 2448.5,-216 2454.5,-216 2454.5,-216 2534.5,-216 2534.5,-216 2540.5,-216 2546.5,-222 2546.5,-228 2546.5,-228 2546.5,-240 2546.5,-240 2546.5,-246 2540.5,-252 2534.5,-252"/>
<text text-anchor="middle" x="2494.5" y="-231.5" font-family="sans" font-size="10.00">adapter_trimming</text>
</g>
<!-- 11&#45;&gt;31 -->
<g id="edge56" class="edge">
<title>11&#45;&gt;31</title>
<path fill="none" stroke="grey" stroke-width="2" d="M2350.22,-287.88C2376.8,-278.14 2410.26,-265.87 2438.27,-255.61"/>
<polygon fill="grey" stroke="grey" stroke-width="2" points="2439.74,-258.8 2447.93,-252.07 2437.33,-252.22 2439.74,-258.8"/>
</g>
<!-- 12&#45;&gt;1 -->
<g id="edge7" class="edge">
<title>12&#45;&gt;1</title>
<path fill="none" stroke="grey" stroke-width="2" d="M240.2,-145.47C243,-144.92 245.77,-144.42 248.5,-144 455.49,-111.8 1121.95,-95.49 1290.49,-91.81"/>
<polygon fill="grey" stroke="grey" stroke-width="2" points="1290.72,-95.31 1300.64,-91.59 1290.56,-88.31 1290.72,-95.31"/>
</g>
<!-- 13&#45;&gt;1 -->
<g id="edge8" class="edge">
<title>13&#45;&gt;1</title>
<path fill="none" stroke="grey" stroke-width="2" d="M725.84,-215.77C746.91,-194.8 785.7,-160.19 826.5,-144 910.95,-110.5 1187.52,-96.53 1290.45,-92.4"/>
<polygon fill="grey" stroke="grey" stroke-width="2" points="1290.85,-95.89 1300.71,-92 1290.58,-88.9 1290.85,-95.89"/>
</g>
<!-- 14&#45;&gt;1 -->
<g id="edge9" class="edge">
<title>14&#45;&gt;1</title>
<path fill="none" stroke="grey" stroke-width="2" d="M1232.77,-215.87C1252.01,-191.03 1287.79,-144.85 1310.02,-116.14"/>
<polygon fill="grey" stroke="grey" stroke-width="2" points="1312.83,-118.24 1316.18,-108.19 1307.29,-113.95 1312.83,-118.24"/>
</g>
<!-- 15&#45;&gt;1 -->
<g id="edge10" class="edge">
<title>15&#45;&gt;1</title>
<path fill="none" stroke="grey" stroke-width="2" d="M1724.68,-215.77C1717.94,-195.14 1703.62,-161.21 1678.5,-144 1628.6,-109.82 1448.17,-96.84 1368.16,-92.69"/>
<polygon fill="grey" stroke="grey" stroke-width="2" points="1368.17,-89.18 1358.01,-92.18 1367.82,-96.18 1368.17,-89.18"/>
</g>
<!-- 16&#45;&gt;1 -->
<g id="edge11" class="edge">
<title>16&#45;&gt;1</title>
<path fill="none" stroke="grey" stroke-width="2" d="M2227.5,-215.9C2211.53,-194.73 2181.13,-159.55 2145.5,-144 2073.87,-112.74 1521.66,-96.04 1368.68,-91.98"/>
<polygon fill="grey" stroke="grey" stroke-width="2" points="1368.45,-88.48 1358.36,-91.71 1368.27,-95.48 1368.45,-88.48"/>
</g>
<!-- 17&#45;&gt;1 -->
<g id="edge12" class="edge">
<title>17&#45;&gt;1</title>
<path fill="none" stroke="grey" stroke-width="2" d="M369.2,-145.49C372,-144.93 374.78,-144.43 377.5,-144 558.08,-115.3 1135.98,-96.66 1290.95,-92.1"/>
<polygon fill="grey" stroke="grey" stroke-width="2" points="1291.06,-95.59 1300.95,-91.8 1290.86,-88.6 1291.06,-95.59"/>
</g>
<!-- 18&#45;&gt;1 -->
<g id="edge13" class="edge">
<title>18&#45;&gt;1</title>
<path fill="none" stroke="grey" stroke-width="2" d="M833.6,-215.72C829.09,-195.68 825.5,-162.97 843.5,-144 874.14,-111.71 1180.87,-96.75 1290.67,-92.4"/>
<polygon fill="grey" stroke="grey" stroke-width="2" points="1291.11,-95.89 1300.96,-92 1290.83,-88.89 1291.11,-95.89"/>
</g>
<!-- 19&#45;&gt;1 -->
<g id="edge14" class="edge">
<title>19&#45;&gt;1</title>
<path fill="none" stroke="grey" stroke-width="2" d="M1331.61,-215.99C1323.21,-206.31 1313.92,-193.46 1309.5,-180 1302.75,-159.43 1308.91,-135.46 1316.12,-117.57"/>
<polygon fill="grey" stroke="grey" stroke-width="2" points="1319.36,-118.89 1320.15,-108.33 1312.95,-116.09 1319.36,-118.89"/>
</g>
<!-- 20&#45;&gt;1 -->
<g id="edge15" class="edge">
<title>20&#45;&gt;1</title>
<path fill="none" stroke="grey" stroke-width="2" d="M1831.08,-215.93C1791.45,-191.38 1721.47,-148.55 1708.5,-144 1589.53,-102.29 1438.69,-93.29 1368.6,-91.43"/>
<polygon fill="grey" stroke="grey" stroke-width="2" points="1368.53,-87.93 1358.46,-91.2 1368.37,-94.93 1368.53,-87.93"/>
</g>
<!-- 21&#45;&gt;1 -->
<g id="edge16" class="edge">
<title>21&#45;&gt;1</title>
<path fill="none" stroke="grey" stroke-width="2" d="M2322.39,-215.92C2297.91,-206.32 2267.57,-193.55 2241.5,-180 2214.91,-166.18 2213.01,-153.21 2184.5,-144 2029.7,-93.97 1515.05,-90.74 1368.66,-90.86"/>
<polygon fill="grey" stroke="grey" stroke-width="2" points="1368.37,-87.36 1358.37,-90.88 1368.38,-94.36 1368.37,-87.36"/>
</g>
<!-- 22 -->
<g id="node23" class="node">
<title>22</title>
<path fill="none" stroke="#d85656" stroke-width="2" stroke-dasharray="5,2" d="M474,-180C474,-180 399,-180 399,-180 393,-180 387,-174 387,-168 387,-168 387,-156 387,-156 387,-150 393,-144 399,-144 399,-144 474,-144 474,-144 480,-144 486,-150 486,-156 486,-156 486,-168 486,-168 486,-174 480,-180 474,-180"/>
<text text-anchor="middle" x="436.5" y="-165" font-family="sans" font-size="10.00">SPAdes_trimmed</text>
<text text-anchor="middle" x="436.5" y="-154" font-family="sans" font-size="10.00">value_of_k: 31</text>
</g>
<!-- 22&#45;&gt;1 -->
<g id="edge17" class="edge">
<title>22&#45;&gt;1</title>
<path fill="none" stroke="grey" stroke-width="2" d="M486,-145.71C488.86,-145.07 491.71,-144.49 494.5,-144 797.58,-90.65 1170.88,-89.3 1290.61,-90.43"/>
<polygon fill="grey" stroke="grey" stroke-width="2" points="1290.72,-93.93 1300.75,-90.53 1290.79,-86.93 1290.72,-93.93"/>
</g>
<!-- 23&#45;&gt;22 -->
<g id="edge47" class="edge">
<title>23&#45;&gt;22</title>
<path fill="none" stroke="grey" stroke-width="2" d="M438.76,-215.7C438.43,-207.98 438.03,-198.71 437.66,-190.11"/>
<polygon fill="grey" stroke="grey" stroke-width="2" points="441.16,-189.95 437.23,-180.1 434.16,-190.25 441.16,-189.95"/>
</g>
<!-- 32 -->
<g id="node33" class="node">
<title>32</title>
<path fill="none" stroke="#d85656" stroke-width="2" stroke-dasharray="5,2" d="M591,-180C591,-180 516,-180 516,-180 510,-180 504,-174 504,-168 504,-168 504,-156 504,-156 504,-150 510,-144 516,-144 516,-144 591,-144 591,-144 597,-144 603,-150 603,-156 603,-156 603,-168 603,-168 603,-174 597,-180 591,-180"/>
<text text-anchor="middle" x="553.5" y="-165" font-family="sans" font-size="10.00">SPAdes_trimmed</text>
<text text-anchor="middle" x="553.5" y="-154" font-family="sans" font-size="10.00">value_of_k: 55</text>
</g>
<!-- 23&#45;&gt;32 -->
<g id="edge57" class="edge">
<title>23&#45;&gt;32</title>
<path fill="none" stroke="grey" stroke-width="2" d="M467.39,-215.88C482.29,-206.72 500.83,-195.34 516.88,-185.48"/>
<polygon fill="grey" stroke="grey" stroke-width="2" points="518.81,-188.41 525.51,-180.19 515.15,-182.44 518.81,-188.41"/>
</g>
<!-- 37 -->
<g id="node38" class="node">
<title>37</title>
<path fill="none" stroke="#d85656" stroke-width="2" stroke-dasharray="5,2" d="M708,-180C708,-180 633,-180 633,-180 627,-180 621,-174 621,-168 621,-168 621,-156 621,-156 621,-150 627,-144 633,-144 633,-144 708,-144 708,-144 714,-144 720,-150 720,-156 720,-156 720,-168 720,-168 720,-174 714,-180 708,-180"/>
<text text-anchor="middle" x="670.5" y="-165" font-family="sans" font-size="10.00">SPAdes_trimmed</text>
<text text-anchor="middle" x="670.5" y="-154" font-family="sans" font-size="10.00">value_of_k: auto</text>
</g>
<!-- 23&#45;&gt;37 -->
<g id="edge62" class="edge">
<title>23&#45;&gt;37</title>
<path fill="none" stroke="grey" stroke-width="2" d="M491.63,-217.2C527.18,-206.43 574.32,-192.15 611.29,-180.94"/>
<polygon fill="grey" stroke="grey" stroke-width="2" points="612.38,-184.27 620.94,-178.02 610.35,-177.57 612.38,-184.27"/>
</g>
<!-- 24 -->
<g id="node25" class="node">
<title>24</title>
<path fill="none" stroke="#d85656" stroke-width="2" stroke-dasharray="5,2" d="M940,-180C940,-180 865,-180 865,-180 859,-180 853,-174 853,-168 853,-168 853,-156 853,-156 853,-150 859,-144 865,-144 865,-144 940,-144 940,-144 946,-144 952,-150 952,-156 952,-156 952,-168 952,-168 952,-174 946,-180 940,-180"/>
<text text-anchor="middle" x="902.5" y="-165" font-family="sans" font-size="10.00">SPAdes_trimmed</text>
<text text-anchor="middle" x="902.5" y="-154" font-family="sans" font-size="10.00">value_of_k: 31</text>
</g>
<!-- 24&#45;&gt;1 -->
<g id="edge18" class="edge">
<title>24&#45;&gt;1</title>
<path fill="none" stroke="grey" stroke-width="2" d="M952.05,-145.97C954.9,-145.26 957.73,-144.6 960.5,-144 1079.37,-118.18 1222.59,-101.71 1290.33,-94.77"/>
<polygon fill="grey" stroke="grey" stroke-width="2" points="1290.95,-98.23 1300.54,-93.74 1290.24,-91.26 1290.95,-98.23"/>
</g>
<!-- 25&#45;&gt;24 -->
<g id="edge49" class="edge">
<title>25&#45;&gt;24</title>
<path fill="none" stroke="grey" stroke-width="2" d="M949.17,-215.7C941.74,-207.3 932.68,-197.07 924.52,-187.86"/>
<polygon fill="grey" stroke="grey" stroke-width="2" points="926.9,-185.27 917.65,-180.1 921.66,-189.91 926.9,-185.27"/>
</g>
<!-- 33 -->
<g id="node34" class="node">
<title>33</title>
<path fill="none" stroke="#d85656" stroke-width="2" stroke-dasharray="5,2" d="M1057,-180C1057,-180 982,-180 982,-180 976,-180 970,-174 970,-168 970,-168 970,-156 970,-156 970,-150 976,-144 982,-144 982,-144 1057,-144 1057,-144 1063,-144 1069,-150 1069,-156 1069,-156 1069,-168 1069,-168 1069,-174 1063,-180 1057,-180"/>
<text text-anchor="middle" x="1019.5" y="-165" font-family="sans" font-size="10.00">SPAdes_trimmed</text>
<text text-anchor="middle" x="1019.5" y="-154" font-family="sans" font-size="10.00">value_of_k: 55</text>
</g>
<!-- 25&#45;&gt;33 -->
<g id="edge58" class="edge">
<title>25&#45;&gt;33</title>
<path fill="none" stroke="grey" stroke-width="2" d="M978.1,-215.7C984.62,-207.39 992.57,-197.28 999.75,-188.14"/>
<polygon fill="grey" stroke="grey" stroke-width="2" points="1002.63,-190.13 1006.06,-180.1 997.13,-185.81 1002.63,-190.13"/>
</g>
<!-- 38 -->
<g id="node39" class="node">
<title>38</title>
<path fill="none" stroke="#d85656" stroke-width="2" stroke-dasharray="5,2" d="M1174,-180C1174,-180 1099,-180 1099,-180 1093,-180 1087,-174 1087,-168 1087,-168 1087,-156 1087,-156 1087,-150 1093,-144 1099,-144 1099,-144 1174,-144 1174,-144 1180,-144 1186,-150 1186,-156 1186,-156 1186,-168 1186,-168 1186,-174 1180,-180 1174,-180"/>
<text text-anchor="middle" x="1136.5" y="-165" font-family="sans" font-size="10.00">SPAdes_trimmed</text>
<text text-anchor="middle" x="1136.5" y="-154" font-family="sans" font-size="10.00">value_of_k: auto</text>
</g>
<!-- 25&#45;&gt;38 -->
<g id="edge63" class="edge">
<title>25&#45;&gt;38</title>
<path fill="none" stroke="grey" stroke-width="2" d="M1006.58,-215.88C1030.3,-206.22 1060.12,-194.09 1085.2,-183.88"/>
<polygon fill="grey" stroke="grey" stroke-width="2" points="1086.62,-187.08 1094.56,-180.07 1083.98,-180.6 1086.62,-187.08"/>
</g>
<!-- 26 -->
<g id="node27" class="node">
<title>26</title>
<path fill="none" stroke="#d85656" stroke-width="2" stroke-dasharray="5,2" d="M1406,-180C1406,-180 1331,-180 1331,-180 1325,-180 1319,-174 1319,-168 1319,-168 1319,-156 1319,-156 1319,-150 1325,-144 1331,-144 1331,-144 1406,-144 1406,-144 1412,-144 1418,-150 1418,-156 1418,-156 1418,-168 1418,-168 1418,-174 1412,-180 1406,-180"/>
<text text-anchor="middle" x="1368.5" y="-165" font-family="sans" font-size="10.00">SPAdes_trimmed</text>
<text text-anchor="middle" x="1368.5" y="-154" font-family="sans" font-size="10.00">value_of_k: 31</text>
</g>
<!-- 26&#45;&gt;1 -->
<g id="edge19" class="edge">
<title>26&#45;&gt;1</title>
<path fill="none" stroke="grey" stroke-width="2" d="M1358.86,-143.7C1354.37,-135.64 1348.94,-125.89 1343.98,-116.98"/>
<polygon fill="grey" stroke="grey" stroke-width="2" points="1346.95,-115.14 1339.03,-108.1 1340.84,-118.54 1346.95,-115.14"/>
</g>
<!-- 27&#45;&gt;26 -->
<g id="edge51" class="edge">
<title>27&#45;&gt;26</title>
<path fill="none" stroke="grey" stroke-width="2" d="M1448.57,-215.88C1434.84,-206.81 1417.79,-195.55 1402.96,-185.76"/>
<polygon fill="grey" stroke="grey" stroke-width="2" points="1404.8,-182.78 1394.53,-180.19 1400.95,-188.62 1404.8,-182.78"/>
</g>
<!-- 34 -->
<g id="node35" class="node">
<title>34</title>
<path fill="none" stroke="#d85656" stroke-width="2" stroke-dasharray="5,2" d="M1523,-180C1523,-180 1448,-180 1448,-180 1442,-180 1436,-174 1436,-168 1436,-168 1436,-156 1436,-156 1436,-150 1442,-144 1448,-144 1448,-144 1523,-144 1523,-144 1529,-144 1535,-150 1535,-156 1535,-156 1535,-168 1535,-168 1535,-174 1529,-180 1523,-180"/>
<text text-anchor="middle" x="1485.5" y="-165" font-family="sans" font-size="10.00">SPAdes_trimmed</text>
<text text-anchor="middle" x="1485.5" y="-154" font-family="sans" font-size="10.00">value_of_k: 55</text>
</g>
<!-- 27&#45;&gt;34 -->
<g id="edge59" class="edge">
<title>27&#45;&gt;34</title>
<path fill="none" stroke="grey" stroke-width="2" d="M1477.22,-215.7C1478.43,-207.98 1479.89,-198.71 1481.24,-190.11"/>
<polygon fill="grey" stroke="grey" stroke-width="2" points="1484.72,-190.53 1482.81,-180.1 1477.8,-189.44 1484.72,-190.53"/>
</g>
<!-- 39 -->
<g id="node40" class="node">
<title>39</title>
<path fill="none" stroke="#d85656" stroke-width="2" stroke-dasharray="5,2" d="M1640,-180C1640,-180 1565,-180 1565,-180 1559,-180 1553,-174 1553,-168 1553,-168 1553,-156 1553,-156 1553,-150 1559,-144 1565,-144 1565,-144 1640,-144 1640,-144 1646,-144 1652,-150 1652,-156 1652,-156 1652,-168 1652,-168 1652,-174 1646,-180 1640,-180"/>
<text text-anchor="middle" x="1602.5" y="-165" font-family="sans" font-size="10.00">SPAdes_trimmed</text>
<text text-anchor="middle" x="1602.5" y="-154" font-family="sans" font-size="10.00">value_of_k: auto</text>
</g>
<!-- 27&#45;&gt;39 -->
<g id="edge64" class="edge">
<title>27&#45;&gt;39</title>
<path fill="none" stroke="grey" stroke-width="2" d="M1505.81,-215.88C1522.7,-206.64 1543.75,-195.13 1561.88,-185.21"/>
<polygon fill="grey" stroke="grey" stroke-width="2" points="1563.97,-188.06 1571.07,-180.19 1560.61,-181.92 1563.97,-188.06"/>
</g>
<!-- 28 -->
<g id="node29" class="node">
<title>28</title>
<path fill="none" stroke="#d85656" stroke-width="2" stroke-dasharray="5,2" d="M1872,-180C1872,-180 1797,-180 1797,-180 1791,-180 1785,-174 1785,-168 1785,-168 1785,-156 1785,-156 1785,-150 1791,-144 1797,-144 1797,-144 1872,-144 1872,-144 1878,-144 1884,-150 1884,-156 1884,-156 1884,-168 1884,-168 1884,-174 1878,-180 1872,-180"/>
<text text-anchor="middle" x="1834.5" y="-165" font-family="sans" font-size="10.00">SPAdes_trimmed</text>
<text text-anchor="middle" x="1834.5" y="-154" font-family="sans" font-size="10.00">value_of_k: 31</text>
</g>
<!-- 28&#45;&gt;1 -->
<g id="edge20" class="edge">
<title>28&#45;&gt;1</title>
<path fill="none" stroke="grey" stroke-width="2" d="M1784.69,-147.05C1779.92,-145.93 1775.13,-144.89 1770.5,-144 1623.31,-115.75 1445.42,-99.85 1368.29,-93.83"/>
<polygon fill="grey" stroke="grey" stroke-width="2" points="1368.33,-90.32 1358.09,-93.04 1367.79,-97.3 1368.33,-90.32"/>
</g>
<!-- 29&#45;&gt;28 -->
<g id="edge53" class="edge">
<title>29&#45;&gt;28</title>
<path fill="none" stroke="grey" stroke-width="2" d="M1947.81,-215.88C1927.48,-206.39 1902.03,-194.51 1880.4,-184.42"/>
<polygon fill="grey" stroke="grey" stroke-width="2" points="1881.62,-181.13 1871.07,-180.07 1878.66,-187.47 1881.62,-181.13"/>
</g>
<!-- 35 -->
<g id="node36" class="node">
<title>35</title>
<path fill="none" stroke="#d85656" stroke-width="2" d="M1989,-180C1989,-180 1914,-180 1914,-180 1908,-180 1902,-174 1902,-168 1902,-168 1902,-156 1902,-156 1902,-150 1908,-144 1914,-144 1914,-144 1989,-144 1989,-144 1995,-144 2001,-150 2001,-156 2001,-156 2001,-168 2001,-168 2001,-174 1995,-180 1989,-180"/>
<text text-anchor="middle" x="1951.5" y="-165" font-family="sans" font-size="10.00">SPAdes_trimmed</text>
<text text-anchor="middle" x="1951.5" y="-154" font-family="sans" font-size="10.00">value_of_k: 55</text>
</g>
<!-- 29&#45;&gt;35 -->
<g id="edge60" class="edge">
<title>29&#45;&gt;35</title>
<path fill="none" stroke="grey" stroke-width="2" d="M1976.34,-215.7C1972.59,-207.73 1968.05,-198.1 1963.88,-189.26"/>
<polygon fill="grey" stroke="grey" stroke-width="2" points="1966.99,-187.66 1959.56,-180.1 1960.66,-190.64 1966.99,-187.66"/>
</g>
<!-- 40 -->
<g id="node41" class="node">
<title>40</title>
<path fill="none" stroke="#d85656" stroke-width="2" stroke-dasharray="5,2" d="M2106,-180C2106,-180 2031,-180 2031,-180 2025,-180 2019,-174 2019,-168 2019,-168 2019,-156 2019,-156 2019,-150 2025,-144 2031,-144 2031,-144 2106,-144 2106,-144 2112,-144 2118,-150 2118,-156 2118,-156 2118,-168 2118,-168 2118,-174 2112,-180 2106,-180"/>
<text text-anchor="middle" x="2068.5" y="-165" font-family="sans" font-size="10.00">SPAdes_trimmed</text>
<text text-anchor="middle" x="2068.5" y="-154" font-family="sans" font-size="10.00">value_of_k: auto</text>
</g>
<!-- 29&#45;&gt;40 -->
<g id="edge65" class="edge">
<title>29&#45;&gt;40</title>
<path fill="none" stroke="grey" stroke-width="2" d="M2005.26,-215.7C2015.74,-206.97 2028.61,-196.24 2040,-186.75"/>
<polygon fill="grey" stroke="grey" stroke-width="2" points="2042.53,-189.19 2047.97,-180.1 2038.05,-183.82 2042.53,-189.19"/>
</g>
<!-- 30 -->
<g id="node31" class="node">
<title>30</title>
<path fill="none" stroke="#d85656" stroke-width="2" stroke-dasharray="5,2" d="M2338,-180C2338,-180 2263,-180 2263,-180 2257,-180 2251,-174 2251,-168 2251,-168 2251,-156 2251,-156 2251,-150 2257,-144 2263,-144 2263,-144 2338,-144 2338,-144 2344,-144 2350,-150 2350,-156 2350,-156 2350,-168 2350,-168 2350,-174 2344,-180 2338,-180"/>
<text text-anchor="middle" x="2300.5" y="-165" font-family="sans" font-size="10.00">SPAdes_trimmed</text>
<text text-anchor="middle" x="2300.5" y="-154" font-family="sans" font-size="10.00">value_of_k: 31</text>
</g>
<!-- 30&#45;&gt;1 -->
<g id="edge21" class="edge">
<title>30&#45;&gt;1</title>
<path fill="none" stroke="grey" stroke-width="2" d="M2250.75,-146.75C2245.96,-145.69 2241.15,-144.75 2236.5,-144 1903.94,-90.67 1495.15,-89.43 1368.65,-90.49"/>
<polygon fill="grey" stroke="grey" stroke-width="2" points="1368.29,-86.99 1358.32,-90.59 1368.35,-93.99 1368.29,-86.99"/>
</g>
<!-- 31&#45;&gt;30 -->
<g id="edge55" class="edge">
<title>31&#45;&gt;30</title>
<path fill="none" stroke="grey" stroke-width="2" d="M2447.04,-215.88C2419.93,-206.09 2385.76,-193.77 2357.24,-183.47"/>
<polygon fill="grey" stroke="grey" stroke-width="2" points="2358.4,-180.17 2347.8,-180.07 2356.02,-186.75 2358.4,-180.17"/>
</g>
<!-- 36 -->
<g id="node37" class="node">
<title>36</title>
<path fill="none" stroke="#d85656" stroke-width="2" stroke-dasharray="5,2" d="M2455,-180C2455,-180 2380,-180 2380,-180 2374,-180 2368,-174 2368,-168 2368,-168 2368,-156 2368,-156 2368,-150 2374,-144 2380,-144 2380,-144 2455,-144 2455,-144 2461,-144 2467,-150 2467,-156 2467,-156 2467,-168 2467,-168 2467,-174 2461,-180 2455,-180"/>
<text text-anchor="middle" x="2417.5" y="-165" font-family="sans" font-size="10.00">SPAdes_trimmed</text>
<text text-anchor="middle" x="2417.5" y="-154" font-family="sans" font-size="10.00">value_of_k: 55</text>
</g>
<!-- 31&#45;&gt;36 -->
<g id="edge61" class="edge">
<title>31&#45;&gt;36</title>
<path fill="none" stroke="grey" stroke-width="2" d="M2475.47,-215.7C2465.96,-207.05 2454.29,-196.45 2443.93,-187.03"/>
<polygon fill="grey" stroke="grey" stroke-width="2" points="2446.07,-184.24 2436.31,-180.1 2441.36,-189.42 2446.07,-184.24"/>
</g>
<!-- 41 -->
<g id="node42" class="node">
<title>41</title>
<path fill="none" stroke="#d85656" stroke-width="2" stroke-dasharray="5,2" d="M2572,-180C2572,-180 2497,-180 2497,-180 2491,-180 2485,-174 2485,-168 2485,-168 2485,-156 2485,-156 2485,-150 2491,-144 2497,-144 2497,-144 2572,-144 2572,-144 2578,-144 2584,-150 2584,-156 2584,-156 2584,-168 2584,-168 2584,-174 2578,-180 2572,-180"/>
<text text-anchor="middle" x="2534.5" y="-165" font-family="sans" font-size="10.00">SPAdes_trimmed</text>
<text text-anchor="middle" x="2534.5" y="-154" font-family="sans" font-size="10.00">value_of_k: auto</text>
</g>
<!-- 31&#45;&gt;41 -->
<g id="edge66" class="edge">
<title>31&#45;&gt;41</title>
<path fill="none" stroke="grey" stroke-width="2" d="M2504.39,-215.7C2508.99,-207.64 2514.56,-197.89 2519.65,-188.98"/>
<polygon fill="grey" stroke="grey" stroke-width="2" points="2522.8,-190.52 2524.73,-180.1 2516.73,-187.05 2522.8,-190.52"/>
</g>
<!-- 32&#45;&gt;1 -->
<g id="edge22" class="edge">
<title>32&#45;&gt;1</title>
<path fill="none" stroke="grey" stroke-width="2" d="M603.01,-145.74C605.87,-145.09 608.71,-144.51 611.5,-144 867.7,-97.54 1182.37,-91.6 1290.71,-91"/>
<polygon fill="grey" stroke="grey" stroke-width="2" points="1290.85,-94.5 1300.84,-90.95 1290.82,-87.5 1290.85,-94.5"/>
</g>
<!-- 33&#45;&gt;1 -->
<g id="edge23" class="edge">
<title>33&#45;&gt;1</title>
<path fill="none" stroke="grey" stroke-width="2" d="M1069.1,-146.19C1071.94,-145.42 1074.75,-144.69 1077.5,-144 1152.59,-125.13 1241.41,-107.54 1291.02,-98.13"/>
<polygon fill="grey" stroke="grey" stroke-width="2" points="1291.81,-101.54 1300.99,-96.25 1290.52,-94.66 1291.81,-101.54"/>
</g>
<!-- 34&#45;&gt;1 -->
<g id="edge24" class="edge">
<title>34&#45;&gt;1</title>
<path fill="none" stroke="grey" stroke-width="2" d="M1447.34,-143.88C1423.13,-133.01 1391.92,-119.01 1367.71,-108.14"/>
<polygon fill="grey" stroke="grey" stroke-width="2" points="1369.02,-104.9 1358.47,-104 1366.16,-111.28 1369.02,-104.9"/>
</g>
<!-- 35&#45;&gt;1 -->
<g id="edge25" class="edge">
<title>35&#45;&gt;1</title>
<path fill="none" stroke="grey" stroke-width="2" d="M1901.76,-145.96C1898.64,-145.24 1895.54,-144.58 1892.5,-144 1697.88,-107.14 1460.32,-95.46 1368.4,-92.16"/>
<polygon fill="grey" stroke="grey" stroke-width="2" points="1368.29,-88.66 1358.18,-91.81 1368.05,-95.65 1368.29,-88.66"/>
</g>
<!-- 36&#45;&gt;1 -->
<g id="edge26" class="edge">
<title>36&#45;&gt;1</title>
<path fill="none" stroke="grey" stroke-width="2" d="M2367.79,-145.81C2364.66,-145.12 2361.55,-144.51 2358.5,-144 2162.56,-111.17 1531.96,-95.41 1368.5,-91.81"/>
<polygon fill="grey" stroke="grey" stroke-width="2" points="1368.49,-88.31 1358.41,-91.59 1368.34,-95.31 1368.49,-88.31"/>
</g>
<!-- 37&#45;&gt;1 -->
<g id="edge27" class="edge">
<title>37&#45;&gt;1</title>
<path fill="none" stroke="grey" stroke-width="2" d="M720.28,-146.9C725.06,-145.81 729.86,-144.82 734.5,-144 942.22,-107.44 1195.42,-95.52 1290.74,-92.16"/>
<polygon fill="grey" stroke="grey" stroke-width="2" points="1290.91,-95.66 1300.79,-91.82 1290.67,-88.66 1290.91,-95.66"/>
</g>
<!-- 38&#45;&gt;1 -->
<g id="edge28" class="edge">
<title>38&#45;&gt;1</title>
<path fill="none" stroke="grey" stroke-width="2" d="M1183.71,-143.88C1216.74,-131.9 1260.3,-116.1 1291.18,-104.9"/>
<polygon fill="grey" stroke="grey" stroke-width="2" points="1292.52,-108.13 1300.73,-101.43 1290.14,-101.55 1292.52,-108.13"/>
</g>
<!-- 39&#45;&gt;1 -->
<g id="edge29" class="edge">
<title>39&#45;&gt;1</title>
<path fill="none" stroke="grey" stroke-width="2" d="M1552.96,-146.58C1549.76,-145.69 1546.59,-144.83 1543.5,-144 1482.4,-127.64 1411.01,-110.32 1368.08,-100.09"/>
<polygon fill="grey" stroke="grey" stroke-width="2" points="1368.86,-96.68 1358.32,-97.77 1367.24,-103.49 1368.86,-96.68"/>
</g>
<!-- 40&#45;&gt;1 -->
<g id="edge30" class="edge">
<title>40&#45;&gt;1</title>
<path fill="none" stroke="grey" stroke-width="2" d="M2018.78,-145.9C2015.65,-145.2 2012.54,-144.55 2009.5,-144 1768.43,-100.34 1472.87,-92.63 1368.35,-91.28"/>
<polygon fill="grey" stroke="grey" stroke-width="2" points="1368.31,-87.78 1358.27,-91.17 1368.23,-94.78 1368.31,-87.78"/>
</g>
<!-- 41&#45;&gt;1 -->
<g id="edge31" class="edge">
<title>41&#45;&gt;1</title>
<path fill="none" stroke="grey" stroke-width="2" d="M2484.79,-145.79C2481.67,-145.11 2478.55,-144.5 2475.5,-144 2255.34,-107.71 1542.69,-94.34 1368.29,-91.57"/>
<polygon fill="grey" stroke="grey" stroke-width="2" points="1368.1,-88.07 1358.05,-91.41 1367.99,-95.07 1368.1,-88.07"/>
</g>
</g>
</svg>
