<?xml version="1.0" encoding="UTF-8" standalone="no"?>
<!DOCTYPE svg PUBLIC "-//W3C//DTD SVG 1.1//EN"
 "http://www.w3.org/Graphics/SVG/1.1/DTD/svg11.dtd">
<!-- Generated by graphviz version 2.49.0 (20210829.0051)
 -->
<!-- Title: snakemake_dag Pages: 1 -->
<svg width="2778pt" height="332pt"
 viewBox="0.00 0.00 2778.00 332.00" xmlns="http://www.w3.org/2000/svg" xmlns:xlink="http://www.w3.org/1999/xlink">
<g id="graph0" class="graph" transform="scale(1 1) rotate(0) translate(4 328)">
<title>snakemake_dag</title>
<polygon fill="white" stroke="transparent" points="-4,4 -4,-328 2774,-328 2774,4 -4,4"/>
<!-- 0 -->
<g id="node1" class="node">
<title>0</title>
<path fill="none" stroke="#59d856" stroke-width="2" d="M1425.5,-36C1425.5,-36 1395.5,-36 1395.5,-36 1389.5,-36 1383.5,-30 1383.5,-24 1383.5,-24 1383.5,-12 1383.5,-12 1383.5,-6 1389.5,0 1395.5,0 1395.5,0 1425.5,0 1425.5,0 1431.5,0 1437.5,-6 1437.5,-12 1437.5,-12 1437.5,-24 1437.5,-24 1437.5,-30 1431.5,-36 1425.5,-36"/>
<text text-anchor="middle" x="1410.5" y="-15.5" font-family="sans" font-size="10.00">all</text>
</g>
<!-- 1 -->
<g id="node2" class="node">
<title>1</title>
<path fill="none" stroke="#88d856" stroke-width="2" stroke-dasharray="5,2" d="M1385,-108C1385,-108 1352,-108 1352,-108 1346,-108 1340,-102 1340,-96 1340,-96 1340,-84 1340,-84 1340,-78 1346,-72 1352,-72 1352,-72 1385,-72 1385,-72 1391,-72 1397,-78 1397,-84 1397,-84 1397,-96 1397,-96 1397,-102 1391,-108 1385,-108"/>
<text text-anchor="middle" x="1368.5" y="-87.5" font-family="sans" font-size="10.00">analysis</text>
</g>
<!-- 1&#45;&gt;0 -->
<g id="edge1" class="edge">
<title>1&#45;&gt;0</title>
<path fill="none" stroke="grey" stroke-width="2" d="M1378.88,-71.7C1383.76,-63.56 1389.69,-53.69 1395.08,-44.7"/>
<polygon fill="grey" stroke="grey" stroke-width="2" points="1398.09,-46.48 1400.24,-36.1 1392.09,-42.88 1398.09,-46.48"/>
</g>
<!-- 2 -->
<g id="node3" class="node">
<title>2</title>
<path fill="none" stroke="#56c1d8" stroke-width="2" stroke-dasharray="5,2" d="M99,-180C99,-180 12,-180 12,-180 6,-180 0,-174 0,-168 0,-168 0,-156 0,-156 0,-150 6,-144 12,-144 12,-144 99,-144 99,-144 105,-144 111,-150 111,-156 111,-156 111,-168 111,-168 111,-174 105,-180 99,-180"/>
<text text-anchor="middle" x="55.5" y="-165" font-family="sans" font-size="10.00">SPAdes_untrimmed</text>
<text text-anchor="middle" x="55.5" y="-154" font-family="sans" font-size="10.00">value_of_k: 31</text>
</g>
<!-- 2&#45;&gt;1 -->
<g id="edge3" class="edge">
<title>2&#45;&gt;1</title>
<path fill="none" stroke="grey" stroke-width="2" d="M111.2,-145.44C113.99,-144.9 116.77,-144.42 119.5,-144 361.42,-107.19 1146.24,-94.1 1329.83,-91.51"/>
<polygon fill="grey" stroke="grey" stroke-width="2" points="1329.89,-95.01 1339.84,-91.37 1329.79,-88.01 1329.89,-95.01"/>
</g>
<!-- 3 -->
<g id="node4" class="node">
<title>3</title>
<path fill="none" stroke="#56d88a" stroke-width="2" stroke-dasharray="5,2" d="M323.5,-324C323.5,-324 219.5,-324 219.5,-324 213.5,-324 207.5,-318 207.5,-312 207.5,-312 207.5,-300 207.5,-300 207.5,-294 213.5,-288 219.5,-288 219.5,-288 323.5,-288 323.5,-288 329.5,-288 335.5,-294 335.5,-300 335.5,-300 335.5,-312 335.5,-312 335.5,-318 329.5,-324 323.5,-324"/>
<text text-anchor="middle" x="271.5" y="-309" font-family="sans" font-size="10.00">download_sr_paired</text>
<text text-anchor="middle" x="271.5" y="-298" font-family="sans" font-size="10.00">barcodes: SRR1965341</text>
</g>
<!-- 3&#45;&gt;2 -->
<g id="edge33" class="edge">
<title>3&#45;&gt;2</title>
<path fill="none" stroke="grey" stroke-width="2" d="M245.45,-287.87C206.61,-262.34 133.46,-214.25 90.15,-185.78"/>
<polygon fill="grey" stroke="grey" stroke-width="2" points="91.93,-182.76 81.65,-180.19 88.08,-188.61 91.93,-182.76"/>
</g>
<!-- 12 -->
<g id="node13" class="node">
<title>12</title>
<path fill="none" stroke="#56c1d8" stroke-width="2" stroke-dasharray="5,2" d="M228,-180C228,-180 141,-180 141,-180 135,-180 129,-174 129,-168 129,-168 129,-156 129,-156 129,-150 135,-144 141,-144 141,-144 228,-144 228,-144 234,-144 240,-150 240,-156 240,-156 240,-168 240,-168 240,-174 234,-180 228,-180"/>
<text text-anchor="middle" x="184.5" y="-165" font-family="sans" font-size="10.00">SPAdes_untrimmed</text>
<text text-anchor="middle" x="184.5" y="-154" font-family="sans" font-size="10.00">value_of_k: 55</text>
</g>
<!-- 3&#45;&gt;12 -->
<g id="edge38" class="edge">
<title>3&#45;&gt;12</title>
<path fill="none" stroke="grey" stroke-width="2" d="M261.01,-287.87C245.92,-263.24 217.98,-217.64 200.36,-188.88"/>
<polygon fill="grey" stroke="grey" stroke-width="2" points="203.24,-186.89 195.03,-180.19 197.27,-190.54 203.24,-186.89"/>
</g>
<!-- 17 -->
<g id="node18" class="node">
<title>17</title>
<path fill="none" stroke="#56c1d8" stroke-width="2" stroke-dasharray="5,2" d="M357,-180C357,-180 270,-180 270,-180 264,-180 258,-174 258,-168 258,-168 258,-156 258,-156 258,-150 264,-144 270,-144 270,-144 357,-144 357,-144 363,-144 369,-150 369,-156 369,-156 369,-168 369,-168 369,-174 363,-180 357,-180"/>
<text text-anchor="middle" x="313.5" y="-165" font-family="sans" font-size="10.00">SPAdes_untrimmed</text>
<text text-anchor="middle" x="313.5" y="-154" font-family="sans" font-size="10.00">value_of_k: auto</text>
</g>
<!-- 3&#45;&gt;17 -->
<g id="edge43" class="edge">
<title>3&#45;&gt;17</title>
<path fill="none" stroke="grey" stroke-width="2" d="M276.57,-287.87C283.76,-263.56 296.99,-218.82 305.51,-190.01"/>
<polygon fill="grey" stroke="grey" stroke-width="2" points="308.94,-190.77 308.42,-180.19 302.22,-188.79 308.94,-190.77"/>
</g>
<!-- 23 -->
<g id="node24" class="node">
<title>23</title>
<path fill="none" stroke="#568ad8" stroke-width="2" stroke-dasharray="5,2" d="M479.5,-252C479.5,-252 399.5,-252 399.5,-252 393.5,-252 387.5,-246 387.5,-240 387.5,-240 387.5,-228 387.5,-228 387.5,-222 393.5,-216 399.5,-216 399.5,-216 479.5,-216 479.5,-216 485.5,-216 491.5,-222 491.5,-228 491.5,-228 491.5,-240 491.5,-240 491.5,-246 485.5,-252 479.5,-252"/>
<text text-anchor="middle" x="439.5" y="-231.5" font-family="sans" font-size="10.00">adapter_trimming</text>
</g>
<!-- 3&#45;&gt;23 -->
<g id="edge49" class="edge">
<title>3&#45;&gt;23</title>
<path fill="none" stroke="grey" stroke-width="2" d="M312.6,-287.88C335.67,-278.26 364.64,-266.19 389.07,-256.01"/>
<polygon fill="grey" stroke="grey" stroke-width="2" points="390.65,-259.15 398.54,-252.07 387.96,-252.68 390.65,-259.15"/>
</g>
<!-- 4 -->
<g id="node5" class="node">
<title>4</title>
<path fill="none" stroke="#56c1d8" stroke-width="2" stroke-dasharray="5,2" d="M618,-252C618,-252 531,-252 531,-252 525,-252 519,-246 519,-240 519,-240 519,-228 519,-228 519,-222 525,-216 531,-216 531,-216 618,-216 618,-216 624,-216 630,-222 630,-228 630,-228 630,-240 630,-240 630,-246 624,-252 618,-252"/>
<text text-anchor="middle" x="574.5" y="-237" font-family="sans" font-size="10.00">SPAdes_untrimmed</text>
<text text-anchor="middle" x="574.5" y="-226" font-family="sans" font-size="10.00">value_of_k: 31</text>
</g>
<!-- 4&#45;&gt;1 -->
<g id="edge4" class="edge">
<title>4&#45;&gt;1</title>
<path fill="none" stroke="grey" stroke-width="2" d="M630.2,-216.4C666.99,-204.95 711.44,-190.04 728.5,-180 749.11,-167.86 746.57,-153.54 768.5,-144 869.85,-99.89 1212.96,-92.49 1329.44,-91.25"/>
<polygon fill="grey" stroke="grey" stroke-width="2" points="1329.71,-94.75 1339.67,-91.15 1329.64,-87.75 1329.71,-94.75"/>
</g>
<!-- 5 -->
<g id="node6" class="node">
<title>5</title>
<path fill="none" stroke="#56d88a" stroke-width="2" stroke-dasharray="5,2" d="M819.5,-324C819.5,-324 715.5,-324 715.5,-324 709.5,-324 703.5,-318 703.5,-312 703.5,-312 703.5,-300 703.5,-300 703.5,-294 709.5,-288 715.5,-288 715.5,-288 819.5,-288 819.5,-288 825.5,-288 831.5,-294 831.5,-300 831.5,-300 831.5,-312 831.5,-312 831.5,-318 825.5,-324 819.5,-324"/>
<text text-anchor="middle" x="767.5" y="-309" font-family="sans" font-size="10.00">download_sr_paired</text>
<text text-anchor="middle" x="767.5" y="-298" font-family="sans" font-size="10.00">barcodes: SRR1968189</text>
</g>
<!-- 5&#45;&gt;4 -->
<g id="edge34" class="edge">
<title>5&#45;&gt;4</title>
<path fill="none" stroke="grey" stroke-width="2" d="M720.29,-287.88C693.43,-278.14 659.62,-265.87 631.32,-255.61"/>
<polygon fill="grey" stroke="grey" stroke-width="2" points="632.15,-252.19 621.56,-252.07 629.77,-258.77 632.15,-252.19"/>
</g>
<!-- 13 -->
<g id="node14" class="node">
<title>13</title>
<path fill="none" stroke="#56c1d8" stroke-width="2" stroke-dasharray="5,2" d="M747,-252C747,-252 660,-252 660,-252 654,-252 648,-246 648,-240 648,-240 648,-228 648,-228 648,-222 654,-216 660,-216 660,-216 747,-216 747,-216 753,-216 759,-222 759,-228 759,-228 759,-240 759,-240 759,-246 753,-252 747,-252"/>
<text text-anchor="middle" x="703.5" y="-237" font-family="sans" font-size="10.00">SPAdes_untrimmed</text>
<text text-anchor="middle" x="703.5" y="-226" font-family="sans" font-size="10.00">value_of_k: 55</text>
</g>
<!-- 5&#45;&gt;13 -->
<g id="edge39" class="edge">
<title>5&#45;&gt;13</title>
<path fill="none" stroke="grey" stroke-width="2" d="M751.68,-287.7C743.93,-279.22 734.46,-268.86 725.98,-259.58"/>
<polygon fill="grey" stroke="grey" stroke-width="2" points="728.47,-257.12 719.14,-252.1 723.3,-261.85 728.47,-257.12"/>
</g>
<!-- 18 -->
<g id="node19" class="node">
<title>18</title>
<path fill="none" stroke="#56c1d8" stroke-width="2" stroke-dasharray="5,2" d="M876,-252C876,-252 789,-252 789,-252 783,-252 777,-246 777,-240 777,-240 777,-228 777,-228 777,-222 783,-216 789,-216 789,-216 876,-216 876,-216 882,-216 888,-222 888,-228 888,-228 888,-240 888,-240 888,-246 882,-252 876,-252"/>
<text text-anchor="middle" x="832.5" y="-237" font-family="sans" font-size="10.00">SPAdes_untrimmed</text>
<text text-anchor="middle" x="832.5" y="-226" font-family="sans" font-size="10.00">value_of_k: auto</text>
</g>
<!-- 5&#45;&gt;18 -->
<g id="edge44" class="edge">
<title>5&#45;&gt;18</title>
<path fill="none" stroke="grey" stroke-width="2" d="M783.57,-287.7C791.44,-279.22 801.06,-268.86 809.67,-259.58"/>
<polygon fill="grey" stroke="grey" stroke-width="2" points="812.38,-261.81 816.62,-252.1 807.25,-257.05 812.38,-261.81"/>
</g>
<!-- 25 -->
<g id="node26" class="node">
<title>25</title>
<path fill="none" stroke="#568ad8" stroke-width="2" stroke-dasharray="5,2" d="M998.5,-252C998.5,-252 918.5,-252 918.5,-252 912.5,-252 906.5,-246 906.5,-240 906.5,-240 906.5,-228 906.5,-228 906.5,-222 912.5,-216 918.5,-216 918.5,-216 998.5,-216 998.5,-216 1004.5,-216 1010.5,-222 1010.5,-228 1010.5,-228 1010.5,-240 1010.5,-240 1010.5,-246 1004.5,-252 998.5,-252"/>
<text text-anchor="middle" x="958.5" y="-231.5" font-family="sans" font-size="10.00">adapter_trimming</text>
</g>
<!-- 5&#45;&gt;25 -->
<g id="edge51" class="edge">
<title>5&#45;&gt;25</title>
<path fill="none" stroke="grey" stroke-width="2" d="M814.22,-287.88C840.8,-278.14 874.26,-265.87 902.27,-255.61"/>
<polygon fill="grey" stroke="grey" stroke-width="2" points="903.74,-258.8 911.93,-252.07 901.33,-252.22 903.74,-258.8"/>
</g>
<!-- 6 -->
<g id="node7" class="node">
<title>6</title>
<path fill="none" stroke="#56c1d8" stroke-width="2" stroke-dasharray="5,2" d="M1128,-252C1128,-252 1041,-252 1041,-252 1035,-252 1029,-246 1029,-240 1029,-240 1029,-228 1029,-228 1029,-222 1035,-216 1041,-216 1041,-216 1128,-216 1128,-216 1134,-216 1140,-222 1140,-228 1140,-228 1140,-240 1140,-240 1140,-246 1134,-252 1128,-252"/>
<text text-anchor="middle" x="1084.5" y="-237" font-family="sans" font-size="10.00">SPAdes_untrimmed</text>
<text text-anchor="middle" x="1084.5" y="-226" font-family="sans" font-size="10.00">value_of_k: 31</text>
</g>
<!-- 6&#45;&gt;1 -->
<g id="edge5" class="edge">
<title>6&#45;&gt;1</title>
<path fill="none" stroke="grey" stroke-width="2" d="M1121.77,-215.89C1143.45,-205.77 1171.2,-192.52 1195.5,-180 1224.86,-164.88 1231.22,-159.28 1260.5,-144 1283.62,-131.93 1309.88,-119.03 1330.72,-108.97"/>
<polygon fill="grey" stroke="grey" stroke-width="2" points="1332.39,-112.06 1339.88,-104.57 1329.35,-105.75 1332.39,-112.06"/>
</g>
<!-- 7 -->
<g id="node8" class="node">
<title>7</title>
<path fill="none" stroke="#56d88a" stroke-width="2" stroke-dasharray="5,2" d="M1329.5,-324C1329.5,-324 1225.5,-324 1225.5,-324 1219.5,-324 1213.5,-318 1213.5,-312 1213.5,-312 1213.5,-300 1213.5,-300 1213.5,-294 1219.5,-288 1225.5,-288 1225.5,-288 1329.5,-288 1329.5,-288 1335.5,-288 1341.5,-294 1341.5,-300 1341.5,-300 1341.5,-312 1341.5,-312 1341.5,-318 1335.5,-324 1329.5,-324"/>
<text text-anchor="middle" x="1277.5" y="-309" font-family="sans" font-size="10.00">download_sr_paired</text>
<text text-anchor="middle" x="1277.5" y="-298" font-family="sans" font-size="10.00">barcodes: SRR7828287</text>
</g>
<!-- 7&#45;&gt;6 -->
<g id="edge35" class="edge">
<title>7&#45;&gt;6</title>
<path fill="none" stroke="grey" stroke-width="2" d="M1230.29,-287.88C1203.43,-278.14 1169.62,-265.87 1141.32,-255.61"/>
<polygon fill="grey" stroke="grey" stroke-width="2" points="1142.15,-252.19 1131.56,-252.07 1139.77,-258.77 1142.15,-252.19"/>
</g>
<!-- 14 -->
<g id="node15" class="node">
<title>14</title>
<path fill="none" stroke="#56c1d8" stroke-width="2" stroke-dasharray="5,2" d="M1257,-252C1257,-252 1170,-252 1170,-252 1164,-252 1158,-246 1158,-240 1158,-240 1158,-228 1158,-228 1158,-222 1164,-216 1170,-216 1170,-216 1257,-216 1257,-216 1263,-216 1269,-222 1269,-228 1269,-228 1269,-240 1269,-240 1269,-246 1263,-252 1257,-252"/>
<text text-anchor="middle" x="1213.5" y="-237" font-family="sans" font-size="10.00">SPAdes_untrimmed</text>
<text text-anchor="middle" x="1213.5" y="-226" font-family="sans" font-size="10.00">value_of_k: 55</text>
</g>
<!-- 7&#45;&gt;14 -->
<g id="edge40" class="edge">
<title>7&#45;&gt;14</title>
<path fill="none" stroke="grey" stroke-width="2" d="M1261.68,-287.7C1253.93,-279.22 1244.46,-268.86 1235.98,-259.58"/>
<polygon fill="grey" stroke="grey" stroke-width="2" points="1238.47,-257.12 1229.14,-252.1 1233.3,-261.85 1238.47,-257.12"/>
</g>
<!-- 19 -->
<g id="node20" class="node">
<title>19</title>
<path fill="none" stroke="#56c1d8" stroke-width="2" stroke-dasharray="5,2" d="M1386,-252C1386,-252 1299,-252 1299,-252 1293,-252 1287,-246 1287,-240 1287,-240 1287,-228 1287,-228 1287,-222 1293,-216 1299,-216 1299,-216 1386,-216 1386,-216 1392,-216 1398,-222 1398,-228 1398,-228 1398,-240 1398,-240 1398,-246 1392,-252 1386,-252"/>
<text text-anchor="middle" x="1342.5" y="-237" font-family="sans" font-size="10.00">SPAdes_untrimmed</text>
<text text-anchor="middle" x="1342.5" y="-226" font-family="sans" font-size="10.00">value_of_k: auto</text>
</g>
<!-- 7&#45;&gt;19 -->
<g id="edge45" class="edge">
<title>7&#45;&gt;19</title>
<path fill="none" stroke="grey" stroke-width="2" d="M1293.57,-287.7C1301.44,-279.22 1311.06,-268.86 1319.67,-259.58"/>
<polygon fill="grey" stroke="grey" stroke-width="2" points="1322.38,-261.81 1326.62,-252.1 1317.25,-257.05 1322.38,-261.81"/>
</g>
<!-- 27 -->
<g id="node28" class="node">
<title>27</title>
<path fill="none" stroke="#568ad8" stroke-width="2" stroke-dasharray="5,2" d="M1508.5,-252C1508.5,-252 1428.5,-252 1428.5,-252 1422.5,-252 1416.5,-246 1416.5,-240 1416.5,-240 1416.5,-228 1416.5,-228 1416.5,-222 1422.5,-216 1428.5,-216 1428.5,-216 1508.5,-216 1508.5,-216 1514.5,-216 1520.5,-222 1520.5,-228 1520.5,-228 1520.5,-240 1520.5,-240 1520.5,-246 1514.5,-252 1508.5,-252"/>
<text text-anchor="middle" x="1468.5" y="-231.5" font-family="sans" font-size="10.00">adapter_trimming</text>
</g>
<!-- 7&#45;&gt;27 -->
<g id="edge53" class="edge">
<title>7&#45;&gt;27</title>
<path fill="none" stroke="grey" stroke-width="2" d="M1324.22,-287.88C1350.8,-278.14 1384.26,-265.87 1412.27,-255.61"/>
<polygon fill="grey" stroke="grey" stroke-width="2" points="1413.74,-258.8 1421.93,-252.07 1411.33,-252.22 1413.74,-258.8"/>
</g>
<!-- 8 -->
<g id="node9" class="node">
<title>8</title>
<path fill="none" stroke="#56c1d8" stroke-width="2" stroke-dasharray="5,2" d="M1638,-252C1638,-252 1551,-252 1551,-252 1545,-252 1539,-246 1539,-240 1539,-240 1539,-228 1539,-228 1539,-222 1545,-216 1551,-216 1551,-216 1638,-216 1638,-216 1644,-216 1650,-222 1650,-228 1650,-228 1650,-240 1650,-240 1650,-246 1644,-252 1638,-252"/>
<text text-anchor="middle" x="1594.5" y="-237" font-family="sans" font-size="10.00">SPAdes_untrimmed</text>
<text text-anchor="middle" x="1594.5" y="-226" font-family="sans" font-size="10.00">value_of_k: 31</text>
</g>
<!-- 8&#45;&gt;1 -->
<g id="edge6" class="edge">
<title>8&#45;&gt;1</title>
<path fill="none" stroke="grey" stroke-width="2" d="M1627.03,-215.98C1640.29,-207.18 1654.2,-195.09 1661.5,-180 1668.47,-165.6 1671.76,-156.28 1661.5,-144 1629.52,-105.71 1479.21,-95.03 1407.18,-92.09"/>
<polygon fill="grey" stroke="grey" stroke-width="2" points="1407.27,-88.59 1397.14,-91.71 1407.01,-95.59 1407.27,-88.59"/>
</g>
<!-- 9 -->
<g id="node10" class="node">
<title>9</title>
<path fill="none" stroke="#56d88a" stroke-width="2" stroke-dasharray="5,2" d="M1839.5,-324C1839.5,-324 1735.5,-324 1735.5,-324 1729.5,-324 1723.5,-318 1723.5,-312 1723.5,-312 1723.5,-300 1723.5,-300 1723.5,-294 1729.5,-288 1735.5,-288 1735.5,-288 1839.5,-288 1839.5,-288 1845.5,-288 1851.5,-294 1851.5,-300 1851.5,-300 1851.5,-312 1851.5,-312 1851.5,-318 1845.5,-324 1839.5,-324"/>
<text text-anchor="middle" x="1787.5" y="-309" font-family="sans" font-size="10.00">download_sr_paired</text>
<text text-anchor="middle" x="1787.5" y="-298" font-family="sans" font-size="10.00">barcodes: SRR2075991</text>
</g>
<!-- 9&#45;&gt;8 -->
<g id="edge36" class="edge">
<title>9&#45;&gt;8</title>
<path fill="none" stroke="grey" stroke-width="2" d="M1740.29,-287.88C1713.43,-278.14 1679.62,-265.87 1651.32,-255.61"/>
<polygon fill="grey" stroke="grey" stroke-width="2" points="1652.15,-252.19 1641.56,-252.07 1649.77,-258.77 1652.15,-252.19"/>
</g>
<!-- 15 -->
<g id="node16" class="node">
<title>15</title>
<path fill="none" stroke="#56c1d8" stroke-width="2" stroke-dasharray="5,2" d="M1767,-252C1767,-252 1680,-252 1680,-252 1674,-252 1668,-246 1668,-240 1668,-240 1668,-228 1668,-228 1668,-222 1674,-216 1680,-216 1680,-216 1767,-216 1767,-216 1773,-216 1779,-222 1779,-228 1779,-228 1779,-240 1779,-240 1779,-246 1773,-252 1767,-252"/>
<text text-anchor="middle" x="1723.5" y="-237" font-family="sans" font-size="10.00">SPAdes_untrimmed</text>
<text text-anchor="middle" x="1723.5" y="-226" font-family="sans" font-size="10.00">value_of_k: 55</text>
</g>
<!-- 9&#45;&gt;15 -->
<g id="edge41" class="edge">
<title>9&#45;&gt;15</title>
<path fill="none" stroke="grey" stroke-width="2" d="M1771.68,-287.7C1763.93,-279.22 1754.46,-268.86 1745.98,-259.58"/>
<polygon fill="grey" stroke="grey" stroke-width="2" points="1748.47,-257.12 1739.14,-252.1 1743.3,-261.85 1748.47,-257.12"/>
</g>
<!-- 20 -->
<g id="node21" class="node">
<title>20</title>
<path fill="none" stroke="#56c1d8" stroke-width="2" stroke-dasharray="5,2" d="M1896,-252C1896,-252 1809,-252 1809,-252 1803,-252 1797,-246 1797,-240 1797,-240 1797,-228 1797,-228 1797,-222 1803,-216 1809,-216 1809,-216 1896,-216 1896,-216 1902,-216 1908,-222 1908,-228 1908,-228 1908,-240 1908,-240 1908,-246 1902,-252 1896,-252"/>
<text text-anchor="middle" x="1852.5" y="-237" font-family="sans" font-size="10.00">SPAdes_untrimmed</text>
<text text-anchor="middle" x="1852.5" y="-226" font-family="sans" font-size="10.00">value_of_k: auto</text>
</g>
<!-- 9&#45;&gt;20 -->
<g id="edge46" class="edge">
<title>9&#45;&gt;20</title>
<path fill="none" stroke="grey" stroke-width="2" d="M1803.57,-287.7C1811.44,-279.22 1821.06,-268.86 1829.67,-259.58"/>
<polygon fill="grey" stroke="grey" stroke-width="2" points="1832.38,-261.81 1836.62,-252.1 1827.25,-257.05 1832.38,-261.81"/>
</g>
<!-- 29 -->
<g id="node30" class="node">
<title>29</title>
<path fill="none" stroke="#568ad8" stroke-width="2" stroke-dasharray="5,2" d="M2018.5,-252C2018.5,-252 1938.5,-252 1938.5,-252 1932.5,-252 1926.5,-246 1926.5,-240 1926.5,-240 1926.5,-228 1926.5,-228 1926.5,-222 1932.5,-216 1938.5,-216 1938.5,-216 2018.5,-216 2018.5,-216 2024.5,-216 2030.5,-222 2030.5,-228 2030.5,-228 2030.5,-240 2030.5,-240 2030.5,-246 2024.5,-252 2018.5,-252"/>
<text text-anchor="middle" x="1978.5" y="-231.5" font-family="sans" font-size="10.00">adapter_trimming</text>
</g>
<!-- 9&#45;&gt;29 -->
<g id="edge55" class="edge">
<title>9&#45;&gt;29</title>
<path fill="none" stroke="grey" stroke-width="2" d="M1834.22,-287.88C1860.8,-278.14 1894.26,-265.87 1922.27,-255.61"/>
<polygon fill="grey" stroke="grey" stroke-width="2" points="1923.74,-258.8 1931.93,-252.07 1921.33,-252.22 1923.74,-258.8"/>
</g>
<!-- 10 -->
<g id="node11" class="node">
<title>10</title>
<path fill="none" stroke="#56c1d8" stroke-width="2" stroke-dasharray="5,2" d="M2148,-252C2148,-252 2061,-252 2061,-252 2055,-252 2049,-246 2049,-240 2049,-240 2049,-228 2049,-228 2049,-222 2055,-216 2061,-216 2061,-216 2148,-216 2148,-216 2154,-216 2160,-222 2160,-228 2160,-228 2160,-240 2160,-240 2160,-246 2154,-252 2148,-252"/>
<text text-anchor="middle" x="2104.5" y="-237" font-family="sans" font-size="10.00">SPAdes_untrimmed</text>
<text text-anchor="middle" x="2104.5" y="-226" font-family="sans" font-size="10.00">value_of_k: 31</text>
</g>
<!-- 10&#45;&gt;1 -->
<g id="edge7" class="edge">
<title>10&#45;&gt;1</title>
<path fill="none" stroke="grey" stroke-width="2" d="M2117.04,-215.98C2129.98,-196.19 2145.89,-163.72 2127.5,-144 2078.07,-90.99 1555.49,-89.92 1407.41,-90.69"/>
<polygon fill="grey" stroke="grey" stroke-width="2" points="1407.39,-87.19 1397.41,-90.75 1407.43,-94.19 1407.39,-87.19"/>
</g>
<!-- 11 -->
<g id="node12" class="node">
<title>11</title>
<path fill="none" stroke="#56d88a" stroke-width="2" stroke-dasharray="5,2" d="M2349.5,-324C2349.5,-324 2245.5,-324 2245.5,-324 2239.5,-324 2233.5,-318 2233.5,-312 2233.5,-312 2233.5,-300 2233.5,-300 2233.5,-294 2239.5,-288 2245.5,-288 2245.5,-288 2349.5,-288 2349.5,-288 2355.5,-288 2361.5,-294 2361.5,-300 2361.5,-300 2361.5,-312 2361.5,-312 2361.5,-318 2355.5,-324 2349.5,-324"/>
<text text-anchor="middle" x="2297.5" y="-309" font-family="sans" font-size="10.00">download_sr_paired</text>
<text text-anchor="middle" x="2297.5" y="-298" font-family="sans" font-size="10.00">barcodes: SRR5584993</text>
</g>
<!-- 11&#45;&gt;10 -->
<g id="edge37" class="edge">
<title>11&#45;&gt;10</title>
<path fill="none" stroke="grey" stroke-width="2" d="M2250.29,-287.88C2223.43,-278.14 2189.62,-265.87 2161.32,-255.61"/>
<polygon fill="grey" stroke="grey" stroke-width="2" points="2162.15,-252.19 2151.56,-252.07 2159.77,-258.77 2162.15,-252.19"/>
</g>
<!-- 16 -->
<g id="node17" class="node">
<title>16</title>
<path fill="none" stroke="#56c1d8" stroke-width="2" stroke-dasharray="5,2" d="M2277,-252C2277,-252 2190,-252 2190,-252 2184,-252 2178,-246 2178,-240 2178,-240 2178,-228 2178,-228 2178,-222 2184,-216 2190,-216 2190,-216 2277,-216 2277,-216 2283,-216 2289,-222 2289,-228 2289,-228 2289,-240 2289,-240 2289,-246 2283,-252 2277,-252"/>
<text text-anchor="middle" x="2233.5" y="-237" font-family="sans" font-size="10.00">SPAdes_untrimmed</text>
<text text-anchor="middle" x="2233.5" y="-226" font-family="sans" font-size="10.00">value_of_k: 55</text>
</g>
<!-- 11&#45;&gt;16 -->
<g id="edge42" class="edge">
<title>11&#45;&gt;16</title>
<path fill="none" stroke="grey" stroke-width="2" d="M2281.68,-287.7C2273.93,-279.22 2264.46,-268.86 2255.98,-259.58"/>
<polygon fill="grey" stroke="grey" stroke-width="2" points="2258.47,-257.12 2249.14,-252.1 2253.3,-261.85 2258.47,-257.12"/>
</g>
<!-- 21 -->
<g id="node22" class="node">
<title>21</title>
<path fill="none" stroke="#56c1d8" stroke-width="2" stroke-dasharray="5,2" d="M2406,-252C2406,-252 2319,-252 2319,-252 2313,-252 2307,-246 2307,-240 2307,-240 2307,-228 2307,-228 2307,-222 2313,-216 2319,-216 2319,-216 2406,-216 2406,-216 2412,-216 2418,-222 2418,-228 2418,-228 2418,-240 2418,-240 2418,-246 2412,-252 2406,-252"/>
<text text-anchor="middle" x="2362.5" y="-237" font-family="sans" font-size="10.00">SPAdes_untrimmed</text>
<text text-anchor="middle" x="2362.5" y="-226" font-family="sans" font-size="10.00">value_of_k: auto</text>
</g>
<!-- 11&#45;&gt;21 -->
<g id="edge47" class="edge">
<title>11&#45;&gt;21</title>
<path fill="none" stroke="grey" stroke-width="2" d="M2313.57,-287.7C2321.44,-279.22 2331.06,-268.86 2339.67,-259.58"/>
<polygon fill="grey" stroke="grey" stroke-width="2" points="2342.38,-261.81 2346.62,-252.1 2337.25,-257.05 2342.38,-261.81"/>
</g>
<!-- 31 -->
<g id="node32" class="node">
<title>31</title>
<path fill="none" stroke="#568ad8" stroke-width="2" stroke-dasharray="5,2" d="M2528.5,-252C2528.5,-252 2448.5,-252 2448.5,-252 2442.5,-252 2436.5,-246 2436.5,-240 2436.5,-240 2436.5,-228 2436.5,-228 2436.5,-222 2442.5,-216 2448.5,-216 2448.5,-216 2528.5,-216 2528.5,-216 2534.5,-216 2540.5,-222 2540.5,-228 2540.5,-228 2540.5,-240 2540.5,-240 2540.5,-246 2534.5,-252 2528.5,-252"/>
<text text-anchor="middle" x="2488.5" y="-231.5" font-family="sans" font-size="10.00">adapter_trimming</text>
</g>
<!-- 11&#45;&gt;31 -->
<g id="edge57" class="edge">
<title>11&#45;&gt;31</title>
<path fill="none" stroke="grey" stroke-width="2" d="M2344.22,-287.88C2370.8,-278.14 2404.26,-265.87 2432.27,-255.61"/>
<polygon fill="grey" stroke="grey" stroke-width="2" points="2433.74,-258.8 2441.93,-252.07 2431.33,-252.22 2433.74,-258.8"/>
</g>
<!-- 12&#45;&gt;1 -->
<g id="edge8" class="edge">
<title>12&#45;&gt;1</title>
<path fill="none" stroke="grey" stroke-width="2" d="M240.2,-145.46C243,-144.91 245.77,-144.42 248.5,-144 463.66,-110.72 1157.95,-95.13 1329.77,-91.73"/>
<polygon fill="grey" stroke="grey" stroke-width="2" points="1329.93,-95.23 1339.86,-91.53 1329.8,-88.23 1329.93,-95.23"/>
</g>
<!-- 13&#45;&gt;1 -->
<g id="edge9" class="edge">
<title>13&#45;&gt;1</title>
<path fill="none" stroke="grey" stroke-width="2" d="M723.84,-215.95C752.23,-192.53 802.7,-152.35 824.5,-144 917.12,-108.54 1221.2,-95.65 1329.65,-92.12"/>
<polygon fill="grey" stroke="grey" stroke-width="2" points="1329.93,-95.61 1339.82,-91.79 1329.71,-88.61 1329.93,-95.61"/>
</g>
<!-- 14&#45;&gt;1 -->
<g id="edge10" class="edge">
<title>14&#45;&gt;1</title>
<path fill="none" stroke="grey" stroke-width="2" d="M1229.7,-215.71C1247.15,-197.36 1275.98,-167.78 1302.5,-144 1313.77,-133.89 1326.65,-123.34 1338.03,-114.34"/>
<polygon fill="grey" stroke="grey" stroke-width="2" points="1340.3,-117.01 1346,-108.08 1335.98,-111.5 1340.3,-117.01"/>
</g>
<!-- 15&#45;&gt;1 -->
<g id="edge11" class="edge">
<title>15&#45;&gt;1</title>
<path fill="none" stroke="grey" stroke-width="2" d="M1719.79,-215.9C1714.4,-195.39 1702.32,-161.59 1678.5,-144 1636.01,-112.63 1480.66,-98.4 1407.33,-93.33"/>
<polygon fill="grey" stroke="grey" stroke-width="2" points="1407.34,-89.82 1397.13,-92.64 1406.87,-96.8 1407.34,-89.82"/>
</g>
<!-- 16&#45;&gt;1 -->
<g id="edge12" class="edge">
<title>16&#45;&gt;1</title>
<path fill="none" stroke="grey" stroke-width="2" d="M2222.52,-215.94C2207.85,-194.8 2179.68,-159.66 2145.5,-144 2078.12,-113.13 1556.17,-96.26 1407.75,-92.05"/>
<polygon fill="grey" stroke="grey" stroke-width="2" points="1407.41,-88.54 1397.32,-91.76 1407.22,-95.54 1407.41,-88.54"/>
</g>
<!-- 17&#45;&gt;1 -->
<g id="edge13" class="edge">
<title>17&#45;&gt;1</title>
<path fill="none" stroke="grey" stroke-width="2" d="M369.2,-145.48C372,-144.93 374.77,-144.43 377.5,-144 565.91,-114.27 1169.72,-96.32 1329.44,-92.01"/>
<polygon fill="grey" stroke="grey" stroke-width="2" points="1329.83,-95.5 1339.73,-91.74 1329.64,-88.51 1329.83,-95.5"/>
</g>
<!-- 18&#45;&gt;1 -->
<g id="edge14" class="edge">
<title>18&#45;&gt;1</title>
<path fill="none" stroke="grey" stroke-width="2" d="M828.98,-215.88C825.94,-195.68 824.58,-162.5 843.5,-144 878.16,-110.11 1214.34,-96.03 1329.8,-92.17"/>
<polygon fill="grey" stroke="grey" stroke-width="2" points="1330.07,-95.66 1339.95,-91.84 1329.84,-88.67 1330.07,-95.66"/>
</g>
<!-- 19&#45;&gt;1 -->
<g id="edge15" class="edge">
<title>19&#45;&gt;1</title>
<path fill="none" stroke="grey" stroke-width="2" d="M1328.62,-215.99C1315.63,-197.88 1299.7,-168.49 1310.5,-144 1315.49,-132.69 1324.21,-122.74 1333.4,-114.62"/>
<polygon fill="grey" stroke="grey" stroke-width="2" points="1335.67,-117.28 1341.16,-108.23 1331.22,-111.88 1335.67,-117.28"/>
</g>
<!-- 20&#45;&gt;1 -->
<g id="edge16" class="edge">
<title>20&#45;&gt;1</title>
<path fill="none" stroke="grey" stroke-width="2" d="M1827.12,-215.98C1792.11,-192.8 1730.51,-153.14 1705.5,-144 1602.21,-106.27 1471.49,-95.39 1407.45,-92.26"/>
<polygon fill="grey" stroke="grey" stroke-width="2" points="1407.54,-88.76 1397.39,-91.81 1407.22,-95.75 1407.54,-88.76"/>
</g>
<!-- 21&#45;&gt;1 -->
<g id="edge17" class="edge">
<title>21&#45;&gt;1</title>
<path fill="none" stroke="grey" stroke-width="2" d="M2320.53,-215.98C2297.21,-206.15 2267.88,-193.15 2242.5,-180 2214.89,-165.69 2212.18,-153.27 2182.5,-144 2035.27,-98.02 1549.26,-91.91 1407.58,-91.12"/>
<polygon fill="grey" stroke="grey" stroke-width="2" points="1407.24,-87.62 1397.22,-91.06 1407.21,-94.61 1407.24,-87.62"/>
</g>
<!-- 22 -->
<g id="node23" class="node">
<title>22</title>
<path fill="none" stroke="#d88d56" stroke-width="2" stroke-dasharray="5,2" d="M474,-180C474,-180 399,-180 399,-180 393,-180 387,-174 387,-168 387,-168 387,-156 387,-156 387,-150 393,-144 399,-144 399,-144 474,-144 474,-144 480,-144 486,-150 486,-156 486,-156 486,-168 486,-168 486,-174 480,-180 474,-180"/>
<text text-anchor="middle" x="436.5" y="-165" font-family="sans" font-size="10.00">SPAdes_trimmed</text>
<text text-anchor="middle" x="436.5" y="-154" font-family="sans" font-size="10.00">value_of_k: 31</text>
</g>
<!-- 22&#45;&gt;1 -->
<g id="edge18" class="edge">
<title>22&#45;&gt;1</title>
<path fill="none" stroke="grey" stroke-width="2" d="M486,-145.7C488.86,-145.06 491.71,-144.49 494.5,-144 658.49,-115.37 1181.61,-96.93 1329.32,-92.21"/>
<polygon fill="grey" stroke="grey" stroke-width="2" points="1329.81,-95.69 1339.69,-91.88 1329.59,-88.7 1329.81,-95.69"/>
</g>
<!-- 23&#45;&gt;22 -->
<g id="edge48" class="edge">
<title>23&#45;&gt;22</title>
<path fill="none" stroke="grey" stroke-width="2" d="M438.76,-215.7C438.43,-207.98 438.03,-198.71 437.66,-190.11"/>
<polygon fill="grey" stroke="grey" stroke-width="2" points="441.16,-189.95 437.23,-180.1 434.16,-190.25 441.16,-189.95"/>
</g>
<!-- 32 -->
<g id="node33" class="node">
<title>32</title>
<path fill="none" stroke="#d88d56" stroke-width="2" stroke-dasharray="5,2" d="M591,-180C591,-180 516,-180 516,-180 510,-180 504,-174 504,-168 504,-168 504,-156 504,-156 504,-150 510,-144 516,-144 516,-144 591,-144 591,-144 597,-144 603,-150 603,-156 603,-156 603,-168 603,-168 603,-174 597,-180 591,-180"/>
<text text-anchor="middle" x="553.5" y="-165" font-family="sans" font-size="10.00">SPAdes_trimmed</text>
<text text-anchor="middle" x="553.5" y="-154" font-family="sans" font-size="10.00">value_of_k: 55</text>
</g>
<!-- 23&#45;&gt;32 -->
<g id="edge58" class="edge">
<title>23&#45;&gt;32</title>
<path fill="none" stroke="grey" stroke-width="2" d="M467.39,-215.88C482.29,-206.72 500.83,-195.34 516.88,-185.48"/>
<polygon fill="grey" stroke="grey" stroke-width="2" points="518.81,-188.41 525.51,-180.19 515.15,-182.44 518.81,-188.41"/>
</g>
<!-- 37 -->
<g id="node38" class="node">
<title>37</title>
<path fill="none" stroke="#d88d56" stroke-width="2" stroke-dasharray="5,2" d="M708,-180C708,-180 633,-180 633,-180 627,-180 621,-174 621,-168 621,-168 621,-156 621,-156 621,-150 627,-144 633,-144 633,-144 708,-144 708,-144 714,-144 720,-150 720,-156 720,-156 720,-168 720,-168 720,-174 714,-180 708,-180"/>
<text text-anchor="middle" x="670.5" y="-165" font-family="sans" font-size="10.00">SPAdes_trimmed</text>
<text text-anchor="middle" x="670.5" y="-154" font-family="sans" font-size="10.00">value_of_k: auto</text>
</g>
<!-- 23&#45;&gt;37 -->
<g id="edge63" class="edge">
<title>23&#45;&gt;37</title>
<path fill="none" stroke="grey" stroke-width="2" d="M491.63,-217.2C527.18,-206.43 574.32,-192.15 611.29,-180.94"/>
<polygon fill="grey" stroke="grey" stroke-width="2" points="612.38,-184.27 620.94,-178.02 610.35,-177.57 612.38,-184.27"/>
</g>
<!-- 24 -->
<g id="node25" class="node">
<title>24</title>
<path fill="none" stroke="#d88d56" stroke-width="2" stroke-dasharray="5,2" d="M940,-180C940,-180 865,-180 865,-180 859,-180 853,-174 853,-168 853,-168 853,-156 853,-156 853,-150 859,-144 865,-144 865,-144 940,-144 940,-144 946,-144 952,-150 952,-156 952,-156 952,-168 952,-168 952,-174 946,-180 940,-180"/>
<text text-anchor="middle" x="902.5" y="-165" font-family="sans" font-size="10.00">SPAdes_trimmed</text>
<text text-anchor="middle" x="902.5" y="-154" font-family="sans" font-size="10.00">value_of_k: 31</text>
</g>
<!-- 24&#45;&gt;1 -->
<g id="edge19" class="edge">
<title>24&#45;&gt;1</title>
<path fill="none" stroke="grey" stroke-width="2" d="M952.04,-145.93C954.89,-145.23 957.73,-144.58 960.5,-144 1094.42,-115.86 1256.39,-100.15 1329.43,-94.03"/>
<polygon fill="grey" stroke="grey" stroke-width="2" points="1329.87,-97.51 1339.55,-93.2 1329.3,-90.53 1329.87,-97.51"/>
</g>
<!-- 25&#45;&gt;24 -->
<g id="edge50" class="edge">
<title>25&#45;&gt;24</title>
<path fill="none" stroke="grey" stroke-width="2" d="M944.66,-215.7C938.01,-207.39 929.92,-197.28 922.61,-188.14"/>
<polygon fill="grey" stroke="grey" stroke-width="2" points="925.16,-185.73 916.18,-180.1 919.7,-190.1 925.16,-185.73"/>
</g>
<!-- 33 -->
<g id="node34" class="node">
<title>33</title>
<path fill="none" stroke="#d88d56" stroke-width="2" stroke-dasharray="5,2" d="M1057,-180C1057,-180 982,-180 982,-180 976,-180 970,-174 970,-168 970,-168 970,-156 970,-156 970,-150 976,-144 982,-144 982,-144 1057,-144 1057,-144 1063,-144 1069,-150 1069,-156 1069,-156 1069,-168 1069,-168 1069,-174 1063,-180 1057,-180"/>
<text text-anchor="middle" x="1019.5" y="-165" font-family="sans" font-size="10.00">SPAdes_trimmed</text>
<text text-anchor="middle" x="1019.5" y="-154" font-family="sans" font-size="10.00">value_of_k: 55</text>
</g>
<!-- 25&#45;&gt;33 -->
<g id="edge59" class="edge">
<title>25&#45;&gt;33</title>
<path fill="none" stroke="grey" stroke-width="2" d="M973.58,-215.7C980.89,-207.3 989.81,-197.07 997.84,-187.86"/>
<polygon fill="grey" stroke="grey" stroke-width="2" points="1000.66,-189.94 1004.59,-180.1 995.39,-185.34 1000.66,-189.94"/>
</g>
<!-- 38 -->
<g id="node39" class="node">
<title>38</title>
<path fill="none" stroke="#d88d56" stroke-width="2" stroke-dasharray="5,2" d="M1174,-180C1174,-180 1099,-180 1099,-180 1093,-180 1087,-174 1087,-168 1087,-168 1087,-156 1087,-156 1087,-150 1093,-144 1099,-144 1099,-144 1174,-144 1174,-144 1180,-144 1186,-150 1186,-156 1186,-156 1186,-168 1186,-168 1186,-174 1180,-180 1174,-180"/>
<text text-anchor="middle" x="1136.5" y="-165" font-family="sans" font-size="10.00">SPAdes_trimmed</text>
<text text-anchor="middle" x="1136.5" y="-154" font-family="sans" font-size="10.00">value_of_k: auto</text>
</g>
<!-- 25&#45;&gt;38 -->
<g id="edge64" class="edge">
<title>25&#45;&gt;38</title>
<path fill="none" stroke="grey" stroke-width="2" d="M1002.04,-215.88C1026.7,-206.18 1057.72,-193.98 1083.75,-183.74"/>
<polygon fill="grey" stroke="grey" stroke-width="2" points="1085.07,-186.99 1093.1,-180.07 1082.51,-180.47 1085.07,-186.99"/>
</g>
<!-- 26 -->
<g id="node27" class="node">
<title>26</title>
<path fill="none" stroke="#d88d56" stroke-width="2" stroke-dasharray="5,2" d="M1406,-180C1406,-180 1331,-180 1331,-180 1325,-180 1319,-174 1319,-168 1319,-168 1319,-156 1319,-156 1319,-150 1325,-144 1331,-144 1331,-144 1406,-144 1406,-144 1412,-144 1418,-150 1418,-156 1418,-156 1418,-168 1418,-168 1418,-174 1412,-180 1406,-180"/>
<text text-anchor="middle" x="1368.5" y="-165" font-family="sans" font-size="10.00">SPAdes_trimmed</text>
<text text-anchor="middle" x="1368.5" y="-154" font-family="sans" font-size="10.00">value_of_k: 31</text>
</g>
<!-- 26&#45;&gt;1 -->
<g id="edge20" class="edge">
<title>26&#45;&gt;1</title>
<path fill="none" stroke="grey" stroke-width="2" d="M1368.5,-143.7C1368.5,-135.98 1368.5,-126.71 1368.5,-118.11"/>
<polygon fill="grey" stroke="grey" stroke-width="2" points="1372,-118.1 1368.5,-108.1 1365,-118.1 1372,-118.1"/>
</g>
<!-- 27&#45;&gt;26 -->
<g id="edge52" class="edge">
<title>27&#45;&gt;26</title>
<path fill="none" stroke="grey" stroke-width="2" d="M1444.04,-215.88C1431.2,-206.89 1415.3,-195.76 1401.41,-186.03"/>
<polygon fill="grey" stroke="grey" stroke-width="2" points="1403.26,-183.06 1393.06,-180.19 1399.24,-188.79 1403.26,-183.06"/>
</g>
<!-- 34 -->
<g id="node35" class="node">
<title>34</title>
<path fill="none" stroke="#d88d56" stroke-width="2" stroke-dasharray="5,2" d="M1523,-180C1523,-180 1448,-180 1448,-180 1442,-180 1436,-174 1436,-168 1436,-168 1436,-156 1436,-156 1436,-150 1442,-144 1448,-144 1448,-144 1523,-144 1523,-144 1529,-144 1535,-150 1535,-156 1535,-156 1535,-168 1535,-168 1535,-174 1529,-180 1523,-180"/>
<text text-anchor="middle" x="1485.5" y="-165" font-family="sans" font-size="10.00">SPAdes_trimmed</text>
<text text-anchor="middle" x="1485.5" y="-154" font-family="sans" font-size="10.00">value_of_k: 55</text>
</g>
<!-- 27&#45;&gt;34 -->
<g id="edge60" class="edge">
<title>27&#45;&gt;34</title>
<path fill="none" stroke="grey" stroke-width="2" d="M1472.7,-215.7C1474.6,-207.9 1476.88,-198.51 1478.98,-189.83"/>
<polygon fill="grey" stroke="grey" stroke-width="2" points="1482.39,-190.65 1481.35,-180.1 1475.58,-189 1482.39,-190.65"/>
</g>
<!-- 39 -->
<g id="node40" class="node">
<title>39</title>
<path fill="none" stroke="#d88d56" stroke-width="2" stroke-dasharray="5,2" d="M1640,-180C1640,-180 1565,-180 1565,-180 1559,-180 1553,-174 1553,-168 1553,-168 1553,-156 1553,-156 1553,-150 1559,-144 1565,-144 1565,-144 1640,-144 1640,-144 1646,-144 1652,-150 1652,-156 1652,-156 1652,-168 1652,-168 1652,-174 1646,-180 1640,-180"/>
<text text-anchor="middle" x="1602.5" y="-165" font-family="sans" font-size="10.00">SPAdes_trimmed</text>
<text text-anchor="middle" x="1602.5" y="-154" font-family="sans" font-size="10.00">value_of_k: auto</text>
</g>
<!-- 27&#45;&gt;39 -->
<g id="edge65" class="edge">
<title>27&#45;&gt;39</title>
<path fill="none" stroke="grey" stroke-width="2" d="M1501.28,-215.88C1519.13,-206.55 1541.4,-194.92 1560.5,-184.94"/>
<polygon fill="grey" stroke="grey" stroke-width="2" points="1562.35,-187.92 1569.59,-180.19 1559.11,-181.72 1562.35,-187.92"/>
</g>
<!-- 28 -->
<g id="node29" class="node">
<title>28</title>
<path fill="none" stroke="#d88d56" stroke-width="2" stroke-dasharray="5,2" d="M1872,-180C1872,-180 1797,-180 1797,-180 1791,-180 1785,-174 1785,-168 1785,-168 1785,-156 1785,-156 1785,-150 1791,-144 1797,-144 1797,-144 1872,-144 1872,-144 1878,-144 1884,-150 1884,-156 1884,-156 1884,-168 1884,-168 1884,-174 1878,-180 1872,-180"/>
<text text-anchor="middle" x="1834.5" y="-165" font-family="sans" font-size="10.00">SPAdes_trimmed</text>
<text text-anchor="middle" x="1834.5" y="-154" font-family="sans" font-size="10.00">value_of_k: 31</text>
</g>
<!-- 28&#45;&gt;1 -->
<g id="edge21" class="edge">
<title>28&#45;&gt;1</title>
<path fill="none" stroke="grey" stroke-width="2" d="M1784.68,-147.1C1779.91,-145.97 1775.12,-144.91 1770.5,-144 1638.53,-117.89 1479.58,-101.23 1407.46,-94.46"/>
<polygon fill="grey" stroke="grey" stroke-width="2" points="1407.75,-90.97 1397.47,-93.53 1407.1,-97.94 1407.75,-90.97"/>
</g>
<!-- 29&#45;&gt;28 -->
<g id="edge54" class="edge">
<title>29&#45;&gt;28</title>
<path fill="none" stroke="grey" stroke-width="2" d="M1943.27,-215.88C1923.92,-206.47 1899.73,-194.71 1879.07,-184.67"/>
<polygon fill="grey" stroke="grey" stroke-width="2" points="1880.39,-181.41 1869.86,-180.19 1877.33,-187.71 1880.39,-181.41"/>
</g>
<!-- 35 -->
<g id="node36" class="node">
<title>35</title>
<path fill="none" stroke="#d88d56" stroke-width="2" stroke-dasharray="5,2" d="M1989,-180C1989,-180 1914,-180 1914,-180 1908,-180 1902,-174 1902,-168 1902,-168 1902,-156 1902,-156 1902,-150 1908,-144 1914,-144 1914,-144 1989,-144 1989,-144 1995,-144 2001,-150 2001,-156 2001,-156 2001,-168 2001,-168 2001,-174 1995,-180 1989,-180"/>
<text text-anchor="middle" x="1951.5" y="-165" font-family="sans" font-size="10.00">SPAdes_trimmed</text>
<text text-anchor="middle" x="1951.5" y="-154" font-family="sans" font-size="10.00">value_of_k: 55</text>
</g>
<!-- 29&#45;&gt;35 -->
<g id="edge61" class="edge">
<title>29&#45;&gt;35</title>
<path fill="none" stroke="grey" stroke-width="2" d="M1971.83,-215.7C1968.79,-207.81 1965.12,-198.3 1961.74,-189.55"/>
<polygon fill="grey" stroke="grey" stroke-width="2" points="1964.96,-188.17 1958.1,-180.1 1958.43,-190.69 1964.96,-188.17"/>
</g>
<!-- 40 -->
<g id="node41" class="node">
<title>40</title>
<path fill="none" stroke="#d88d56" stroke-width="2" stroke-dasharray="5,2" d="M2106,-180C2106,-180 2031,-180 2031,-180 2025,-180 2019,-174 2019,-168 2019,-168 2019,-156 2019,-156 2019,-150 2025,-144 2031,-144 2031,-144 2106,-144 2106,-144 2112,-144 2118,-150 2118,-156 2118,-156 2118,-168 2118,-168 2118,-174 2112,-180 2106,-180"/>
<text text-anchor="middle" x="2068.5" y="-165" font-family="sans" font-size="10.00">SPAdes_trimmed</text>
<text text-anchor="middle" x="2068.5" y="-154" font-family="sans" font-size="10.00">value_of_k: auto</text>
</g>
<!-- 29&#45;&gt;40 -->
<g id="edge66" class="edge">
<title>29&#45;&gt;40</title>
<path fill="none" stroke="grey" stroke-width="2" d="M2000.75,-215.7C2012.08,-206.88 2026.03,-196.03 2038.32,-186.47"/>
<polygon fill="grey" stroke="grey" stroke-width="2" points="2040.76,-189.01 2046.51,-180.1 2036.47,-183.48 2040.76,-189.01"/>
</g>
<!-- 30 -->
<g id="node31" class="node">
<title>30</title>
<path fill="none" stroke="#d88d56" stroke-width="2" stroke-dasharray="5,2" d="M2338,-180C2338,-180 2263,-180 2263,-180 2257,-180 2251,-174 2251,-168 2251,-168 2251,-156 2251,-156 2251,-150 2257,-144 2263,-144 2263,-144 2338,-144 2338,-144 2344,-144 2350,-150 2350,-156 2350,-156 2350,-168 2350,-168 2350,-174 2344,-180 2338,-180"/>
<text text-anchor="middle" x="2300.5" y="-165" font-family="sans" font-size="10.00">SPAdes_trimmed</text>
<text text-anchor="middle" x="2300.5" y="-154" font-family="sans" font-size="10.00">value_of_k: 31</text>
</g>
<!-- 30&#45;&gt;1 -->
<g id="edge22" class="edge">
<title>30&#45;&gt;1</title>
<path fill="none" stroke="grey" stroke-width="2" d="M2250.74,-146.76C2245.96,-145.7 2241.15,-144.75 2236.5,-144 1919.35,-92.72 1529.7,-90.07 1407.22,-90.64"/>
<polygon fill="grey" stroke="grey" stroke-width="2" points="1407.18,-87.14 1397.2,-90.69 1407.22,-94.14 1407.18,-87.14"/>
</g>
<!-- 31&#45;&gt;30 -->
<g id="edge56" class="edge">
<title>31&#45;&gt;30</title>
<path fill="none" stroke="grey" stroke-width="2" d="M2442.51,-215.88C2416.35,-206.14 2383.41,-193.87 2355.85,-183.61"/>
<polygon fill="grey" stroke="grey" stroke-width="2" points="2356.93,-180.28 2346.34,-180.07 2354.49,-186.84 2356.93,-180.28"/>
</g>
<!-- 36 -->
<g id="node37" class="node">
<title>36</title>
<path fill="none" stroke="#d88d56" stroke-width="2" stroke-dasharray="5,2" d="M2455,-180C2455,-180 2380,-180 2380,-180 2374,-180 2368,-174 2368,-168 2368,-168 2368,-156 2368,-156 2368,-150 2374,-144 2380,-144 2380,-144 2455,-144 2455,-144 2461,-144 2467,-150 2467,-156 2467,-156 2467,-168 2467,-168 2467,-174 2461,-180 2455,-180"/>
<text text-anchor="middle" x="2417.5" y="-165" font-family="sans" font-size="10.00">SPAdes_trimmed</text>
<text text-anchor="middle" x="2417.5" y="-154" font-family="sans" font-size="10.00">value_of_k: 55</text>
</g>
<!-- 31&#45;&gt;36 -->
<g id="edge62" class="edge">
<title>31&#45;&gt;36</title>
<path fill="none" stroke="grey" stroke-width="2" d="M2470.95,-215.7C2462.27,-207.14 2451.64,-196.66 2442.15,-187.3"/>
<polygon fill="grey" stroke="grey" stroke-width="2" points="2444.43,-184.63 2434.85,-180.1 2439.51,-189.62 2444.43,-184.63"/>
</g>
<!-- 41 -->
<g id="node42" class="node">
<title>41</title>
<path fill="none" stroke="#d88d56" stroke-width="2" stroke-dasharray="5,2" d="M2572,-180C2572,-180 2497,-180 2497,-180 2491,-180 2485,-174 2485,-168 2485,-168 2485,-156 2485,-156 2485,-150 2491,-144 2497,-144 2497,-144 2572,-144 2572,-144 2578,-144 2584,-150 2584,-156 2584,-156 2584,-168 2584,-168 2584,-174 2578,-180 2572,-180"/>
<text text-anchor="middle" x="2534.5" y="-165" font-family="sans" font-size="10.00">SPAdes_trimmed</text>
<text text-anchor="middle" x="2534.5" y="-154" font-family="sans" font-size="10.00">value_of_k: auto</text>
</g>
<!-- 31&#45;&gt;41 -->
<g id="edge67" class="edge">
<title>31&#45;&gt;41</title>
<path fill="none" stroke="grey" stroke-width="2" d="M2499.87,-215.7C2505.22,-207.56 2511.7,-197.69 2517.61,-188.7"/>
<polygon fill="grey" stroke="grey" stroke-width="2" points="2520.69,-190.38 2523.26,-180.1 2514.84,-186.54 2520.69,-190.38"/>
</g>
<!-- 32&#45;&gt;1 -->
<g id="edge23" class="edge">
<title>32&#45;&gt;1</title>
<path fill="none" stroke="grey" stroke-width="2" d="M603.01,-145.73C605.87,-145.08 608.71,-144.5 611.5,-144 883.16,-95.27 1217.14,-90.8 1329.52,-90.79"/>
<polygon fill="grey" stroke="grey" stroke-width="2" points="1329.69,-94.29 1339.7,-90.8 1329.7,-87.29 1329.69,-94.29"/>
</g>
<!-- 33&#45;&gt;1 -->
<g id="edge24" class="edge">
<title>33&#45;&gt;1</title>
<path fill="none" stroke="grey" stroke-width="2" d="M1069.08,-146.1C1071.92,-145.36 1074.74,-144.65 1077.5,-144 1166.93,-122.81 1273.54,-105.35 1329.6,-96.75"/>
<polygon fill="grey" stroke="grey" stroke-width="2" points="1330.43,-100.17 1339.79,-95.2 1329.38,-93.25 1330.43,-100.17"/>
</g>
<!-- 34&#45;&gt;1 -->
<g id="edge25" class="edge">
<title>34&#45;&gt;1</title>
<path fill="none" stroke="grey" stroke-width="2" d="M1456.88,-143.88C1441.58,-134.72 1422.56,-123.34 1406.08,-113.48"/>
<polygon fill="grey" stroke="grey" stroke-width="2" points="1407.61,-110.32 1397.23,-108.19 1404.02,-116.33 1407.61,-110.32"/>
</g>
<!-- 35&#45;&gt;1 -->
<g id="edge26" class="edge">
<title>35&#45;&gt;1</title>
<path fill="none" stroke="grey" stroke-width="2" d="M1901.97,-145.83C1899.12,-145.16 1896.28,-144.54 1893.5,-144 1713.79,-108.9 1494.67,-96.3 1407.23,-92.46"/>
<polygon fill="grey" stroke="grey" stroke-width="2" points="1407.37,-88.97 1397.23,-92.04 1407.07,-95.96 1407.37,-88.97"/>
</g>
<!-- 36&#45;&gt;1 -->
<g id="edge27" class="edge">
<title>36&#45;&gt;1</title>
<path fill="none" stroke="grey" stroke-width="2" d="M2367.69,-145.6C2364.93,-145 2362.19,-144.46 2359.5,-144 2171.49,-111.87 1567.39,-95.67 1407.58,-91.88"/>
<polygon fill="grey" stroke="grey" stroke-width="2" points="1407.36,-88.38 1397.28,-91.64 1407.2,-95.37 1407.36,-88.38"/>
</g>
<!-- 37&#45;&gt;1 -->
<g id="edge28" class="edge">
<title>37&#45;&gt;1</title>
<path fill="none" stroke="grey" stroke-width="2" d="M720.27,-146.87C725.06,-145.79 729.86,-144.8 734.5,-144 957.64,-105.35 1230.02,-94.61 1329.65,-91.87"/>
<polygon fill="grey" stroke="grey" stroke-width="2" points="1329.93,-95.36 1339.84,-91.6 1329.75,-88.37 1329.93,-95.36"/>
</g>
<!-- 38&#45;&gt;1 -->
<g id="edge29" class="edge">
<title>38&#45;&gt;1</title>
<path fill="none" stroke="grey" stroke-width="2" d="M1186.27,-145.98C1229.38,-132.97 1290.85,-114.43 1330.21,-102.55"/>
<polygon fill="grey" stroke="grey" stroke-width="2" points="1331.4,-105.85 1339.97,-99.61 1329.38,-99.15 1331.4,-105.85"/>
</g>
<!-- 39&#45;&gt;1 -->
<g id="edge30" class="edge">
<title>39&#45;&gt;1</title>
<path fill="none" stroke="grey" stroke-width="2" d="M1552.87,-146.15C1509.22,-133.09 1446.57,-114.36 1406.72,-102.43"/>
<polygon fill="grey" stroke="grey" stroke-width="2" points="1407.68,-99.07 1397.1,-99.55 1405.68,-105.77 1407.68,-99.07"/>
</g>
<!-- 40&#45;&gt;1 -->
<g id="edge31" class="edge">
<title>40&#45;&gt;1</title>
<path fill="none" stroke="grey" stroke-width="2" d="M2018.99,-145.77C2016.13,-145.12 2013.29,-144.52 2010.5,-144 1784.8,-102.06 1508.28,-93.3 1407.55,-91.48"/>
<polygon fill="grey" stroke="grey" stroke-width="2" points="1407.31,-87.97 1397.25,-91.3 1407.19,-94.97 1407.31,-87.97"/>
</g>
<!-- 41&#45;&gt;1 -->
<g id="edge32" class="edge">
<title>41&#45;&gt;1</title>
<path fill="none" stroke="grey" stroke-width="2" d="M2484.69,-145.59C2481.93,-144.99 2479.19,-144.45 2476.5,-144 2264.2,-108.33 1577.66,-94.54 1407.12,-91.62"/>
<polygon fill="grey" stroke="grey" stroke-width="2" points="1407.15,-88.12 1397.09,-91.45 1407.03,-95.12 1407.15,-88.12"/>
</g>
<!-- 42 -->
<g id="node43" class="node">
<title>42</title>
<path fill="none" stroke="#bed856" stroke-width="2" d="M2085,-108C2085,-108 2032,-108 2032,-108 2026,-108 2020,-102 2020,-96 2020,-96 2020,-84 2020,-84 2020,-78 2026,-72 2032,-72 2032,-72 2085,-72 2085,-72 2091,-72 2097,-78 2097,-84 2097,-84 2097,-96 2097,-96 2097,-102 2091,-108 2085,-108"/>
<text text-anchor="middle" x="2058.5" y="-87.5" font-family="sans" font-size="10.00">gfa_to_fasta</text>
</g>
<!-- 42&#45;&gt;0 -->
<g id="edge2" class="edge">
<title>42&#45;&gt;0</title>
<path fill="none" stroke="grey" stroke-width="2" d="M2019.91,-84.83C1904.18,-72.33 1561.07,-35.27 1447.48,-23"/>
<polygon fill="grey" stroke="grey" stroke-width="2" points="1447.85,-19.51 1437.53,-21.92 1447.1,-26.47 1447.85,-19.51"/>
</g>
<!-- 43 -->
<g id="node44" class="node">
<title>43</title>
<path fill="none" stroke="#d8bc56" stroke-width="2" d="M2712.5,-180C2712.5,-180 2614.5,-180 2614.5,-180 2608.5,-180 2602.5,-174 2602.5,-168 2602.5,-168 2602.5,-156 2602.5,-156 2602.5,-150 2608.5,-144 2614.5,-144 2614.5,-144 2712.5,-144 2712.5,-144 2718.5,-144 2724.5,-150 2724.5,-156 2724.5,-156 2724.5,-168 2724.5,-168 2724.5,-174 2718.5,-180 2712.5,-180"/>
<text text-anchor="middle" x="2663.5" y="-159.5" font-family="sans" font-size="10.00">assemble_long_reads</text>
</g>
<!-- 43&#45;&gt;42 -->
<g id="edge68" class="edge">
<title>43&#45;&gt;42</title>
<path fill="none" stroke="grey" stroke-width="2" d="M2602.14,-145.59C2599.23,-145.02 2596.34,-144.48 2593.5,-144 2415.68,-113.75 2201.45,-98.97 2107.11,-93.54"/>
<polygon fill="grey" stroke="grey" stroke-width="2" points="2107.2,-90.04 2097.02,-92.97 2106.81,-97.03 2107.2,-90.04"/>
</g>
<!-- 44 -->
<g id="node45" class="node">
<title>44</title>
<path fill="none" stroke="#56d8c1" stroke-width="2" d="M2758,-252C2758,-252 2659,-252 2659,-252 2653,-252 2647,-246 2647,-240 2647,-240 2647,-228 2647,-228 2647,-222 2653,-216 2659,-216 2659,-216 2758,-216 2758,-216 2764,-216 2770,-222 2770,-228 2770,-228 2770,-240 2770,-240 2770,-246 2764,-252 2758,-252"/>
<text text-anchor="middle" x="2708.5" y="-231.5" font-family="sans" font-size="10.00">long_read_preprocess</text>
</g>
<!-- 44&#45;&gt;43 -->
<g id="edge69" class="edge">
<title>44&#45;&gt;43</title>
<path fill="none" stroke="grey" stroke-width="2" d="M2697.38,-215.7C2692.14,-207.56 2685.8,-197.69 2680.02,-188.7"/>
<polygon fill="grey" stroke="grey" stroke-width="2" points="2682.85,-186.62 2674.5,-180.1 2676.96,-190.41 2682.85,-186.62"/>
</g>
<!-- 45 -->
<g id="node46" class="node">
<title>45</title>
<path fill="none" stroke="#d85656" stroke-width="2" stroke-dasharray="5,2" d="M2729,-324C2729,-324 2598,-324 2598,-324 2592,-324 2586,-318 2586,-312 2586,-312 2586,-300 2586,-300 2586,-294 2592,-288 2598,-288 2598,-288 2729,-288 2729,-288 2735,-288 2741,-294 2741,-300 2741,-300 2741,-312 2741,-312 2741,-318 2735,-324 2729,-324"/>
<text text-anchor="middle" x="2663.5" y="-309" font-family="sans" font-size="10.00">download_sr_single</text>
<text text-anchor="middle" x="2663.5" y="-298" font-family="sans" font-size="10.00">long_barcodes: SRR8902592</text>
</g>
<!-- 45&#45;&gt;43 -->
<g id="edge70" class="edge">
<title>45&#45;&gt;43</title>
<path fill="none" stroke="grey" stroke-width="2" d="M2652.87,-287.56C2647.4,-277.54 2641.3,-264.51 2638.5,-252 2635,-236.39 2635,-231.61 2638.5,-216 2640.51,-207.01 2644.23,-197.75 2648.2,-189.53"/>
<polygon fill="grey" stroke="grey" stroke-width="2" points="2651.41,-190.94 2652.87,-180.44 2645.18,-187.73 2651.41,-190.94"/>
</g>
<!-- 45&#45;&gt;44 -->
<g id="edge71" class="edge">
<title>45&#45;&gt;44</title>
<path fill="none" stroke="grey" stroke-width="2" d="M2674.62,-287.7C2679.86,-279.56 2686.2,-269.69 2691.98,-260.7"/>
<polygon fill="grey" stroke="grey" stroke-width="2" points="2695.04,-262.41 2697.5,-252.1 2689.15,-258.62 2695.04,-262.41"/>
</g>
</g>
</svg>
