<?xml version="1.0" encoding="UTF-8" standalone="no"?>
<!DOCTYPE svg PUBLIC "-//W3C//DTD SVG 1.1//EN"
 "http://www.w3.org/Graphics/SVG/1.1/DTD/svg11.dtd">
<!-- Generated by graphviz version 2.49.0 (20210829.0051)
 -->
<!-- Title: snakemake_dag Pages: 1 -->
<svg width="282pt" height="121pt"
 viewBox="0.00 0.00 282.00 121.00" xmlns="http://www.w3.org/2000/svg" xmlns:xlink="http://www.w3.org/1999/xlink">
<g id="graph0" class="graph" transform="scale(1 1) rotate(0) translate(4 117)">
<title>snakemake_dag</title>
<polygon fill="white" stroke="transparent" points="-4,4 -4,-117 278,-117 278,4 -4,4"/>
<!-- 0 -->
<g id="node1" class="node">
<title>0</title>
<path fill="none" stroke="#59d856" stroke-width="2" d="M152,-36C152,-36 122,-36 122,-36 116,-36 110,-30 110,-24 110,-24 110,-12 110,-12 110,-6 116,0 122,0 122,0 152,0 152,0 158,0 164,-6 164,-12 164,-12 164,-24 164,-24 164,-30 158,-36 152,-36"/>
<text text-anchor="middle" x="137" y="-15.5" font-family="sans" font-size="10.00">all</text>
</g>
<!-- 1 -->
<g id="node2" class="node">
<title>1</title>
<path fill="none" stroke="#d85656" stroke-width="2" d="M116,-113C116,-113 12,-113 12,-113 6,-113 0,-107 0,-101 0,-101 0,-84 0,-84 0,-78 6,-72 12,-72 12,-72 116,-72 116,-72 122,-72 128,-78 128,-84 128,-84 128,-101 128,-101 128,-107 122,-113 116,-113"/>
<text text-anchor="middle" x="64" y="-101" font-family="sans" font-size="10.00">download_sr</text>
<text text-anchor="middle" x="64" y="-90" font-family="sans" font-size="10.00">NR: 1</text>
<text text-anchor="middle" x="64" y="-79" font-family="sans" font-size="10.00">barcodes: SRR1965341</text>
</g>
<!-- 1&#45;&gt;0 -->
<g id="edge1" class="edge">
<title>1&#45;&gt;0</title>
<path fill="none" stroke="grey" stroke-width="2" d="M83.95,-71.69C92.74,-62.96 103.16,-52.61 112.43,-43.4"/>
<polygon fill="grey" stroke="grey" stroke-width="2" points="114.93,-45.85 119.56,-36.32 110,-40.88 114.93,-45.85"/>
</g>
<!-- 2 -->
<g id="node3" class="node">
<title>2</title>
<path fill="none" stroke="#d85656" stroke-width="2" d="M262,-113C262,-113 158,-113 158,-113 152,-113 146,-107 146,-101 146,-101 146,-84 146,-84 146,-78 152,-72 158,-72 158,-72 262,-72 262,-72 268,-72 274,-78 274,-84 274,-84 274,-101 274,-101 274,-107 268,-113 262,-113"/>
<text text-anchor="middle" x="210" y="-101" font-family="sans" font-size="10.00">download_sr</text>
<text text-anchor="middle" x="210" y="-90" font-family="sans" font-size="10.00">NR: 2</text>
<text text-anchor="middle" x="210" y="-79" font-family="sans" font-size="10.00">barcodes: SRR1965341</text>
</g>
<!-- 2&#45;&gt;0 -->
<g id="edge2" class="edge">
<title>2&#45;&gt;0</title>
<path fill="none" stroke="grey" stroke-width="2" d="M190.05,-71.69C181.26,-62.96 170.84,-52.61 161.57,-43.4"/>
<polygon fill="grey" stroke="grey" stroke-width="2" points="164,-40.88 154.44,-36.32 159.07,-45.85 164,-40.88"/>
</g>
</g>
</svg>
